G04 Layer_Color=15132400*
%FSLAX24Y24*%
%MOIN*%
G70*
G01*
G75*
%ADD56C,0.0157*%
%ADD57C,0.0098*%
%ADD58C,0.0100*%
%ADD59C,0.0059*%
%ADD60C,0.0236*%
%ADD61C,0.0200*%
%ADD62C,0.0079*%
%ADD63C,0.0080*%
%ADD64C,0.0197*%
%ADD65C,0.0039*%
G36*
X38818Y20660D02*
Y20628D01*
X38612D01*
Y20585D01*
X38576D01*
Y20628D01*
X38500D01*
Y20667D01*
X38576D01*
Y20805D01*
X38612D01*
X38818Y20660D01*
D02*
G37*
G36*
X36039Y22914D02*
X36040Y22913D01*
X36041Y22911D01*
X36042Y22909D01*
X36043Y22906D01*
X36045Y22903D01*
X36049Y22895D01*
X36055Y22886D01*
X36061Y22876D01*
X36068Y22867D01*
X36076Y22857D01*
X36077Y22857D01*
X36077Y22856D01*
X36078Y22855D01*
X36080Y22853D01*
X36084Y22849D01*
X36090Y22844D01*
X36096Y22838D01*
X36104Y22833D01*
X36111Y22827D01*
X36119Y22823D01*
Y22798D01*
X35800D01*
Y22836D01*
X36048D01*
X36048Y22837D01*
X36046Y22839D01*
X36043Y22842D01*
X36040Y22846D01*
X36036Y22852D01*
X36031Y22858D01*
X36026Y22865D01*
X36021Y22874D01*
Y22874D01*
X36021Y22874D01*
X36020Y22876D01*
X36019Y22877D01*
X36017Y22882D01*
X36014Y22887D01*
X36011Y22893D01*
X36007Y22900D01*
X36004Y22907D01*
X36001Y22914D01*
X36039D01*
Y22914D01*
D02*
G37*
G36*
X35805Y22062D02*
X35809Y22062D01*
X35814Y22061D01*
X35818Y22060D01*
X35823Y22058D01*
X35824D01*
X35824Y22058D01*
X35825Y22057D01*
X35827Y22057D01*
X35831Y22055D01*
X35836Y22052D01*
X35843Y22048D01*
X35850Y22044D01*
X35857Y22039D01*
X35865Y22033D01*
X35866Y22032D01*
X35866Y22032D01*
X35867Y22031D01*
X35869Y22029D01*
X35874Y22025D01*
X35879Y22019D01*
X35886Y22012D01*
X35895Y22004D01*
X35904Y21993D01*
X35914Y21981D01*
X35914Y21981D01*
X35916Y21979D01*
X35918Y21976D01*
X35921Y21973D01*
X35924Y21969D01*
X35928Y21964D01*
X35933Y21959D01*
X35938Y21953D01*
X35949Y21942D01*
X35960Y21930D01*
X35966Y21925D01*
X35971Y21920D01*
X35976Y21915D01*
X35981Y21912D01*
X35981Y21911D01*
X35982Y21911D01*
X35983Y21910D01*
X35985Y21909D01*
X35988Y21908D01*
X35990Y21906D01*
X35996Y21902D01*
X36003Y21899D01*
X36011Y21896D01*
X36020Y21894D01*
X36024Y21893D01*
X36030D01*
X36032Y21893D01*
X36036Y21894D01*
X36042Y21895D01*
X36048Y21897D01*
X36054Y21900D01*
X36061Y21904D01*
X36067Y21910D01*
X36068Y21911D01*
X36069Y21913D01*
X36072Y21917D01*
X36075Y21922D01*
X36078Y21928D01*
X36080Y21935D01*
X36082Y21944D01*
X36083Y21953D01*
Y21954D01*
Y21955D01*
Y21956D01*
X36083Y21958D01*
Y21960D01*
X36082Y21963D01*
X36081Y21969D01*
X36079Y21976D01*
X36076Y21984D01*
X36072Y21992D01*
X36066Y21998D01*
X36065Y21999D01*
X36063Y22001D01*
X36059Y22004D01*
X36054Y22007D01*
X36047Y22010D01*
X36039Y22013D01*
X36030Y22015D01*
X36019Y22015D01*
X36023Y22055D01*
X36024D01*
X36026Y22055D01*
X36028D01*
X36031Y22055D01*
X36035Y22054D01*
X36039Y22053D01*
X36044Y22052D01*
X36049Y22050D01*
X36060Y22046D01*
X36066Y22044D01*
X36071Y22041D01*
X36077Y22038D01*
X36082Y22034D01*
X36087Y22030D01*
X36092Y22025D01*
X36092Y22024D01*
X36092Y22024D01*
X36094Y22022D01*
X36095Y22020D01*
X36097Y22017D01*
X36099Y22014D01*
X36101Y22010D01*
X36104Y22005D01*
X36106Y22000D01*
X36108Y21995D01*
X36110Y21989D01*
X36111Y21983D01*
X36113Y21976D01*
X36114Y21969D01*
X36115Y21961D01*
X36115Y21953D01*
Y21952D01*
Y21950D01*
Y21948D01*
X36115Y21945D01*
X36114Y21941D01*
X36114Y21936D01*
X36113Y21931D01*
X36112Y21926D01*
X36109Y21915D01*
X36107Y21909D01*
X36104Y21903D01*
X36102Y21896D01*
X36098Y21891D01*
X36094Y21885D01*
X36090Y21880D01*
X36089Y21879D01*
X36088Y21879D01*
X36087Y21877D01*
X36085Y21876D01*
X36083Y21874D01*
X36080Y21871D01*
X36076Y21869D01*
X36072Y21866D01*
X36068Y21864D01*
X36063Y21862D01*
X36052Y21857D01*
X36047Y21855D01*
X36040Y21854D01*
X36034Y21853D01*
X36027Y21853D01*
X36023D01*
X36020Y21853D01*
X36015Y21854D01*
X36009Y21855D01*
X36003Y21856D01*
X35996Y21858D01*
X35989Y21861D01*
X35988Y21861D01*
X35986Y21863D01*
X35982Y21864D01*
X35978Y21867D01*
X35972Y21871D01*
X35965Y21875D01*
X35958Y21881D01*
X35950Y21887D01*
X35950D01*
X35950Y21888D01*
X35948Y21889D01*
X35947Y21890D01*
X35945Y21892D01*
X35942Y21895D01*
X35939Y21898D01*
X35936Y21901D01*
X35932Y21905D01*
X35928Y21910D01*
X35923Y21915D01*
X35918Y21920D01*
X35913Y21926D01*
X35907Y21932D01*
X35901Y21940D01*
X35895Y21947D01*
X35894Y21948D01*
X35893Y21949D01*
X35892Y21950D01*
X35890Y21953D01*
X35888Y21955D01*
X35885Y21959D01*
X35878Y21966D01*
X35872Y21974D01*
X35865Y21981D01*
X35862Y21984D01*
X35859Y21987D01*
X35857Y21990D01*
X35855Y21992D01*
X35854Y21993D01*
X35853Y21994D01*
X35851Y21995D01*
X35848Y21998D01*
X35845Y22000D01*
X35841Y22003D01*
X35834Y22009D01*
Y21853D01*
X35796D01*
Y22063D01*
X35801D01*
X35805Y22062D01*
D02*
G37*
G36*
X35890Y21106D02*
X35889D01*
X35888Y21106D01*
X35886Y21105D01*
X35884Y21105D01*
X35881Y21104D01*
X35878Y21103D01*
X35871Y21101D01*
X35863Y21098D01*
X35855Y21094D01*
X35847Y21089D01*
X35844Y21087D01*
X35841Y21084D01*
X35841Y21083D01*
X35839Y21081D01*
X35837Y21078D01*
X35834Y21073D01*
X35831Y21067D01*
X35829Y21060D01*
X35828Y21053D01*
X35827Y21044D01*
Y21044D01*
Y21043D01*
Y21041D01*
X35827Y21040D01*
Y21037D01*
X35828Y21034D01*
X35829Y21028D01*
X35831Y21021D01*
X35835Y21013D01*
X35840Y21005D01*
X35843Y21001D01*
X35846Y20998D01*
X35846Y20997D01*
X35847Y20997D01*
X35848Y20996D01*
X35849Y20995D01*
X35853Y20991D01*
X35859Y20988D01*
X35866Y20985D01*
X35874Y20982D01*
X35883Y20980D01*
X35888Y20979D01*
X35895D01*
X35897Y20979D01*
X35900D01*
X35902Y20980D01*
X35909Y20981D01*
X35916Y20983D01*
X35923Y20986D01*
X35930Y20991D01*
X35934Y20993D01*
X35937Y20996D01*
X35938Y20997D01*
X35940Y21000D01*
X35942Y21003D01*
X35946Y21008D01*
X35949Y21015D01*
X35952Y21022D01*
X35954Y21031D01*
X35954Y21041D01*
Y21041D01*
Y21043D01*
Y21046D01*
X35954Y21048D01*
X35954Y21053D01*
X35953Y21058D01*
X35952Y21063D01*
X35950Y21069D01*
X35985Y21064D01*
Y21063D01*
X35984Y21062D01*
X35984Y21060D01*
Y21058D01*
Y21058D01*
Y21057D01*
Y21056D01*
X35984Y21054D01*
X35985Y21049D01*
X35985Y21043D01*
X35987Y21036D01*
X35989Y21029D01*
X35992Y21021D01*
X35997Y21013D01*
Y21013D01*
X35997Y21013D01*
X35999Y21010D01*
X36002Y21007D01*
X36007Y21003D01*
X36012Y20999D01*
X36019Y20996D01*
X36028Y20994D01*
X36032Y20994D01*
X36037Y20993D01*
X36038D01*
X36041Y20994D01*
X36044Y20994D01*
X36049Y20995D01*
X36055Y20997D01*
X36061Y20999D01*
X36067Y21003D01*
X36072Y21008D01*
X36073Y21009D01*
X36075Y21010D01*
X36077Y21014D01*
X36080Y21018D01*
X36082Y21023D01*
X36085Y21030D01*
X36086Y21037D01*
X36087Y21045D01*
Y21046D01*
Y21046D01*
Y21047D01*
X36086Y21049D01*
X36086Y21053D01*
X36085Y21059D01*
X36083Y21065D01*
X36080Y21071D01*
X36077Y21077D01*
X36072Y21084D01*
X36071Y21084D01*
X36070Y21086D01*
X36066Y21089D01*
X36061Y21091D01*
X36056Y21095D01*
X36048Y21098D01*
X36040Y21101D01*
X36030Y21103D01*
X36037Y21141D01*
X36037D01*
X36038Y21141D01*
X36040Y21141D01*
X36043Y21140D01*
X36046Y21139D01*
X36050Y21138D01*
X36054Y21136D01*
X36059Y21135D01*
X36068Y21130D01*
X36078Y21125D01*
X36088Y21118D01*
X36093Y21114D01*
X36097Y21109D01*
X36097Y21109D01*
X36098Y21108D01*
X36099Y21107D01*
X36100Y21105D01*
X36102Y21102D01*
X36104Y21099D01*
X36106Y21096D01*
X36108Y21092D01*
X36110Y21087D01*
X36112Y21083D01*
X36116Y21072D01*
X36118Y21060D01*
X36118Y21053D01*
X36119Y21046D01*
Y21046D01*
Y21045D01*
Y21044D01*
Y21041D01*
X36118Y21039D01*
Y21037D01*
X36118Y21030D01*
X36116Y21023D01*
X36114Y21015D01*
X36111Y21007D01*
X36108Y20998D01*
Y20998D01*
X36107Y20998D01*
X36106Y20996D01*
X36106Y20995D01*
X36103Y20991D01*
X36100Y20986D01*
X36095Y20981D01*
X36090Y20975D01*
X36084Y20970D01*
X36077Y20965D01*
X36077D01*
X36076Y20965D01*
X36074Y20963D01*
X36070Y20961D01*
X36065Y20959D01*
X36059Y20957D01*
X36052Y20955D01*
X36044Y20953D01*
X36036Y20953D01*
X36033D01*
X36029Y20953D01*
X36024Y20954D01*
X36018Y20956D01*
X36012Y20958D01*
X36005Y20961D01*
X35999Y20964D01*
X35998Y20965D01*
X35996Y20966D01*
X35993Y20969D01*
X35989Y20972D01*
X35985Y20977D01*
X35980Y20983D01*
X35976Y20989D01*
X35972Y20997D01*
Y20996D01*
X35971Y20996D01*
X35971Y20994D01*
X35971Y20992D01*
X35970Y20990D01*
X35968Y20987D01*
X35966Y20981D01*
X35962Y20974D01*
X35957Y20967D01*
X35952Y20959D01*
X35945Y20953D01*
X35944D01*
X35944Y20952D01*
X35942Y20951D01*
X35941Y20951D01*
X35939Y20949D01*
X35937Y20948D01*
X35931Y20945D01*
X35923Y20942D01*
X35914Y20940D01*
X35905Y20938D01*
X35894Y20937D01*
X35890D01*
X35887Y20938D01*
X35883Y20938D01*
X35879Y20939D01*
X35874Y20940D01*
X35869Y20941D01*
X35864Y20943D01*
X35858Y20945D01*
X35852Y20947D01*
X35846Y20950D01*
X35840Y20954D01*
X35834Y20958D01*
X35828Y20963D01*
X35823Y20968D01*
X35823Y20968D01*
X35822Y20969D01*
X35821Y20971D01*
X35819Y20973D01*
X35817Y20976D01*
X35814Y20980D01*
X35812Y20984D01*
X35809Y20989D01*
X35806Y20994D01*
X35804Y21000D01*
X35801Y21006D01*
X35799Y21013D01*
X35797Y21020D01*
X35796Y21028D01*
X35795Y21036D01*
X35795Y21044D01*
Y21045D01*
Y21046D01*
Y21048D01*
X35795Y21051D01*
X35795Y21055D01*
X35796Y21059D01*
X35797Y21064D01*
X35798Y21069D01*
X35801Y21079D01*
X35803Y21085D01*
X35805Y21091D01*
X35808Y21097D01*
X35811Y21103D01*
X35815Y21108D01*
X35819Y21114D01*
X35820Y21114D01*
X35821Y21115D01*
X35822Y21116D01*
X35824Y21118D01*
X35826Y21120D01*
X35829Y21123D01*
X35833Y21125D01*
X35837Y21128D01*
X35841Y21131D01*
X35846Y21134D01*
X35852Y21136D01*
X35857Y21139D01*
X35864Y21141D01*
X35870Y21143D01*
X35877Y21144D01*
X35884Y21145D01*
X35890Y21106D01*
D02*
G37*
G36*
X26923Y26226D02*
X26423D01*
X26673Y26726D01*
X26923Y26226D01*
D02*
G37*
G36*
Y30360D02*
X26423D01*
X26673Y30860D01*
X26923Y30360D01*
D02*
G37*
G36*
Y22880D02*
X26423D01*
X26673Y23380D01*
X26923Y22880D01*
D02*
G37*
%LPC*%
G36*
X38612Y20767D02*
Y20667D01*
X38755D01*
X38612Y20767D01*
D02*
G37*
%LPD*%
D56*
X24055Y30689D02*
G03*
X24055Y30689I-79J0D01*
G01*
Y33150D02*
G03*
X24055Y33150I-79J0D01*
G01*
D57*
X23120Y31104D02*
G03*
X23120Y31104I-49J0D01*
G01*
Y33565D02*
G03*
X23120Y33565I-49J0D01*
G01*
X34026Y21890D02*
G03*
X34026Y21890I-49J0D01*
G01*
Y19823D02*
G03*
X34026Y19823I-49J0D01*
G01*
X23947Y21673D02*
G03*
X23947Y21673I-49J0D01*
G01*
X33939Y25039D02*
G03*
X33939Y25039I-49J0D01*
G01*
X34663Y25650D02*
G03*
X34663Y25650I-49J0D01*
G01*
X38171Y37244D02*
G03*
X38171Y37244I-49J0D01*
G01*
X39026Y42146D02*
G03*
X39026Y42146I-49J0D01*
G01*
X22943Y19900D02*
G03*
X22943Y19900I-49J0D01*
G01*
X34539Y11409D02*
Y14409D01*
X35539D01*
Y11409D02*
Y14409D01*
X34539Y11409D02*
X35539D01*
D58*
X36733Y12156D02*
G03*
X38267Y12156I767J443D01*
G01*
X38270Y13049D02*
G03*
X36735Y13049I-767J-443D01*
G01*
X36733Y14518D02*
G03*
X38267Y14518I767J443D01*
G01*
X38270Y15411D02*
G03*
X36735Y15411I-767J-443D01*
G01*
X26373Y27176D02*
G03*
X26373Y27176I-50J0D01*
G01*
Y23830D02*
G03*
X26373Y23830I-50J0D01*
G01*
X35187Y15768D02*
G03*
X35187Y17303I-443J767D01*
G01*
X34293Y17305D02*
G03*
X34293Y15771I443J-767D01*
G01*
X26373Y31310D02*
G03*
X26373Y31310I-50J0D01*
G01*
X36200Y12348D02*
Y12848D01*
X35950Y12598D02*
X36450D01*
X36200Y14711D02*
Y15211D01*
X35950Y14961D02*
X36450D01*
X37500Y29232D02*
Y34350D01*
X33957Y29232D02*
X37500D01*
X33957D02*
Y34350D01*
X35335Y35728D01*
X36122D02*
X37500Y34350D01*
X35335Y35728D02*
X36122D01*
X39052Y23462D02*
Y25955D01*
X35752Y23462D02*
Y25955D01*
Y23462D02*
X39052D01*
X35752Y25955D02*
X39052D01*
Y26513D02*
Y29006D01*
X35752Y26513D02*
Y29006D01*
Y26513D02*
X39052D01*
X35752Y29006D02*
X39052D01*
X36337Y45533D02*
X36477D01*
X28490D02*
X28630D01*
X28640Y45522D02*
Y48121D01*
Y45522D02*
X36327D01*
X28490Y37698D02*
Y45533D01*
X36477Y37698D02*
Y45533D01*
X28490Y37698D02*
X36477D01*
X28640Y48121D02*
X30224D01*
X36327Y45522D02*
Y48121D01*
X30224D02*
X36327D01*
X34494Y15235D02*
X34994D01*
X34744Y14985D02*
Y15485D01*
X28389Y36625D02*
Y48121D01*
X27146Y36625D02*
X28389D01*
X22439Y48121D02*
X28389D01*
X22439Y36625D02*
Y48121D01*
Y36625D02*
X27264D01*
X36654Y42807D02*
X36941Y42520D01*
X36939Y46260D02*
X39075D01*
X36654Y45974D02*
X36939Y46260D01*
X36654Y42807D02*
Y45972D01*
X36941Y42520D02*
X39075D01*
Y46260D01*
X27762Y47844D02*
X27362D01*
Y47544D01*
X27562D01*
X27362D01*
Y47244D01*
X27962D02*
X28162D01*
X28062D01*
Y47844D01*
X27962Y47744D01*
X19102Y45101D02*
X19502D01*
Y45701D01*
X19102D01*
X19502Y45401D02*
X19302D01*
X18803Y45301D02*
X18603D01*
X18503Y45401D01*
Y45701D01*
X18803D01*
X18903Y45601D01*
X18803Y45501D01*
X18503D01*
X18303Y45301D02*
Y45701D01*
Y45501D01*
X18203Y45401D01*
X18103Y45301D01*
X18003D01*
X17603Y45201D02*
Y45301D01*
X17703D01*
X17503D01*
X17603D01*
Y45601D01*
X17503Y45701D01*
X17203Y45101D02*
Y45701D01*
Y45401D01*
X17103Y45301D01*
X16903D01*
X16803Y45401D01*
Y45701D01*
X15604Y45201D02*
X15704Y45101D01*
X15904D01*
X16003Y45201D01*
Y45601D01*
X15904Y45701D01*
X15704D01*
X15604Y45601D01*
Y45401D01*
X15804D01*
X15404Y45301D02*
Y45701D01*
Y45501D01*
X15304Y45401D01*
X15204Y45301D01*
X15104D01*
X14704Y45701D02*
X14504D01*
X14404Y45601D01*
Y45401D01*
X14504Y45301D01*
X14704D01*
X14804Y45401D01*
Y45601D01*
X14704Y45701D01*
X14204Y45301D02*
Y45601D01*
X14104Y45701D01*
X13804D01*
Y45301D01*
X13604Y45701D02*
Y45301D01*
X13304D01*
X13204Y45401D01*
Y45701D01*
X12605Y45101D02*
Y45701D01*
X12904D01*
X13004Y45601D01*
Y45401D01*
X12904Y45301D01*
X12605D01*
X11152Y42201D02*
X11752D01*
X11152Y41801D01*
X11752D01*
X11152Y41301D02*
Y41501D01*
X11252Y41601D01*
X11452D01*
X11552Y41501D01*
Y41301D01*
X11452Y41202D01*
X11352D01*
Y41601D01*
X11552Y41002D02*
X11252D01*
X11152Y40902D01*
Y40602D01*
X11552D01*
X11652Y40302D02*
X11552D01*
Y40402D01*
Y40202D01*
Y40302D01*
X11252D01*
X11152Y40202D01*
X11552Y39902D02*
X11152D01*
X11352D01*
X11452Y39802D01*
X11552Y39702D01*
Y39602D01*
Y39202D02*
Y39002D01*
X11452Y38902D01*
X11152D01*
Y39202D01*
X11252Y39302D01*
X11352Y39202D01*
Y38902D01*
X11152Y38702D02*
Y38502D01*
Y38602D01*
X11752D01*
Y38702D01*
X21852Y40201D02*
Y40801D01*
Y40501D01*
X21452D01*
Y40201D01*
Y40801D01*
X21153D02*
X20953D01*
X20853Y40701D01*
Y40501D01*
X20953Y40401D01*
X21153D01*
X21253Y40501D01*
Y40701D01*
X21153Y40801D01*
X20553Y40301D02*
Y40401D01*
X20653D01*
X20453D01*
X20553D01*
Y40701D01*
X20453Y40801D01*
X19102Y33290D02*
X19502D01*
Y33890D01*
X19102D01*
X19502Y33590D02*
X19302D01*
X18803Y33490D02*
X18603D01*
X18503Y33590D01*
Y33890D01*
X18803D01*
X18903Y33790D01*
X18803Y33690D01*
X18503D01*
X18303Y33490D02*
Y33890D01*
Y33690D01*
X18203Y33590D01*
X18103Y33490D01*
X18003D01*
X17603Y33390D02*
Y33490D01*
X17703D01*
X17503D01*
X17603D01*
Y33790D01*
X17503Y33890D01*
X17203Y33290D02*
Y33890D01*
Y33590D01*
X17103Y33490D01*
X16903D01*
X16803Y33590D01*
Y33890D01*
X15604Y33390D02*
X15704Y33290D01*
X15904D01*
X16003Y33390D01*
Y33790D01*
X15904Y33890D01*
X15704D01*
X15604Y33790D01*
Y33590D01*
X15804D01*
X15404Y33490D02*
Y33890D01*
Y33690D01*
X15304Y33590D01*
X15204Y33490D01*
X15104D01*
X14704Y33890D02*
X14504D01*
X14404Y33790D01*
Y33590D01*
X14504Y33490D01*
X14704D01*
X14804Y33590D01*
Y33790D01*
X14704Y33890D01*
X14204Y33490D02*
Y33790D01*
X14104Y33890D01*
X13804D01*
Y33490D01*
X13604Y33890D02*
Y33490D01*
X13304D01*
X13204Y33590D01*
Y33890D01*
X12605Y33290D02*
Y33890D01*
X12904D01*
X13004Y33790D01*
Y33590D01*
X12904Y33490D01*
X12605D01*
X11152Y30390D02*
X11752D01*
X11152Y29990D01*
X11752D01*
X11152Y29490D02*
Y29690D01*
X11252Y29790D01*
X11452D01*
X11552Y29690D01*
Y29490D01*
X11452Y29390D01*
X11352D01*
Y29790D01*
X11552Y29191D02*
X11252D01*
X11152Y29091D01*
Y28791D01*
X11552D01*
X11652Y28491D02*
X11552D01*
Y28591D01*
Y28391D01*
Y28491D01*
X11252D01*
X11152Y28391D01*
X11552Y28091D02*
X11152D01*
X11352D01*
X11452Y27991D01*
X11552Y27891D01*
Y27791D01*
Y27391D02*
Y27191D01*
X11452Y27091D01*
X11152D01*
Y27391D01*
X11252Y27491D01*
X11352Y27391D01*
Y27091D01*
X11152Y26891D02*
Y26691D01*
Y26791D01*
X11752D01*
Y26891D01*
X21852Y28390D02*
Y28990D01*
Y28690D01*
X21452D01*
Y28390D01*
Y28990D01*
X21153D02*
X20953D01*
X20853Y28890D01*
Y28690D01*
X20953Y28590D01*
X21153D01*
X21253Y28690D01*
Y28890D01*
X21153Y28990D01*
X20553Y28490D02*
Y28590D01*
X20653D01*
X20453D01*
X20553D01*
Y28890D01*
X20453Y28990D01*
X19102Y21479D02*
X19502D01*
Y22079D01*
X19102D01*
X19502Y21779D02*
X19302D01*
X18803Y21679D02*
X18603D01*
X18503Y21779D01*
Y22079D01*
X18803D01*
X18903Y21979D01*
X18803Y21879D01*
X18503D01*
X18303Y21679D02*
Y22079D01*
Y21879D01*
X18203Y21779D01*
X18103Y21679D01*
X18003D01*
X17603Y21579D02*
Y21679D01*
X17703D01*
X17503D01*
X17603D01*
Y21979D01*
X17503Y22079D01*
X17203Y21479D02*
Y22079D01*
Y21779D01*
X17103Y21679D01*
X16903D01*
X16803Y21779D01*
Y22079D01*
X15604Y21579D02*
X15704Y21479D01*
X15904D01*
X16003Y21579D01*
Y21979D01*
X15904Y22079D01*
X15704D01*
X15604Y21979D01*
Y21779D01*
X15804D01*
X15404Y21679D02*
Y22079D01*
Y21879D01*
X15304Y21779D01*
X15204Y21679D01*
X15104D01*
X14704Y22079D02*
X14504D01*
X14404Y21979D01*
Y21779D01*
X14504Y21679D01*
X14704D01*
X14804Y21779D01*
Y21979D01*
X14704Y22079D01*
X14204Y21679D02*
Y21979D01*
X14104Y22079D01*
X13804D01*
Y21679D01*
X13604Y22079D02*
Y21679D01*
X13304D01*
X13204Y21779D01*
Y22079D01*
X12605Y21479D02*
Y22079D01*
X12904D01*
X13004Y21979D01*
Y21779D01*
X12904Y21679D01*
X12605D01*
X11152Y18579D02*
X11752D01*
X11152Y18179D01*
X11752D01*
X11152Y17679D02*
Y17879D01*
X11252Y17979D01*
X11452D01*
X11552Y17879D01*
Y17679D01*
X11452Y17579D01*
X11352D01*
Y17979D01*
X11552Y17380D02*
X11252D01*
X11152Y17280D01*
Y16980D01*
X11552D01*
X11652Y16680D02*
X11552D01*
Y16780D01*
Y16580D01*
Y16680D01*
X11252D01*
X11152Y16580D01*
X11552Y16280D02*
X11152D01*
X11352D01*
X11452Y16180D01*
X11552Y16080D01*
Y15980D01*
Y15580D02*
Y15380D01*
X11452Y15280D01*
X11152D01*
Y15580D01*
X11252Y15680D01*
X11352Y15580D01*
Y15280D01*
X11152Y15080D02*
Y14880D01*
Y14980D01*
X11752D01*
Y15080D01*
X21852Y16579D02*
Y17179D01*
Y16879D01*
X21452D01*
Y16579D01*
Y17179D01*
X21153D02*
X20953D01*
X20853Y17079D01*
Y16879D01*
X20953Y16779D01*
X21153D01*
X21253Y16879D01*
Y17079D01*
X21153Y17179D01*
X20553Y16679D02*
Y16779D01*
X20653D01*
X20453D01*
X20553D01*
Y17079D01*
X20453Y17179D01*
X30451Y47107D02*
Y46507D01*
Y46707D01*
X30851Y47107D01*
X30551Y46807D01*
X30851Y46507D01*
X31450Y47107D02*
X31051D01*
Y46507D01*
X31450D01*
X31051Y46807D02*
X31251D01*
X32050Y47107D02*
X31650D01*
Y46507D01*
X32050D01*
X31650Y46807D02*
X31850D01*
X32250Y46507D02*
Y47107D01*
X32550D01*
X32650Y47007D01*
Y46807D01*
X32550Y46707D01*
X32250D01*
X33150Y47107D02*
X32950D01*
X32850Y47007D01*
Y46607D01*
X32950Y46507D01*
X33150D01*
X33250Y46607D01*
Y47007D01*
X33150Y47107D01*
X33450D02*
Y46607D01*
X33550Y46507D01*
X33750D01*
X33850Y46607D01*
Y47107D01*
X34050D02*
X34449D01*
X34250D01*
Y46507D01*
D59*
X23780Y24248D02*
G03*
X22858Y24248I-461J-430D01*
G01*
Y23389D02*
G03*
X23780Y23389I461J430D01*
G01*
X23681Y36060D02*
G03*
X22760Y36060I-461J-430D01*
G01*
Y35200D02*
G03*
X23681Y35200I461J430D01*
G01*
X38130Y18370D02*
G03*
X39051Y18370I461J430D01*
G01*
Y19229D02*
G03*
X38130Y19229I-461J-430D01*
G01*
Y16401D02*
G03*
X39051Y16401I461J430D01*
G01*
Y17260D02*
G03*
X38130Y17260I-461J-430D01*
G01*
X23780Y12437D02*
G03*
X22858Y12437I-461J-430D01*
G01*
Y11578D02*
G03*
X23780Y11578I461J430D01*
G01*
X24069Y24169D02*
Y24469D01*
X23919Y24319D02*
X24219D01*
X23970Y35980D02*
Y36280D01*
X23820Y36130D02*
X24120D01*
X37841Y18149D02*
Y18449D01*
X37691Y18299D02*
X37991D01*
X37841Y16181D02*
Y16481D01*
X37691Y16331D02*
X37991D01*
X24069Y12358D02*
Y12658D01*
X23919Y12508D02*
X24219D01*
X33858Y12106D02*
Y11713D01*
Y11909D01*
X34121D01*
Y12106D01*
Y11713D01*
X33858Y12795D02*
Y13189D01*
X34121Y12795D01*
Y13189D01*
Y14173D02*
X33858D01*
Y13780D01*
X34121D01*
X33858Y13976D02*
X33989D01*
X22343Y26969D02*
Y27362D01*
X22539D01*
X22605Y27296D01*
Y27165D01*
X22539Y27100D01*
X22343D01*
X22474D02*
X22605Y26969D01*
X22998D02*
X22736D01*
X22998Y27231D01*
Y27296D01*
X22933Y27362D01*
X22802D01*
X22736Y27296D01*
X23130D02*
X23195Y27362D01*
X23326D01*
X23392Y27296D01*
Y27231D01*
X23326Y27165D01*
X23261D01*
X23326D01*
X23392Y27100D01*
Y27034D01*
X23326Y26969D01*
X23195D01*
X23130Y27034D01*
X24475Y27296D02*
X24409Y27362D01*
X24278D01*
X24213Y27296D01*
Y27034D01*
X24278Y26969D01*
X24409D01*
X24475Y27034D01*
X24869Y27362D02*
X24737Y27296D01*
X24606Y27165D01*
Y27034D01*
X24672Y26969D01*
X24803D01*
X24869Y27034D01*
Y27100D01*
X24803Y27165D01*
X24606D01*
X26640Y28379D02*
X26575Y28445D01*
X26444D01*
X26378Y28379D01*
Y28117D01*
X26444Y28051D01*
X26575D01*
X26640Y28117D01*
X26772Y28445D02*
X27034D01*
Y28379D01*
X26772Y28117D01*
Y28051D01*
X24213Y25197D02*
Y25590D01*
X24409D01*
X24475Y25525D01*
Y25394D01*
X24409Y25328D01*
X24213D01*
X24344D02*
X24475Y25197D01*
X24869D02*
X24606D01*
X24869Y25459D01*
Y25525D01*
X24803Y25590D01*
X24672D01*
X24606Y25525D01*
X25262Y25197D02*
X25000D01*
X25262Y25459D01*
Y25525D01*
X25197Y25590D01*
X25065D01*
X25000Y25525D01*
D60*
X23986Y19449D02*
G03*
X23986Y19449I-118J0D01*
G01*
D61*
X35939Y11609D02*
G03*
X35939Y11609I-100J0D01*
G01*
D62*
X24961Y26791D02*
X25236D01*
X24961Y26161D02*
X25236D01*
X24961Y26476D02*
X25236D01*
X25256Y28661D02*
X25531D01*
X25256Y28031D02*
X25531D01*
X25256Y28346D02*
X25531D01*
X23287Y28031D02*
X23563D01*
X23287Y28661D02*
X23563D01*
X23287Y28346D02*
X23563D01*
X23661Y29035D02*
X24370D01*
X23661Y31004D02*
X24370D01*
Y29035D02*
Y31004D01*
X23661Y29035D02*
Y31004D01*
Y31496D02*
X24370D01*
X23661Y33465D02*
X24370D01*
Y31496D02*
Y33465D01*
X23661Y31496D02*
Y33465D01*
X39193Y38150D02*
Y38425D01*
X38563Y38150D02*
Y38425D01*
X38878Y38150D02*
Y38425D01*
X37618Y38445D02*
Y38720D01*
X36988Y38445D02*
Y38720D01*
X37303Y38445D02*
Y38720D01*
X34508Y20551D02*
Y21772D01*
X34390Y20551D02*
Y21772D01*
Y20551D02*
X34508D01*
X34390Y21772D02*
X34508D01*
Y18484D02*
Y19705D01*
X34390Y18484D02*
Y19705D01*
Y18484D02*
X34508D01*
X34390Y19705D02*
X34508D01*
X24350Y21496D02*
X26043D01*
Y20236D02*
Y21496D01*
X24350Y20236D02*
X26043D01*
X24350D02*
Y21496D01*
X34177Y24941D02*
X34327D01*
X34177Y24075D02*
X34327D01*
X34177D02*
Y24941D01*
X34327Y24075D02*
Y24941D01*
X34177Y25748D02*
X34327D01*
X34177Y26614D02*
X34327D01*
Y25748D02*
Y26614D01*
X34177Y25748D02*
Y26614D01*
X26423Y26226D02*
X26673Y26726D01*
X26423Y26226D02*
X26923D01*
X26673Y26726D02*
X26923Y26226D01*
X26423Y22880D02*
X26673Y23380D01*
X26423Y22880D02*
X26923D01*
X26673Y23380D02*
X26923Y22880D01*
X38409Y37146D02*
X38559D01*
X38409Y36280D02*
X38559D01*
X38409D02*
Y37146D01*
X38559Y36280D02*
Y37146D01*
X36949Y41634D02*
Y41890D01*
X37205D01*
X36949Y39803D02*
Y40059D01*
Y39803D02*
X37205D01*
X38780D02*
X39035D01*
Y40059D01*
Y41634D02*
Y41890D01*
X38780D02*
X39035D01*
X23474Y15787D02*
Y19843D01*
X25935Y15787D02*
Y19843D01*
X23474D02*
X25935D01*
X23474Y15787D02*
X25935D01*
X26423Y30360D02*
X26673Y30860D01*
X26423Y30360D02*
X26923D01*
X26673Y30860D02*
X26923Y30360D01*
X10138Y47835D02*
X10269D01*
X10203D01*
Y48228D01*
X10138Y48163D01*
X10728Y47835D02*
X10466D01*
X10728Y48097D01*
Y48163D01*
X10663Y48228D01*
X10531D01*
X10466Y48163D01*
X10859D02*
X10925Y48228D01*
X11056D01*
X11122Y48163D01*
Y47900D01*
X11056Y47835D01*
X10925D01*
X10859Y47900D01*
Y48163D01*
X11253Y48228D02*
Y47966D01*
X11384Y47835D01*
X11515Y47966D01*
Y48228D01*
X11646Y47835D02*
Y48097D01*
X11778Y48228D01*
X11909Y48097D01*
Y47835D01*
Y48031D01*
X11646D01*
X12302Y48163D02*
X12237Y48228D01*
X12106D01*
X12040Y48163D01*
Y47900D01*
X12106Y47835D01*
X12237D01*
X12302Y47900D01*
X12434Y47769D02*
X12696D01*
X12827Y47835D02*
Y48228D01*
X13090Y47835D01*
Y48228D01*
X17913Y47736D02*
X18045D01*
X17979D01*
Y48130D01*
X17913Y48064D01*
X18504Y47736D02*
X18241D01*
X18504Y47999D01*
Y48064D01*
X18438Y48130D01*
X18307D01*
X18241Y48064D01*
X18635D02*
X18701Y48130D01*
X18832D01*
X18897Y48064D01*
Y47802D01*
X18832Y47736D01*
X18701D01*
X18635Y47802D01*
Y48064D01*
X19029Y48130D02*
Y47867D01*
X19160Y47736D01*
X19291Y47867D01*
Y48130D01*
X19422Y47736D02*
Y47999D01*
X19553Y48130D01*
X19684Y47999D01*
Y47736D01*
Y47933D01*
X19422D01*
X20078Y48064D02*
X20012Y48130D01*
X19881D01*
X19816Y48064D01*
Y47802D01*
X19881Y47736D01*
X20012D01*
X20078Y47802D01*
D63*
X36800Y20265D02*
X38200D01*
X36800D02*
Y22845D01*
X38200D01*
Y20265D02*
Y22845D01*
X27215Y17868D02*
X33265D01*
X27215Y10259D02*
Y17868D01*
Y10259D02*
X33415D01*
Y17868D01*
X33265D02*
X33415D01*
X27215Y25743D02*
X33265D01*
X27215Y18133D02*
Y25743D01*
Y18133D02*
X33415D01*
Y25743D01*
X33265D02*
X33415D01*
X33265Y33518D02*
X33415D01*
Y25908D02*
Y33518D01*
X27215Y25908D02*
X33415D01*
X27215D02*
Y33518D01*
X33265D01*
X29015Y11169D02*
X29415D01*
X29015Y10902D01*
X29415D01*
Y10569D02*
Y10702D01*
X29348Y10769D01*
X29082D01*
X29015Y10702D01*
Y10569D01*
X29082Y10502D01*
X29348D01*
X29415Y10569D01*
X31315Y11269D02*
X31715D01*
X31315Y11002D01*
X31715D01*
X31648Y10602D02*
X31715Y10669D01*
Y10802D01*
X31648Y10869D01*
X31382D01*
X31315Y10802D01*
Y10669D01*
X31382Y10602D01*
X30848Y15802D02*
X30915Y15869D01*
Y16002D01*
X30848Y16069D01*
X30582D01*
X30515Y16002D01*
Y15869D01*
X30582Y15802D01*
X30915Y15469D02*
Y15602D01*
X30848Y15669D01*
X30582D01*
X30515Y15602D01*
Y15469D01*
X30582Y15402D01*
X30848D01*
X30915Y15469D01*
X30515Y15269D02*
X30915D01*
X30782Y15135D01*
X30915Y15002D01*
X30515D01*
X29015Y19043D02*
X29415D01*
X29015Y18776D01*
X29415D01*
Y18443D02*
Y18576D01*
X29348Y18643D01*
X29082D01*
X29015Y18576D01*
Y18443D01*
X29082Y18376D01*
X29348D01*
X29415Y18443D01*
X31315Y19143D02*
X31715D01*
X31315Y18876D01*
X31715D01*
X31648Y18476D02*
X31715Y18543D01*
Y18676D01*
X31648Y18743D01*
X31382D01*
X31315Y18676D01*
Y18543D01*
X31382Y18476D01*
X30848Y23676D02*
X30915Y23743D01*
Y23876D01*
X30848Y23943D01*
X30582D01*
X30515Y23876D01*
Y23743D01*
X30582Y23676D01*
X30915Y23343D02*
Y23476D01*
X30848Y23543D01*
X30582D01*
X30515Y23476D01*
Y23343D01*
X30582Y23276D01*
X30848D01*
X30915Y23343D01*
X30515Y23143D02*
X30915D01*
X30782Y23009D01*
X30915Y22876D01*
X30515D01*
X30848Y31452D02*
X30915Y31518D01*
Y31651D01*
X30848Y31718D01*
X30582D01*
X30515Y31651D01*
Y31518D01*
X30582Y31452D01*
X30915Y31118D02*
Y31252D01*
X30848Y31318D01*
X30582D01*
X30515Y31252D01*
Y31118D01*
X30582Y31052D01*
X30848D01*
X30915Y31118D01*
X30515Y30918D02*
X30915D01*
X30782Y30785D01*
X30915Y30652D01*
X30515D01*
X31315Y26918D02*
X31715D01*
X31315Y26652D01*
X31715D01*
X31648Y26252D02*
X31715Y26318D01*
Y26452D01*
X31648Y26518D01*
X31382D01*
X31315Y26452D01*
Y26318D01*
X31382Y26252D01*
X29015Y26818D02*
X29415D01*
X29015Y26552D01*
X29415D01*
Y26218D02*
Y26352D01*
X29348Y26418D01*
X29082D01*
X29015Y26352D01*
Y26218D01*
X29082Y26152D01*
X29348D01*
X29415Y26218D01*
D64*
X22202Y42124D02*
Y46151D01*
Y35501D02*
Y42124D01*
X15600Y46151D02*
X22202D01*
X10052D02*
X15600D01*
X10052Y40604D02*
Y46151D01*
Y35501D02*
Y40604D01*
Y35501D02*
X16625D01*
X22202D01*
Y30313D02*
Y34340D01*
Y23690D02*
Y30313D01*
X15600Y34340D02*
X22202D01*
X10052D02*
X15600D01*
X10052Y28793D02*
Y34340D01*
Y23690D02*
Y28793D01*
Y23690D02*
X16625D01*
X22202D01*
Y18502D02*
Y22529D01*
Y11879D02*
Y18502D01*
X15600Y22529D02*
X22202D01*
X10052D02*
X15600D01*
X10052Y16982D02*
Y22529D01*
Y11879D02*
Y16982D01*
Y11879D02*
X16625D01*
X22202D01*
D65*
X24902Y24213D02*
Y24488D01*
X25039D01*
X25085Y24442D01*
Y24350D01*
X25039Y24304D01*
X24902D01*
X24993D02*
X25085Y24213D01*
X25177D02*
X25269D01*
X25223D01*
Y24488D01*
X25177Y24442D01*
X25407Y24259D02*
X25453Y24213D01*
X25544D01*
X25590Y24259D01*
Y24442D01*
X25544Y24488D01*
X25453D01*
X25407Y24442D01*
Y24396D01*
X25453Y24350D01*
X25590D01*
X23904Y27789D02*
X23858Y27835D01*
X23766D01*
X23720Y27789D01*
Y27605D01*
X23766Y27559D01*
X23858D01*
X23904Y27605D01*
X23996Y27789D02*
X24042Y27835D01*
X24134D01*
X24180Y27789D01*
Y27743D01*
X24134Y27697D01*
X24180Y27651D01*
Y27605D01*
X24134Y27559D01*
X24042D01*
X23996Y27605D01*
Y27651D01*
X24042Y27697D01*
X23996Y27743D01*
Y27789D01*
X24042Y27697D02*
X24134D01*
X39547Y40354D02*
X39318D01*
X39272Y40308D01*
Y40217D01*
X39318Y40171D01*
X39547D01*
Y39895D02*
Y40079D01*
X39409D01*
X39455Y39987D01*
Y39941D01*
X39409Y39895D01*
X39318D01*
X39272Y39941D01*
Y40033D01*
X39318Y40079D01*
X22570Y34176D02*
Y33946D01*
X22616Y33900D01*
X22708D01*
X22754Y33946D01*
Y34176D01*
X23029Y33900D02*
X22845D01*
X23029Y34084D01*
Y34130D01*
X22983Y34176D01*
X22891D01*
X22845Y34130D01*
X38766Y26312D02*
X38720Y26358D01*
X38629D01*
X38583Y26312D01*
Y26266D01*
X38629Y26220D01*
X38720D01*
X38766Y26175D01*
Y26129D01*
X38720Y26083D01*
X38629D01*
X38583Y26129D01*
X39042Y26083D02*
X38858D01*
X39042Y26266D01*
Y26312D01*
X38996Y26358D01*
X38904D01*
X38858Y26312D01*
X38865Y23261D02*
X38819Y23307D01*
X38727D01*
X38681Y23261D01*
Y23215D01*
X38727Y23169D01*
X38819D01*
X38865Y23123D01*
Y23077D01*
X38819Y23031D01*
X38727D01*
X38681Y23077D01*
X38957Y23031D02*
X39048D01*
X39003D01*
Y23307D01*
X38957Y23261D01*
X31693Y35433D02*
Y35709D01*
X31831D01*
X31877Y35663D01*
Y35571D01*
X31831Y35525D01*
X31693D01*
X31785D02*
X31877Y35433D01*
X32152D02*
X31968D01*
X32152Y35617D01*
Y35663D01*
X32106Y35709D01*
X32014D01*
X31968Y35663D01*
X32244Y35433D02*
X32336D01*
X32290D01*
Y35709D01*
X32244Y35663D01*
X24278Y36291D02*
Y36567D01*
X24416D01*
X24462Y36521D01*
Y36429D01*
X24416Y36383D01*
X24278D01*
X24370D02*
X24462Y36291D01*
X24738D02*
X24554D01*
X24738Y36475D01*
Y36521D01*
X24692Y36567D01*
X24600D01*
X24554Y36521D01*
X24829D02*
X24875Y36567D01*
X24967D01*
X25013Y36521D01*
Y36337D01*
X24967Y36291D01*
X24875D01*
X24829Y36337D01*
Y36521D01*
X24377Y12669D02*
Y12945D01*
X24515D01*
X24561Y12899D01*
Y12807D01*
X24515Y12761D01*
X24377D01*
X24469D02*
X24561Y12669D01*
X24652D02*
X24744D01*
X24698D01*
Y12945D01*
X24652Y12899D01*
X24882D02*
X24928Y12945D01*
X25020D01*
X25066Y12899D01*
Y12853D01*
X25020Y12807D01*
X25066Y12761D01*
Y12715D01*
X25020Y12669D01*
X24928D01*
X24882Y12715D01*
Y12761D01*
X24928Y12807D01*
X24882Y12853D01*
Y12899D01*
X24928Y12807D02*
X25020D01*
X35990Y17590D02*
Y17866D01*
X36128D01*
X36174Y17820D01*
Y17728D01*
X36128Y17682D01*
X35990D01*
X36082D02*
X36174Y17590D01*
X36265D02*
X36357D01*
X36311D01*
Y17866D01*
X36265Y17820D01*
X36495Y17866D02*
X36679D01*
Y17820D01*
X36495Y17636D01*
Y17590D01*
X35898Y19561D02*
Y19837D01*
X36036D01*
X36082Y19791D01*
Y19699D01*
X36036Y19653D01*
X35898D01*
X35990D02*
X36082Y19561D01*
X36174D02*
X36266D01*
X36220D01*
Y19837D01*
X36174Y19791D01*
X36587Y19837D02*
X36495Y19791D01*
X36404Y19699D01*
Y19607D01*
X36449Y19561D01*
X36541D01*
X36587Y19607D01*
Y19653D01*
X36541Y19699D01*
X36404D01*
X27461Y35531D02*
Y35807D01*
X27598D01*
X27644Y35761D01*
Y35669D01*
X27598Y35623D01*
X27461D01*
X27552D02*
X27644Y35531D01*
X27736D02*
X27828D01*
X27782D01*
Y35807D01*
X27736Y35761D01*
X28149Y35807D02*
X27966D01*
Y35669D01*
X28058Y35715D01*
X28103D01*
X28149Y35669D01*
Y35577D01*
X28103Y35531D01*
X28012D01*
X27966Y35577D01*
X26083Y34449D02*
Y34724D01*
X26220D01*
X26266Y34678D01*
Y34587D01*
X26220Y34541D01*
X26083D01*
X26175D02*
X26266Y34449D01*
X26358D02*
X26450D01*
X26404D01*
Y34724D01*
X26358Y34678D01*
X26726Y34449D02*
Y34724D01*
X26588Y34587D01*
X26771D01*
X29528Y35531D02*
Y35807D01*
X29665D01*
X29711Y35761D01*
Y35669D01*
X29665Y35623D01*
X29528D01*
X29619D02*
X29711Y35531D01*
X29803D02*
X29895D01*
X29849D01*
Y35807D01*
X29803Y35761D01*
X30033D02*
X30079Y35807D01*
X30170D01*
X30216Y35761D01*
Y35715D01*
X30170Y35669D01*
X30124D01*
X30170D01*
X30216Y35623D01*
Y35577D01*
X30170Y35531D01*
X30079D01*
X30033Y35577D01*
X34646Y37106D02*
Y37382D01*
X34783D01*
X34829Y37336D01*
Y37244D01*
X34783Y37198D01*
X34646D01*
X34738D02*
X34829Y37106D01*
X34921D02*
X35013D01*
X34967D01*
Y37382D01*
X34921Y37336D01*
X35334Y37106D02*
X35151D01*
X35334Y37290D01*
Y37336D01*
X35289Y37382D01*
X35197D01*
X35151Y37336D01*
X37697Y35728D02*
Y36004D01*
X37835D01*
X37881Y35958D01*
Y35866D01*
X37835Y35820D01*
X37697D01*
X37789D02*
X37881Y35728D01*
X37972D02*
X38064D01*
X38018D01*
Y36004D01*
X37972Y35958D01*
X38202Y35728D02*
X38294D01*
X38248D01*
Y36004D01*
X38202Y35958D01*
X29528Y37106D02*
Y37382D01*
X29665D01*
X29711Y37336D01*
Y37244D01*
X29665Y37198D01*
X29528D01*
X29619D02*
X29711Y37106D01*
X29803D02*
X29895D01*
X29849D01*
Y37382D01*
X29803Y37336D01*
X30033D02*
X30079Y37382D01*
X30170D01*
X30216Y37336D01*
Y37152D01*
X30170Y37106D01*
X30079D01*
X30033Y37152D01*
Y37336D01*
X38878Y32480D02*
Y32756D01*
X39016D01*
X39062Y32710D01*
Y32618D01*
X39016Y32572D01*
X38878D01*
X38970D02*
X39062Y32480D01*
X39153Y32526D02*
X39199Y32480D01*
X39291D01*
X39337Y32526D01*
Y32710D01*
X39291Y32756D01*
X39199D01*
X39153Y32710D01*
Y32664D01*
X39199Y32618D01*
X39337D01*
X32776Y37106D02*
Y37382D01*
X32913D01*
X32959Y37336D01*
Y37244D01*
X32913Y37198D01*
X32776D01*
X32867D02*
X32959Y37106D01*
X33051Y37336D02*
X33097Y37382D01*
X33189D01*
X33235Y37336D01*
Y37290D01*
X33189Y37244D01*
X33235Y37198D01*
Y37152D01*
X33189Y37106D01*
X33097D01*
X33051Y37152D01*
Y37198D01*
X33097Y37244D01*
X33051Y37290D01*
Y37336D01*
X33097Y37244D02*
X33189D01*
X36220Y35925D02*
X35945D01*
Y36063D01*
X35991Y36109D01*
X36083D01*
X36129Y36063D01*
Y35925D01*
Y36017D02*
X36220Y36109D01*
X35945Y36201D02*
Y36384D01*
X35991D01*
X36175Y36201D01*
X36220D01*
X22638Y14075D02*
Y14350D01*
X22776D01*
X22821Y14304D01*
Y14213D01*
X22776Y14167D01*
X22638D01*
X22730D02*
X22821Y14075D01*
X23097Y14350D02*
X23005Y14304D01*
X22913Y14213D01*
Y14121D01*
X22959Y14075D01*
X23051D01*
X23097Y14121D01*
Y14167D01*
X23051Y14213D01*
X22913D01*
X24213Y22539D02*
Y22815D01*
X24350D01*
X24396Y22769D01*
Y22677D01*
X24350Y22631D01*
X24213D01*
X24304D02*
X24396Y22539D01*
X24672Y22815D02*
X24488D01*
Y22677D01*
X24580Y22723D01*
X24626D01*
X24672Y22677D01*
Y22585D01*
X24626Y22539D01*
X24534D01*
X24488Y22585D01*
X22096Y21191D02*
Y21466D01*
X22234D01*
X22280Y21420D01*
Y21329D01*
X22234Y21283D01*
X22096D01*
X22188D02*
X22280Y21191D01*
X22509D02*
Y21466D01*
X22372Y21329D01*
X22555D01*
X25394Y14075D02*
Y14350D01*
X25531D01*
X25577Y14304D01*
Y14213D01*
X25531Y14167D01*
X25394D01*
X25486D02*
X25577Y14075D01*
X25669Y14304D02*
X25715Y14350D01*
X25807D01*
X25853Y14304D01*
Y14258D01*
X25807Y14213D01*
X25761D01*
X25807D01*
X25853Y14167D01*
Y14121D01*
X25807Y14075D01*
X25715D01*
X25669Y14121D01*
X23524Y14075D02*
Y14350D01*
X23661D01*
X23707Y14304D01*
Y14213D01*
X23661Y14167D01*
X23524D01*
X23615D02*
X23707Y14075D01*
X23983D02*
X23799D01*
X23983Y14258D01*
Y14304D01*
X23937Y14350D01*
X23845D01*
X23799Y14304D01*
X26280Y14075D02*
Y14350D01*
X26417D01*
X26463Y14304D01*
Y14213D01*
X26417Y14167D01*
X26280D01*
X26371D02*
X26463Y14075D01*
X26555D02*
X26647D01*
X26601D01*
Y14350D01*
X26555Y14304D01*
X33944Y25243D02*
Y25426D01*
X33898Y25472D01*
X33806D01*
X33760Y25426D01*
Y25243D01*
X33806Y25197D01*
X33898D01*
X33852Y25289D02*
X33944Y25197D01*
X33898D02*
X33944Y25243D01*
X34035Y25426D02*
X34081Y25472D01*
X34173D01*
X34219Y25426D01*
Y25381D01*
X34173Y25335D01*
X34127D01*
X34173D01*
X34219Y25289D01*
Y25243D01*
X34173Y25197D01*
X34081D01*
X34035Y25243D01*
X33944Y26818D02*
Y27001D01*
X33898Y27047D01*
X33806D01*
X33760Y27001D01*
Y26818D01*
X33806Y26772D01*
X33898D01*
X33852Y26863D02*
X33944Y26772D01*
X33898D02*
X33944Y26818D01*
X34219Y26772D02*
X34035D01*
X34219Y26955D01*
Y27001D01*
X34173Y27047D01*
X34081D01*
X34035Y27001D01*
X38865Y35873D02*
Y36056D01*
X38819Y36102D01*
X38727D01*
X38681Y36056D01*
Y35873D01*
X38727Y35827D01*
X38819D01*
X38773Y35919D02*
X38865Y35827D01*
X38819D02*
X38865Y35873D01*
X38957Y35827D02*
X39048D01*
X39003D01*
Y36102D01*
X38957Y36056D01*
X22539Y34646D02*
Y34921D01*
X22723Y34646D01*
Y34921D01*
X22815Y34875D02*
X22861Y34921D01*
X22953D01*
X22999Y34875D01*
Y34829D01*
X22953Y34783D01*
X22907D01*
X22953D01*
X22999Y34738D01*
Y34692D01*
X22953Y34646D01*
X22861D01*
X22815Y34692D01*
X22736Y22835D02*
Y23110D01*
X22920Y22835D01*
Y23110D01*
X23195Y22835D02*
X23012D01*
X23195Y23018D01*
Y23064D01*
X23149Y23110D01*
X23058D01*
X23012Y23064D01*
X22514Y12930D02*
Y13205D01*
X22697Y12930D01*
Y13205D01*
X22789Y12930D02*
X22881D01*
X22835D01*
Y13205D01*
X22789Y13160D01*
X26083Y33150D02*
Y32874D01*
Y32966D01*
X26266Y33150D01*
X26129Y33012D01*
X26266Y32874D01*
X26358Y33104D02*
X26404Y33150D01*
X26496D01*
X26542Y33104D01*
Y33058D01*
X26496Y33012D01*
X26450D01*
X26496D01*
X26542Y32966D01*
Y32920D01*
X26496Y32874D01*
X26404D01*
X26358Y32920D01*
X20781Y36732D02*
X20873D01*
X20827D01*
Y36962D01*
X20873Y37008D01*
X20919D01*
X20965Y36962D01*
X20505Y36732D02*
X20597Y36778D01*
X20689Y36870D01*
Y36962D01*
X20643Y37008D01*
X20551D01*
X20505Y36962D01*
Y36916D01*
X20551Y36870D01*
X20689D01*
X20879Y24921D02*
X20971D01*
X20925D01*
Y25151D01*
X20971Y25197D01*
X21017D01*
X21063Y25151D01*
X20604Y24921D02*
X20787D01*
Y25059D01*
X20696Y25013D01*
X20650D01*
X20604Y25059D01*
Y25151D01*
X20650Y25197D01*
X20742D01*
X20787Y25151D01*
X20978Y13012D02*
X21070D01*
X21024D01*
Y13241D01*
X21070Y13287D01*
X21116D01*
X21161Y13241D01*
X20748Y13287D02*
Y13012D01*
X20886Y13150D01*
X20702D01*
X34713Y14975D02*
X34621D01*
X34667D01*
Y14745D01*
X34621Y14699D01*
X34575D01*
X34529Y14745D01*
X34989Y14699D02*
X34805D01*
X34989Y14883D01*
Y14929D01*
X34943Y14975D01*
X34851D01*
X34805Y14929D01*
X33550Y34527D02*
X33458D01*
X33504D01*
Y34298D01*
X33458Y34252D01*
X33412D01*
X33366Y34298D01*
X33642Y34252D02*
X33733D01*
X33688D01*
Y34527D01*
X33642Y34482D01*
X33563Y22323D02*
Y22047D01*
X33701D01*
X33747Y22093D01*
Y22277D01*
X33701Y22323D01*
X33563D01*
X34022D02*
X33838D01*
Y22185D01*
X33930Y22231D01*
X33976D01*
X34022Y22185D01*
Y22093D01*
X33976Y22047D01*
X33884D01*
X33838Y22093D01*
X33563Y20256D02*
Y19980D01*
X33701D01*
X33747Y20026D01*
Y20210D01*
X33701Y20256D01*
X33563D01*
X33976Y19980D02*
Y20256D01*
X33838Y20118D01*
X34022D01*
X26263Y32036D02*
Y31760D01*
X26401D01*
X26447Y31806D01*
Y31990D01*
X26401Y32036D01*
X26263D01*
X26539Y31990D02*
X26585Y32036D01*
X26676D01*
X26722Y31990D01*
Y31944D01*
X26676Y31898D01*
X26631D01*
X26676D01*
X26722Y31852D01*
Y31806D01*
X26676Y31760D01*
X26585D01*
X26539Y31806D01*
X26280Y27736D02*
Y27461D01*
X26417D01*
X26463Y27507D01*
Y27690D01*
X26417Y27736D01*
X26280D01*
X26739Y27461D02*
X26555D01*
X26739Y27644D01*
Y27690D01*
X26693Y27736D01*
X26601D01*
X26555Y27690D01*
X26280Y24390D02*
Y24114D01*
X26417D01*
X26463Y24160D01*
Y24344D01*
X26417Y24390D01*
X26280D01*
X26555Y24114D02*
X26647D01*
X26601D01*
Y24390D01*
X26555Y24344D01*
X38156Y37585D02*
X38110Y37539D01*
Y37447D01*
X38156Y37402D01*
X38340D01*
X38386Y37447D01*
Y37539D01*
X38340Y37585D01*
X38110Y37861D02*
Y37677D01*
X38248D01*
X38202Y37769D01*
Y37815D01*
X38248Y37861D01*
X38340D01*
X38386Y37815D01*
Y37723D01*
X38340Y37677D01*
X36581Y37881D02*
X36536Y37835D01*
Y37743D01*
X36581Y37697D01*
X36765D01*
X36811Y37743D01*
Y37835D01*
X36765Y37881D01*
X36811Y38110D02*
X36536D01*
X36673Y37972D01*
Y38156D01*
X33838Y18135D02*
X33792Y18181D01*
X33700D01*
X33654Y18135D01*
Y17951D01*
X33700Y17905D01*
X33792D01*
X33838Y17951D01*
X33930Y18135D02*
X33976Y18181D01*
X34067D01*
X34113Y18135D01*
Y18089D01*
X34067Y18043D01*
X34021D01*
X34067D01*
X34113Y17997D01*
Y17951D01*
X34067Y17905D01*
X33976D01*
X33930Y17951D01*
X36109Y15879D02*
X36063Y15925D01*
X35971D01*
X35925Y15879D01*
Y15696D01*
X35971Y15650D01*
X36063D01*
X36109Y15696D01*
X36384Y15650D02*
X36201D01*
X36384Y15833D01*
Y15879D01*
X36338Y15925D01*
X36247D01*
X36201Y15879D01*
X36207Y13517D02*
X36161Y13563D01*
X36070D01*
X36024Y13517D01*
Y13333D01*
X36070Y13287D01*
X36161D01*
X36207Y13333D01*
X36299Y13287D02*
X36391D01*
X36345D01*
Y13563D01*
X36299Y13517D01*
X23228Y21850D02*
Y22034D01*
X23320Y22126D01*
X23412Y22034D01*
Y21850D01*
Y21988D01*
X23228D01*
X23688Y22080D02*
X23642Y22126D01*
X23550D01*
X23504Y22080D01*
Y21896D01*
X23550Y21850D01*
X23642D01*
X23688Y21896D01*
X23963Y22080D02*
X23917Y22126D01*
X23825D01*
X23779Y22080D01*
Y22034D01*
X23825Y21988D01*
X23917D01*
X23963Y21942D01*
Y21896D01*
X23917Y21850D01*
X23825D01*
X23779Y21896D01*
X24055Y22126D02*
X24239D01*
Y22080D01*
X24055Y21896D01*
Y21850D01*
X24330D02*
X24422D01*
X24376D01*
Y22126D01*
X24330Y22080D01*
X24560D02*
X24606Y22126D01*
X24698D01*
X24744Y22080D01*
Y21896D01*
X24698Y21850D01*
X24606D01*
X24560Y21896D01*
Y22080D01*
X24835Y21804D02*
X25019D01*
X25111Y21850D02*
Y22126D01*
X25249D01*
X25295Y22080D01*
Y21988D01*
X25249Y21942D01*
X25111D01*
X25203D02*
X25295Y21850D01*
X25386Y21804D02*
X25570D01*
X25846Y22080D02*
X25800Y22126D01*
X25708D01*
X25662Y22080D01*
Y22034D01*
X25708Y21988D01*
X25800D01*
X25846Y21942D01*
Y21896D01*
X25800Y21850D01*
X25708D01*
X25662Y21896D01*
X26075Y21850D02*
X25983D01*
X25937Y21896D01*
Y21988D01*
X25983Y22034D01*
X26075D01*
X26121Y21988D01*
Y21942D01*
X25937D01*
X26213Y21850D02*
Y22034D01*
X26351D01*
X26397Y21988D01*
Y21850D01*
X26488D02*
X26626D01*
X26672Y21896D01*
X26626Y21942D01*
X26534D01*
X26488Y21988D01*
X26534Y22034D01*
X26672D01*
X26902Y21850D02*
X26810D01*
X26764Y21896D01*
Y21988D01*
X26810Y22034D01*
X26902D01*
X26948Y21988D01*
Y21942D01*
X26764D01*
X38176Y17795D02*
X37992D01*
Y17657D01*
X38084Y17703D01*
X38130D01*
X38176Y17657D01*
Y17566D01*
X38130Y17520D01*
X38038D01*
X37992Y17566D01*
X38268Y17795D02*
Y17612D01*
X38359Y17520D01*
X38451Y17612D01*
Y17795D01*
X37992Y19816D02*
X38038Y19862D01*
X38130D01*
X38176Y19816D01*
Y19770D01*
X38130Y19724D01*
X38084D01*
X38130D01*
X38176Y19678D01*
Y19633D01*
X38130Y19587D01*
X38038D01*
X37992Y19633D01*
X38268Y19541D02*
X38451D01*
X38543Y19816D02*
X38589Y19862D01*
X38681D01*
X38727Y19816D01*
Y19770D01*
X38681Y19724D01*
X38635D01*
X38681D01*
X38727Y19678D01*
Y19633D01*
X38681Y19587D01*
X38589D01*
X38543Y19633D01*
X38819Y19862D02*
Y19678D01*
X38910Y19587D01*
X39002Y19678D01*
Y19862D01*
X26673Y10610D02*
Y10335D01*
Y10426D01*
X26857Y10610D01*
X26719Y10472D01*
X26857Y10335D01*
X26949D02*
X27041D01*
X26995D01*
Y10610D01*
X26949Y10564D01*
X27264Y25669D02*
Y25394D01*
Y25486D01*
X27447Y25669D01*
X27310Y25531D01*
X27447Y25394D01*
X27723D02*
X27539D01*
X27723Y25577D01*
Y25623D01*
X27677Y25669D01*
X27585D01*
X27539Y25623D01*
X32677Y37205D02*
Y37480D01*
X32769Y37388D01*
X32861Y37480D01*
Y37205D01*
X32953D02*
X33045D01*
X32999D01*
Y37480D01*
X32953Y37434D01*
X35925Y23209D02*
Y22979D01*
X35971Y22933D01*
X36063D01*
X36109Y22979D01*
Y23209D01*
X36201Y22933D02*
X36293D01*
X36247D01*
Y23209D01*
X36201Y23163D01*
X25591Y30000D02*
Y29770D01*
X25636Y29724D01*
X25728D01*
X25774Y29770D01*
Y30000D01*
X25866Y29954D02*
X25912Y30000D01*
X26004D01*
X26050Y29954D01*
Y29908D01*
X26004Y29862D01*
X25958D01*
X26004D01*
X26050Y29816D01*
Y29770D01*
X26004Y29724D01*
X25912D01*
X25866Y29770D01*
X24508Y15630D02*
Y15400D01*
X24554Y15354D01*
X24646D01*
X24692Y15400D01*
Y15630D01*
X24921Y15354D02*
Y15630D01*
X24783Y15492D01*
X24967D01*
X37192Y46634D02*
X37100D01*
X37146D01*
Y46404D01*
X37100Y46358D01*
X37054D01*
X37008Y46404D01*
X37283Y46588D02*
X37329Y46634D01*
X37421D01*
X37467Y46588D01*
Y46542D01*
X37421Y46496D01*
X37375D01*
X37421D01*
X37467Y46450D01*
Y46404D01*
X37421Y46358D01*
X37329D01*
X37283Y46404D01*
M02*
