G04 Layer_Color=25308*
%FSLAX24Y24*%
%MOIN*%
G70*
G01*
G75*
%ADD40C,0.1181*%
%ADD41C,0.0600*%
%ADD42C,0.2756*%
%ADD43C,0.2362*%
%ADD44C,0.0787*%
%ADD45P,0.1065X8X292.5*%
%ADD46P,0.1492X8X292.5*%
%ADD47C,0.1000*%
%ADD48C,0.0750*%
%ADD49R,0.0750X0.0750*%
G04:AMPARAMS|DCode=50|XSize=315mil|YSize=78.7mil|CornerRadius=19.7mil|HoleSize=0mil|Usage=FLASHONLY|Rotation=270.000|XOffset=0mil|YOffset=0mil|HoleType=Round|Shape=RoundedRectangle|*
%AMROUNDEDRECTD50*
21,1,0.3150,0.0394,0,0,270.0*
21,1,0.2756,0.0787,0,0,270.0*
1,1,0.0394,-0.0197,-0.1378*
1,1,0.0394,-0.0197,0.1378*
1,1,0.0394,0.0197,0.1378*
1,1,0.0394,0.0197,-0.1378*
%
%ADD50ROUNDEDRECTD50*%
%ADD51R,0.0500X0.0500*%
D40*
X17323Y47244D02*
D03*
X15354D02*
D03*
X13386D02*
D03*
D41*
X38681Y11024D02*
D03*
X38000Y12598D02*
D03*
X37000D02*
D03*
X38000Y14961D02*
D03*
X37000D02*
D03*
X38681Y47244D02*
D03*
X10827D02*
D03*
X23819Y23819D02*
D03*
X22819D02*
D03*
X23720Y35630D02*
D03*
X22720D02*
D03*
X38091Y18799D02*
D03*
X39091D02*
D03*
X38091Y16831D02*
D03*
X39091D02*
D03*
X10827Y11024D02*
D03*
X34744Y17035D02*
D03*
Y16035D02*
D03*
X23819Y12008D02*
D03*
X22819D02*
D03*
D42*
X13602Y40551D02*
D03*
X16102Y43425D02*
D03*
X18602Y40551D02*
D03*
X13602Y28740D02*
D03*
X16102Y31614D02*
D03*
X18602Y28740D02*
D03*
X13602Y16929D02*
D03*
X16102Y19803D02*
D03*
X18602Y16929D02*
D03*
D43*
X35728Y30807D02*
D03*
Y33760D02*
D03*
D44*
X36417Y24720D02*
D03*
X38387Y24705D02*
D03*
X36417Y27772D02*
D03*
X38387Y27756D02*
D03*
D45*
X28365Y15869D02*
D03*
X32315D02*
D03*
X28365Y23743D02*
D03*
X32315D02*
D03*
Y31518D02*
D03*
X28365D02*
D03*
D46*
X30315Y16818D02*
D03*
X32315Y11818D02*
D03*
X28365D02*
D03*
X30315Y24693D02*
D03*
X32315Y19693D02*
D03*
X28365D02*
D03*
Y27468D02*
D03*
X32315D02*
D03*
X30315Y32468D02*
D03*
D47*
X32111Y42222D02*
D03*
D48*
X35039Y13909D02*
D03*
Y12909D02*
D03*
D49*
Y11909D02*
D03*
D50*
X24528Y38928D02*
D03*
Y45818D02*
D03*
D51*
X38417Y42776D02*
D03*
Y46004D02*
D03*
X37205Y45344D02*
D03*
Y43435D02*
D03*
M02*
