M48
;Layer_Color=6321
;FILE_FORMAT=2:4
INCH,LZ
;TYPE=PLATED
T1F00S00C0.0118
T2F00S00C0.0122
T3F00S00C0.0236
T4F00S00C0.0280
T5F00S00C0.0300
T6F00S00C0.0394
T8F00S00C0.0433
T9F00S00C0.0591
T10F00S00C0.0900
T11F00S00C0.1181
T12F00S00C0.1772
T13F00S00C0.1969
;TYPE=NON_PLATED
%
T01
X037559Y040413
Y040846
Y04128
X037992
Y040846
X038425
Y04128
Y040413
X037992
T02
X024213Y01378
X026476Y012894
X02688Y01486
X03182Y02139
X03316Y02107
X03528Y02016
X0349Y02289
X03425Y02354
X03409Y025214
X03316Y025925
X03149Y029016
X02896Y02816
X02724Y03097
X02553Y03024
X0257Y02533
X02577Y02469
X02616Y02375
X02551Y02328
X024508Y02533
X022844Y025787
X02241Y025197
X02157Y01947
X02361Y01895
X025465
X0259Y017565
X027129Y018209
X02711Y02038
X02777
Y02131
X027963Y032333
X026772Y03381
X03016Y03589
X02996Y04085
X02313Y04223
X01852Y04343
X02164Y03276
X032096Y03585
X032864Y03546
X03543Y03614
X03579Y03692
X03527Y03816
X03779Y03918
X03782Y03689
X03927Y03642
X038878Y03466
X0377Y034498
X03927Y04012
X039257Y041043
X03899Y04161
X03723Y04167
X037559Y042402
X037992Y04293
X03639Y042792
X03667Y04426
X03669Y04474
X03421Y04295
X0338Y04127
T03
X028365Y011818
X032315
Y015869
Y019693
Y023743
Y027468
X028365
Y023743
X030315Y024693
X028365Y019693
Y015869
X030315Y016818
Y032468
X028365Y031518
X032315
T04
X022047Y018799
X022146Y030512
X022244Y032972
T05
X022819Y012008
X023819
X037Y012598
X038
Y014961
X037
X038091Y016831
X039091
Y018799
X038091
X034744Y017035
Y016035
X023819Y023819
X022819
X02272Y03563
X02372
T06
X036417Y02472
X038387Y024705
Y027756
X036417Y027772
T08
X035039Y011909
Y012909
Y013909
X037205Y043435
X038417Y042776
Y046004
X037205Y045344
T09
X017323Y047244
X015354
X013386
T10
X032111Y042222
T11
X010827Y011024
X038681
Y047244
X010827
T12
X035728Y030807
Y03376
T13
X018602Y016929
X016102Y019803
X018602Y02874
X013602
Y016929
Y040551
X018602
X016102Y043425
Y031614
M30
