G04 Layer_Physical_Order=2*
G04 Layer_Color=11436288*
%FSLAX24Y24*%
%MOIN*%
G70*
G01*
G75*
%ADD32C,0.0067*%
%ADD33C,0.0787*%
%ADD34C,0.1969*%
%ADD40C,0.1181*%
%ADD41C,0.0600*%
%ADD42C,0.2756*%
%ADD43C,0.2362*%
%ADD44C,0.0787*%
%ADD45P,0.1065X8X292.5*%
%ADD46P,0.1492X8X292.5*%
%ADD47C,0.1000*%
%ADD48C,0.0750*%
%ADD49R,0.0750X0.0750*%
G04:AMPARAMS|DCode=50|XSize=315mil|YSize=78.7mil|CornerRadius=19.7mil|HoleSize=0mil|Usage=FLASHONLY|Rotation=270.000|XOffset=0mil|YOffset=0mil|HoleType=Round|Shape=RoundedRectangle|*
%AMROUNDEDRECTD50*
21,1,0.3150,0.0394,0,0,270.0*
21,1,0.2756,0.0787,0,0,270.0*
1,1,0.0394,-0.0197,-0.1378*
1,1,0.0394,-0.0197,0.1378*
1,1,0.0394,0.0197,0.1378*
1,1,0.0394,0.0197,-0.1378*
%
%ADD50ROUNDEDRECTD50*%
%ADD51R,0.0500X0.0500*%
%ADD52C,0.0197*%
%ADD53C,0.0500*%
%ADD54C,0.0236*%
%ADD55R,0.1300X0.1300*%
G36*
X27498Y30683D02*
Y29350D01*
X27505Y29293D01*
X27462Y29267D01*
X27461Y29267D01*
X27306Y29422D01*
Y30641D01*
X27327Y30644D01*
X27409Y30678D01*
X27448Y30708D01*
X27498Y30683D01*
D02*
G37*
G36*
X29091Y31086D02*
Y28513D01*
X29061Y28493D01*
X29041Y28487D01*
X29014Y28490D01*
X28042Y29463D01*
Y30790D01*
X28729D01*
X29045Y31105D01*
X29091Y31086D01*
D02*
G37*
G36*
X25531Y25038D02*
X25570Y25022D01*
X25578Y24964D01*
X25531Y24929D01*
X25478Y24859D01*
X25444Y24777D01*
X25440Y24744D01*
X24394Y23699D01*
X24347Y23722D01*
X24360Y23819D01*
X24341Y23959D01*
X24287Y24089D01*
X24201Y24201D01*
X24089Y24287D01*
X23959Y24341D01*
X23819Y24360D01*
X23679Y24341D01*
X23548Y24287D01*
X23436Y24201D01*
X23351Y24089D01*
X23344Y24073D01*
X23294D01*
X23287Y24089D01*
X23201Y24201D01*
X23089Y24287D01*
X22959Y24341D01*
X22819Y24360D01*
X22679Y24341D01*
X22598Y24308D01*
X22557Y24336D01*
Y24895D01*
X22579Y24905D01*
X22649Y24958D01*
X22702Y25028D01*
X22715Y25058D01*
X24313D01*
X24339Y25038D01*
X24421Y25004D01*
X24508Y24992D01*
X24595Y25004D01*
X24677Y25038D01*
X24703Y25058D01*
X25505D01*
X25531Y25038D01*
D02*
G37*
G36*
X22198Y35490D02*
X22252Y35359D01*
X22338Y35247D01*
X22450Y35162D01*
X22580Y35108D01*
X22720Y35089D01*
X22858Y35107D01*
X24314Y33652D01*
X24295Y33605D01*
X22244D01*
X22183Y33599D01*
X22146Y33633D01*
Y35505D01*
X22196Y35508D01*
X22198Y35490D01*
D02*
G37*
G36*
X26040Y29160D02*
Y29160D01*
Y29160D01*
X26045Y29116D01*
X26052Y29036D01*
X26088Y28918D01*
X26088Y28918D01*
X26147Y28808D01*
X26188Y28758D01*
X26226Y28712D01*
X26226Y28712D01*
X27440Y27498D01*
Y27006D01*
X27902Y26543D01*
X28828D01*
X29045Y26760D01*
X29091Y26741D01*
Y24693D01*
Y24175D01*
X29045Y24155D01*
X28729Y24471D01*
X28045D01*
Y25245D01*
X28033Y25369D01*
X27997Y25488D01*
X27938Y25597D01*
X27860Y25693D01*
X27860Y25693D01*
X22593Y30959D01*
X22497Y31038D01*
X22388Y31097D01*
X22269Y31133D01*
X22146Y31145D01*
Y31804D01*
X22192Y31823D01*
X23968Y30048D01*
X24024Y30004D01*
X24090Y29977D01*
X24160Y29968D01*
X25335D01*
X25361Y29948D01*
X25443Y29914D01*
X25530Y29902D01*
X25617Y29914D01*
X25699Y29948D01*
X25769Y30001D01*
X25822Y30071D01*
X25856Y30153D01*
X25868Y30240D01*
X25856Y30327D01*
X25822Y30409D01*
X25769Y30479D01*
X25699Y30532D01*
X25617Y30566D01*
X25530Y30578D01*
X25443Y30566D01*
X25361Y30532D01*
X25335Y30512D01*
X24273D01*
X22491Y32293D01*
X22511Y32339D01*
X26040D01*
Y29160D01*
D02*
G37*
G36*
X31951Y30790D02*
X32043D01*
Y29954D01*
X31585Y29496D01*
X31539Y29515D01*
Y31148D01*
X31589Y31151D01*
X31951Y30790D01*
D02*
G37*
G36*
X26779Y24983D02*
Y23436D01*
X26754Y23425D01*
X26729Y23423D01*
X26691Y23472D01*
X26592Y23571D01*
X26536Y23614D01*
X26500Y23629D01*
X26486Y23663D01*
X26498Y23750D01*
X26486Y23837D01*
X26452Y23919D01*
X26399Y23989D01*
X26329Y24042D01*
X26247Y24076D01*
X26160Y24088D01*
X26073Y24076D01*
X25991Y24042D01*
X25975Y24030D01*
X25928Y24024D01*
X25920Y24023D01*
X25892Y24011D01*
X25854Y23996D01*
X25841Y23986D01*
X25798Y23952D01*
X25798Y23952D01*
X25456Y23610D01*
X25423Y23606D01*
X25341Y23572D01*
X25271Y23519D01*
X25218Y23449D01*
X25184Y23367D01*
X25182Y23353D01*
X24883D01*
X24864Y23399D01*
X25824Y24360D01*
X25857Y24364D01*
X25939Y24398D01*
X26009Y24451D01*
X26062Y24521D01*
X26096Y24603D01*
X26108Y24690D01*
X26096Y24777D01*
X26062Y24859D01*
X26009Y24929D01*
X25939Y24982D01*
X25900Y24998D01*
X25892Y25056D01*
X25939Y25091D01*
X25992Y25161D01*
X26026Y25243D01*
X26038Y25330D01*
X26026Y25417D01*
X25992Y25499D01*
X25939Y25569D01*
X25869Y25622D01*
X25787Y25656D01*
X25700Y25668D01*
X25613Y25656D01*
X25531Y25622D01*
X25505Y25602D01*
X24703D01*
X24677Y25622D01*
X24595Y25656D01*
X24508Y25668D01*
X24421Y25656D01*
X24339Y25622D01*
X24313Y25602D01*
X23184D01*
X23151Y25652D01*
X23171Y25700D01*
X23182Y25787D01*
X23171Y25875D01*
X23137Y25956D01*
X23083Y26026D01*
X23013Y26080D01*
X22932Y26113D01*
X22844Y26125D01*
X22757Y26113D01*
X22676Y26080D01*
X22649Y26059D01*
X22638D01*
X22567Y26050D01*
X22502Y26023D01*
X22445Y25980D01*
X22288Y25822D01*
X22244Y25766D01*
X22217Y25700D01*
X22208Y25630D01*
Y25504D01*
X22196Y25496D01*
X22146Y25524D01*
Y29551D01*
X22192Y29570D01*
X26779Y24983D01*
D02*
G37*
G36*
X22679Y23296D02*
X22819Y23278D01*
X22957Y23296D01*
X23067Y23186D01*
X23364Y22889D01*
X23364Y22889D01*
X23408Y22856D01*
X23421Y22846D01*
X23459Y22830D01*
X23486Y22818D01*
X23494Y22817D01*
X23557Y22809D01*
X23557Y22809D01*
X25709D01*
X25779Y22818D01*
X25845Y22846D01*
X25901Y22889D01*
X26119Y23107D01*
X26227D01*
Y22581D01*
X26236Y22511D01*
X26263Y22445D01*
X26306Y22389D01*
X27440Y21256D01*
X27444Y21223D01*
X27478Y21141D01*
X27531Y21071D01*
X27601Y21018D01*
X27683Y20984D01*
X27732Y20977D01*
Y20447D01*
X27440Y20155D01*
Y19230D01*
X27902Y18767D01*
X28828D01*
X29045Y18984D01*
X29091Y18965D01*
Y16866D01*
X28840D01*
X27462Y18244D01*
X27455Y18296D01*
X27421Y18377D01*
X27367Y18447D01*
X27297Y18501D01*
X27216Y18535D01*
X27183Y18539D01*
X26830Y18892D01*
Y19169D01*
X26821Y19239D01*
X26794Y19305D01*
X26751Y19361D01*
X26098Y20014D01*
X26042Y20057D01*
X25976Y20084D01*
X25906Y20093D01*
X24804D01*
X22557Y22340D01*
Y23302D01*
X22598Y23330D01*
X22679Y23296D01*
D02*
G37*
G36*
X29040Y15364D02*
X29106Y15337D01*
X29176Y15328D01*
X31324D01*
X31344Y15282D01*
X31194Y15132D01*
X28792D01*
X28771Y15182D01*
X28991Y15402D01*
X29040Y15364D01*
D02*
G37*
G36*
X32043Y13298D02*
X29717Y10972D01*
X28972D01*
X28952Y11018D01*
X29290Y11356D01*
Y12281D01*
X28988Y12583D01*
X28986Y12605D01*
X28950Y12724D01*
X28891Y12833D01*
X28813Y12929D01*
X28813Y12929D01*
X27200Y14542D01*
X27219Y14588D01*
X31306D01*
X31377Y14597D01*
X31442Y14624D01*
X31499Y14668D01*
X31971Y15140D01*
X32043D01*
Y13298D01*
D02*
G37*
G36*
X29091Y23310D02*
Y20420D01*
X29045Y20401D01*
X28998Y20447D01*
Y21837D01*
X28986Y21960D01*
X28950Y22079D01*
X28891Y22189D01*
X28813Y22285D01*
X28129Y22968D01*
X28148Y23014D01*
X28729D01*
X29045Y23330D01*
X29091Y23310D01*
D02*
G37*
G36*
X24005Y20121D02*
X23986Y20075D01*
X22146D01*
Y21916D01*
X22192Y21935D01*
X24005Y20121D01*
D02*
G37*
G36*
X24365Y19495D02*
X24365Y19495D01*
X24421Y19452D01*
X24487Y19425D01*
X24557Y19415D01*
X24983D01*
X25131Y19268D01*
X25111Y19222D01*
X23805D01*
X23779Y19242D01*
X23697Y19276D01*
X23610Y19288D01*
X23523Y19276D01*
X23441Y19242D01*
X23371Y19189D01*
X23318Y19119D01*
X23284Y19037D01*
X23272Y18950D01*
X23284Y18863D01*
X23318Y18781D01*
X23371Y18711D01*
X23441Y18658D01*
X23523Y18624D01*
X23610Y18612D01*
X23697Y18624D01*
X23779Y18658D01*
X23805Y18678D01*
X25270D01*
X25296Y18658D01*
X25378Y18624D01*
X25465Y18612D01*
X25552Y18624D01*
X25634Y18658D01*
X25695Y18704D01*
X27901Y16497D01*
X27637Y16233D01*
Y15504D01*
X27959Y15182D01*
X27938Y15132D01*
X27075D01*
X27049Y15152D01*
X26967Y15186D01*
X26880Y15198D01*
X26793Y15186D01*
X26711Y15152D01*
X26642Y15099D01*
X24495Y17247D01*
X24514Y17293D01*
X25705D01*
X25731Y17273D01*
X25813Y17239D01*
X25900Y17227D01*
X25987Y17239D01*
X26069Y17273D01*
X26139Y17326D01*
X26192Y17396D01*
X26226Y17478D01*
X26238Y17565D01*
X26226Y17652D01*
X26192Y17734D01*
X26139Y17804D01*
X26069Y17857D01*
X25987Y17891D01*
X25900Y17902D01*
X25813Y17891D01*
X25731Y17857D01*
X25705Y17837D01*
X24093D01*
X22445Y19485D01*
X22464Y19531D01*
X24329D01*
X24365Y19495D01*
D02*
G37*
G36*
X27053Y34098D02*
X27024Y34055D01*
X26982Y34073D01*
X26979Y34073D01*
X26941Y34102D01*
X26859Y34136D01*
X26772Y34148D01*
X26685Y34136D01*
X26603Y34102D01*
X26533Y34049D01*
X26480Y33979D01*
X26446Y33897D01*
X26434Y33810D01*
X26436Y33800D01*
X26403Y33762D01*
X24973D01*
X23690Y35045D01*
X23712Y35090D01*
X23720Y35089D01*
X23860Y35108D01*
X23991Y35162D01*
X24103Y35247D01*
X24189Y35359D01*
X24243Y35490D01*
X24261Y35630D01*
X24243Y35770D01*
X24189Y35900D01*
X24103Y36012D01*
X23991Y36098D01*
X23860Y36152D01*
X23720Y36171D01*
X23581Y36152D01*
X23450Y36098D01*
X23338Y36012D01*
X23252Y35900D01*
X23245Y35884D01*
X23195D01*
X23189Y35900D01*
X23103Y36012D01*
X22991Y36098D01*
X22860Y36152D01*
X22720Y36171D01*
X22580Y36152D01*
X22450Y36098D01*
X22338Y36012D01*
X22252Y35900D01*
X22198Y35770D01*
X22196Y35752D01*
X22146Y35755D01*
Y36909D01*
X24241D01*
X27053Y34098D01*
D02*
G37*
G36*
X36718Y45103D02*
X36690Y45078D01*
X36603Y45066D01*
X36521Y45032D01*
X36451Y44979D01*
X36398Y44909D01*
X36364Y44827D01*
X36352Y44740D01*
X36364Y44653D01*
X36398Y44571D01*
X36435Y44523D01*
X36431Y44498D01*
X36378Y44429D01*
X36344Y44347D01*
X36332Y44260D01*
X36344Y44172D01*
X36378Y44091D01*
X36431Y44021D01*
X36501Y43967D01*
X36583Y43934D01*
X36670Y43922D01*
X36718Y43878D01*
Y43051D01*
X36669Y43025D01*
X36662Y43030D01*
Y43509D01*
X36653Y43579D01*
X36626Y43645D01*
X36582Y43701D01*
X35521Y44762D01*
X35465Y44806D01*
X35399Y44833D01*
X35329Y44842D01*
X35020D01*
X35020Y44842D01*
X34958Y44834D01*
X34950Y44833D01*
X34922Y44822D01*
X34884Y44806D01*
X34828Y44762D01*
X33767Y43702D01*
X26083D01*
Y45374D01*
X36718D01*
Y45103D01*
D02*
G37*
G36*
X38247Y39762D02*
X37958Y39473D01*
X37877Y39506D01*
X37790Y39518D01*
X37703Y39506D01*
X37621Y39472D01*
X37595Y39452D01*
X37210D01*
X37140Y39443D01*
X37074Y39416D01*
X37018Y39372D01*
X35818Y38173D01*
X35772Y38192D01*
Y39630D01*
X35763Y39700D01*
X35739Y39758D01*
X35759Y39808D01*
X38228D01*
X38247Y39762D01*
D02*
G37*
G36*
X26083Y45615D02*
X25991Y45597D01*
X25912Y45544D01*
X25860Y45466D01*
X25842Y45374D01*
Y43702D01*
X18715D01*
X18689Y43722D01*
X18607Y43756D01*
X18520Y43768D01*
X18433Y43756D01*
X18351Y43722D01*
X18281Y43669D01*
X18228Y43599D01*
X18194Y43517D01*
X18182Y43430D01*
X18194Y43343D01*
X18228Y43261D01*
X18281Y43191D01*
X18351Y43138D01*
X18433Y43104D01*
X18520Y43092D01*
X18607Y43104D01*
X18689Y43138D01*
X18715Y43158D01*
X23603D01*
X23623Y43108D01*
X23076Y42560D01*
X23043Y42556D01*
X22961Y42522D01*
X22891Y42469D01*
X22838Y42399D01*
X22804Y42317D01*
X22792Y42230D01*
X22804Y42143D01*
X22838Y42061D01*
X22891Y41991D01*
X22961Y41938D01*
X23043Y41904D01*
X23130Y41892D01*
X23217Y41904D01*
X23299Y41938D01*
X23369Y41991D01*
X23422Y42061D01*
X23456Y42143D01*
X23460Y42176D01*
X23963Y42678D01*
X25842D01*
Y38836D01*
X25796Y38817D01*
X25752Y38861D01*
Y38928D01*
X25737Y39120D01*
X25692Y39307D01*
X25618Y39484D01*
X25518Y39648D01*
X25393Y39794D01*
X25247Y39919D01*
X25161Y39971D01*
Y40306D01*
X25146Y40419D01*
X25103Y40525D01*
X25033Y40615D01*
X24943Y40685D01*
X24837Y40728D01*
X24724Y40743D01*
X24331D01*
X24218Y40728D01*
X24112Y40685D01*
X24022Y40615D01*
X23952Y40525D01*
X23909Y40419D01*
X23894Y40306D01*
Y39971D01*
X23808Y39919D01*
X23662Y39794D01*
X23537Y39648D01*
X23437Y39484D01*
X23363Y39307D01*
X23318Y39120D01*
X23303Y38928D01*
Y38354D01*
X23318Y38162D01*
X23363Y37976D01*
X23437Y37798D01*
X23537Y37634D01*
X23662Y37488D01*
X23954Y37196D01*
X23935Y37150D01*
X22146D01*
X22053Y37132D01*
X21975Y37080D01*
X21923Y37002D01*
X21905Y36909D01*
Y35755D01*
X21912Y35717D01*
X21918Y35678D01*
X21922Y35671D01*
X21923Y35663D01*
X21945Y35630D01*
X21945Y35630D01*
X21945Y35630D01*
X21923Y35597D01*
X21922Y35589D01*
X21918Y35582D01*
X21912Y35543D01*
X21905Y35505D01*
Y33633D01*
X21906Y33627D01*
X21905Y33621D01*
X21915Y33581D01*
X21923Y33541D01*
X21896Y33501D01*
X21892Y33499D01*
X21797Y33420D01*
X21718Y33324D01*
X21659Y33215D01*
X21623Y33096D01*
X21623Y33095D01*
X21553Y33086D01*
X21471Y33052D01*
X21401Y32999D01*
X21348Y32929D01*
X21314Y32847D01*
X21302Y32760D01*
X21314Y32673D01*
X21348Y32591D01*
X21401Y32521D01*
X21471Y32468D01*
X21553Y32434D01*
X21586Y32430D01*
X21987Y32029D01*
X21982Y31979D01*
X21975Y31975D01*
X21949Y31936D01*
X21923Y31896D01*
X21923Y31896D01*
X21905Y31804D01*
X21905Y31804D01*
Y31145D01*
X21912Y31110D01*
X21913Y31099D01*
X21903Y31097D01*
X21794Y31038D01*
X21698Y30959D01*
X21619Y30863D01*
X21561Y30754D01*
X21525Y30635D01*
X21513Y30512D01*
X21525Y30388D01*
X21561Y30270D01*
X21619Y30160D01*
X21698Y30064D01*
X21987Y29776D01*
X21982Y29726D01*
X21975Y29722D01*
X21949Y29683D01*
X21923Y29643D01*
X21923Y29643D01*
X21905Y29551D01*
X21905Y29551D01*
Y25524D01*
X21911Y25491D01*
X21914Y25458D01*
X21920Y25445D01*
X21923Y25432D01*
X21942Y25404D01*
X21957Y25374D01*
X21968Y25365D01*
X21975Y25354D01*
X22003Y25335D01*
X22029Y25313D01*
X22030Y25313D01*
X22044Y25266D01*
X22017Y25200D01*
X22008Y25130D01*
Y22231D01*
X22017Y22161D01*
X22032Y22124D01*
X21975Y22086D01*
X21949Y22047D01*
X21923Y22008D01*
X21923Y22008D01*
X21905Y21916D01*
X21905Y21915D01*
Y20075D01*
X21923Y19983D01*
X21975Y19905D01*
X22047Y19857D01*
Y19742D01*
X21765D01*
X21739Y19762D01*
X21657Y19796D01*
X21570Y19808D01*
X21483Y19796D01*
X21401Y19762D01*
X21331Y19709D01*
X21278Y19639D01*
X21244Y19557D01*
X21232Y19470D01*
X21244Y19383D01*
X21278Y19301D01*
X21331Y19231D01*
X21401Y19178D01*
X21465Y19151D01*
X21493Y19098D01*
X21462Y19041D01*
X21426Y18923D01*
X21414Y18799D01*
X21426Y18676D01*
X21462Y18557D01*
X21521Y18448D01*
X21600Y18352D01*
X21987Y17965D01*
X21982Y17915D01*
X21975Y17911D01*
X21949Y17872D01*
X21923Y17832D01*
X21923Y17832D01*
X21905Y17740D01*
X21905Y17740D01*
Y10120D01*
X10120D01*
Y10502D01*
X10170Y10520D01*
X10239Y10436D01*
X10365Y10333D01*
X10509Y10256D01*
X10665Y10209D01*
X10827Y10193D01*
X10989Y10209D01*
X11145Y10256D01*
X11288Y10333D01*
X11414Y10436D01*
X11518Y10562D01*
X11594Y10706D01*
X11642Y10862D01*
X11658Y11024D01*
X11642Y11186D01*
X11594Y11342D01*
X11518Y11485D01*
X11414Y11611D01*
X11288Y11714D01*
X11145Y11791D01*
X10989Y11838D01*
X10827Y11854D01*
X10665Y11838D01*
X10509Y11791D01*
X10365Y11714D01*
X10239Y11611D01*
X10170Y11527D01*
X10120Y11545D01*
Y46723D01*
X10170Y46741D01*
X10239Y46657D01*
X10365Y46553D01*
X10509Y46477D01*
X10665Y46429D01*
X10827Y46413D01*
X10989Y46429D01*
X11145Y46477D01*
X11288Y46553D01*
X11414Y46657D01*
X11518Y46783D01*
X11594Y46926D01*
X11642Y47082D01*
X11658Y47244D01*
X11642Y47406D01*
X11594Y47562D01*
X11518Y47706D01*
X11414Y47832D01*
X11288Y47935D01*
X11145Y48012D01*
X10989Y48059D01*
X10827Y48075D01*
X10665Y48059D01*
X10509Y48012D01*
X10365Y47935D01*
X10239Y47832D01*
X10170Y47748D01*
X10120Y47766D01*
Y48147D01*
X26083D01*
Y45615D01*
D02*
G37*
G36*
X39387Y42016D02*
X39341Y41997D01*
X39312Y42026D01*
X39256Y42069D01*
X39190Y42096D01*
X39120Y42105D01*
X38880D01*
X38880Y42105D01*
X38810Y42096D01*
X38744Y42069D01*
X38731Y42059D01*
X38688Y42026D01*
X38688Y42026D01*
X38550Y41888D01*
X38507Y41832D01*
X38480Y41766D01*
X38471Y41696D01*
Y40352D01*
X35352D01*
X34462Y41242D01*
X34405Y41286D01*
X34340Y41313D01*
X34269Y41322D01*
X29840D01*
X29770Y41313D01*
X29704Y41286D01*
X29648Y41242D01*
X29568Y41162D01*
X29524Y41106D01*
X29497Y41040D01*
X29488Y40970D01*
Y37390D01*
X29497Y37320D01*
X29524Y37254D01*
X29568Y37198D01*
X30556Y36210D01*
X30533Y36162D01*
X30355D01*
X30329Y36182D01*
X30247Y36216D01*
X30160Y36228D01*
X30073Y36216D01*
X29991Y36182D01*
X29921Y36129D01*
X29868Y36059D01*
X29834Y35977D01*
X29822Y35890D01*
X29834Y35803D01*
X29868Y35721D01*
X29921Y35651D01*
X29991Y35598D01*
X30073Y35564D01*
X30160Y35552D01*
X30247Y35564D01*
X30329Y35598D01*
X30355Y35618D01*
X30437D01*
X31188Y34868D01*
X31244Y34824D01*
X31310Y34797D01*
X31380Y34788D01*
X34677D01*
X34700Y34738D01*
X34578Y34595D01*
X34462Y34405D01*
X34376Y34199D01*
X34324Y33982D01*
X34307Y33760D01*
X34324Y33537D01*
X34376Y33321D01*
X34462Y33114D01*
X34578Y32924D01*
X34723Y32755D01*
X34893Y32610D01*
X35083Y32493D01*
X35289Y32408D01*
X35506Y32356D01*
X35728Y32338D01*
X35951Y32356D01*
X36168Y32408D01*
X36374Y32493D01*
X36564Y32610D01*
X36734Y32755D01*
X36879Y32924D01*
X36995Y33114D01*
X37080Y33321D01*
X37133Y33537D01*
X37150Y33760D01*
X37133Y33982D01*
X37080Y34199D01*
X36995Y34405D01*
X36879Y34595D01*
X36757Y34738D01*
X36780Y34788D01*
X37025D01*
X37370Y34444D01*
X37374Y34411D01*
X37408Y34329D01*
X37461Y34259D01*
X37531Y34206D01*
X37613Y34172D01*
X37700Y34160D01*
X37787Y34172D01*
X37869Y34206D01*
X37939Y34259D01*
X37992Y34329D01*
X38026Y34411D01*
X38038Y34498D01*
X38026Y34585D01*
X37992Y34667D01*
X37939Y34737D01*
X37869Y34790D01*
X37787Y34824D01*
X37754Y34828D01*
X37681Y34902D01*
X37700Y34948D01*
X38205D01*
X38548Y34606D01*
X38552Y34573D01*
X38586Y34491D01*
X38639Y34421D01*
X38709Y34368D01*
X38791Y34334D01*
X38878Y34322D01*
X38965Y34334D01*
X39047Y34368D01*
X39117Y34421D01*
X39170Y34491D01*
X39204Y34573D01*
X39215Y34660D01*
X39204Y34747D01*
X39170Y34829D01*
X39117Y34899D01*
X39047Y34952D01*
X38965Y34986D01*
X38932Y34990D01*
X38510Y35412D01*
X38454Y35456D01*
X38388Y35483D01*
X38318Y35492D01*
X35804D01*
X35647Y35649D01*
X35650Y35699D01*
X35960Y35948D01*
X35971Y35959D01*
X35982Y35968D01*
X35995Y35984D01*
X36009Y35999D01*
X36016Y36012D01*
X36026Y36024D01*
X36034Y36043D01*
X36044Y36061D01*
X36047Y36076D01*
X36053Y36090D01*
X36055Y36110D01*
X36060Y36130D01*
X36060Y36145D01*
X36062Y36160D01*
Y36725D01*
X36082Y36751D01*
X36116Y36833D01*
X36128Y36920D01*
X36116Y37007D01*
X36082Y37089D01*
X36029Y37159D01*
X35959Y37212D01*
X35877Y37246D01*
X35790Y37258D01*
X35752Y37253D01*
X35742Y37260D01*
X35733Y37318D01*
X37323Y38908D01*
X37468D01*
X37487Y38862D01*
X36998Y38372D01*
X36954Y38316D01*
X36927Y38250D01*
X36918Y38180D01*
Y36590D01*
X36927Y36520D01*
X36954Y36454D01*
X36998Y36398D01*
X37168Y36228D01*
X37224Y36184D01*
X37290Y36157D01*
X37360Y36148D01*
X39075D01*
X39101Y36128D01*
X39183Y36094D01*
X39270Y36082D01*
X39337Y36091D01*
X39387Y36058D01*
Y11545D01*
X39337Y11527D01*
X39269Y11611D01*
X39143Y11714D01*
X38999Y11791D01*
X38843Y11838D01*
X38681Y11854D01*
X38519Y11838D01*
X38363Y11791D01*
X38220Y11714D01*
X38094Y11611D01*
X37990Y11485D01*
X37914Y11342D01*
X37866Y11186D01*
X37850Y11024D01*
X37866Y10862D01*
X37914Y10706D01*
X37990Y10562D01*
X38094Y10436D01*
X38220Y10333D01*
X38363Y10256D01*
X38519Y10209D01*
X38681Y10193D01*
X38843Y10209D01*
X38999Y10256D01*
X39143Y10333D01*
X39269Y10436D01*
X39337Y10520D01*
X39387Y10502D01*
Y10120D01*
X22146D01*
Y17740D01*
X22192Y17759D01*
X27530Y12421D01*
Y12371D01*
X27440Y12281D01*
Y11356D01*
X27777Y11018D01*
X27758Y10972D01*
X24239D01*
X23788Y11423D01*
X23810Y11468D01*
X23819Y11467D01*
X23959Y11485D01*
X24089Y11539D01*
X24201Y11625D01*
X24287Y11737D01*
X24341Y11868D01*
X24360Y12008D01*
X24341Y12148D01*
X24287Y12278D01*
X24201Y12390D01*
X24089Y12476D01*
X23959Y12530D01*
X23819Y12549D01*
X23679Y12530D01*
X23548Y12476D01*
X23436Y12390D01*
X23351Y12278D01*
X23344Y12262D01*
X23294D01*
X23287Y12278D01*
X23201Y12390D01*
X23089Y12476D01*
X22959Y12530D01*
X22819Y12549D01*
X22679Y12530D01*
X22548Y12476D01*
X22436Y12390D01*
X22351Y12278D01*
X22296Y12148D01*
X22278Y12008D01*
X22296Y11868D01*
X22351Y11737D01*
X22436Y11625D01*
X22548Y11539D01*
X22679Y11485D01*
X22819Y11467D01*
X22957Y11485D01*
X23934Y10508D01*
X23991Y10464D01*
X24056Y10437D01*
X24127Y10428D01*
X24127Y10428D01*
X29830D01*
X29900Y10437D01*
X29966Y10464D01*
X30022Y10508D01*
X31344Y11829D01*
X31390Y11810D01*
Y11356D01*
X31852Y10893D01*
X32778D01*
X33240Y11356D01*
Y12281D01*
X32778Y12744D01*
X32324D01*
X32305Y12790D01*
X32507Y12993D01*
X32551Y13049D01*
X32578Y13115D01*
X32587Y13185D01*
Y15140D01*
X32679D01*
X33016Y15477D01*
X33084Y15481D01*
X34460Y14104D01*
X34437Y14029D01*
X34425Y13909D01*
X34437Y13790D01*
X34472Y13674D01*
X34529Y13568D01*
X34605Y13475D01*
X34655Y13434D01*
Y13384D01*
X34605Y13344D01*
X34529Y13251D01*
X34472Y13144D01*
X34437Y13029D01*
X34425Y12909D01*
X34437Y12790D01*
X34472Y12674D01*
X34527Y12571D01*
X34520Y12543D01*
X34509Y12521D01*
X34428D01*
Y11298D01*
X35651D01*
Y12521D01*
X35569D01*
X35559Y12543D01*
X35551Y12571D01*
X35607Y12674D01*
X35642Y12790D01*
X35654Y12909D01*
X35642Y13029D01*
X35607Y13144D01*
X35550Y13251D01*
X35474Y13344D01*
X35424Y13384D01*
Y13434D01*
X35474Y13475D01*
X35550Y13568D01*
X35607Y13674D01*
X35642Y13790D01*
X35654Y13909D01*
X35642Y14029D01*
X35607Y14144D01*
X35550Y14251D01*
X35474Y14344D01*
X35381Y14420D01*
X35274Y14477D01*
X35159Y14512D01*
X35039Y14524D01*
X34920Y14512D01*
X34844Y14489D01*
X34691Y14642D01*
X34710Y14689D01*
X36533D01*
X36618Y14578D01*
X36730Y14492D01*
X36860Y14438D01*
X37000Y14420D01*
X37140Y14438D01*
X37270Y14492D01*
X37382Y14578D01*
X37468Y14690D01*
X37522Y14821D01*
X37541Y14961D01*
X37522Y15101D01*
X37468Y15231D01*
X37382Y15343D01*
X37270Y15429D01*
X37140Y15483D01*
X37000Y15501D01*
X36860Y15483D01*
X36730Y15429D01*
X36618Y15343D01*
X36533Y15233D01*
X34712D01*
X34332Y15613D01*
X34359Y15644D01*
X34363Y15649D01*
X34364Y15650D01*
X34395Y15627D01*
X34396Y15627D01*
D01*
X34474Y15567D01*
X34604Y15513D01*
X34744Y15495D01*
X34884Y15513D01*
X35015Y15567D01*
X35127Y15653D01*
X35212Y15765D01*
X35267Y15895D01*
X35285Y16035D01*
X35267Y16175D01*
X35212Y16306D01*
X35127Y16418D01*
X35015Y16504D01*
X34884Y16558D01*
X34744Y16576D01*
X34604Y16558D01*
X34474Y16504D01*
X34362Y16418D01*
X34276Y16306D01*
X34222Y16175D01*
X34203Y16035D01*
X34222Y15895D01*
X34276Y15765D01*
X34335Y15688D01*
X34335Y15688D01*
X34336Y15687D01*
X34358Y15655D01*
X34357Y15654D01*
X34353Y15650D01*
X34322Y15623D01*
X32792Y17152D01*
X32736Y17196D01*
X32670Y17223D01*
X32600Y17232D01*
X31800D01*
X31800Y17232D01*
X31730Y17223D01*
X31664Y17196D01*
X31608Y17152D01*
X31585Y17130D01*
X31539Y17149D01*
Y19015D01*
X31585Y19034D01*
X31852Y18767D01*
X32778D01*
X33240Y19230D01*
Y20155D01*
X32778Y20618D01*
X31852D01*
X31585Y20351D01*
X31539Y20370D01*
Y23372D01*
X31589Y23376D01*
X31951Y23014D01*
X32679D01*
X32842Y23177D01*
X32888Y23158D01*
Y21265D01*
X32868Y21239D01*
X32834Y21157D01*
X32822Y21070D01*
X32834Y20983D01*
X32868Y20901D01*
X32921Y20831D01*
X32991Y20778D01*
X33073Y20744D01*
X33160Y20732D01*
X33247Y20744D01*
X33329Y20778D01*
X33399Y20831D01*
X33452Y20901D01*
X33486Y20983D01*
X33498Y21070D01*
X33486Y21157D01*
X33452Y21239D01*
X33432Y21265D01*
Y25730D01*
X33452Y25756D01*
X33486Y25838D01*
X33498Y25925D01*
X33486Y26013D01*
X33452Y26094D01*
X33399Y26164D01*
X33329Y26218D01*
X33247Y26251D01*
X33160Y26263D01*
X33073Y26251D01*
X32991Y26218D01*
X32921Y26164D01*
X32868Y26094D01*
X32834Y26013D01*
X32822Y25925D01*
X32834Y25838D01*
X32868Y25756D01*
X32888Y25730D01*
Y24327D01*
X32842Y24308D01*
X32679Y24471D01*
X31951D01*
X31589Y24109D01*
X31539Y24113D01*
Y24693D01*
Y26791D01*
X31585Y26810D01*
X31852Y26543D01*
X32778D01*
X33240Y27006D01*
Y27931D01*
X32778Y28393D01*
X31852D01*
X31585Y28126D01*
X31539Y28145D01*
Y28685D01*
X31577Y28690D01*
X31659Y28724D01*
X31729Y28777D01*
X31782Y28847D01*
X31816Y28929D01*
X31820Y28962D01*
X32282Y29424D01*
X32332Y29423D01*
X33658Y27993D01*
Y25374D01*
X33667Y25303D01*
X33694Y25238D01*
X33738Y25181D01*
X33760Y25159D01*
X33764Y25126D01*
X33798Y25045D01*
X33851Y24975D01*
X33921Y24921D01*
X34003Y24888D01*
X34090Y24876D01*
X34177Y24888D01*
X34259Y24921D01*
X34329Y24975D01*
X34382Y25045D01*
X34416Y25126D01*
X34428Y25214D01*
X34416Y25301D01*
X34382Y25383D01*
X34329Y25452D01*
X34259Y25506D01*
X34202Y25530D01*
Y28100D01*
X34198Y28130D01*
X34195Y28160D01*
X34193Y28165D01*
X34193Y28170D01*
X34181Y28199D01*
X34171Y28227D01*
X34168Y28231D01*
X34166Y28236D01*
X34147Y28260D01*
X34129Y28285D01*
X32587Y29948D01*
Y30790D01*
X32679D01*
X33043Y31154D01*
Y31882D01*
X32679Y32246D01*
X31951D01*
X31589Y31885D01*
X31539Y31889D01*
Y32468D01*
Y32567D01*
X31539Y32567D01*
X31524Y32758D01*
X31479Y32945D01*
X31458Y32997D01*
X31406Y33122D01*
X31305Y33286D01*
X31181Y33432D01*
X31181Y33432D01*
X26083Y38530D01*
Y42678D01*
X34015D01*
X34041Y42658D01*
X34123Y42624D01*
X34210Y42612D01*
X34297Y42624D01*
X34379Y42658D01*
X34449Y42711D01*
X34502Y42781D01*
X34536Y42863D01*
X34548Y42950D01*
X34536Y43037D01*
X34502Y43119D01*
X34449Y43189D01*
X34379Y43242D01*
X34297Y43276D01*
X34210Y43288D01*
X34190Y43285D01*
X34167Y43332D01*
X35133Y44298D01*
X35216D01*
X36118Y43396D01*
Y42988D01*
X36098Y42961D01*
X36064Y42880D01*
X36052Y42792D01*
X36064Y42705D01*
X36098Y42624D01*
X36151Y42554D01*
X36221Y42500D01*
X36303Y42466D01*
X36390Y42455D01*
X36477Y42466D01*
X36559Y42500D01*
X36629Y42554D01*
X36682Y42624D01*
X36716Y42705D01*
X36728Y42792D01*
X36716Y42880D01*
X36706Y42904D01*
X36742Y42949D01*
X37282D01*
X37289Y42934D01*
X37295Y42899D01*
X37248Y42862D01*
X37038Y42652D01*
X36994Y42596D01*
X36967Y42530D01*
X36958Y42460D01*
Y41865D01*
X36938Y41839D01*
X36904Y41757D01*
X36892Y41670D01*
X36904Y41583D01*
X36938Y41501D01*
X36991Y41431D01*
X37061Y41378D01*
X37143Y41344D01*
X37230Y41332D01*
X37317Y41344D01*
X37399Y41378D01*
X37469Y41431D01*
X37522Y41501D01*
X37556Y41583D01*
X37568Y41670D01*
X37556Y41757D01*
X37522Y41839D01*
X37502Y41865D01*
Y42347D01*
X37553Y42398D01*
X37593D01*
X37758Y42233D01*
X37758Y42233D01*
X37814Y42190D01*
X37880Y42162D01*
X37950Y42153D01*
X38770D01*
X38840Y42162D01*
X38906Y42190D01*
X38962Y42233D01*
X39006Y42289D01*
X39033Y42355D01*
X39042Y42425D01*
Y43130D01*
X39038Y43157D01*
X39075Y43208D01*
X39088Y43210D01*
X39101Y43213D01*
X39101Y43213D01*
X39102Y43213D01*
X39112Y43220D01*
X39123Y43228D01*
X39123Y43228D01*
X39124Y43228D01*
X39131Y43239D01*
X39138Y43250D01*
X39138Y43250D01*
X39138Y43250D01*
X39141Y43263D01*
X39143Y43276D01*
X39143Y43278D01*
Y43632D01*
X39138Y43658D01*
X39128Y43673D01*
X39123Y43680D01*
X39123D01*
Y43680D01*
X39116Y43685D01*
X39101Y43695D01*
X39075Y43700D01*
X38402Y43700D01*
Y44160D01*
X38393Y44230D01*
X38377Y44269D01*
X38366Y44296D01*
X38322Y44352D01*
X37742Y44932D01*
X37691Y44972D01*
Y45374D01*
X38140D01*
X38175Y45338D01*
X38175Y45326D01*
X38175Y45325D01*
X38175Y45324D01*
X38177Y45147D01*
X38179Y45140D01*
X38179Y45134D01*
X38181Y45127D01*
X38183Y45121D01*
X38186Y45115D01*
X38189Y45109D01*
X38194Y45104D01*
X38198Y45099D01*
X38203Y45095D01*
X38208Y45091D01*
X38210Y45089D01*
X38216Y45087D01*
X38221Y45083D01*
X38228Y45082D01*
X38235Y45079D01*
X38241Y45079D01*
X38247Y45078D01*
X38661Y45074D01*
X38661Y45074D01*
X38662Y45074D01*
X39075Y45078D01*
X39088Y45080D01*
X39101Y45083D01*
X39101Y45083D01*
X39102Y45083D01*
X39112Y45091D01*
X39123Y45098D01*
X39123Y45098D01*
X39124Y45098D01*
X39131Y45109D01*
X39138Y45120D01*
X39138Y45120D01*
X39138Y45120D01*
X39141Y45133D01*
X39143Y45146D01*
X39143Y45148D01*
Y45374D01*
X39387D01*
Y42016D01*
D02*
G37*
G36*
Y39758D02*
Y36782D01*
X39337Y36749D01*
X39270Y36758D01*
X39183Y36746D01*
X39101Y36712D01*
X39075Y36692D01*
X38148D01*
X38121Y36742D01*
X38146Y36803D01*
X38150Y36836D01*
X38341Y37026D01*
X38341Y37026D01*
X38384Y37082D01*
X38411Y37148D01*
X38420Y37218D01*
Y38886D01*
X39324Y39790D01*
X39337Y39791D01*
X39387Y39758D01*
D02*
G37*
G36*
X37876Y38416D02*
Y37331D01*
X37766Y37220D01*
X37733Y37216D01*
X37651Y37182D01*
X37581Y37129D01*
X37528Y37059D01*
X37512Y37021D01*
X37462Y37031D01*
Y38067D01*
X37830Y38435D01*
X37876Y38416D01*
D02*
G37*
G36*
X34799Y37239D02*
Y36160D01*
Y35840D01*
X34808Y35770D01*
X34836Y35704D01*
X34879Y35648D01*
X35148Y35378D01*
X35129Y35332D01*
X33217D01*
X33216Y35334D01*
X33191Y35382D01*
X33202Y35460D01*
X33190Y35547D01*
X33156Y35629D01*
X33141Y35649D01*
X33152Y35658D01*
X34753Y37258D01*
X34799Y37239D01*
D02*
G37*
G36*
X35228Y39517D02*
Y38492D01*
X35183Y38486D01*
X35101Y38452D01*
X35031Y38399D01*
X34978Y38329D01*
X34944Y38247D01*
X34940Y38214D01*
X32847Y36122D01*
X32292D01*
X32265Y36142D01*
X32184Y36176D01*
X32096Y36188D01*
X32009Y36176D01*
X31928Y36142D01*
X31858Y36089D01*
X31804Y36019D01*
X31770Y35937D01*
X31759Y35850D01*
X31760Y35842D01*
X31715Y35819D01*
X30032Y37503D01*
Y40453D01*
X30060Y40478D01*
X34267D01*
X35228Y39517D01*
D02*
G37*
%LPC*%
G36*
X13602Y18548D02*
X13349Y18528D01*
X13102Y18469D01*
X12867Y18372D01*
X12651Y18239D01*
X12457Y18074D01*
X12292Y17881D01*
X12160Y17664D01*
X12062Y17429D01*
X12003Y17182D01*
X11983Y16929D01*
X12003Y16676D01*
X12062Y16429D01*
X12160Y16194D01*
X12292Y15977D01*
X12457Y15784D01*
X12651Y15619D01*
X12867Y15486D01*
X13102Y15389D01*
X13349Y15330D01*
X13602Y15310D01*
X13856Y15330D01*
X14103Y15389D01*
X14337Y15486D01*
X14554Y15619D01*
X14747Y15784D01*
X14912Y15977D01*
X15045Y16194D01*
X15142Y16429D01*
X15202Y16676D01*
X15222Y16929D01*
X15202Y17182D01*
X15142Y17429D01*
X15045Y17664D01*
X14912Y17881D01*
X14747Y18074D01*
X14554Y18239D01*
X14337Y18372D01*
X14103Y18469D01*
X13856Y18528D01*
X13602Y18548D01*
D02*
G37*
G36*
X18602D02*
X18349Y18528D01*
X18102Y18469D01*
X17867Y18372D01*
X17651Y18239D01*
X17457Y18074D01*
X17292Y17881D01*
X17160Y17664D01*
X17062Y17429D01*
X17003Y17182D01*
X16983Y16929D01*
X17003Y16676D01*
X17062Y16429D01*
X17160Y16194D01*
X17292Y15977D01*
X17457Y15784D01*
X17651Y15619D01*
X17867Y15486D01*
X18102Y15389D01*
X18349Y15330D01*
X18602Y15310D01*
X18856Y15330D01*
X19103Y15389D01*
X19337Y15486D01*
X19554Y15619D01*
X19747Y15784D01*
X19912Y15977D01*
X20045Y16194D01*
X20142Y16429D01*
X20202Y16676D01*
X20222Y16929D01*
X20202Y17182D01*
X20142Y17429D01*
X20045Y17664D01*
X19912Y17881D01*
X19747Y18074D01*
X19554Y18239D01*
X19337Y18372D01*
X19103Y18469D01*
X18856Y18528D01*
X18602Y18548D01*
D02*
G37*
G36*
X38091Y17372D02*
X37951Y17353D01*
X37820Y17299D01*
X37708Y17213D01*
X37622Y17101D01*
X37568Y16971D01*
X37550Y16831D01*
X37568Y16691D01*
X37622Y16560D01*
X37708Y16448D01*
X37820Y16362D01*
X37951Y16308D01*
X38091Y16290D01*
X38231Y16308D01*
X38361Y16362D01*
X38473Y16448D01*
X38559Y16560D01*
X38613Y16691D01*
X38631Y16831D01*
X38613Y16971D01*
X38559Y17101D01*
X38473Y17213D01*
X38361Y17299D01*
X38231Y17353D01*
X38091Y17372D01*
D02*
G37*
G36*
X13386Y48075D02*
X13224Y48059D01*
X13068Y48012D01*
X12924Y47935D01*
X12798Y47832D01*
X12695Y47706D01*
X12618Y47562D01*
X12571Y47406D01*
X12555Y47244D01*
X12571Y47082D01*
X12618Y46926D01*
X12695Y46783D01*
X12798Y46657D01*
X12924Y46553D01*
X13068Y46477D01*
X13224Y46429D01*
X13386Y46413D01*
X13548Y46429D01*
X13704Y46477D01*
X13847Y46553D01*
X13973Y46657D01*
X14077Y46783D01*
X14153Y46926D01*
X14201Y47082D01*
X14217Y47244D01*
X14201Y47406D01*
X14153Y47562D01*
X14077Y47706D01*
X13973Y47832D01*
X13847Y47935D01*
X13704Y48012D01*
X13548Y48059D01*
X13386Y48075D01*
D02*
G37*
G36*
X17323D02*
X17161Y48059D01*
X17005Y48012D01*
X16861Y47935D01*
X16735Y47832D01*
X16632Y47706D01*
X16555Y47562D01*
X16508Y47406D01*
X16492Y47244D01*
X16508Y47082D01*
X16555Y46926D01*
X16632Y46783D01*
X16735Y46657D01*
X16861Y46553D01*
X17005Y46477D01*
X17161Y46429D01*
X17323Y46413D01*
X17485Y46429D01*
X17641Y46477D01*
X17784Y46553D01*
X17910Y46657D01*
X18014Y46783D01*
X18090Y46926D01*
X18138Y47082D01*
X18154Y47244D01*
X18138Y47406D01*
X18090Y47562D01*
X18014Y47706D01*
X17910Y47832D01*
X17784Y47935D01*
X17641Y48012D01*
X17485Y48059D01*
X17323Y48075D01*
D02*
G37*
G36*
X37000Y13139D02*
X36860Y13121D01*
X36730Y13067D01*
X36618Y12981D01*
X36532Y12869D01*
X36478Y12738D01*
X36459Y12598D01*
X36478Y12458D01*
X36532Y12328D01*
X36618Y12216D01*
X36730Y12130D01*
X36860Y12076D01*
X37000Y12058D01*
X37140Y12076D01*
X37270Y12130D01*
X37382Y12216D01*
X37468Y12328D01*
X37522Y12458D01*
X37541Y12598D01*
X37522Y12738D01*
X37468Y12869D01*
X37382Y12981D01*
X37270Y13067D01*
X37140Y13121D01*
X37000Y13139D01*
D02*
G37*
G36*
X24213Y14117D02*
X24125Y14106D01*
X24044Y14072D01*
X23974Y14018D01*
X23920Y13948D01*
X23887Y13867D01*
X23875Y13780D01*
X23887Y13692D01*
X23920Y13611D01*
X23974Y13541D01*
X24044Y13487D01*
X24125Y13454D01*
X24213Y13442D01*
X24300Y13454D01*
X24381Y13487D01*
X24408Y13508D01*
X24690D01*
X25497Y12701D01*
X25553Y12658D01*
X25619Y12631D01*
X25689Y12622D01*
X25689Y12622D01*
X26281D01*
X26308Y12601D01*
X26389Y12568D01*
X26476Y12556D01*
X26564Y12568D01*
X26645Y12601D01*
X26715Y12655D01*
X26769Y12725D01*
X26802Y12806D01*
X26814Y12894D01*
X26802Y12981D01*
X26769Y13062D01*
X26715Y13132D01*
X26645Y13186D01*
X26564Y13220D01*
X26476Y13231D01*
X26389Y13220D01*
X26308Y13186D01*
X26281Y13166D01*
X25802D01*
X24995Y13972D01*
X24939Y14015D01*
X24874Y14042D01*
X24803Y14052D01*
X24408D01*
X24381Y14072D01*
X24300Y14106D01*
X24213Y14117D01*
D02*
G37*
G36*
X13602Y42170D02*
X13349Y42150D01*
X13102Y42091D01*
X12867Y41994D01*
X12651Y41861D01*
X12457Y41696D01*
X12292Y41503D01*
X12160Y41286D01*
X12062Y41052D01*
X12003Y40804D01*
X11983Y40551D01*
X12003Y40298D01*
X12062Y40051D01*
X12160Y39816D01*
X12292Y39599D01*
X12457Y39406D01*
X12651Y39241D01*
X12867Y39108D01*
X13102Y39011D01*
X13349Y38952D01*
X13602Y38932D01*
X13856Y38952D01*
X14103Y39011D01*
X14337Y39108D01*
X14554Y39241D01*
X14747Y39406D01*
X14912Y39599D01*
X15045Y39816D01*
X15142Y40051D01*
X15202Y40298D01*
X15222Y40551D01*
X15202Y40804D01*
X15142Y41052D01*
X15045Y41286D01*
X14912Y41503D01*
X14747Y41696D01*
X14554Y41861D01*
X14337Y41994D01*
X14103Y42091D01*
X13856Y42150D01*
X13602Y42170D01*
D02*
G37*
G36*
Y30359D02*
X13349Y30339D01*
X13102Y30280D01*
X12867Y30183D01*
X12651Y30050D01*
X12457Y29885D01*
X12292Y29692D01*
X12160Y29475D01*
X12062Y29241D01*
X12003Y28993D01*
X11983Y28740D01*
X12003Y28487D01*
X12062Y28240D01*
X12160Y28005D01*
X12292Y27788D01*
X12457Y27595D01*
X12651Y27430D01*
X12867Y27297D01*
X13102Y27200D01*
X13349Y27141D01*
X13602Y27121D01*
X13856Y27141D01*
X14103Y27200D01*
X14337Y27297D01*
X14554Y27430D01*
X14747Y27595D01*
X14912Y27788D01*
X15045Y28005D01*
X15142Y28240D01*
X15202Y28487D01*
X15222Y28740D01*
X15202Y28993D01*
X15142Y29241D01*
X15045Y29475D01*
X14912Y29692D01*
X14747Y29885D01*
X14554Y30050D01*
X14337Y30183D01*
X14103Y30280D01*
X13856Y30339D01*
X13602Y30359D01*
D02*
G37*
G36*
X36417Y25353D02*
X36293Y25341D01*
X36174Y25305D01*
X36065Y25247D01*
X35969Y25168D01*
X35890Y25072D01*
X35832Y24963D01*
X35796Y24844D01*
X35784Y24720D01*
X35796Y24597D01*
X35832Y24478D01*
X35890Y24369D01*
X35969Y24273D01*
X36065Y24194D01*
X36174Y24136D01*
X36293Y24100D01*
X36417Y24088D01*
X36540Y24100D01*
X36659Y24136D01*
X36768Y24194D01*
X36864Y24273D01*
X36943Y24369D01*
X37001Y24478D01*
X37037Y24597D01*
X37050Y24720D01*
X37037Y24844D01*
X37001Y24963D01*
X36943Y25072D01*
X36864Y25168D01*
X36768Y25247D01*
X36659Y25305D01*
X36540Y25341D01*
X36417Y25353D01*
D02*
G37*
G36*
X18602Y42170D02*
X18349Y42150D01*
X18102Y42091D01*
X17867Y41994D01*
X17651Y41861D01*
X17457Y41696D01*
X17292Y41503D01*
X17160Y41286D01*
X17062Y41052D01*
X17003Y40804D01*
X16983Y40551D01*
X17003Y40298D01*
X17062Y40051D01*
X17160Y39816D01*
X17292Y39599D01*
X17457Y39406D01*
X17651Y39241D01*
X17867Y39108D01*
X18102Y39011D01*
X18349Y38952D01*
X18602Y38932D01*
X18856Y38952D01*
X19103Y39011D01*
X19337Y39108D01*
X19554Y39241D01*
X19747Y39406D01*
X19912Y39599D01*
X20045Y39816D01*
X20142Y40051D01*
X20202Y40298D01*
X20222Y40551D01*
X20202Y40804D01*
X20142Y41052D01*
X20045Y41286D01*
X19912Y41503D01*
X19747Y41696D01*
X19554Y41861D01*
X19337Y41994D01*
X19103Y42091D01*
X18856Y42150D01*
X18602Y42170D01*
D02*
G37*
G36*
Y30359D02*
X18349Y30339D01*
X18102Y30280D01*
X17867Y30183D01*
X17651Y30050D01*
X17457Y29885D01*
X17292Y29692D01*
X17160Y29475D01*
X17062Y29241D01*
X17003Y28993D01*
X16983Y28740D01*
X17003Y28487D01*
X17062Y28240D01*
X17160Y28005D01*
X17292Y27788D01*
X17457Y27595D01*
X17651Y27430D01*
X17867Y27297D01*
X18102Y27200D01*
X18349Y27141D01*
X18602Y27121D01*
X18856Y27141D01*
X19103Y27200D01*
X19337Y27297D01*
X19554Y27430D01*
X19747Y27595D01*
X19912Y27788D01*
X20045Y28005D01*
X20142Y28240D01*
X20202Y28487D01*
X20222Y28740D01*
X20202Y28993D01*
X20142Y29241D01*
X20045Y29475D01*
X19912Y29692D01*
X19747Y29885D01*
X19554Y30050D01*
X19337Y30183D01*
X19103Y30280D01*
X18856Y30339D01*
X18602Y30359D01*
D02*
G37*
G36*
X38091Y19340D02*
X37951Y19322D01*
X37820Y19268D01*
X37708Y19182D01*
X37622Y19070D01*
X37568Y18939D01*
X37550Y18799D01*
X37568Y18659D01*
X37622Y18529D01*
X37708Y18417D01*
X37820Y18331D01*
X37951Y18277D01*
X38091Y18258D01*
X38231Y18277D01*
X38361Y18331D01*
X38473Y18417D01*
X38559Y18529D01*
X38613Y18659D01*
X38631Y18799D01*
X38613Y18939D01*
X38559Y19070D01*
X38473Y19182D01*
X38361Y19268D01*
X38231Y19322D01*
X38091Y19340D01*
D02*
G37*
G36*
X36417Y28405D02*
X36293Y28392D01*
X36174Y28356D01*
X36065Y28298D01*
X35969Y28219D01*
X35890Y28123D01*
X35832Y28014D01*
X35796Y27895D01*
X35784Y27772D01*
X35796Y27648D01*
X35832Y27529D01*
X35890Y27420D01*
X35969Y27324D01*
X36065Y27245D01*
X36174Y27187D01*
X36293Y27151D01*
X36417Y27139D01*
X36540Y27151D01*
X36659Y27187D01*
X36768Y27245D01*
X36864Y27324D01*
X36943Y27420D01*
X37001Y27529D01*
X37037Y27648D01*
X37050Y27772D01*
X37037Y27895D01*
X37001Y28014D01*
X36943Y28123D01*
X36864Y28219D01*
X36768Y28298D01*
X36659Y28356D01*
X36540Y28392D01*
X36417Y28405D01*
D02*
G37*
G36*
X24724Y47633D02*
X24331D01*
X24218Y47618D01*
X24112Y47574D01*
X24022Y47505D01*
X23952Y47414D01*
X23909Y47309D01*
X23894Y47196D01*
Y44440D01*
X23909Y44327D01*
X23952Y44222D01*
X24022Y44131D01*
X24112Y44062D01*
X24218Y44018D01*
X24331Y44003D01*
X24724D01*
X24837Y44018D01*
X24943Y44062D01*
X25033Y44131D01*
X25103Y44222D01*
X25146Y44327D01*
X25161Y44440D01*
Y47196D01*
X25146Y47309D01*
X25103Y47414D01*
X25033Y47505D01*
X24943Y47574D01*
X24837Y47618D01*
X24724Y47633D01*
D02*
G37*
%LPD*%
D32*
X25689Y12894D02*
X26476D01*
X24803Y13780D02*
X25689Y12894D01*
X24213Y13780D02*
X24803D01*
X22516Y25330D02*
X24508D01*
X22285Y25098D02*
X22516Y25330D01*
X22638Y25787D02*
X22844D01*
X22480Y25630D02*
X22638Y25787D01*
X22480Y25330D02*
Y25630D01*
X24508Y25330D02*
X25700D01*
X26558Y18763D02*
Y19169D01*
Y18763D02*
X28727Y16594D01*
X25516Y19821D02*
X27129Y18209D01*
X24691Y19821D02*
X25516D01*
X24690D02*
X24691D01*
X25906D01*
X22280Y25130D02*
X22480Y25330D01*
X26880Y14860D02*
X31306D01*
X32315Y15869D01*
X33160Y21070D02*
Y25925D01*
X32315Y29841D02*
X33930Y28100D01*
Y25374D02*
Y28100D01*
Y25374D02*
X34090Y25214D01*
X32315Y29841D02*
Y31518D01*
X31490Y29016D02*
X32315Y29841D01*
X27770Y32140D02*
X27963Y32333D01*
X27770Y29350D02*
Y32140D01*
Y29350D02*
X28960Y28160D01*
X24160Y30240D02*
X25530D01*
X21640Y32760D02*
X24160Y30240D01*
X34250Y23540D02*
X34900Y22890D01*
X22280Y22231D02*
Y25130D01*
Y22231D02*
X24690Y19821D01*
X31690Y35460D02*
X32864D01*
X29760Y37390D02*
X31690Y35460D01*
X29760Y37390D02*
Y40970D01*
X29840Y41050D01*
X34269D01*
X35239Y40080D01*
X38743D01*
Y41696D01*
X38880Y41833D01*
X39120D01*
X39257Y41697D01*
Y41043D02*
Y41697D01*
X37360Y36420D02*
X39270D01*
X37190Y36590D02*
X37360Y36420D01*
X37190Y36590D02*
Y38180D01*
X37990Y38980D01*
Y39120D01*
X38970Y40100D01*
Y41590D01*
X38990Y41610D01*
X38148Y38998D02*
X39270Y40120D01*
X38148Y37218D02*
Y38998D01*
X37820Y36890D02*
X38148Y37218D01*
X23130Y42230D02*
X23850Y42950D01*
X34210D01*
X32096Y35850D02*
X32960D01*
X35270Y38160D01*
X18520Y43430D02*
X33880D01*
X35020Y44570D01*
X35329D01*
X36390Y43509D01*
Y42792D02*
Y43509D01*
X21570Y19470D02*
X22075D01*
X23980Y17565D01*
X25900D01*
X36670Y44260D02*
X37060D01*
X37992Y43328D01*
Y42930D02*
Y43328D01*
X16102Y19803D02*
X24441D01*
X24557Y19687D01*
X29096Y15680D02*
X29176Y15600D01*
X31453D01*
X29096Y15680D02*
Y16364D01*
X31453Y15600D02*
X31533Y15680D01*
X32910Y16039D02*
X35039Y13909D01*
X31533Y15680D02*
Y16133D01*
X32910Y16039D02*
Y16200D01*
X28322Y16461D02*
X28653D01*
X28654Y16460D01*
X24557Y19687D02*
X25096D01*
X28322Y16461D01*
X28654Y16460D02*
X29000D01*
X29096Y16364D01*
X31533Y16133D02*
X31870Y16470D01*
X32640D02*
X32910Y16200D01*
X31870Y16470D02*
X32640D01*
X27240Y30970D02*
Y33207D01*
X26957Y33490D02*
X27240Y33207D01*
X24860Y33490D02*
X26957D01*
X22720Y35630D02*
X24860Y33490D01*
X23259Y23379D02*
X23557Y23081D01*
X22819Y23819D02*
X23259Y23379D01*
X26499Y22581D02*
X27770Y21310D01*
X26499Y22581D02*
Y23280D01*
X26400Y23379D02*
X26499Y23280D01*
X26006Y23379D02*
X26400D01*
X25709Y23081D02*
X26006Y23379D01*
X23557Y23081D02*
X25709D01*
X23259Y23379D02*
X24459D01*
X25770Y24690D01*
X25510Y23280D02*
X25990Y23760D01*
X26150D02*
X26160Y23750D01*
X25990Y23760D02*
X26150D01*
X26772Y33810D02*
X26911D01*
X28365Y32356D01*
Y31518D02*
Y32356D01*
X35430Y36140D02*
Y37400D01*
X37210Y39180D01*
X36690Y44740D02*
X37550D01*
X37210Y39180D02*
X37790D01*
X37230Y41670D02*
Y42460D01*
X37440Y42670D01*
X37705D02*
X37950Y42425D01*
X37440Y42670D02*
X37705D01*
X38770Y42425D02*
Y43130D01*
X37950Y42425D02*
X38770D01*
X38130Y43240D02*
Y44160D01*
X37550Y44740D02*
X38130Y44160D01*
X38240Y43130D02*
X38770D01*
X38130Y43240D02*
X38240Y43130D01*
X22285Y22228D02*
X24691Y19821D01*
X22285Y22228D02*
Y25071D01*
X25906Y19821D02*
X26558Y19169D01*
X22285Y25071D02*
Y25098D01*
X29240Y16254D02*
X29760Y15734D01*
X29240Y16254D02*
Y16487D01*
X29760Y15734D02*
X31040D01*
X31390Y16084D02*
Y16550D01*
X31040Y15734D02*
X31390Y16084D01*
X28727Y16594D02*
X29133D01*
X29240Y16487D01*
X31390Y16550D02*
X31800Y16960D01*
X32600D01*
X22285Y25071D02*
X22410Y25197D01*
X29960Y40850D02*
X30060Y40750D01*
X34380D01*
X32600Y16960D02*
X34599Y14961D01*
X37000D01*
X35071Y35840D02*
X35691Y35220D01*
X35071Y35840D02*
Y36160D01*
X35391Y35840D01*
X35790Y36160D01*
X35071D02*
Y37361D01*
X34380Y40750D02*
X35500Y39630D01*
X35071Y37361D02*
X35500Y37790D01*
X35790Y36160D02*
Y36920D01*
X35500Y37790D02*
Y39630D01*
X35691Y35220D02*
X38318D01*
X38878Y34660D01*
X23610Y18950D02*
X25465D01*
X30160Y35890D02*
X30550D01*
X31380Y35060D01*
X37138D01*
X37700Y34498D01*
X27110Y20380D02*
X27770D01*
X33050Y20160D02*
X35280D01*
X31820Y21390D02*
X33050Y20160D01*
X33800Y41270D02*
X36702D01*
X32111Y42222D02*
X35750D01*
X34744Y17035D02*
X34989Y17280D01*
X38641D01*
X39091Y16831D01*
X35728Y30807D02*
X39470Y34549D01*
X39091Y18799D02*
Y24001D01*
X38387Y24705D02*
X39091Y24001D01*
X36702Y41270D02*
X37136D01*
X36702D02*
X37559Y40413D01*
X37136Y41270D02*
X37559Y40846D01*
X35750Y42222D02*
X36702Y41270D01*
X37559Y41280D02*
Y42402D01*
X38425Y40413D02*
Y40846D01*
Y41280D02*
Y41600D01*
Y40846D02*
Y41280D01*
X39470Y34549D02*
Y42126D01*
X38425Y41600D02*
X38973Y42148D01*
X39449D02*
X39470Y42126D01*
X38973Y42148D02*
X39449D01*
X22819Y12008D02*
X24127Y10700D01*
X29830D01*
X32315Y13185D01*
Y15869D01*
D33*
X22146Y30512D02*
X27412Y25245D01*
X28365Y19693D02*
Y21837D01*
X27412Y22790D02*
X28365Y21837D01*
X27412Y22790D02*
Y25245D01*
X22244Y32972D02*
X26673D01*
Y29160D02*
X28365Y27468D01*
X26673Y29160D02*
Y32972D01*
X28365Y11818D02*
Y12481D01*
X22047Y18799D02*
X28365Y12481D01*
D34*
X16032Y36134D02*
Y46214D01*
X16102Y31614D02*
Y36063D01*
Y19803D02*
Y31614D01*
X16032Y36134D02*
X16102Y36063D01*
X15681Y46564D02*
X16032Y46214D01*
X15354Y47244D02*
X15681Y46917D01*
Y46564D02*
Y46917D01*
X30315Y32468D02*
Y32567D01*
Y24693D02*
Y32468D01*
Y16818D02*
Y24693D01*
X24528Y38354D02*
X30315Y32567D01*
X24528Y38354D02*
Y38928D01*
D40*
X17323Y47244D02*
D03*
X15354D02*
D03*
X13386D02*
D03*
D41*
X38681Y11024D02*
D03*
X38000Y12598D02*
D03*
X37000D02*
D03*
X38000Y14961D02*
D03*
X37000D02*
D03*
X38681Y47244D02*
D03*
X10827D02*
D03*
X23819Y23819D02*
D03*
X22819D02*
D03*
X23720Y35630D02*
D03*
X22720D02*
D03*
X38091Y18799D02*
D03*
X39091D02*
D03*
X38091Y16831D02*
D03*
X39091D02*
D03*
X10827Y11024D02*
D03*
X34744Y17035D02*
D03*
Y16035D02*
D03*
X23819Y12008D02*
D03*
X22819D02*
D03*
D42*
X13602Y40551D02*
D03*
X16102Y43425D02*
D03*
X18602Y40551D02*
D03*
X13602Y28740D02*
D03*
X16102Y31614D02*
D03*
X18602Y28740D02*
D03*
X13602Y16929D02*
D03*
X16102Y19803D02*
D03*
X18602Y16929D02*
D03*
D43*
X35728Y30807D02*
D03*
Y33760D02*
D03*
D44*
X36417Y24720D02*
D03*
X38387Y24705D02*
D03*
X36417Y27772D02*
D03*
X38387Y27756D02*
D03*
D45*
X28365Y15869D02*
D03*
X32315D02*
D03*
X28365Y23743D02*
D03*
X32315D02*
D03*
Y31518D02*
D03*
X28365D02*
D03*
D46*
X30315Y16818D02*
D03*
X32315Y11818D02*
D03*
X28365D02*
D03*
X30315Y24693D02*
D03*
X32315Y19693D02*
D03*
X28365D02*
D03*
Y27468D02*
D03*
X32315D02*
D03*
X30315Y32468D02*
D03*
D47*
X32111Y42222D02*
D03*
D48*
X35039Y13909D02*
D03*
Y12909D02*
D03*
D49*
Y11909D02*
D03*
D50*
X24528Y38928D02*
D03*
Y45818D02*
D03*
D51*
X38417Y42776D02*
D03*
Y46004D02*
D03*
X37205Y45344D02*
D03*
Y43435D02*
D03*
D52*
X24213Y13780D02*
D03*
X26476Y12894D02*
D03*
X22844Y25787D02*
D03*
X26880Y14860D02*
D03*
X33160Y25925D02*
D03*
Y21070D02*
D03*
X34090Y25214D02*
D03*
X31490Y29016D02*
D03*
X27963Y32333D02*
D03*
X28960Y28160D02*
D03*
X25530Y30240D02*
D03*
X21640Y32760D02*
D03*
X34900Y22890D02*
D03*
X34250Y23540D02*
D03*
X24508Y25330D02*
D03*
X25700D02*
D03*
X32864Y35460D02*
D03*
X39257Y41043D02*
D03*
X39270Y36420D02*
D03*
X38990Y41610D02*
D03*
X39270Y40120D02*
D03*
X37820Y36890D02*
D03*
X23130Y42230D02*
D03*
X34210Y42950D02*
D03*
X32096Y35850D02*
D03*
X35270Y38160D02*
D03*
X18520Y43430D02*
D03*
X36390Y42792D02*
D03*
X21570Y19470D02*
D03*
X25900Y17565D02*
D03*
X36670Y44260D02*
D03*
X37992Y42930D02*
D03*
X27240Y30970D02*
D03*
X27770Y21310D02*
D03*
X25770Y24690D02*
D03*
X25510Y23280D02*
D03*
X26160Y23750D02*
D03*
X26772Y33810D02*
D03*
X35430Y36140D02*
D03*
X36690Y44740D02*
D03*
X37230Y41670D02*
D03*
X37790Y39180D02*
D03*
X27129Y18209D02*
D03*
X22410Y25197D02*
D03*
X29960Y40850D02*
D03*
X35790Y36920D02*
D03*
X38878Y34660D02*
D03*
X25465Y18950D02*
D03*
X23610D02*
D03*
X30160Y35890D02*
D03*
X37700Y34498D02*
D03*
X27110Y20380D02*
D03*
X27770D02*
D03*
X31820Y21390D02*
D03*
X33800Y41270D02*
D03*
X35280Y20160D02*
D03*
X37559Y42402D02*
D03*
D53*
X22146Y30512D02*
D03*
X22244Y32972D02*
D03*
X22047Y18799D02*
D03*
D54*
X37559Y40413D02*
D03*
Y40846D02*
D03*
Y41280D02*
D03*
X37992Y40413D02*
D03*
Y40846D02*
D03*
Y41280D02*
D03*
X38425Y40413D02*
D03*
Y40846D02*
D03*
Y41280D02*
D03*
D55*
X37992Y40846D02*
D03*
M02*
