G04 Layer_Color=25308*
%FSLAX24Y24*%
%MOIN*%
G70*
G01*
G75*
%ADD10R,0.0532X0.0610*%
%ADD11R,0.0453X0.0709*%
%ADD12O,0.0866X0.0236*%
%ADD13R,0.0880X0.0480*%
%ADD14R,0.0870X0.1420*%
%ADD15R,0.0709X0.0453*%
%ADD16R,0.0177X0.0138*%
%ADD17R,0.0433X0.0551*%
%ADD18R,0.0512X0.0276*%
%ADD19R,0.0591X0.1260*%
%ADD20R,0.0591X0.1260*%
%ADD21R,0.0260X0.0118*%
%ADD22R,0.0394X0.0394*%
%ADD23R,0.0610X0.0532*%
%ADD24R,0.1232X0.1232*%
%ADD25O,0.0335X0.0079*%
%ADD26O,0.0079X0.0335*%
%ADD27O,0.0846X0.0236*%
%ADD28R,0.0787X0.0354*%
%ADD29R,0.0354X0.0787*%
%ADD30R,0.1969X0.1969*%
%ADD31R,0.0689X0.0157*%
%ADD40C,0.1181*%
%ADD41C,0.0600*%
%ADD42C,0.2756*%
%ADD43C,0.2362*%
%ADD44C,0.0787*%
%ADD45P,0.1065X8X292.5*%
%ADD46P,0.1492X8X292.5*%
%ADD47C,0.1000*%
%ADD48C,0.0750*%
%ADD49R,0.0750X0.0750*%
G04:AMPARAMS|DCode=50|XSize=315mil|YSize=78.7mil|CornerRadius=19.7mil|HoleSize=0mil|Usage=FLASHONLY|Rotation=270.000|XOffset=0mil|YOffset=0mil|HoleType=Round|Shape=RoundedRectangle|*
%AMROUNDEDRECTD50*
21,1,0.3150,0.0394,0,0,270.0*
21,1,0.2756,0.0787,0,0,270.0*
1,1,0.0394,-0.0197,-0.1378*
1,1,0.0394,-0.0197,0.1378*
1,1,0.0394,0.0197,0.1378*
1,1,0.0394,0.0197,-0.1378*
%
%ADD50ROUNDEDRECTD50*%
%ADD51R,0.0500X0.0500*%
D10*
X24813Y23720D02*
D03*
X25581D02*
D03*
X23612Y26378D02*
D03*
X22844D02*
D03*
X27963Y34941D02*
D03*
X28730D02*
D03*
X30699Y36516D02*
D03*
X29931D02*
D03*
X30030Y34941D02*
D03*
X30797D02*
D03*
X24715Y34350D02*
D03*
X25482D02*
D03*
X32096Y36516D02*
D03*
X32864D02*
D03*
X38100Y35138D02*
D03*
X38868D02*
D03*
X34065Y36516D02*
D03*
X34833D02*
D03*
X37195Y16831D02*
D03*
X36427D02*
D03*
X37096Y18799D02*
D03*
X36329D02*
D03*
X24715Y35531D02*
D03*
X25482D02*
D03*
X24813Y11909D02*
D03*
X25581D02*
D03*
X32864Y34941D02*
D03*
X32096D02*
D03*
X23612Y25197D02*
D03*
X22844D02*
D03*
D11*
X24508Y26476D02*
D03*
X25689D02*
D03*
X24803Y28346D02*
D03*
X25984D02*
D03*
X24016D02*
D03*
X22835D02*
D03*
D12*
X24961Y29270D02*
D03*
Y29770D02*
D03*
Y30270D02*
D03*
Y30770D02*
D03*
X23071Y29270D02*
D03*
Y29770D02*
D03*
Y30270D02*
D03*
Y30770D02*
D03*
X24961Y31730D02*
D03*
Y32230D02*
D03*
Y32730D02*
D03*
Y33230D02*
D03*
X23071Y31730D02*
D03*
Y32230D02*
D03*
Y32730D02*
D03*
Y33230D02*
D03*
D13*
X36280Y22465D02*
D03*
Y21555D02*
D03*
Y20645D02*
D03*
D14*
X38730Y21555D02*
D03*
D15*
X38878Y38878D02*
D03*
Y37697D02*
D03*
X37303Y39173D02*
D03*
Y37992D02*
D03*
D16*
X26703Y14567D02*
D03*
X26447D02*
D03*
X25817D02*
D03*
X25561D02*
D03*
X23947D02*
D03*
X23691D02*
D03*
X23061D02*
D03*
X22805D02*
D03*
D17*
X25148Y22736D02*
D03*
X25837D02*
D03*
X22392Y20571D02*
D03*
X23081D02*
D03*
D18*
X34921Y21535D02*
D03*
Y20787D02*
D03*
X33976D02*
D03*
Y21161D02*
D03*
Y21535D02*
D03*
X34921Y19468D02*
D03*
Y18720D02*
D03*
X33976D02*
D03*
Y19094D02*
D03*
Y19468D02*
D03*
D19*
X23898Y20866D02*
D03*
D20*
X26496D02*
D03*
D21*
X33890Y24764D02*
D03*
Y24508D02*
D03*
Y24252D02*
D03*
X34614D02*
D03*
Y24508D02*
D03*
Y24764D02*
D03*
Y25925D02*
D03*
Y26181D02*
D03*
Y26437D02*
D03*
X33890D02*
D03*
Y26181D02*
D03*
Y25925D02*
D03*
X38122Y36969D02*
D03*
Y36713D02*
D03*
Y36457D02*
D03*
X38846D02*
D03*
Y36713D02*
D03*
Y36969D02*
D03*
D22*
X26673Y25856D02*
D03*
Y27096D02*
D03*
Y22510D02*
D03*
Y23750D02*
D03*
Y29990D02*
D03*
Y31230D02*
D03*
D23*
X36909Y37096D02*
D03*
Y36329D02*
D03*
X38878Y33278D02*
D03*
Y34045D02*
D03*
D24*
X37992Y40846D02*
D03*
D25*
X38947Y41437D02*
D03*
Y41240D02*
D03*
Y41043D02*
D03*
Y40846D02*
D03*
Y40650D02*
D03*
Y40453D02*
D03*
Y40256D02*
D03*
X37037D02*
D03*
Y40453D02*
D03*
Y40650D02*
D03*
Y40846D02*
D03*
Y41043D02*
D03*
Y41240D02*
D03*
Y41437D02*
D03*
D26*
X38583Y39892D02*
D03*
X38386D02*
D03*
X38189D02*
D03*
X37992D02*
D03*
X37795D02*
D03*
X37598D02*
D03*
X37402D02*
D03*
Y41801D02*
D03*
X37598D02*
D03*
X37795D02*
D03*
X37992D02*
D03*
X38189D02*
D03*
X38386D02*
D03*
X38583D02*
D03*
D27*
X22894Y19565D02*
D03*
Y19065D02*
D03*
Y18565D02*
D03*
Y18065D02*
D03*
Y17565D02*
D03*
Y17065D02*
D03*
Y16565D02*
D03*
Y16065D02*
D03*
X26516Y19565D02*
D03*
Y19065D02*
D03*
Y18565D02*
D03*
Y18065D02*
D03*
Y17565D02*
D03*
Y17065D02*
D03*
Y16565D02*
D03*
Y16065D02*
D03*
D28*
X29142Y38672D02*
D03*
Y45172D02*
D03*
Y44672D02*
D03*
Y44172D02*
D03*
Y43672D02*
D03*
Y43172D02*
D03*
Y42672D02*
D03*
Y42172D02*
D03*
Y41672D02*
D03*
Y41172D02*
D03*
Y40672D02*
D03*
Y40172D02*
D03*
Y39672D02*
D03*
Y39172D02*
D03*
X35835D02*
D03*
Y39672D02*
D03*
Y40172D02*
D03*
Y40672D02*
D03*
Y41172D02*
D03*
Y41672D02*
D03*
Y42172D02*
D03*
Y42672D02*
D03*
Y43172D02*
D03*
Y43672D02*
D03*
Y44172D02*
D03*
Y44672D02*
D03*
Y45172D02*
D03*
Y38672D02*
D03*
D29*
X34238Y38279D02*
D03*
X33738D02*
D03*
X33238D02*
D03*
X32738D02*
D03*
X32238D02*
D03*
X31738D02*
D03*
X31238D02*
D03*
X30738Y38272D02*
D03*
X30238Y38279D02*
D03*
X34738D02*
D03*
D30*
X32111Y42222D02*
D03*
D31*
X37205Y44902D02*
D03*
Y44646D02*
D03*
Y43878D02*
D03*
Y44134D02*
D03*
Y44390D02*
D03*
D40*
X17323Y47244D02*
D03*
X15354D02*
D03*
X13386D02*
D03*
D41*
X38681Y11024D02*
D03*
X38000Y12598D02*
D03*
X37000D02*
D03*
X38000Y14961D02*
D03*
X37000D02*
D03*
X38681Y47244D02*
D03*
X10827D02*
D03*
X23819Y23819D02*
D03*
X22819D02*
D03*
X23720Y35630D02*
D03*
X22720D02*
D03*
X38091Y18799D02*
D03*
X39091D02*
D03*
X38091Y16831D02*
D03*
X39091D02*
D03*
X10827Y11024D02*
D03*
X34744Y17035D02*
D03*
Y16035D02*
D03*
X23819Y12008D02*
D03*
X22819D02*
D03*
D42*
X13602Y40551D02*
D03*
X16102Y43425D02*
D03*
X18602Y40551D02*
D03*
X13602Y28740D02*
D03*
X16102Y31614D02*
D03*
X18602Y28740D02*
D03*
X13602Y16929D02*
D03*
X16102Y19803D02*
D03*
X18602Y16929D02*
D03*
D43*
X35728Y30807D02*
D03*
Y33760D02*
D03*
D44*
X36417Y24720D02*
D03*
X38387Y24705D02*
D03*
X36417Y27772D02*
D03*
X38387Y27756D02*
D03*
D45*
X28365Y15869D02*
D03*
X32315D02*
D03*
X28365Y23743D02*
D03*
X32315D02*
D03*
Y31518D02*
D03*
X28365D02*
D03*
D46*
X30315Y16818D02*
D03*
X32315Y11818D02*
D03*
X28365D02*
D03*
X30315Y24693D02*
D03*
X32315Y19693D02*
D03*
X28365D02*
D03*
Y27468D02*
D03*
X32315D02*
D03*
X30315Y32468D02*
D03*
D47*
X32111Y42222D02*
D03*
D48*
X35039Y13909D02*
D03*
Y12909D02*
D03*
D49*
Y11909D02*
D03*
D50*
X24528Y38928D02*
D03*
Y45818D02*
D03*
D51*
X38417Y42776D02*
D03*
Y46004D02*
D03*
X37205Y45344D02*
D03*
Y43435D02*
D03*
M02*
