G04 Layer_Color=25308*
%FSLAX24Y24*%
%MOIN*%
G70*
G01*
G75*
%ADD37C,0.0600*%
%ADD38C,0.2756*%
%ADD39C,0.0787*%
%ADD40C,0.1000*%
%ADD41C,0.0750*%
%ADD42R,0.0750X0.0750*%
G04:AMPARAMS|DCode=43|XSize=315mil|YSize=78.7mil|CornerRadius=19.7mil|HoleSize=0mil|Usage=FLASHONLY|Rotation=270.000|XOffset=0mil|YOffset=0mil|HoleType=Round|Shape=RoundedRectangle|*
%AMROUNDEDRECTD43*
21,1,0.3150,0.0394,0,0,270.0*
21,1,0.2756,0.0787,0,0,270.0*
1,1,0.0394,-0.0197,-0.1378*
1,1,0.0394,-0.0197,0.1378*
1,1,0.0394,0.0197,0.1378*
1,1,0.0394,0.0197,-0.1378*
%
%ADD43ROUNDEDRECTD43*%
%ADD44C,0.0900*%
%ADD45C,0.1575*%
%ADD46O,0.1181X0.1969*%
%ADD47P,0.0639X8X202.5*%
%ADD48C,0.1181*%
D37*
X38681Y11024D02*
D03*
X38591Y16339D02*
D03*
X37591D02*
D03*
X38591Y18701D02*
D03*
X37591D02*
D03*
X38681Y47244D02*
D03*
X10827D02*
D03*
X23819Y23819D02*
D03*
X22819D02*
D03*
X23720Y35630D02*
D03*
X22720D02*
D03*
X37992Y14173D02*
D03*
X38992D02*
D03*
X37992Y12402D02*
D03*
X38992D02*
D03*
X10827Y11024D02*
D03*
X35736Y16437D02*
D03*
X34736D02*
D03*
X23819Y12008D02*
D03*
X22819D02*
D03*
D38*
X13602Y40551D02*
D03*
X16102Y43425D02*
D03*
X18602Y40551D02*
D03*
X13602Y28740D02*
D03*
X16102Y31614D02*
D03*
X18602Y28740D02*
D03*
X13602Y16929D02*
D03*
X16102Y19803D02*
D03*
X18602Y16929D02*
D03*
D39*
X36712Y24720D02*
D03*
X38682Y24705D02*
D03*
X36712Y27772D02*
D03*
X38682Y27756D02*
D03*
D40*
X33364Y37967D02*
D03*
D41*
X35039Y13909D02*
D03*
Y12909D02*
D03*
D42*
Y11909D02*
D03*
D43*
X24528Y38928D02*
D03*
Y45818D02*
D03*
D44*
X32675Y11583D02*
D03*
X27955D02*
D03*
Y16378D02*
D03*
X32675D02*
D03*
X30315Y10788D02*
D03*
X32675Y19457D02*
D03*
X27955D02*
D03*
Y24252D02*
D03*
X32675D02*
D03*
X30315Y18662D02*
D03*
X32675Y27331D02*
D03*
X27955D02*
D03*
Y32126D02*
D03*
X32675D02*
D03*
X30315Y26536D02*
D03*
D45*
X38287Y32382D02*
D03*
Y30413D02*
D03*
D46*
X33768Y44136D02*
D03*
X29028D02*
D03*
D47*
X30906Y43069D02*
D03*
Y42281D02*
D03*
X31890D02*
D03*
Y43069D02*
D03*
D48*
X13780Y47244D02*
D03*
X16240D02*
D03*
X18701D02*
D03*
M02*
