G04 Layer_Color=13813960*
%FSLAX24Y24*%
%MOIN*%
G70*
G01*
G75*
%ADD10C,0.0059*%
%ADD11C,0.0079*%
%ADD12R,0.0224X0.0003*%
%ADD13R,0.0528X0.0003*%
%ADD14R,0.0231X0.0003*%
%ADD15R,0.0531X0.0003*%
%ADD16R,0.0241X0.0003*%
%ADD17R,0.0538X0.0003*%
%ADD18R,0.0248X0.0003*%
%ADD19R,0.0541X0.0003*%
%ADD20R,0.0257X0.0003*%
%ADD21R,0.0541X0.0003*%
%ADD22R,0.0264X0.0003*%
%ADD23R,0.0541X0.0003*%
%ADD24R,0.0271X0.0003*%
%ADD25R,0.0548X0.0003*%
%ADD26R,0.0277X0.0003*%
%ADD27R,0.0554X0.0003*%
%ADD28R,0.0284X0.0003*%
%ADD29R,0.0558X0.0003*%
%ADD30R,0.0297X0.0003*%
%ADD31R,0.0300X0.0003*%
%ADD32R,0.0561X0.0003*%
%ADD33R,0.0314X0.0003*%
%ADD34R,0.0561X0.0003*%
%ADD35R,0.0320X0.0003*%
%ADD36R,0.0568X0.0003*%
%ADD37R,0.0327X0.0003*%
%ADD38R,0.0333X0.0003*%
%ADD39R,0.0574X0.0003*%
%ADD40R,0.0340X0.0003*%
%ADD41R,0.0574X0.0003*%
%ADD42R,0.0347X0.0003*%
%ADD43R,0.0581X0.0003*%
%ADD44R,0.0353X0.0003*%
%ADD45R,0.0584X0.0003*%
%ADD46R,0.0363X0.0003*%
%ADD47R,0.0587X0.0003*%
%ADD48R,0.0373X0.0003*%
%ADD49R,0.0594X0.0003*%
%ADD50R,0.0380X0.0003*%
%ADD51R,0.0601X0.0003*%
%ADD52R,0.0389X0.0003*%
%ADD53R,0.0607X0.0003*%
%ADD54R,0.0399X0.0003*%
%ADD55R,0.0611X0.0003*%
%ADD56R,0.0406X0.0003*%
%ADD57R,0.0614X0.0003*%
%ADD58R,0.0413X0.0003*%
%ADD59R,0.0617X0.0003*%
%ADD60R,0.0416X0.0003*%
%ADD61R,0.0429X0.0003*%
%ADD62R,0.0620X0.0003*%
%ADD63R,0.0436X0.0003*%
%ADD64R,0.0624X0.0003*%
%ADD65R,0.0442X0.0003*%
%ADD66R,0.0449X0.0003*%
%ADD67R,0.0627X0.0003*%
%ADD68R,0.0459X0.0003*%
%ADD69R,0.0630X0.0003*%
%ADD70R,0.0469X0.0003*%
%ADD71R,0.0475X0.0003*%
%ADD72R,0.0634X0.0003*%
%ADD73R,0.0485X0.0003*%
%ADD74R,0.0637X0.0003*%
%ADD75R,0.0492X0.0003*%
%ADD76R,0.0640X0.0003*%
%ADD77R,0.0505X0.0003*%
%ADD78R,0.0643X0.0003*%
%ADD79R,0.0508X0.0003*%
%ADD80R,0.0650X0.0003*%
%ADD81R,0.0518X0.0003*%
%ADD82R,0.0653X0.0003*%
%ADD83R,0.0528X0.0003*%
%ADD84R,0.0657X0.0003*%
%ADD85R,0.0541X0.0003*%
%ADD86R,0.0663X0.0003*%
%ADD87R,0.0551X0.0003*%
%ADD88R,0.0660X0.0003*%
%ADD89R,0.0663X0.0003*%
%ADD90R,0.0571X0.0003*%
%ADD91R,0.0667X0.0003*%
%ADD92R,0.0574X0.0003*%
%ADD93R,0.0667X0.0003*%
%ADD94R,0.0581X0.0003*%
%ADD95R,0.0670X0.0003*%
%ADD96R,0.0587X0.0003*%
%ADD97R,0.0670X0.0003*%
%ADD98R,0.0597X0.0003*%
%ADD99R,0.0673X0.0003*%
%ADD100R,0.0676X0.0003*%
%ADD101R,0.0627X0.0003*%
%ADD102R,0.0677X0.0003*%
%ADD103R,0.0683X0.0003*%
%ADD104R,0.0683X0.0003*%
%ADD105R,0.0686X0.0003*%
%ADD106R,0.0660X0.0003*%
%ADD107R,0.0690X0.0003*%
%ADD108R,0.0677X0.0003*%
%ADD109R,0.0696X0.0003*%
%ADD110R,0.0703X0.0003*%
%ADD111R,0.0693X0.0003*%
%ADD112R,0.0706X0.0003*%
%ADD113R,0.0710X0.0003*%
%ADD114R,0.0706X0.0003*%
%ADD115R,0.0713X0.0003*%
%ADD116R,0.0713X0.0003*%
%ADD117R,0.0719X0.0003*%
%ADD118R,0.0720X0.0003*%
%ADD119R,0.0726X0.0003*%
%ADD120R,0.0723X0.0003*%
%ADD121R,0.0733X0.0003*%
%ADD122R,0.0726X0.0003*%
%ADD123R,0.0739X0.0003*%
%ADD124R,0.0729X0.0003*%
%ADD125R,0.0743X0.0003*%
%ADD126R,0.0733X0.0003*%
%ADD127R,0.0749X0.0003*%
%ADD128R,0.0756X0.0003*%
%ADD129R,0.0736X0.0003*%
%ADD130R,0.0759X0.0003*%
%ADD131R,0.0743X0.0003*%
%ADD132R,0.0769X0.0003*%
%ADD133R,0.0776X0.0003*%
%ADD134R,0.0743X0.0003*%
%ADD135R,0.0789X0.0003*%
%ADD136R,0.0799X0.0003*%
%ADD137R,0.0739X0.0003*%
%ADD138R,0.0805X0.0003*%
%ADD139R,0.0815X0.0003*%
%ADD140R,0.0822X0.0003*%
%ADD141R,0.0825X0.0003*%
%ADD142R,0.0746X0.0003*%
%ADD143R,0.0832X0.0003*%
%ADD144R,0.0835X0.0003*%
%ADD145R,0.0838X0.0003*%
%ADD146R,0.0845X0.0003*%
%ADD147R,0.0752X0.0003*%
%ADD148R,0.0848X0.0003*%
%ADD149R,0.0851X0.0003*%
%ADD150R,0.0855X0.0003*%
%ADD151R,0.0752X0.0003*%
%ADD152R,0.0871X0.0003*%
%ADD153R,0.0878X0.0003*%
%ADD154R,0.0762X0.0003*%
%ADD155R,0.0888X0.0003*%
%ADD156R,0.0762X0.0003*%
%ADD157R,0.0891X0.0003*%
%ADD158R,0.0769X0.0003*%
%ADD159R,0.0769X0.0003*%
%ADD160R,0.0898X0.0003*%
%ADD161R,0.0776X0.0003*%
%ADD162R,0.0904X0.0003*%
%ADD163R,0.0775X0.0003*%
%ADD164R,0.0908X0.0003*%
%ADD165R,0.0775X0.0003*%
%ADD166R,0.0911X0.0003*%
%ADD167R,0.0914X0.0003*%
%ADD168R,0.0772X0.0003*%
%ADD169R,0.0924X0.0003*%
%ADD170R,0.0775X0.0003*%
%ADD171R,0.0931X0.0003*%
%ADD172R,0.0782X0.0003*%
%ADD173R,0.0937X0.0003*%
%ADD174R,0.0785X0.0003*%
%ADD175R,0.0944X0.0003*%
%ADD176R,0.0785X0.0003*%
%ADD177R,0.0950X0.0003*%
%ADD178R,0.0789X0.0003*%
%ADD179R,0.0954X0.0003*%
%ADD180R,0.0964X0.0003*%
%ADD181R,0.0792X0.0003*%
%ADD182R,0.0974X0.0003*%
%ADD183R,0.0795X0.0003*%
%ADD184R,0.0987X0.0003*%
%ADD185R,0.0802X0.0003*%
%ADD186R,0.1003X0.0003*%
%ADD187R,0.1007X0.0003*%
%ADD188R,0.0808X0.0003*%
%ADD189R,0.1010X0.0003*%
%ADD190R,0.0812X0.0003*%
%ADD191R,0.1013X0.0003*%
%ADD192R,0.1016X0.0003*%
%ADD193R,0.1023X0.0003*%
%ADD194R,0.0818X0.0003*%
%ADD195R,0.1026X0.0003*%
%ADD196R,0.1030X0.0003*%
%ADD197R,0.1033X0.0003*%
%ADD198R,0.1040X0.0003*%
%ADD199R,0.0825X0.0003*%
%ADD200R,0.1049X0.0003*%
%ADD201R,0.0825X0.0003*%
%ADD202R,0.1059X0.0003*%
%ADD203R,0.1066X0.0003*%
%ADD204R,0.1076X0.0003*%
%ADD205R,0.0832X0.0003*%
%ADD206R,0.1092X0.0003*%
%ADD207R,0.0838X0.0003*%
%ADD208R,0.1109X0.0003*%
%ADD209R,0.1115X0.0003*%
%ADD210R,0.0842X0.0003*%
%ADD211R,0.1122X0.0003*%
%ADD212R,0.1132X0.0003*%
%ADD213R,0.0841X0.0003*%
%ADD214R,0.1145X0.0003*%
%ADD215R,0.0842X0.0003*%
%ADD216R,0.1191X0.0003*%
%ADD217R,0.1211X0.0003*%
%ADD218R,0.1221X0.0003*%
%ADD219R,0.1238X0.0003*%
%ADD220R,0.0845X0.0003*%
%ADD221R,0.1310X0.0003*%
%ADD222R,0.1353X0.0003*%
%ADD223R,0.1366X0.0003*%
%ADD224R,0.1436X0.0003*%
%ADD225R,0.1752X0.0003*%
%ADD226R,0.1848X0.0003*%
%ADD227R,0.0007X0.0003*%
%ADD228R,0.0851X0.0003*%
%ADD229R,0.1924X0.0003*%
%ADD230R,0.0858X0.0003*%
%ADD231R,0.1934X0.0003*%
%ADD232R,0.0861X0.0003*%
%ADD233R,0.1937X0.0003*%
%ADD234R,0.0865X0.0003*%
%ADD235R,0.1940X0.0003*%
%ADD236R,0.0868X0.0003*%
%ADD237R,0.1940X0.0003*%
%ADD238R,0.0871X0.0003*%
%ADD239R,0.1954X0.0003*%
%ADD240R,0.0888X0.0003*%
%ADD241R,0.2046X0.0003*%
%ADD242R,0.0003X0.0003*%
%ADD243R,0.0013X0.0003*%
%ADD244R,0.2171X0.0003*%
%ADD245R,0.0927X0.0003*%
%ADD246R,0.3221X0.0003*%
%ADD247R,0.3214X0.0003*%
%ADD248R,0.3208X0.0003*%
%ADD249R,0.3201X0.0003*%
%ADD250R,0.3198X0.0003*%
%ADD251R,0.3194X0.0003*%
%ADD252R,0.3188X0.0003*%
%ADD253R,0.3185X0.0003*%
%ADD254R,0.3181X0.0003*%
%ADD255R,0.3175X0.0003*%
%ADD256R,0.3171X0.0003*%
%ADD257R,0.3165X0.0003*%
%ADD258R,0.3158X0.0003*%
%ADD259R,0.3141X0.0003*%
%ADD260R,0.3135X0.0003*%
%ADD261R,0.3129X0.0003*%
%ADD262R,0.3118X0.0003*%
%ADD263R,0.3115X0.0003*%
%ADD264R,0.3109X0.0003*%
%ADD265R,0.3099X0.0003*%
%ADD266R,0.3089X0.0003*%
%ADD267R,0.3082X0.0003*%
%ADD268R,0.3076X0.0003*%
%ADD269R,0.3072X0.0003*%
%ADD270R,0.3069X0.0003*%
%ADD271R,0.3056X0.0003*%
%ADD272R,0.3053X0.0003*%
%ADD273R,0.3043X0.0003*%
%ADD274R,0.3029X0.0003*%
%ADD275R,0.3023X0.0003*%
%ADD276R,0.3010X0.0003*%
%ADD277R,0.3003X0.0003*%
%ADD278R,0.2993X0.0003*%
%ADD279R,0.2986X0.0003*%
%ADD280R,0.2980X0.0003*%
%ADD281R,0.2977X0.0003*%
%ADD282R,0.2970X0.0003*%
%ADD283R,0.2963X0.0003*%
%ADD284R,0.2960X0.0003*%
%ADD285R,0.2954X0.0003*%
%ADD286R,0.2944X0.0003*%
%ADD287R,0.2937X0.0003*%
%ADD288R,0.2930X0.0003*%
%ADD289R,0.2921X0.0003*%
%ADD290R,0.2917X0.0003*%
%ADD291R,0.2907X0.0003*%
%ADD292R,0.2904X0.0003*%
%ADD293R,0.2897X0.0003*%
%ADD294R,0.2891X0.0003*%
%ADD295R,0.2884X0.0003*%
%ADD296R,0.2874X0.0003*%
%ADD297R,0.2868X0.0003*%
%ADD298R,0.2858X0.0003*%
%ADD299R,0.2851X0.0003*%
%ADD300R,0.2841X0.0003*%
%ADD301R,0.2835X0.0003*%
%ADD302R,0.2828X0.0003*%
%ADD303R,0.2818X0.0003*%
%ADD304R,0.2812X0.0003*%
%ADD305R,0.2808X0.0003*%
%ADD306R,0.2798X0.0003*%
%ADD307R,0.2792X0.0003*%
%ADD308R,0.2785X0.0003*%
%ADD309R,0.2779X0.0003*%
%ADD310R,0.2775X0.0003*%
%ADD311R,0.2772X0.0003*%
%ADD312R,0.2765X0.0003*%
%ADD313R,0.2752X0.0003*%
%ADD314R,0.2749X0.0003*%
%ADD315R,0.2742X0.0003*%
%ADD316R,0.2732X0.0003*%
%ADD317R,0.2722X0.0003*%
%ADD318R,0.2719X0.0003*%
%ADD319R,0.2709X0.0003*%
%ADD320R,0.2706X0.0003*%
%ADD321R,0.2696X0.0003*%
%ADD322R,0.2686X0.0003*%
%ADD323R,0.2680X0.0003*%
%ADD324R,0.2673X0.0003*%
%ADD325R,0.2666X0.0003*%
%ADD326R,0.2656X0.0003*%
%ADD327R,0.2650X0.0003*%
%ADD328R,0.2637X0.0003*%
%ADD329R,0.2630X0.0003*%
%ADD330R,0.2620X0.0003*%
%ADD331R,0.2614X0.0003*%
%ADD332R,0.2604X0.0003*%
%ADD333R,0.2597X0.0003*%
%ADD334R,0.2591X0.0003*%
%ADD335R,0.2485X0.0003*%
%ADD336R,0.0079X0.0003*%
%ADD337R,0.2472X0.0003*%
%ADD338R,0.0056X0.0003*%
%ADD339R,0.2462X0.0003*%
%ADD340R,0.0046X0.0003*%
%ADD341R,0.2455X0.0003*%
%ADD342R,0.0023X0.0003*%
%ADD343R,0.2449X0.0003*%
%ADD344R,0.2445X0.0003*%
%ADD345R,0.2442X0.0003*%
%ADD346R,0.2439X0.0003*%
%ADD347R,0.2432X0.0003*%
%ADD348R,0.2429X0.0003*%
%ADD349R,0.2419X0.0003*%
%ADD350R,0.2419X0.0003*%
%ADD351R,0.2412X0.0003*%
%ADD352R,0.2409X0.0003*%
%ADD353R,0.2406X0.0003*%
%ADD354R,0.2406X0.0003*%
%ADD355R,0.2402X0.0003*%
%ADD356R,0.2402X0.0003*%
%ADD357R,0.2402X0.0003*%
%ADD358R,0.2399X0.0003*%
%ADD359R,0.2399X0.0003*%
%ADD360R,0.2396X0.0003*%
%ADD361R,0.2389X0.0003*%
%ADD362R,0.2389X0.0003*%
%ADD363R,0.2392X0.0003*%
%ADD364R,0.2389X0.0003*%
%ADD365R,0.2386X0.0003*%
%ADD366R,0.2376X0.0003*%
%ADD367R,0.2369X0.0003*%
%ADD368R,0.2363X0.0003*%
%ADD369R,0.2359X0.0003*%
%ADD370R,0.2353X0.0003*%
%ADD371R,0.2346X0.0003*%
%ADD372R,0.2340X0.0003*%
%ADD373R,0.2336X0.0003*%
%ADD374R,0.2320X0.0003*%
%ADD375R,0.2310X0.0003*%
%ADD376R,0.2261X0.0003*%
%ADD377R,0.2257X0.0003*%
%ADD378R,0.2257X0.0003*%
%ADD379R,0.2251X0.0003*%
%ADD380R,0.2254X0.0003*%
%ADD381R,0.2251X0.0003*%
%ADD382R,0.2254X0.0003*%
%ADD383R,0.2254X0.0003*%
%ADD384R,0.2254X0.0003*%
%ADD385R,0.2260X0.0003*%
%ADD386R,0.2264X0.0003*%
%ADD387R,0.2264X0.0003*%
%ADD388R,0.2267X0.0003*%
%ADD389R,0.2270X0.0003*%
%ADD390R,0.2270X0.0003*%
%ADD391R,0.2274X0.0003*%
%ADD392R,0.2277X0.0003*%
%ADD393R,0.2280X0.0003*%
%ADD394R,0.2287X0.0003*%
%ADD395R,0.2290X0.0003*%
%ADD396R,0.2293X0.0003*%
%ADD397R,0.2300X0.0003*%
%ADD398R,0.2307X0.0003*%
%ADD399R,0.2313X0.0003*%
%ADD400R,0.2317X0.0003*%
%ADD401R,0.2320X0.0003*%
%ADD402R,0.2323X0.0003*%
%ADD403R,0.2327X0.0003*%
%ADD404R,0.2330X0.0003*%
%ADD405R,0.2333X0.0003*%
%ADD406R,0.2337X0.0003*%
%ADD407R,0.2340X0.0003*%
%ADD408R,0.2343X0.0003*%
%ADD409R,0.2346X0.0003*%
%ADD410R,0.2353X0.0003*%
%ADD411R,0.2353X0.0003*%
%ADD412R,0.2356X0.0003*%
%ADD413R,0.2363X0.0003*%
%ADD414R,0.2363X0.0003*%
%ADD415R,0.2366X0.0003*%
%ADD416R,0.2366X0.0003*%
%ADD417R,0.2373X0.0003*%
%ADD418R,0.2376X0.0003*%
%ADD419R,0.0617X0.0003*%
%ADD420R,0.1726X0.0003*%
%ADD421R,0.0604X0.0003*%
%ADD422R,0.1696X0.0003*%
%ADD423R,0.0604X0.0003*%
%ADD424R,0.1693X0.0003*%
%ADD425R,0.1690X0.0003*%
%ADD426R,0.0594X0.0003*%
%ADD427R,0.0591X0.0003*%
%ADD428R,0.1135X0.0003*%
%ADD429R,0.0568X0.0003*%
%ADD430R,0.1125X0.0003*%
%ADD431R,0.0462X0.0003*%
%ADD432R,0.0561X0.0003*%
%ADD433R,0.1119X0.0003*%
%ADD434R,0.0452X0.0003*%
%ADD435R,0.0554X0.0003*%
%ADD436R,0.1109X0.0003*%
%ADD437R,0.0429X0.0003*%
%ADD438R,0.0551X0.0003*%
%ADD439R,0.1092X0.0003*%
%ADD440R,0.0393X0.0003*%
%ADD441R,0.0551X0.0003*%
%ADD442R,0.1079X0.0003*%
%ADD443R,0.1069X0.0003*%
%ADD444R,0.0393X0.0003*%
%ADD445R,0.0535X0.0003*%
%ADD446R,0.1059X0.0003*%
%ADD447R,0.0389X0.0003*%
%ADD448R,0.0535X0.0003*%
%ADD449R,0.1053X0.0003*%
%ADD450R,0.1043X0.0003*%
%ADD451R,0.0535X0.0003*%
%ADD452R,0.0340X0.0003*%
%ADD453R,0.1020X0.0003*%
%ADD454R,0.0531X0.0003*%
%ADD455R,0.1016X0.0003*%
%ADD456R,0.0531X0.0003*%
%ADD457R,0.1013X0.0003*%
%ADD458R,0.0337X0.0003*%
%ADD459R,0.0531X0.0003*%
%ADD460R,0.0003X0.0003*%
%ADD461R,0.0333X0.0003*%
%ADD462R,0.0528X0.0003*%
%ADD463R,0.0033X0.0003*%
%ADD464R,0.1000X0.0003*%
%ADD465R,0.0333X0.0003*%
%ADD466R,0.0059X0.0003*%
%ADD467R,0.0997X0.0003*%
%ADD468R,0.0330X0.0003*%
%ADD469R,0.0525X0.0003*%
%ADD470R,0.0069X0.0003*%
%ADD471R,0.0993X0.0003*%
%ADD472R,0.0076X0.0003*%
%ADD473R,0.0327X0.0003*%
%ADD474R,0.0525X0.0003*%
%ADD475R,0.0086X0.0003*%
%ADD476R,0.0993X0.0003*%
%ADD477R,0.0327X0.0003*%
%ADD478R,0.0525X0.0003*%
%ADD479R,0.0089X0.0003*%
%ADD480R,0.0990X0.0003*%
%ADD481R,0.0327X0.0003*%
%ADD482R,0.0522X0.0003*%
%ADD483R,0.0093X0.0003*%
%ADD484R,0.0983X0.0003*%
%ADD485R,0.0016X0.0003*%
%ADD486R,0.0525X0.0003*%
%ADD487R,0.0096X0.0003*%
%ADD488R,0.0030X0.0003*%
%ADD489R,0.0102X0.0003*%
%ADD490R,0.0980X0.0003*%
%ADD491R,0.0040X0.0003*%
%ADD492R,0.0323X0.0003*%
%ADD493R,0.0521X0.0003*%
%ADD494R,0.0106X0.0003*%
%ADD495R,0.0109X0.0003*%
%ADD496R,0.0980X0.0003*%
%ADD497R,0.0053X0.0003*%
%ADD498R,0.0521X0.0003*%
%ADD499R,0.0109X0.0003*%
%ADD500R,0.0980X0.0003*%
%ADD501R,0.0059X0.0003*%
%ADD502R,0.0323X0.0003*%
%ADD503R,0.0521X0.0003*%
%ADD504R,0.0112X0.0003*%
%ADD505R,0.0977X0.0003*%
%ADD506R,0.0063X0.0003*%
%ADD507R,0.0323X0.0003*%
%ADD508R,0.0116X0.0003*%
%ADD509R,0.0977X0.0003*%
%ADD510R,0.0518X0.0003*%
%ADD511R,0.0119X0.0003*%
%ADD512R,0.0970X0.0003*%
%ADD513R,0.0076X0.0003*%
%ADD514R,0.0518X0.0003*%
%ADD515R,0.0116X0.0003*%
%ADD516R,0.0967X0.0003*%
%ADD517R,0.0083X0.0003*%
%ADD518R,0.0518X0.0003*%
%ADD519R,0.0116X0.0003*%
%ADD520R,0.0967X0.0003*%
%ADD521R,0.0083X0.0003*%
%ADD522R,0.0112X0.0003*%
%ADD523R,0.0963X0.0003*%
%ADD524R,0.0086X0.0003*%
%ADD525R,0.0089X0.0003*%
%ADD526R,0.0109X0.0003*%
%ADD527R,0.0960X0.0003*%
%ADD528R,0.0092X0.0003*%
%ADD529R,0.0106X0.0003*%
%ADD530R,0.0957X0.0003*%
%ADD531R,0.0089X0.0003*%
%ADD532R,0.0323X0.0003*%
%ADD533R,0.0102X0.0003*%
%ADD534R,0.0954X0.0003*%
%ADD535R,0.0323X0.0003*%
%ADD536R,0.0079X0.0003*%
%ADD537R,0.0327X0.0003*%
%ADD538R,0.0947X0.0003*%
%ADD539R,0.0944X0.0003*%
%ADD540R,0.0073X0.0003*%
%ADD541R,0.0069X0.0003*%
%ADD542R,0.0063X0.0003*%
%ADD543R,0.0063X0.0003*%
%ADD544R,0.0050X0.0003*%
%ADD545R,0.0944X0.0003*%
%ADD546R,0.0330X0.0003*%
%ADD547R,0.0531X0.0003*%
%ADD548R,0.0036X0.0003*%
%ADD549R,0.0947X0.0003*%
%ADD550R,0.0046X0.0003*%
%ADD551R,0.0330X0.0003*%
%ADD552R,0.0036X0.0003*%
%ADD553R,0.0010X0.0003*%
%ADD554R,0.0333X0.0003*%
%ADD555R,0.0538X0.0003*%
%ADD556R,0.0337X0.0003*%
%ADD557R,0.0541X0.0003*%
%ADD558R,0.0337X0.0003*%
%ADD559R,0.0545X0.0003*%
%ADD560R,0.0937X0.0003*%
%ADD561R,0.0337X0.0003*%
%ADD562R,0.0545X0.0003*%
%ADD563R,0.0548X0.0003*%
%ADD564R,0.0940X0.0003*%
%ADD565R,0.0548X0.0003*%
%ADD566R,0.0940X0.0003*%
%ADD567R,0.0551X0.0003*%
%ADD568R,0.0940X0.0003*%
%ADD569R,0.0343X0.0003*%
%ADD570R,0.0555X0.0003*%
%ADD571R,0.0346X0.0003*%
%ADD572R,0.0558X0.0003*%
%ADD573R,0.0944X0.0003*%
%ADD574R,0.0356X0.0003*%
%ADD575R,0.0360X0.0003*%
%ADD576R,0.0363X0.0003*%
%ADD577R,0.0366X0.0003*%
%ADD578R,0.0564X0.0003*%
%ADD579R,0.0370X0.0003*%
%ADD580R,0.0373X0.0003*%
%ADD581R,0.0571X0.0003*%
%ADD582R,0.0376X0.0003*%
%ADD583R,0.0380X0.0003*%
%ADD584R,0.0574X0.0003*%
%ADD585R,0.0957X0.0003*%
%ADD586R,0.0383X0.0003*%
%ADD587R,0.0581X0.0003*%
%ADD588R,0.0960X0.0003*%
%ADD589R,0.0383X0.0003*%
%ADD590R,0.0581X0.0003*%
%ADD591R,0.0973X0.0003*%
%ADD592R,0.0584X0.0003*%
%ADD593R,0.0977X0.0003*%
%ADD594R,0.0588X0.0003*%
%ADD595R,0.0396X0.0003*%
%ADD596R,0.0588X0.0003*%
%ADD597R,0.0396X0.0003*%
%ADD598R,0.0594X0.0003*%
%ADD599R,0.0987X0.0003*%
%ADD600R,0.0403X0.0003*%
%ADD601R,0.0990X0.0003*%
%ADD602R,0.0406X0.0003*%
%ADD603R,0.0604X0.0003*%
%ADD604R,0.0997X0.0003*%
%ADD605R,0.0409X0.0003*%
%ADD606R,0.0607X0.0003*%
%ADD607R,0.0419X0.0003*%
%ADD608R,0.0610X0.0003*%
%ADD609R,0.0422X0.0003*%
%ADD610R,0.1020X0.0003*%
%ADD611R,0.0429X0.0003*%
%ADD612R,0.0614X0.0003*%
%ADD613R,0.0432X0.0003*%
%ADD614R,0.0617X0.0003*%
%ADD615R,0.1043X0.0003*%
%ADD616R,0.0439X0.0003*%
%ADD617R,0.1066X0.0003*%
%ADD618R,0.1076X0.0003*%
%ADD619R,0.0455X0.0003*%
%ADD620R,0.0637X0.0003*%
%ADD621R,0.1089X0.0003*%
%ADD622R,0.0465X0.0003*%
%ADD623R,0.0647X0.0003*%
%ADD624R,0.1099X0.0003*%
%ADD625R,0.0479X0.0003*%
%ADD626R,0.1119X0.0003*%
%ADD627R,0.0492X0.0003*%
%ADD628R,0.0660X0.0003*%
%ADD629R,0.1139X0.0003*%
%ADD630R,0.0498X0.0003*%
%ADD631R,0.0667X0.0003*%
%ADD632R,0.1148X0.0003*%
%ADD633R,0.0512X0.0003*%
%ADD634R,0.0673X0.0003*%
%ADD635R,0.1165X0.0003*%
%ADD636R,0.0680X0.0003*%
%ADD637R,0.1185X0.0003*%
%ADD638R,0.0538X0.0003*%
%ADD639R,0.0706X0.0003*%
%ADD640R,0.1264X0.0003*%
%ADD641R,0.0544X0.0003*%
%ADD642R,0.0716X0.0003*%
%ADD643R,0.1855X0.0003*%
%ADD644R,0.1864X0.0003*%
%ADD645R,0.2607X0.0003*%
%ADD646R,0.2610X0.0003*%
%ADD647R,0.1564X0.0003*%
%ADD648R,0.1026X0.0003*%
%ADD649R,0.1551X0.0003*%
%ADD650R,0.1531X0.0003*%
%ADD651R,0.1485X0.0003*%
%ADD652R,0.1478X0.0003*%
%ADD653R,0.0970X0.0003*%
%ADD654R,0.1472X0.0003*%
%ADD655R,0.0967X0.0003*%
%ADD656R,0.1465X0.0003*%
%ADD657R,0.1459X0.0003*%
%ADD658R,0.1452X0.0003*%
%ADD659R,0.0960X0.0003*%
%ADD660R,0.1445X0.0003*%
%ADD661R,0.0957X0.0003*%
%ADD662R,0.1439X0.0003*%
%ADD663R,0.1439X0.0003*%
%ADD664R,0.1432X0.0003*%
%ADD665R,0.1432X0.0003*%
%ADD666R,0.0960X0.0003*%
%ADD667R,0.1429X0.0003*%
%ADD668R,0.0957X0.0003*%
%ADD669R,0.1426X0.0003*%
%ADD670R,0.1422X0.0003*%
%ADD671R,0.0957X0.0003*%
%ADD672R,0.1426X0.0003*%
%ADD673R,0.1429X0.0003*%
%ADD674R,0.1432X0.0003*%
%ADD675R,0.1435X0.0003*%
%ADD676R,0.1446X0.0003*%
%ADD677R,0.1449X0.0003*%
%ADD678R,0.0917X0.0003*%
%ADD679R,0.1455X0.0003*%
%ADD680R,0.0921X0.0003*%
%ADD681R,0.1459X0.0003*%
%ADD682R,0.0917X0.0003*%
%ADD683R,0.1468X0.0003*%
%ADD684R,0.0921X0.0003*%
%ADD685R,0.1475X0.0003*%
%ADD686R,0.0934X0.0003*%
%ADD687R,0.1478X0.0003*%
%ADD688R,0.0941X0.0003*%
%ADD689R,0.1488X0.0003*%
%ADD690R,0.0934X0.0003*%
%ADD691R,0.1525X0.0003*%
%ADD692R,0.0930X0.0003*%
%ADD693R,0.0066X0.0003*%
%ADD694R,0.1987X0.0003*%
%ADD695R,0.0020X0.0003*%
%ADD696R,0.1924X0.0003*%
%ADD697R,0.1891X0.0003*%
%ADD698R,0.0307X0.0003*%
%ADD699R,0.0304X0.0003*%
%ADD700R,0.1855X0.0003*%
%ADD701R,0.0294X0.0003*%
%ADD702R,0.1828X0.0003*%
%ADD703R,0.0287X0.0003*%
%ADD704R,0.1822X0.0003*%
%ADD705R,0.1818X0.0003*%
%ADD706R,0.1815X0.0003*%
%ADD707R,0.0281X0.0003*%
%ADD708R,0.1805X0.0003*%
%ADD709R,0.1798X0.0003*%
%ADD710R,0.0274X0.0003*%
%ADD711R,0.1795X0.0003*%
%ADD712R,0.1792X0.0003*%
%ADD713R,0.0267X0.0003*%
%ADD714R,0.0267X0.0003*%
%ADD715R,0.1785X0.0003*%
%ADD716R,0.1779X0.0003*%
%ADD717R,0.0264X0.0003*%
%ADD718R,0.1775X0.0003*%
%ADD719R,0.1772X0.0003*%
%ADD720R,0.0257X0.0003*%
%ADD721R,0.1769X0.0003*%
%ADD722R,0.0254X0.0003*%
%ADD723R,0.0254X0.0003*%
%ADD724R,0.1769X0.0003*%
%ADD725R,0.0251X0.0003*%
%ADD726R,0.1769X0.0003*%
%ADD727R,0.0251X0.0003*%
%ADD728R,0.1766X0.0003*%
%ADD729R,0.0248X0.0003*%
%ADD730R,0.0251X0.0003*%
%ADD731R,0.1759X0.0003*%
%ADD732R,0.0251X0.0003*%
%ADD733R,0.1756X0.0003*%
%ADD734R,0.0244X0.0003*%
%ADD735R,0.1749X0.0003*%
%ADD736R,0.1742X0.0003*%
%ADD737R,0.1739X0.0003*%
%ADD738R,0.0244X0.0003*%
%ADD739R,0.0244X0.0003*%
%ADD740R,0.1732X0.0003*%
%ADD741R,0.0241X0.0003*%
%ADD742R,0.1729X0.0003*%
%ADD743R,0.0238X0.0003*%
%ADD744R,0.1726X0.0003*%
%ADD745R,0.1722X0.0003*%
%ADD746R,0.0238X0.0003*%
%ADD747R,0.1722X0.0003*%
%ADD748R,0.0241X0.0003*%
%ADD749R,0.1719X0.0003*%
%ADD750R,0.1719X0.0003*%
%ADD751R,0.0241X0.0003*%
%ADD752R,0.1719X0.0003*%
%ADD753R,0.0238X0.0003*%
%ADD754R,0.1716X0.0003*%
%ADD755R,0.1713X0.0003*%
%ADD756R,0.1709X0.0003*%
%ADD757R,0.0779X0.0003*%
%ADD758R,0.0023X0.0003*%
%ADD759R,0.0254X0.0003*%
%ADD760R,0.0762X0.0003*%
%ADD761R,0.0779X0.0003*%
%ADD762R,0.0251X0.0003*%
%ADD763R,0.0756X0.0003*%
%ADD764R,0.0762X0.0003*%
%ADD765R,0.0739X0.0003*%
%ADD766R,0.0736X0.0003*%
%ADD767R,0.0251X0.0003*%
%ADD768R,0.0729X0.0003*%
%ADD769R,0.0716X0.0003*%
%ADD770R,0.0254X0.0003*%
%ADD771R,0.0719X0.0003*%
%ADD772R,0.0696X0.0003*%
%ADD773R,0.0257X0.0003*%
%ADD774R,0.0700X0.0003*%
%ADD775R,0.0261X0.0003*%
%ADD776R,0.0650X0.0003*%
%ADD777R,0.0670X0.0003*%
%ADD778R,0.0647X0.0003*%
%ADD779R,0.0663X0.0003*%
%ADD780R,0.0653X0.0003*%
%ADD781R,0.0634X0.0003*%
%ADD782R,0.0620X0.0003*%
%ADD783R,0.0601X0.0003*%
%ADD784R,0.0591X0.0003*%
%ADD785R,0.0578X0.0003*%
%ADD786R,0.0284X0.0003*%
%ADD787R,0.0578X0.0003*%
%ADD788R,0.0627X0.0003*%
%ADD789R,0.0284X0.0003*%
%ADD790R,0.0578X0.0003*%
%ADD791R,0.0624X0.0003*%
%ADD792R,0.0624X0.0003*%
%ADD793R,0.0026X0.0003*%
%ADD794R,0.0620X0.0003*%
%ADD795R,0.0290X0.0003*%
%ADD796R,0.0584X0.0003*%
%ADD797R,0.0106X0.0003*%
%ADD798R,0.0624X0.0003*%
%ADD799R,0.0290X0.0003*%
%ADD800R,0.0584X0.0003*%
%ADD801R,0.0125X0.0003*%
%ADD802R,0.0627X0.0003*%
%ADD803R,0.0290X0.0003*%
%ADD804R,0.0584X0.0003*%
%ADD805R,0.0152X0.0003*%
%ADD806R,0.0584X0.0003*%
%ADD807R,0.0165X0.0003*%
%ADD808R,0.0297X0.0003*%
%ADD809R,0.0188X0.0003*%
%ADD810R,0.0201X0.0003*%
%ADD811R,0.0304X0.0003*%
%ADD812R,0.0218X0.0003*%
%ADD813R,0.0307X0.0003*%
%ADD814R,0.0261X0.0003*%
%ADD815R,0.0324X0.0003*%
%ADD816R,0.0287X0.0003*%
%ADD817R,0.0290X0.0003*%
%ADD818R,0.0294X0.0003*%
%ADD819R,0.0310X0.0003*%
%ADD820R,0.0597X0.0003*%
%ADD821R,0.0317X0.0003*%
%ADD822R,0.0337X0.0003*%
%ADD823R,0.0597X0.0003*%
%ADD824R,0.0317X0.0003*%
%ADD825R,0.0653X0.0003*%
%ADD826R,0.0343X0.0003*%
%ADD827R,0.0317X0.0003*%
%ADD828R,0.0653X0.0003*%
%ADD829R,0.0353X0.0003*%
%ADD830R,0.0597X0.0003*%
%ADD831R,0.0667X0.0003*%
%ADD832R,0.0033X0.0003*%
%ADD833R,0.0356X0.0003*%
%ADD834R,0.0597X0.0003*%
%ADD835R,0.0333X0.0003*%
%ADD836R,0.0670X0.0003*%
%ADD837R,0.0056X0.0003*%
%ADD838R,0.0370X0.0003*%
%ADD839R,0.0337X0.0003*%
%ADD840R,0.0073X0.0003*%
%ADD841R,0.0340X0.0003*%
%ADD842R,0.0693X0.0003*%
%ADD843R,0.0383X0.0003*%
%ADD844R,0.0703X0.0003*%
%ADD845R,0.0083X0.0003*%
%ADD846R,0.0386X0.0003*%
%ADD847R,0.0086X0.0003*%
%ADD848R,0.0403X0.0003*%
%ADD849R,0.0347X0.0003*%
%ADD850R,0.0096X0.0003*%
%ADD851R,0.0409X0.0003*%
%ADD852R,0.0729X0.0003*%
%ADD853R,0.0416X0.0003*%
%ADD854R,0.0640X0.0003*%
%ADD855R,0.0350X0.0003*%
%ADD856R,0.0115X0.0003*%
%ADD857R,0.0422X0.0003*%
%ADD858R,0.0155X0.0003*%
%ADD859R,0.0990X0.0003*%
%ADD860R,0.0459X0.0003*%
%ADD861R,0.0017X0.0003*%
%ADD862R,0.0010X0.0003*%
%ADD863R,0.1327X0.0003*%
%ADD864R,0.1330X0.0003*%
%ADD865R,0.1333X0.0003*%
%ADD866R,0.1337X0.0003*%
%ADD867R,0.0356X0.0003*%
%ADD868R,0.0987X0.0003*%
%ADD869R,0.1337X0.0003*%
%ADD870R,0.1340X0.0003*%
%ADD871R,0.1340X0.0003*%
%ADD872R,0.0990X0.0003*%
%ADD873R,0.1340X0.0003*%
%ADD874R,0.0353X0.0003*%
%ADD875R,0.1343X0.0003*%
%ADD876R,0.1343X0.0003*%
%ADD877R,0.0350X0.0003*%
%ADD878R,0.0347X0.0003*%
%ADD879R,0.0993X0.0003*%
%ADD880R,0.1343X0.0003*%
%ADD881R,0.1346X0.0003*%
%ADD882R,0.1346X0.0003*%
%ADD883R,0.0314X0.0003*%
%ADD884R,0.1350X0.0003*%
%ADD885R,0.0307X0.0003*%
%ADD886R,0.1350X0.0003*%
%ADD887R,0.0300X0.0003*%
%ADD888R,0.1353X0.0003*%
%ADD889R,0.0287X0.0003*%
%ADD890R,0.1353X0.0003*%
%ADD891R,0.0277X0.0003*%
%ADD892R,0.1356X0.0003*%
%ADD893R,0.1356X0.0003*%
%ADD894R,0.0257X0.0003*%
%ADD895R,0.1359X0.0003*%
%ADD896R,0.0248X0.0003*%
%ADD897R,0.0997X0.0003*%
%ADD898R,0.1363X0.0003*%
%ADD899R,0.0238X0.0003*%
%ADD900R,0.1000X0.0003*%
%ADD901R,0.1363X0.0003*%
%ADD902R,0.0228X0.0003*%
%ADD903R,0.0997X0.0003*%
%ADD904R,0.1363X0.0003*%
%ADD905R,0.0208X0.0003*%
%ADD906R,0.0198X0.0003*%
%ADD907R,0.1369X0.0003*%
%ADD908R,0.0188X0.0003*%
%ADD909R,0.1006X0.0003*%
%ADD910R,0.1373X0.0003*%
%ADD911R,0.1376X0.0003*%
%ADD912R,0.1379X0.0003*%
%ADD913R,0.0142X0.0003*%
%ADD914R,0.1007X0.0003*%
%ADD915R,0.0102X0.0003*%
%ADD916R,0.1383X0.0003*%
%ADD917R,0.1386X0.0003*%
%ADD918R,0.1389X0.0003*%
%ADD919R,0.1396X0.0003*%
%ADD920R,0.1023X0.0003*%
%ADD921R,0.1396X0.0003*%
%ADD922R,0.1026X0.0003*%
%ADD923R,0.1399X0.0003*%
%ADD924R,0.1026X0.0003*%
%ADD925R,0.1406X0.0003*%
%ADD926R,0.1046X0.0003*%
%ADD927R,0.1409X0.0003*%
%ADD928R,0.1049X0.0003*%
%ADD929R,0.1412X0.0003*%
%ADD930R,0.1056X0.0003*%
%ADD931R,0.1412X0.0003*%
%ADD932R,0.1063X0.0003*%
%ADD933R,0.1419X0.0003*%
%ADD934R,0.1422X0.0003*%
%ADD935R,0.1069X0.0003*%
%ADD936R,0.1432X0.0003*%
%ADD937R,0.1073X0.0003*%
%ADD938R,0.1082X0.0003*%
%ADD939R,0.1442X0.0003*%
%ADD940R,0.1099X0.0003*%
%ADD941R,0.1482X0.0003*%
%ADD942R,0.1109X0.0003*%
%ADD943R,0.1498X0.0003*%
%ADD944R,0.1116X0.0003*%
%ADD945R,0.1502X0.0003*%
%ADD946R,0.1122X0.0003*%
%ADD947R,0.1511X0.0003*%
%ADD948R,0.1132X0.0003*%
%ADD949R,0.1525X0.0003*%
%ADD950R,0.1145X0.0003*%
%ADD951R,0.1175X0.0003*%
%ADD952R,0.2825X0.0003*%
%ADD953R,0.2821X0.0003*%
%ADD954R,0.2818X0.0003*%
%ADD955R,0.2818X0.0003*%
%ADD956R,0.2818X0.0003*%
%ADD957R,0.2815X0.0003*%
%ADD958R,0.2818X0.0003*%
%ADD959R,0.2815X0.0003*%
%ADD960R,0.2811X0.0003*%
%ADD961R,0.2811X0.0003*%
%ADD962R,0.2815X0.0003*%
%ADD963R,0.2808X0.0003*%
%ADD964R,0.2808X0.0003*%
%ADD965R,0.2808X0.0003*%
%ADD966R,0.2812X0.0003*%
%ADD967R,0.2812X0.0003*%
%ADD968R,0.2815X0.0003*%
%ADD969R,0.2812X0.0003*%
%ADD970R,0.2805X0.0003*%
%ADD971R,0.2805X0.0003*%
%ADD972R,0.2802X0.0003*%
%ADD973R,0.2802X0.0003*%
%ADD974R,0.2798X0.0003*%
%ADD975R,0.2798X0.0003*%
%ADD976R,0.2795X0.0003*%
%ADD977R,0.2792X0.0003*%
%ADD978R,0.2789X0.0003*%
%ADD979R,0.2789X0.0003*%
%ADD980R,0.2785X0.0003*%
%ADD981R,0.2785X0.0003*%
%ADD982R,0.2785X0.0003*%
%ADD983R,0.2782X0.0003*%
%ADD984R,0.2782X0.0003*%
%ADD985R,0.2779X0.0003*%
%ADD986R,0.2779X0.0003*%
D10*
X28248Y42028D02*
X28151D01*
X28199D01*
Y42319D01*
X28248Y42270D01*
X28005Y42028D02*
X27811Y42222D01*
X27520Y42028D02*
X27714D01*
X27520Y42222D01*
Y42270D01*
X27568Y42319D01*
X27666D01*
X27714Y42270D01*
X27423D02*
X27374Y42319D01*
X27277D01*
X27229Y42270D01*
Y42076D01*
X27277Y42028D01*
X27374D01*
X27423Y42076D01*
Y42270D01*
X27132Y42028D02*
X26937Y42222D01*
X26646Y42028D02*
X26840D01*
X26646Y42222D01*
Y42270D01*
X26695Y42319D01*
X26792D01*
X26840Y42270D01*
X26549D02*
X26501Y42319D01*
X26403D01*
X26355Y42270D01*
Y42076D01*
X26403Y42028D01*
X26501D01*
X26549Y42076D01*
Y42270D01*
X26258Y42028D02*
X26161D01*
X26209D01*
Y42319D01*
X26258Y42270D01*
X26015Y42076D02*
X25967Y42028D01*
X25870D01*
X25821Y42076D01*
Y42270D01*
X25870Y42319D01*
X25967D01*
X26015Y42270D01*
Y42222D01*
X25967Y42173D01*
X25821D01*
X39077Y41925D02*
X39175D01*
X39126D01*
Y41682D01*
X39175Y41634D01*
X39223D01*
X39272Y41682D01*
X38932Y41634D02*
X38835D01*
X38786Y41682D01*
Y41779D01*
X38835Y41828D01*
X38932D01*
X38980Y41779D01*
Y41682D01*
X38932Y41634D01*
X38689Y41828D02*
Y41634D01*
Y41731D01*
X38641Y41779D01*
X38592Y41828D01*
X38544D01*
X38398Y41634D02*
X38301D01*
X38349D01*
Y41828D01*
X38398D01*
X38107D02*
X38010D01*
X37961Y41779D01*
Y41634D01*
X38107D01*
X38155Y41682D01*
X38107Y41731D01*
X37961D01*
X37864Y41634D02*
Y41828D01*
X37718D01*
X37670Y41779D01*
Y41634D01*
X37281Y41925D02*
Y41634D01*
X37136D01*
X37087Y41682D01*
Y41731D01*
X37136Y41779D01*
X37281D01*
X37136D01*
X37087Y41828D01*
Y41877D01*
X37136Y41925D01*
X37281D01*
X36990Y41828D02*
Y41634D01*
Y41731D01*
X36942Y41779D01*
X36893Y41828D01*
X36845D01*
X36699D02*
Y41682D01*
X36650Y41634D01*
X36505D01*
Y41828D01*
X36408Y41634D02*
X36262D01*
X36214Y41682D01*
X36262Y41731D01*
X36359D01*
X36408Y41779D01*
X36359Y41828D01*
X36214D01*
X36116Y41634D02*
X36019D01*
X36068D01*
Y41925D01*
X36116D01*
X35874Y41634D02*
X35777D01*
X35825D01*
Y41828D01*
X35874D01*
X35631Y41634D02*
Y41828D01*
X35485D01*
X35437Y41779D01*
Y41634D01*
X35146Y41925D02*
Y41634D01*
X35291D01*
X35340Y41682D01*
Y41779D01*
X35291Y41828D01*
X35146D01*
X35000Y41585D02*
X34952Y41634D01*
Y41682D01*
X35000D01*
Y41634D01*
X34952D01*
X35000Y41585D01*
X35049Y41537D01*
X34466Y41634D02*
Y41925D01*
X34369Y41828D01*
X34272Y41925D01*
Y41634D01*
X34126Y41828D02*
X34029D01*
X33981Y41779D01*
Y41634D01*
X34126D01*
X34175Y41682D01*
X34126Y41731D01*
X33981D01*
X33689Y41828D02*
X33835D01*
X33884Y41779D01*
Y41682D01*
X33835Y41634D01*
X33689D01*
X33592D02*
Y41925D01*
Y41731D02*
X33447Y41828D01*
X33592Y41731D02*
X33447Y41634D01*
X33301D02*
X33204D01*
X33253D01*
Y41925D01*
X33301D01*
X33058Y41634D02*
X32961D01*
X33010D01*
Y41828D01*
X33058D01*
X32816Y41634D02*
Y41828D01*
X32670D01*
X32622Y41779D01*
Y41634D01*
X32233Y41925D02*
Y41634D01*
Y41779D01*
X32039D01*
Y41925D01*
Y41634D01*
X31893Y41828D02*
X31796D01*
X31748Y41779D01*
Y41634D01*
X31893D01*
X31942Y41682D01*
X31893Y41731D01*
X31748D01*
X31651Y41634D02*
X31554D01*
X31602D01*
Y41925D01*
X31651D01*
X31408Y41634D02*
X31311D01*
X31360D01*
Y41925D01*
X31408D01*
X31117Y41585D02*
X31068Y41634D01*
Y41682D01*
X31117D01*
Y41634D01*
X31068D01*
X31117Y41585D01*
X31165Y41537D01*
X30534Y41828D02*
X30437D01*
X30389Y41779D01*
Y41634D01*
X30534D01*
X30583Y41682D01*
X30534Y41731D01*
X30389D01*
X30292Y41634D02*
Y41828D01*
X30146D01*
X30097Y41779D01*
Y41634D01*
X29806Y41925D02*
Y41634D01*
X29952D01*
X30000Y41682D01*
Y41779D01*
X29952Y41828D01*
X29806D01*
X29418Y41925D02*
X29224D01*
Y41877D01*
X29418Y41682D01*
Y41634D01*
X29224D01*
X29078Y41828D02*
X28981D01*
X28932Y41779D01*
Y41634D01*
X29078D01*
X29127Y41682D01*
X29078Y41731D01*
X28932D01*
X28641Y41828D02*
X28787D01*
X28835Y41779D01*
Y41682D01*
X28787Y41634D01*
X28641D01*
X28544Y41925D02*
Y41634D01*
Y41779D01*
X28496Y41828D01*
X28399D01*
X28350Y41779D01*
Y41634D01*
X28204Y41828D02*
X28107D01*
X28059Y41779D01*
Y41634D01*
X28204D01*
X28253Y41682D01*
X28204Y41731D01*
X28059D01*
X27962Y41828D02*
Y41634D01*
Y41731D01*
X27913Y41779D01*
X27865Y41828D01*
X27816D01*
X27670D02*
Y41682D01*
X27622Y41634D01*
X27476D01*
Y41585D01*
X27525Y41537D01*
X27573D01*
X27476Y41634D02*
Y41828D01*
X27088Y41925D02*
Y41634D01*
X26942D01*
X26894Y41682D01*
Y41731D01*
X26942Y41779D01*
X27088D01*
X26942D01*
X26894Y41828D01*
Y41877D01*
X26942Y41925D01*
X27088D01*
X26651Y41634D02*
X26748D01*
X26797Y41682D01*
Y41779D01*
X26748Y41828D01*
X26651D01*
X26602Y41779D01*
Y41731D01*
X26797D01*
X26505Y41634D02*
Y41828D01*
X26360D01*
X26311Y41779D01*
Y41634D01*
X26020Y41925D02*
Y41634D01*
X26166D01*
X26214Y41682D01*
Y41779D01*
X26166Y41828D01*
X26020D01*
X25874Y41877D02*
Y41828D01*
X25923D01*
X25826D01*
X25874D01*
Y41682D01*
X25826Y41634D01*
X37598Y45468D02*
Y45226D01*
X37550Y45177D01*
X37453D01*
X37404Y45226D01*
Y45468D01*
X37113Y45420D02*
X37162Y45468D01*
X37259D01*
X37307Y45420D01*
Y45371D01*
X37259Y45323D01*
X37162D01*
X37113Y45274D01*
Y45226D01*
X37162Y45177D01*
X37259D01*
X37307Y45226D01*
X37016Y45468D02*
Y45177D01*
X36870D01*
X36822Y45226D01*
Y45274D01*
X36870Y45323D01*
X37016D01*
X36870D01*
X36822Y45371D01*
Y45420D01*
X36870Y45468D01*
X37016D01*
X36433D02*
Y45177D01*
X36288D01*
X36239Y45226D01*
Y45274D01*
X36288Y45323D01*
X36433D01*
X36288D01*
X36239Y45371D01*
Y45420D01*
X36288Y45468D01*
X36433D01*
X35851Y45371D02*
Y45226D01*
X35802Y45177D01*
X35657D01*
Y45371D01*
X35560Y45177D02*
X35414D01*
X35366Y45226D01*
X35414Y45274D01*
X35511D01*
X35560Y45323D01*
X35511Y45371D01*
X35366D01*
X35123Y45177D02*
X35220D01*
X35268Y45226D01*
Y45323D01*
X35220Y45371D01*
X35123D01*
X35074Y45323D01*
Y45274D01*
X35268D01*
X34783Y45468D02*
Y45177D01*
X34929D01*
X34977Y45226D01*
Y45323D01*
X34929Y45371D01*
X34783D01*
X34346Y45177D02*
X34249D01*
X34201Y45226D01*
Y45323D01*
X34249Y45371D01*
X34346D01*
X34395Y45323D01*
Y45226D01*
X34346Y45177D01*
X34103D02*
Y45371D01*
X33958D01*
X33909Y45323D01*
Y45177D01*
X33812D02*
X33715D01*
X33764D01*
Y45468D01*
X33812D01*
X33570Y45371D02*
Y45226D01*
X33521Y45177D01*
X33375D01*
Y45129D01*
X33424Y45080D01*
X33472D01*
X33375Y45177D02*
Y45371D01*
X32939Y45177D02*
Y45420D01*
Y45323D01*
X32987D01*
X32890D01*
X32939D01*
Y45420D01*
X32890Y45468D01*
X32696Y45177D02*
X32599D01*
X32550Y45226D01*
Y45323D01*
X32599Y45371D01*
X32696D01*
X32744Y45323D01*
Y45226D01*
X32696Y45177D01*
X32453Y45371D02*
Y45177D01*
Y45274D01*
X32405Y45323D01*
X32356Y45371D01*
X32307D01*
X31871Y45080D02*
Y45371D01*
X31725D01*
X31676Y45323D01*
Y45226D01*
X31725Y45177D01*
X31871D01*
X31579Y45371D02*
Y45177D01*
Y45274D01*
X31531Y45323D01*
X31482Y45371D01*
X31434D01*
X31240Y45177D02*
X31142D01*
X31094Y45226D01*
Y45323D01*
X31142Y45371D01*
X31240D01*
X31288Y45323D01*
Y45226D01*
X31240Y45177D01*
X30900Y45080D02*
X30851D01*
X30803Y45129D01*
Y45371D01*
X30948D01*
X30997Y45323D01*
Y45226D01*
X30948Y45177D01*
X30803D01*
X30706Y45371D02*
Y45177D01*
Y45274D01*
X30657Y45323D01*
X30609Y45371D01*
X30560D01*
X30366D02*
X30269D01*
X30220Y45323D01*
Y45177D01*
X30366D01*
X30414Y45226D01*
X30366Y45274D01*
X30220D01*
X30123Y45177D02*
Y45371D01*
X30075D01*
X30026Y45323D01*
Y45177D01*
Y45323D01*
X29978Y45371D01*
X29929Y45323D01*
Y45177D01*
X29832D02*
Y45371D01*
X29783D01*
X29735Y45323D01*
Y45177D01*
Y45323D01*
X29686Y45371D01*
X29638Y45323D01*
Y45177D01*
X29541D02*
X29444D01*
X29492D01*
Y45371D01*
X29541D01*
X29298Y45177D02*
Y45371D01*
X29152D01*
X29104Y45323D01*
Y45177D01*
X28910Y45080D02*
X28861D01*
X28813Y45129D01*
Y45371D01*
X28958D01*
X29007Y45323D01*
Y45226D01*
X28958Y45177D01*
X28813D01*
X37697Y45961D02*
X37503D01*
X37600D01*
Y45669D01*
X37357D02*
X37260D01*
X37211Y45718D01*
Y45815D01*
X37260Y45863D01*
X37357D01*
X37406Y45815D01*
Y45718D01*
X37357Y45669D01*
X37066Y45912D02*
Y45863D01*
X37114D01*
X37017D01*
X37066D01*
Y45718D01*
X37017Y45669D01*
X36823Y45863D02*
X36726D01*
X36677Y45815D01*
Y45669D01*
X36823D01*
X36872Y45718D01*
X36823Y45766D01*
X36677D01*
X36580Y45669D02*
X36483D01*
X36532D01*
Y45961D01*
X36580D01*
X35852Y45863D02*
X35998D01*
X36046Y45815D01*
Y45718D01*
X35998Y45669D01*
X35852D01*
X35755Y45863D02*
Y45718D01*
X35707Y45669D01*
X35561D01*
Y45863D01*
X35464D02*
Y45669D01*
Y45766D01*
X35415Y45815D01*
X35367Y45863D01*
X35318D01*
X35173D02*
Y45669D01*
Y45766D01*
X35124Y45815D01*
X35076Y45863D01*
X35027D01*
X34736Y45669D02*
X34833D01*
X34881Y45718D01*
Y45815D01*
X34833Y45863D01*
X34736D01*
X34687Y45815D01*
Y45766D01*
X34881D01*
X34590Y45669D02*
Y45863D01*
X34445D01*
X34396Y45815D01*
Y45669D01*
X34250Y45912D02*
Y45863D01*
X34299D01*
X34202D01*
X34250D01*
Y45718D01*
X34202Y45669D01*
X33716D02*
X33619D01*
X33571Y45718D01*
Y45815D01*
X33619Y45863D01*
X33716D01*
X33765Y45815D01*
Y45718D01*
X33716Y45669D01*
X33474Y45863D02*
Y45718D01*
X33425Y45669D01*
X33280D01*
Y45863D01*
X33134Y45912D02*
Y45863D01*
X33183D01*
X33085D01*
X33134D01*
Y45718D01*
X33085Y45669D01*
X32940Y45572D02*
Y45863D01*
X32794D01*
X32746Y45815D01*
Y45718D01*
X32794Y45669D01*
X32940D01*
X32649Y45863D02*
Y45718D01*
X32600Y45669D01*
X32454D01*
Y45863D01*
X32309Y45912D02*
Y45863D01*
X32357D01*
X32260D01*
X32309D01*
Y45718D01*
X32260Y45669D01*
X31823Y45815D02*
X31629D01*
X31047Y45961D02*
X31241D01*
Y45815D01*
X31144Y45863D01*
X31095D01*
X31047Y45815D01*
Y45718D01*
X31095Y45669D01*
X31192D01*
X31241Y45718D01*
X30950Y45669D02*
Y45863D01*
X30853Y45961D01*
X30756Y45863D01*
Y45669D01*
Y45815D01*
X30950D01*
X30222Y45766D02*
Y45815D01*
X30270D01*
Y45766D01*
X30222D01*
X30173Y45815D01*
Y45912D01*
X30222Y45961D01*
X30319D01*
X30367Y45912D01*
Y45718D01*
X30319Y45669D01*
X30173D01*
X29785D02*
X29688D01*
X29736D01*
Y45961D01*
X29785Y45912D01*
X29348Y45669D02*
X29542D01*
X29348Y45863D01*
Y45912D01*
X29396Y45961D01*
X29493D01*
X29542Y45912D01*
X29251D02*
X29202Y45961D01*
X29105D01*
X29057Y45912D01*
Y45718D01*
X29105Y45669D01*
X29202D01*
X29251Y45718D01*
Y45912D01*
X28960Y45961D02*
Y45766D01*
X28862Y45669D01*
X28765Y45766D01*
Y45961D01*
X28668Y45669D02*
Y45863D01*
X28571Y45961D01*
X28474Y45863D01*
Y45669D01*
Y45815D01*
X28668D01*
X28183Y45912D02*
X28231Y45961D01*
X28328D01*
X28377Y45912D01*
Y45718D01*
X28328Y45669D01*
X28231D01*
X28183Y45718D01*
X37697Y46404D02*
X37648Y46453D01*
X37551D01*
X37503Y46404D01*
Y46356D01*
X37551Y46307D01*
X37600D01*
X37551D01*
X37503Y46259D01*
Y46210D01*
X37551Y46161D01*
X37648D01*
X37697Y46210D01*
X37114Y46161D02*
Y46356D01*
X37017Y46453D01*
X36920Y46356D01*
Y46161D01*
Y46307D01*
X37114D01*
X36629Y46404D02*
X36677Y46453D01*
X36775D01*
X36823Y46404D01*
Y46210D01*
X36775Y46161D01*
X36677D01*
X36629Y46210D01*
X36192Y46161D02*
X36095D01*
X36046Y46210D01*
Y46307D01*
X36095Y46356D01*
X36192D01*
X36241Y46307D01*
Y46210D01*
X36192Y46161D01*
X35949Y46356D02*
Y46210D01*
X35901Y46161D01*
X35755D01*
Y46356D01*
X35610Y46404D02*
Y46356D01*
X35658D01*
X35561D01*
X35610D01*
Y46210D01*
X35561Y46161D01*
X35415Y46064D02*
Y46356D01*
X35270D01*
X35221Y46307D01*
Y46210D01*
X35270Y46161D01*
X35415D01*
X35124Y46356D02*
Y46210D01*
X35076Y46161D01*
X34930D01*
Y46356D01*
X34784Y46404D02*
Y46356D01*
X34833D01*
X34736D01*
X34784D01*
Y46210D01*
X34736Y46161D01*
X34590D02*
X34445D01*
X34396Y46210D01*
X34445Y46259D01*
X34542D01*
X34590Y46307D01*
X34542Y46356D01*
X34396D01*
X33814D02*
X33959D01*
X34008Y46307D01*
Y46210D01*
X33959Y46161D01*
X33814D01*
X33668D02*
X33571D01*
X33522Y46210D01*
Y46307D01*
X33571Y46356D01*
X33668D01*
X33716Y46307D01*
Y46210D01*
X33668Y46161D01*
X33425D02*
Y46356D01*
X33280D01*
X33231Y46307D01*
Y46161D01*
X33085Y46404D02*
Y46356D01*
X33134D01*
X33037D01*
X33085D01*
Y46210D01*
X33037Y46161D01*
X32891Y46356D02*
Y46161D01*
Y46259D01*
X32843Y46307D01*
X32794Y46356D01*
X32746D01*
X32552Y46161D02*
X32454D01*
X32406Y46210D01*
Y46307D01*
X32454Y46356D01*
X32552D01*
X32600Y46307D01*
Y46210D01*
X32552Y46161D01*
X32309D02*
X32212D01*
X32260D01*
Y46453D01*
X32309D01*
X32066Y46161D02*
X31969D01*
X32018D01*
Y46453D01*
X32066D01*
X31775Y46356D02*
X31678D01*
X31629Y46307D01*
Y46161D01*
X31775D01*
X31823Y46210D01*
X31775Y46259D01*
X31629D01*
X31532Y46453D02*
Y46161D01*
X31387D01*
X31338Y46210D01*
Y46259D01*
Y46307D01*
X31387Y46356D01*
X31532D01*
X31241Y46161D02*
X31144D01*
X31192D01*
Y46453D01*
X31241D01*
X30853Y46161D02*
X30950D01*
X30998Y46210D01*
Y46307D01*
X30950Y46356D01*
X30853D01*
X30804Y46307D01*
Y46259D01*
X30998D01*
X30367Y46404D02*
Y46356D01*
X30416D01*
X30319D01*
X30367D01*
Y46210D01*
X30319Y46161D01*
X30173Y46453D02*
Y46161D01*
Y46307D01*
X30124Y46356D01*
X30027D01*
X29979Y46307D01*
Y46161D01*
X29882Y46356D02*
Y46161D01*
Y46259D01*
X29833Y46307D01*
X29785Y46356D01*
X29736D01*
X29542Y46161D02*
X29445D01*
X29396Y46210D01*
Y46307D01*
X29445Y46356D01*
X29542D01*
X29591Y46307D01*
Y46210D01*
X29542Y46161D01*
X29299Y46356D02*
Y46210D01*
X29251Y46161D01*
X29105D01*
Y46356D01*
X28911Y46064D02*
X28862D01*
X28814Y46113D01*
Y46356D01*
X28960D01*
X29008Y46307D01*
Y46210D01*
X28960Y46161D01*
X28814D01*
X28717Y46453D02*
Y46161D01*
Y46307D01*
X28668Y46356D01*
X28571D01*
X28523Y46307D01*
Y46161D01*
X28086Y46356D02*
X27989D01*
X27940Y46307D01*
Y46161D01*
X28086D01*
X28134Y46210D01*
X28086Y46259D01*
X27940D01*
X27843Y46161D02*
Y46356D01*
X27697D01*
X27649Y46307D01*
Y46161D01*
X27066Y46453D02*
X27261D01*
Y46161D01*
X27066D01*
X27261Y46307D02*
X27163D01*
X26775Y46404D02*
X26824Y46453D01*
X26921D01*
X26969Y46404D01*
Y46356D01*
X26921Y46307D01*
X26824D01*
X26775Y46259D01*
Y46210D01*
X26824Y46161D01*
X26921D01*
X26969Y46210D01*
X26678Y46161D02*
Y46453D01*
X26532D01*
X26484Y46404D01*
Y46307D01*
X26532Y46259D01*
X26678D01*
X26387Y46404D02*
X26338Y46453D01*
X26241D01*
X26193Y46404D01*
Y46356D01*
X26241Y46307D01*
X26290D01*
X26241D01*
X26193Y46259D01*
Y46210D01*
X26241Y46161D01*
X26338D01*
X26387Y46210D01*
X25901Y46161D02*
X26096D01*
X25901Y46356D01*
Y46404D01*
X25950Y46453D01*
X26047D01*
X26096Y46404D01*
X39291Y41024D02*
Y41315D01*
X39194Y41218D01*
X39097Y41315D01*
Y41024D01*
X38952D02*
X38854D01*
X38806Y41072D01*
Y41169D01*
X38854Y41218D01*
X38952D01*
X39000Y41169D01*
Y41072D01*
X38952Y41024D01*
X38709Y41218D02*
Y41024D01*
Y41121D01*
X38660Y41169D01*
X38612Y41218D01*
X38563D01*
X38272Y41024D02*
X38369D01*
X38418Y41072D01*
Y41169D01*
X38369Y41218D01*
X38272D01*
X38223Y41169D01*
Y41121D01*
X38418D01*
X37835Y41024D02*
X37738D01*
X37787D01*
Y41218D01*
X37835D01*
X37592Y41024D02*
Y41218D01*
X37447D01*
X37398Y41169D01*
Y41024D01*
X37253D02*
Y41266D01*
Y41169D01*
X37301D01*
X37204D01*
X37253D01*
Y41266D01*
X37204Y41315D01*
X37010Y41024D02*
X36913D01*
X36864Y41072D01*
Y41169D01*
X36913Y41218D01*
X37010D01*
X37058Y41169D01*
Y41072D01*
X37010Y41024D01*
X36427D02*
Y41266D01*
Y41169D01*
X36476D01*
X36379D01*
X36427D01*
Y41266D01*
X36379Y41315D01*
X36185Y41024D02*
X36088D01*
X36039Y41072D01*
Y41169D01*
X36088Y41218D01*
X36185D01*
X36233Y41169D01*
Y41072D01*
X36185Y41024D01*
X35942Y41218D02*
Y41072D01*
X35893Y41024D01*
X35748D01*
Y41218D01*
X35651Y41024D02*
Y41218D01*
X35505D01*
X35457Y41169D01*
Y41024D01*
X35165Y41315D02*
Y41024D01*
X35311D01*
X35360Y41072D01*
Y41169D01*
X35311Y41218D01*
X35165D01*
X34777Y41315D02*
Y41024D01*
Y41169D01*
X34729Y41218D01*
X34631D01*
X34583Y41169D01*
Y41024D01*
X34340D02*
X34437D01*
X34486Y41072D01*
Y41169D01*
X34437Y41218D01*
X34340D01*
X34292Y41169D01*
Y41121D01*
X34486D01*
X34195Y41218D02*
Y41024D01*
Y41121D01*
X34146Y41169D01*
X34097Y41218D01*
X34049D01*
X33758Y41024D02*
X33855D01*
X33903Y41072D01*
Y41169D01*
X33855Y41218D01*
X33758D01*
X33709Y41169D01*
Y41121D01*
X33903D01*
X33612Y41218D02*
X33564D01*
Y41169D01*
X33612D01*
Y41218D01*
Y41072D02*
X33564D01*
Y41024D01*
X33612D01*
Y41072D01*
X33078Y41315D02*
Y41024D01*
X32932D01*
X32884Y41072D01*
Y41121D01*
Y41169D01*
X32932Y41218D01*
X33078D01*
X32787Y41024D02*
X32690D01*
X32738D01*
Y41218D01*
X32787D01*
X32496Y41266D02*
Y41218D01*
X32544D01*
X32447D01*
X32496D01*
Y41072D01*
X32447Y41024D01*
X32301D02*
Y41072D01*
X32253D01*
Y41024D01*
X32301D01*
X32059D02*
X31962D01*
X32010D01*
Y41315D01*
X32059D01*
X31816Y41218D02*
Y41072D01*
X31768Y41024D01*
X31622D01*
Y40975D01*
X31670Y40927D01*
X31719D01*
X31622Y41024D02*
Y41218D01*
X31525Y41024D02*
X31331Y41218D01*
X31234Y41024D02*
Y41218D01*
X31136Y41315D01*
X31039Y41218D01*
Y41024D01*
Y41169D01*
X31234D01*
X30748Y41266D02*
X30797Y41315D01*
X30894D01*
X30942Y41266D01*
Y41072D01*
X30894Y41024D01*
X30797D01*
X30748Y41072D01*
X30457Y41266D02*
X30505Y41315D01*
X30603D01*
X30651Y41266D01*
Y41218D01*
X30603Y41169D01*
X30505D01*
X30457Y41121D01*
Y41072D01*
X30505Y41024D01*
X30603D01*
X30651Y41072D01*
X30360Y41024D02*
Y41218D01*
X30311D01*
X30263Y41169D01*
Y41024D01*
Y41169D01*
X30214Y41218D01*
X30166Y41169D01*
Y41024D01*
X30020Y41218D02*
X29923D01*
X29874Y41169D01*
Y41024D01*
X30020D01*
X30069Y41072D01*
X30020Y41121D01*
X29874D01*
X29777Y41218D02*
Y41024D01*
Y41121D01*
X29729Y41169D01*
X29680Y41218D01*
X29632D01*
X29438Y41266D02*
Y41218D01*
X29486D01*
X29389D01*
X29438D01*
Y41072D01*
X29389Y41024D01*
X29049Y41266D02*
X29098Y41315D01*
X29195D01*
X29243Y41266D01*
Y41218D01*
X29195Y41169D01*
X29098D01*
X29049Y41121D01*
Y41072D01*
X29098Y41024D01*
X29195D01*
X29243Y41072D01*
X28952Y41218D02*
Y41072D01*
X28904Y41024D01*
X28855Y41072D01*
X28807Y41024D01*
X28758Y41072D01*
Y41218D01*
X28661Y41024D02*
X28564D01*
X28612D01*
Y41218D01*
X28661D01*
X28370Y41266D02*
Y41218D01*
X28418D01*
X28321D01*
X28370D01*
Y41072D01*
X28321Y41024D01*
X27981Y41218D02*
X28127D01*
X28175Y41169D01*
Y41072D01*
X28127Y41024D01*
X27981D01*
X27884Y41315D02*
Y41024D01*
Y41169D01*
X27836Y41218D01*
X27739D01*
X27690Y41169D01*
Y41024D01*
X21752Y12992D02*
Y13268D01*
X21660Y13176D01*
X21568Y13268D01*
Y12992D01*
X21339D02*
X21431D01*
X21476Y13038D01*
Y13130D01*
X21431Y13176D01*
X21339D01*
X21293Y13130D01*
Y13084D01*
X21476D01*
X21201Y13176D02*
X21155D01*
Y13130D01*
X21201D01*
Y13176D01*
Y13038D02*
X21155D01*
Y12992D01*
X21201D01*
Y13038D01*
X20696Y13268D02*
X20604D01*
X20650D01*
Y12992D01*
X20696D01*
X20604D01*
X20007Y13268D02*
Y12992D01*
X20145D01*
X20191Y13038D01*
Y13130D01*
X20145Y13176D01*
X20007D01*
X19869Y12992D02*
X19778D01*
X19732Y13038D01*
Y13130D01*
X19778Y13176D01*
X19869D01*
X19915Y13130D01*
Y13038D01*
X19869Y12992D01*
X19640D02*
Y13176D01*
X19502D01*
X19456Y13130D01*
Y12992D01*
X19318Y13314D02*
Y13222D01*
X19364Y13176D01*
X19135Y13222D02*
Y13176D01*
X19181D01*
X19089D01*
X19135D01*
Y13038D01*
X19089Y12992D01*
X18676D02*
Y13176D01*
X18538D01*
X18492Y13130D01*
Y12992D01*
X18262D02*
X18354D01*
X18400Y13038D01*
Y13130D01*
X18354Y13176D01*
X18262D01*
X18216Y13130D01*
Y13084D01*
X18400D01*
X17987Y12992D02*
X18079D01*
X18125Y13038D01*
Y13130D01*
X18079Y13176D01*
X17987D01*
X17941Y13130D01*
Y13084D01*
X18125D01*
X17665Y13268D02*
Y12992D01*
X17803D01*
X17849Y13038D01*
Y13130D01*
X17803Y13176D01*
X17665D01*
X17252D02*
X17160D01*
X17114Y13130D01*
Y12992D01*
X17252D01*
X17298Y13038D01*
X17252Y13084D01*
X17114D01*
X16747Y12992D02*
Y13268D01*
X16609D01*
X16563Y13222D01*
Y13130D01*
X16609Y13084D01*
X16747D01*
X16288Y13222D02*
X16334Y13268D01*
X16426D01*
X16472Y13222D01*
Y13038D01*
X16426Y12992D01*
X16334D01*
X16288Y13038D01*
X16196Y13268D02*
Y12992D01*
X16058D01*
X16012Y13038D01*
Y13084D01*
X16058Y13130D01*
X16196D01*
X16058D01*
X16012Y13176D01*
Y13222D01*
X16058Y13268D01*
X16196D01*
X15645Y12992D02*
X15507D01*
X15461Y13038D01*
X15507Y13084D01*
X15599D01*
X15645Y13130D01*
X15599Y13176D01*
X15461D01*
X15324Y13222D02*
Y13176D01*
X15370D01*
X15278D01*
X15324D01*
Y13038D01*
X15278Y12992D01*
X15002D02*
X15094D01*
X15140Y13038D01*
Y13130D01*
X15094Y13176D01*
X15002D01*
X14956Y13130D01*
Y13084D01*
X15140D01*
X14864Y12992D02*
Y13176D01*
X14727D01*
X14681Y13130D01*
Y12992D01*
X14405Y13176D02*
X14543D01*
X14589Y13130D01*
Y13038D01*
X14543Y12992D01*
X14405D01*
X14313D02*
X14222D01*
X14267D01*
Y13176D01*
X14313D01*
X14084Y12992D02*
X13992D01*
X14038D01*
Y13268D01*
X14084D01*
X13533Y12992D02*
Y13222D01*
Y13130D01*
X13579D01*
X13487D01*
X13533D01*
Y13222D01*
X13487Y13268D01*
X13303Y12992D02*
X13211D01*
X13165Y13038D01*
Y13130D01*
X13211Y13176D01*
X13303D01*
X13349Y13130D01*
Y13038D01*
X13303Y12992D01*
X13074Y13176D02*
Y12992D01*
Y13084D01*
X13028Y13130D01*
X12982Y13176D01*
X12936D01*
X12477Y13222D02*
Y13176D01*
X12523D01*
X12431D01*
X12477D01*
Y13038D01*
X12431Y12992D01*
X12293Y13268D02*
Y12992D01*
Y13130D01*
X12247Y13176D01*
X12155D01*
X12109Y13130D01*
Y12992D01*
X12018D02*
X11926D01*
X11972D01*
Y13176D01*
X12018D01*
X11788Y12992D02*
X11650D01*
X11604Y13038D01*
X11650Y13084D01*
X11742D01*
X11788Y13130D01*
X11742Y13176D01*
X11604D01*
X21752Y12205D02*
Y12388D01*
X21660Y12480D01*
X21568Y12388D01*
Y12205D01*
Y12342D01*
X21752D01*
X21476Y12205D02*
X21385D01*
X21431D01*
Y12480D01*
X21476D01*
X21247Y12205D02*
X21109D01*
X21063Y12251D01*
X21109Y12297D01*
X21201D01*
X21247Y12342D01*
X21201Y12388D01*
X21063D01*
X20925Y12205D02*
X20834D01*
X20788Y12251D01*
Y12342D01*
X20834Y12388D01*
X20925D01*
X20971Y12342D01*
Y12251D01*
X20925Y12205D01*
X20420D02*
Y12388D01*
X20374D01*
X20329Y12342D01*
Y12205D01*
Y12342D01*
X20283Y12388D01*
X20237Y12342D01*
Y12205D01*
X20007D02*
X20099D01*
X20145Y12251D01*
Y12342D01*
X20099Y12388D01*
X20007D01*
X19961Y12342D01*
Y12297D01*
X20145D01*
X19869Y12388D02*
X19823D01*
Y12342D01*
X19869D01*
Y12388D01*
Y12251D02*
X19823D01*
Y12205D01*
X19869D01*
Y12251D01*
X19364Y12434D02*
X19181Y12251D01*
X19364D02*
X19181Y12434D01*
X19364Y12342D02*
X19181D01*
X19272Y12251D02*
Y12434D01*
X18905D02*
X18951Y12480D01*
X19043D01*
X19089Y12434D01*
Y12388D01*
X19043Y12342D01*
X18951D01*
X18905Y12297D01*
Y12251D01*
X18951Y12205D01*
X19043D01*
X19089Y12251D01*
X18813Y12113D02*
Y12388D01*
X18676D01*
X18630Y12342D01*
Y12251D01*
X18676Y12205D01*
X18813D01*
X18400D02*
X18492D01*
X18538Y12251D01*
Y12342D01*
X18492Y12388D01*
X18400D01*
X18354Y12342D01*
Y12297D01*
X18538D01*
X18262Y12205D02*
Y12388D01*
X18125D01*
X18079Y12342D01*
Y12205D01*
X17803Y12480D02*
Y12205D01*
X17941D01*
X17987Y12251D01*
Y12342D01*
X17941Y12388D01*
X17803D01*
X17711Y12205D02*
X17574D01*
X17528Y12251D01*
X17574Y12297D01*
X17665D01*
X17711Y12342D01*
X17665Y12388D01*
X17528D01*
X17160Y12205D02*
X17068D01*
X17114D01*
Y12480D01*
X17160Y12434D01*
X16931D02*
X16885Y12480D01*
X16793D01*
X16747Y12434D01*
Y12251D01*
X16793Y12205D01*
X16885D01*
X16931Y12251D01*
Y12434D01*
X16380Y12480D02*
Y12205D01*
Y12342D01*
X16334Y12388D01*
X16242D01*
X16196Y12342D01*
Y12205D01*
X16058D02*
X15966D01*
X15921Y12251D01*
Y12342D01*
X15966Y12388D01*
X16058D01*
X16104Y12342D01*
Y12251D01*
X16058Y12205D01*
X15829Y12388D02*
Y12251D01*
X15783Y12205D01*
X15645D01*
Y12388D01*
X15553D02*
Y12205D01*
Y12297D01*
X15507Y12342D01*
X15461Y12388D01*
X15415D01*
X15278Y12205D02*
X15140D01*
X15094Y12251D01*
X15140Y12297D01*
X15232D01*
X15278Y12342D01*
X15232Y12388D01*
X15094D01*
X15846Y10728D02*
Y11004D01*
X15755Y10912D01*
X15663Y11004D01*
Y10728D01*
X15433D02*
X15525D01*
X15571Y10774D01*
Y10866D01*
X15525Y10912D01*
X15433D01*
X15387Y10866D01*
Y10820D01*
X15571D01*
X15295Y10912D02*
X15250D01*
Y10866D01*
X15295D01*
Y10912D01*
Y10774D02*
X15250D01*
Y10728D01*
X15295D01*
Y10774D01*
X17717Y11713D02*
X17579D01*
X17533Y11759D01*
X17579Y11804D01*
X17671D01*
X17717Y11850D01*
X17671Y11896D01*
X17533D01*
X17395Y11713D02*
X17303D01*
X17257Y11759D01*
Y11850D01*
X17303Y11896D01*
X17395D01*
X17441Y11850D01*
Y11759D01*
X17395Y11713D01*
X17166D02*
X17074D01*
X17120D01*
Y11988D01*
X17166D01*
X16752D02*
Y11713D01*
X16890D01*
X16936Y11759D01*
Y11850D01*
X16890Y11896D01*
X16752D01*
X16523Y11713D02*
X16615D01*
X16660Y11759D01*
Y11850D01*
X16615Y11896D01*
X16523D01*
X16477Y11850D01*
Y11804D01*
X16660D01*
X16385Y11896D02*
Y11713D01*
Y11804D01*
X16339Y11850D01*
X16293Y11896D01*
X16247D01*
X16109Y11713D02*
X16018D01*
X16064D01*
Y11896D01*
X16109D01*
X15880Y11713D02*
Y11896D01*
X15742D01*
X15696Y11850D01*
Y11713D01*
X15513Y11621D02*
X15467D01*
X15421Y11667D01*
Y11896D01*
X15558D01*
X15604Y11850D01*
Y11759D01*
X15558Y11713D01*
X15421D01*
X15329Y11942D02*
X15145Y11759D01*
X15329D02*
X15145Y11942D01*
X15329Y11850D02*
X15145D01*
X15237Y11759D02*
Y11942D01*
D11*
X37376Y47135D02*
X37697D01*
Y46654D01*
X37376D01*
X37697Y46894D02*
X37536D01*
X36894Y47055D02*
X36974Y47135D01*
X37135D01*
X37215Y47055D01*
Y46734D01*
X37135Y46654D01*
X36974D01*
X36894Y46734D01*
X36412Y47135D02*
X36733D01*
Y46654D01*
X36412D01*
X36733Y46894D02*
X36573D01*
X36252Y47055D02*
X36171Y47135D01*
X36011D01*
X35930Y47055D01*
Y46975D01*
X36011Y46894D01*
X36091D01*
X36011D01*
X35930Y46814D01*
Y46734D01*
X36011Y46654D01*
X36171D01*
X36252Y46734D01*
X35529Y46654D02*
Y47135D01*
X35770Y46894D01*
X35449D01*
X35288Y46654D02*
X35128D01*
X35208D01*
Y47135D01*
X35288Y47055D01*
X34084Y47135D02*
X34405D01*
Y46894D01*
X34244D01*
X34405D01*
Y46654D01*
X33923D02*
X33763D01*
X33843D01*
Y46975D01*
X33923D01*
X33522Y46654D02*
Y46975D01*
X33281D01*
X33201Y46894D01*
Y46654D01*
X32960Y46975D02*
X32799D01*
X32719Y46894D01*
Y46654D01*
X32960D01*
X33040Y46734D01*
X32960Y46814D01*
X32719D01*
X32558Y46654D02*
X32398D01*
X32478D01*
Y47135D01*
X32558D01*
X31675Y46654D02*
Y47135D01*
X31434D01*
X31354Y47055D01*
Y46894D01*
X31434Y46814D01*
X31675D01*
X31193Y46975D02*
Y46654D01*
Y46814D01*
X31113Y46894D01*
X31033Y46975D01*
X30953D01*
X30631Y46654D02*
X30471D01*
X30391Y46734D01*
Y46894D01*
X30471Y46975D01*
X30631D01*
X30712Y46894D01*
Y46734D01*
X30631Y46654D01*
X30230Y46493D02*
X30150D01*
X30069Y46573D01*
Y46975D01*
X29507Y46654D02*
X29668D01*
X29748Y46734D01*
Y46894D01*
X29668Y46975D01*
X29507D01*
X29427Y46894D01*
Y46814D01*
X29748D01*
X28945Y46975D02*
X29186D01*
X29267Y46894D01*
Y46734D01*
X29186Y46654D01*
X28945D01*
X28704Y47055D02*
Y46975D01*
X28785D01*
X28624D01*
X28704D01*
Y46734D01*
X28624Y46654D01*
X37697Y47343D02*
Y47664D01*
X37536Y47824D01*
X37376Y47664D01*
Y47343D01*
Y47583D01*
X37697D01*
X36894Y47744D02*
X36974Y47824D01*
X37135D01*
X37215Y47744D01*
Y47423D01*
X37135Y47343D01*
X36974D01*
X36894Y47423D01*
X36252Y47824D02*
Y47343D01*
X36011D01*
X35930Y47423D01*
Y47503D01*
X36011Y47583D01*
X36252D01*
X36011D01*
X35930Y47664D01*
Y47744D01*
X36011Y47824D01*
X36252D01*
X35770Y47343D02*
X35609D01*
X35690D01*
Y47824D01*
X35770D01*
X35368Y47664D02*
Y47423D01*
X35288Y47343D01*
X35047D01*
Y47664D01*
X34646Y47343D02*
X34806D01*
X34887Y47423D01*
Y47583D01*
X34806Y47664D01*
X34646D01*
X34566Y47583D01*
Y47503D01*
X34887D01*
X34325Y47744D02*
Y47664D01*
X34405D01*
X34244D01*
X34325D01*
Y47423D01*
X34244Y47343D01*
X33923D02*
X33763D01*
X33682Y47423D01*
Y47583D01*
X33763Y47664D01*
X33923D01*
X34004Y47583D01*
Y47423D01*
X33923Y47343D01*
X33442D02*
X33281D01*
X33201Y47423D01*
Y47583D01*
X33281Y47664D01*
X33442D01*
X33522Y47583D01*
Y47423D01*
X33442Y47343D01*
X32960Y47744D02*
Y47664D01*
X33040D01*
X32880D01*
X32960D01*
Y47423D01*
X32880Y47343D01*
X32639Y47824D02*
Y47343D01*
Y47583D01*
X32558Y47664D01*
X32398D01*
X32317Y47583D01*
Y47343D01*
X31354Y47744D02*
X31434Y47824D01*
X31595D01*
X31675Y47744D01*
Y47664D01*
X31595Y47583D01*
X31434D01*
X31354Y47503D01*
Y47423D01*
X31434Y47343D01*
X31595D01*
X31675Y47423D01*
X31193Y47664D02*
Y47423D01*
X31113Y47343D01*
X31033Y47423D01*
X30953Y47343D01*
X30872Y47423D01*
Y47664D01*
X30712Y47343D02*
X30551D01*
X30631D01*
Y47664D01*
X30712D01*
X30230Y47744D02*
Y47664D01*
X30310D01*
X30150D01*
X30230D01*
Y47423D01*
X30150Y47343D01*
X29588Y47664D02*
X29829D01*
X29909Y47583D01*
Y47423D01*
X29829Y47343D01*
X29588D01*
X29427Y47824D02*
Y47343D01*
Y47583D01*
X29347Y47664D01*
X29186D01*
X29106Y47583D01*
Y47343D01*
X28464Y47583D02*
X28142D01*
X27500Y47824D02*
Y47503D01*
X27340Y47343D01*
X27179Y47503D01*
Y47824D01*
X27018Y47343D02*
X26858D01*
X26938D01*
Y47824D01*
X27018Y47744D01*
X26617Y47343D02*
Y47423D01*
X26537D01*
Y47343D01*
X26617D01*
X26216D02*
X26055D01*
X26135D01*
Y47824D01*
X26216Y47744D01*
D12*
X11516Y12687D02*
D03*
D13*
X14714D02*
D03*
X12275Y11522D02*
D03*
Y11519D02*
D03*
X12272Y11512D02*
D03*
X14252Y11232D02*
D03*
D14*
X11519Y12684D02*
D03*
D15*
X14712D02*
D03*
D16*
X11524Y12681D02*
D03*
X11966Y10902D02*
D03*
Y10899D02*
D03*
X11956Y10869D02*
D03*
Y10866D02*
D03*
Y10862D02*
D03*
D17*
X14709Y12681D02*
D03*
D18*
X11527Y12677D02*
D03*
D19*
X14707D02*
D03*
X12295Y11555D02*
D03*
D20*
X11532Y12674D02*
D03*
X11998Y10988D02*
D03*
D21*
X14704Y12674D02*
D03*
D22*
X11536Y12671D02*
D03*
X11942Y10773D02*
D03*
D23*
X14700Y12671D02*
D03*
D24*
X11539Y12667D02*
D03*
X12011Y11004D02*
D03*
X11942Y10767D02*
D03*
Y10763D02*
D03*
X13328Y10697D02*
D03*
D25*
X14697Y12667D02*
D03*
D26*
X11542Y12664D02*
D03*
X12014Y11011D02*
D03*
X11942Y10753D02*
D03*
Y10750D02*
D03*
X13328Y10694D02*
D03*
D27*
X14694Y12664D02*
D03*
D28*
X11546Y12661D02*
D03*
X12017Y11017D02*
D03*
D29*
X14692Y12661D02*
D03*
X14689Y12657D02*
D03*
D30*
X11552D02*
D03*
X12031Y11031D02*
D03*
D31*
X11554Y12654D02*
D03*
X13329Y10677D02*
D03*
D32*
X14687Y12654D02*
D03*
D33*
X11560Y12651D02*
D03*
X12042Y11040D02*
D03*
X11946Y10701D02*
D03*
Y10697D02*
D03*
D34*
X14684Y12651D02*
D03*
X11684Y12552D02*
D03*
X12229Y11344D02*
D03*
Y11341D02*
D03*
Y11337D02*
D03*
D35*
X11564Y12648D02*
D03*
X12045Y11044D02*
D03*
X11946Y10694D02*
D03*
X13336Y10654D02*
D03*
X13332Y10506D02*
D03*
Y10503D02*
D03*
D36*
X14681Y12648D02*
D03*
X14677Y12644D02*
D03*
D37*
X11567D02*
D03*
X13336Y10651D02*
D03*
D38*
X11570Y12641D02*
D03*
X14270Y11535D02*
D03*
X13339Y10648D02*
D03*
D39*
X14674Y12641D02*
D03*
D40*
X11574Y12638D02*
D03*
X14309Y11387D02*
D03*
D41*
X14671Y12638D02*
D03*
D42*
X11577Y12634D02*
D03*
X14260Y11545D02*
D03*
D43*
X14667Y12634D02*
D03*
X12819Y10750D02*
D03*
X12813Y10734D02*
D03*
D44*
X11580Y12631D02*
D03*
X14309Y11364D02*
D03*
Y11361D02*
D03*
Y11357D02*
D03*
X11953Y10651D02*
D03*
X13339Y10605D02*
D03*
Y10602D02*
D03*
Y10598D02*
D03*
Y10595D02*
D03*
Y10592D02*
D03*
X13342Y10559D02*
D03*
D45*
X14662Y12631D02*
D03*
X12821Y10753D02*
D03*
X12804Y10707D02*
D03*
D46*
X11585Y12628D02*
D03*
D47*
X14661D02*
D03*
D48*
X11590Y12624D02*
D03*
D49*
X14657D02*
D03*
X12786Y10658D02*
D03*
D50*
X11593Y12621D02*
D03*
D51*
X14654D02*
D03*
X12780Y10641D02*
D03*
D52*
X11598Y12618D02*
D03*
X14238Y11549D02*
D03*
X14298Y11314D02*
D03*
D53*
X14648Y12618D02*
D03*
X11707Y12532D02*
D03*
X12839Y10780D02*
D03*
X12780Y10635D02*
D03*
D54*
X11603Y12615D02*
D03*
X14293Y11295D02*
D03*
D55*
X14646Y12615D02*
D03*
D56*
X11607Y12611D02*
D03*
D57*
X14641D02*
D03*
X12776Y10625D02*
D03*
D58*
X11610Y12608D02*
D03*
X14289Y11281D02*
D03*
D59*
X14639Y12608D02*
D03*
X14636Y12605D02*
D03*
X11712Y12529D02*
D03*
D60*
X11612Y12605D02*
D03*
X14291Y11278D02*
D03*
D61*
X11618Y12601D02*
D03*
D62*
X14634D02*
D03*
D63*
X11621Y12598D02*
D03*
D64*
X14633D02*
D03*
X14629Y12595D02*
D03*
X12240Y11258D02*
D03*
D65*
X11625Y12595D02*
D03*
X14285Y11258D02*
D03*
D66*
X11628Y12591D02*
D03*
X14285Y11255D02*
D03*
X11984Y10602D02*
D03*
D67*
X14628Y12591D02*
D03*
X13958Y10747D02*
D03*
X13968Y10724D02*
D03*
D68*
X11633Y12588D02*
D03*
D69*
X14626D02*
D03*
X14623Y12585D02*
D03*
X13953Y10757D02*
D03*
X13956Y10753D02*
D03*
Y10750D02*
D03*
X13969Y10720D02*
D03*
Y10717D02*
D03*
Y10714D02*
D03*
X12768Y10618D02*
D03*
D70*
X11638Y12585D02*
D03*
X14192Y11575D02*
D03*
D71*
X11641Y12582D02*
D03*
D72*
X14621D02*
D03*
X11720Y12522D02*
D03*
X12242Y11252D02*
D03*
X13951Y10760D02*
D03*
X13971Y10710D02*
D03*
Y10707D02*
D03*
Y10704D02*
D03*
Y10701D02*
D03*
D73*
X11646Y12578D02*
D03*
X14184Y11578D02*
D03*
D74*
X14620Y12578D02*
D03*
D75*
X11650Y12575D02*
D03*
D76*
X14618D02*
D03*
X11724Y12519D02*
D03*
X12856Y10790D02*
D03*
X13948Y10767D02*
D03*
X13974Y10691D02*
D03*
Y10687D02*
D03*
Y10684D02*
D03*
D77*
X11656Y12572D02*
D03*
D78*
X14613D02*
D03*
X13943Y10773D02*
D03*
X13946Y10770D02*
D03*
X13976Y10681D02*
D03*
Y10677D02*
D03*
D79*
X11658Y12568D02*
D03*
D80*
X14610D02*
D03*
X12247Y11242D02*
D03*
X13936Y10783D02*
D03*
X13940Y10780D02*
D03*
X13979Y10671D02*
D03*
Y10668D02*
D03*
X12758Y10608D02*
D03*
D81*
X11663Y12565D02*
D03*
X12253Y11479D02*
D03*
D82*
X14605Y12565D02*
D03*
X11730Y12516D02*
D03*
X12862Y10800D02*
D03*
X13981Y10664D02*
D03*
X13984Y10654D02*
D03*
D83*
X11668Y12562D02*
D03*
D84*
X14603D02*
D03*
D85*
X11674Y12558D02*
D03*
X12239Y11403D02*
D03*
D86*
X14600Y12558D02*
D03*
D87*
X11679Y12555D02*
D03*
D88*
X14598D02*
D03*
D89*
X14596Y12552D02*
D03*
X12752Y10605D02*
D03*
D90*
X11689Y12549D02*
D03*
D91*
X14595D02*
D03*
D92*
X11691Y12545D02*
D03*
D93*
X14591D02*
D03*
D94*
X11694Y12542D02*
D03*
D95*
X14590D02*
D03*
D96*
X11697Y12539D02*
D03*
X12823Y10757D02*
D03*
X12800Y10697D02*
D03*
D97*
X14586Y12539D02*
D03*
X11739Y12509D02*
D03*
X12748Y10602D02*
D03*
D98*
X11702Y12535D02*
D03*
X12333Y11582D02*
D03*
X12234Y11291D02*
D03*
Y11288D02*
D03*
X12828Y10767D02*
D03*
X12798Y10687D02*
D03*
Y10684D02*
D03*
X12791Y10674D02*
D03*
Y10671D02*
D03*
Y10668D02*
D03*
X12785Y10654D02*
D03*
D99*
X14585Y12535D02*
D03*
X14582Y12532D02*
D03*
X13994Y10641D02*
D03*
D100*
X14580Y12529D02*
D03*
D101*
X11717Y12525D02*
D03*
X12242Y11255D02*
D03*
D102*
X14577Y12525D02*
D03*
X13917Y10800D02*
D03*
D103*
X14573Y12522D02*
D03*
D104*
X14570Y12519D02*
D03*
X13907Y10806D02*
D03*
X13999Y10635D02*
D03*
D105*
X14568Y12516D02*
D03*
X14565Y12512D02*
D03*
X11747Y12502D02*
D03*
D106*
X11734Y12512D02*
D03*
X12866Y10803D02*
D03*
X13988Y10651D02*
D03*
D107*
X14563Y12509D02*
D03*
D108*
X11742Y12506D02*
D03*
X13913Y10803D02*
D03*
X13996Y10638D02*
D03*
X12745Y10598D02*
D03*
D109*
X14560Y12506D02*
D03*
D110*
X14553Y12502D02*
D03*
X11755Y12496D02*
D03*
D111*
X11750Y12499D02*
D03*
D112*
X14552D02*
D03*
D113*
X14550Y12496D02*
D03*
X14547Y12492D02*
D03*
D114*
X11757D02*
D03*
D115*
X11760Y12489D02*
D03*
X14007Y10625D02*
D03*
D116*
X14545Y12489D02*
D03*
D117*
X11763Y12486D02*
D03*
D118*
X14542D02*
D03*
D119*
X11767Y12483D02*
D03*
D120*
X14537D02*
D03*
X14012Y10621D02*
D03*
D121*
X11770Y12479D02*
D03*
X14529Y12469D02*
D03*
D122*
X14535Y12479D02*
D03*
D123*
X11773Y12476D02*
D03*
D124*
X14534D02*
D03*
D125*
X11775Y12473D02*
D03*
X14517Y12459D02*
D03*
D126*
X14532Y12473D02*
D03*
D127*
X11778Y12469D02*
D03*
X14481Y12426D02*
D03*
D128*
X11781Y12466D02*
D03*
X14461Y12410D02*
D03*
X14025Y10615D02*
D03*
D129*
X14524Y12466D02*
D03*
X12283Y11219D02*
D03*
X12907Y10816D02*
D03*
D130*
X11783Y12463D02*
D03*
D131*
X14520D02*
D03*
D132*
X11788Y12459D02*
D03*
D133*
X11791Y12456D02*
D03*
D134*
X14514D02*
D03*
X14511Y12453D02*
D03*
X14504Y12446D02*
D03*
X14501Y12443D02*
D03*
X14497Y12440D02*
D03*
X13877Y10819D02*
D03*
D135*
X11798Y12453D02*
D03*
D136*
X11803Y12450D02*
D03*
D137*
X14506D02*
D03*
D138*
X11806Y12446D02*
D03*
X14400Y12347D02*
D03*
D139*
X11811Y12443D02*
D03*
X14388Y12337D02*
D03*
X14382Y12334D02*
D03*
D140*
X11815Y12440D02*
D03*
D141*
X11816Y12436D02*
D03*
X14364Y12314D02*
D03*
X14354Y12304D02*
D03*
X14351Y12301D02*
D03*
D142*
X14496Y12436D02*
D03*
X14489Y12433D02*
D03*
X14486Y12430D02*
D03*
D143*
X11819Y12433D02*
D03*
D144*
X11821Y12430D02*
D03*
D145*
X11823Y12426D02*
D03*
X14341Y12291D02*
D03*
D146*
X11826Y12423D02*
D03*
D147*
X14479D02*
D03*
X14476Y12420D02*
D03*
X14469Y12417D02*
D03*
D148*
X11828Y12420D02*
D03*
X14309Y12261D02*
D03*
X14306Y12258D02*
D03*
X14299Y12255D02*
D03*
D149*
X11829Y12417D02*
D03*
X14298Y12252D02*
D03*
X14291Y12248D02*
D03*
D150*
X11831Y12413D02*
D03*
D151*
X14466D02*
D03*
D152*
X11839Y12410D02*
D03*
D153*
X11843Y12407D02*
D03*
D154*
X14458D02*
D03*
D155*
X11847Y12403D02*
D03*
D156*
X14454D02*
D03*
X14029Y10611D02*
D03*
D157*
X11849Y12400D02*
D03*
Y12397D02*
D03*
X14245Y12222D02*
D03*
D158*
X14451Y12400D02*
D03*
D159*
X14448Y12397D02*
D03*
D160*
X11852Y12393D02*
D03*
D161*
X14445D02*
D03*
D162*
X11856Y12390D02*
D03*
D163*
X14441D02*
D03*
D164*
X11861Y12387D02*
D03*
D165*
X14438D02*
D03*
X14435Y12384D02*
D03*
D166*
X11862D02*
D03*
D167*
X11867Y12380D02*
D03*
D168*
X14433D02*
D03*
D169*
X11872Y12377D02*
D03*
D170*
X14428D02*
D03*
D171*
X11876Y12374D02*
D03*
D172*
X14425D02*
D03*
D173*
X11882Y12370D02*
D03*
X13331Y11397D02*
D03*
Y11394D02*
D03*
D174*
X14420Y12370D02*
D03*
D175*
X11885Y12367D02*
D03*
D176*
X14417D02*
D03*
D177*
X11889Y12364D02*
D03*
X13331Y11446D02*
D03*
X13324Y11331D02*
D03*
Y11328D02*
D03*
D178*
X14415Y12364D02*
D03*
X14412Y12360D02*
D03*
D179*
X11894D02*
D03*
X13323Y11324D02*
D03*
X14016Y11093D02*
D03*
X14009Y11090D02*
D03*
D180*
X11899Y12357D02*
D03*
X13318Y11314D02*
D03*
X14050Y11176D02*
D03*
Y11172D02*
D03*
X14057Y11126D02*
D03*
D181*
X14410Y12357D02*
D03*
D182*
X11904Y12354D02*
D03*
X14035Y11100D02*
D03*
D183*
X14405Y12354D02*
D03*
D184*
X11910Y12351D02*
D03*
X14134Y10572D02*
D03*
Y10569D02*
D03*
X14131Y10559D02*
D03*
X14101Y10476D02*
D03*
D185*
X14402Y12351D02*
D03*
X14049Y10608D02*
D03*
D186*
X11918Y12347D02*
D03*
X13347Y11526D02*
D03*
X13308Y11281D02*
D03*
X14027Y11192D02*
D03*
X14090Y10456D02*
D03*
X14087Y10453D02*
D03*
D187*
X11923Y12344D02*
D03*
X14082Y10446D02*
D03*
Y10443D02*
D03*
D188*
X14395Y12344D02*
D03*
X13841Y10829D02*
D03*
D189*
X11925Y12341D02*
D03*
X13347Y11529D02*
D03*
X13304Y11278D02*
D03*
X14077Y10437D02*
D03*
X14073Y10433D02*
D03*
D190*
X14393Y12341D02*
D03*
D191*
X11927Y12337D02*
D03*
X13303Y11275D02*
D03*
X14072Y10430D02*
D03*
X14068Y10427D02*
D03*
D192*
X11928Y12334D02*
D03*
X13301Y11271D02*
D03*
D193*
X11935Y12331D02*
D03*
X13354Y11542D02*
D03*
D194*
X14377Y12331D02*
D03*
Y12327D02*
D03*
X14374Y12324D02*
D03*
X14370Y12321D02*
D03*
X14367Y12318D02*
D03*
D195*
X11940Y12327D02*
D03*
X11943Y12324D02*
D03*
D196*
X11945Y12321D02*
D03*
Y12318D02*
D03*
X13298Y11265D02*
D03*
X14050Y10407D02*
D03*
D197*
X11946Y12314D02*
D03*
D198*
X11950Y12311D02*
D03*
D199*
X14360D02*
D03*
D200*
X11955Y12308D02*
D03*
D201*
X14357D02*
D03*
D202*
X11963Y12304D02*
D03*
D203*
X11966Y12301D02*
D03*
X14025Y10390D02*
D03*
D204*
X11971Y12298D02*
D03*
D205*
X14347D02*
D03*
D206*
X11980Y12294D02*
D03*
D207*
X14344D02*
D03*
D208*
X11988Y12291D02*
D03*
D209*
X11994Y12288D02*
D03*
D210*
X14339D02*
D03*
X14336Y12285D02*
D03*
X14326Y12275D02*
D03*
X14322Y12271D02*
D03*
X14319Y12268D02*
D03*
D211*
X11998Y12285D02*
D03*
D212*
X12003Y12281D02*
D03*
D213*
X14332D02*
D03*
D214*
X12012Y12278D02*
D03*
D215*
X14329D02*
D03*
D216*
X12036Y12275D02*
D03*
X13336Y11578D02*
D03*
D217*
X12045Y12271D02*
D03*
D218*
X12054Y12268D02*
D03*
D219*
X12065Y12265D02*
D03*
D220*
X14314D02*
D03*
D221*
X12105Y12261D02*
D03*
D222*
X12130Y12258D02*
D03*
D223*
X12136Y12255D02*
D03*
D224*
X12171Y12252D02*
D03*
X12428Y10377D02*
D03*
D225*
X12333Y12248D02*
D03*
D226*
X12380Y12245D02*
D03*
X13380Y11031D02*
D03*
D227*
X13370Y12245D02*
D03*
X13512Y11192D02*
D03*
X12255Y11050D02*
D03*
X13252Y10437D02*
D03*
D228*
X14288Y12245D02*
D03*
D229*
X12422Y12242D02*
D03*
D230*
X14285D02*
D03*
D231*
X12427Y12238D02*
D03*
D232*
X14280D02*
D03*
D233*
X12432Y12235D02*
D03*
X13379Y11047D02*
D03*
D234*
X14275Y12235D02*
D03*
D235*
X12433Y12232D02*
D03*
D236*
X14270D02*
D03*
D237*
X12437Y12228D02*
D03*
D238*
X14265D02*
D03*
D239*
X12443Y12225D02*
D03*
D240*
X14253D02*
D03*
D241*
X12489Y12222D02*
D03*
D242*
X13517D02*
D03*
X12052Y11790D02*
D03*
X12752Y11529D02*
D03*
X12748Y11420D02*
D03*
X12237Y11050D02*
D03*
X13164Y10783D02*
D03*
X12194Y10608D02*
D03*
D243*
X13565Y12222D02*
D03*
D244*
X12555Y12219D02*
D03*
D245*
X14227D02*
D03*
X13986Y11087D02*
D03*
X13979Y11083D02*
D03*
X13976Y11080D02*
D03*
D246*
X13080Y12215D02*
D03*
D247*
Y12212D02*
D03*
D248*
Y12209D02*
D03*
D249*
Y12205D02*
D03*
D250*
X13082Y12202D02*
D03*
D251*
X13080Y12199D02*
D03*
D252*
Y12195D02*
D03*
D253*
X13078Y12192D02*
D03*
D254*
X13080Y12189D02*
D03*
D255*
X13080Y12186D02*
D03*
D256*
X13082Y12182D02*
D03*
D257*
X13082Y12179D02*
D03*
D258*
Y12176D02*
D03*
D259*
X13090Y12172D02*
D03*
D260*
X13090Y12169D02*
D03*
D261*
X13090Y12166D02*
D03*
D262*
X13092Y12162D02*
D03*
D263*
X13093Y12159D02*
D03*
D264*
Y12156D02*
D03*
D265*
X13092Y12153D02*
D03*
Y12149D02*
D03*
D266*
X13093Y12146D02*
D03*
D267*
Y12143D02*
D03*
D268*
Y12139D02*
D03*
D269*
X13095Y12136D02*
D03*
D270*
X13093Y12133D02*
D03*
D271*
X13097Y12129D02*
D03*
D272*
X13098Y12126D02*
D03*
D273*
X13100Y12123D02*
D03*
D274*
X13103Y12120D02*
D03*
D275*
Y12116D02*
D03*
D276*
X13100Y12113D02*
D03*
D277*
Y12110D02*
D03*
D278*
X13101Y12106D02*
D03*
D279*
X13105Y12103D02*
D03*
D280*
X13105Y12100D02*
D03*
D281*
X13106Y12096D02*
D03*
D282*
X13110Y12093D02*
D03*
D283*
Y12090D02*
D03*
D284*
X13111Y12087D02*
D03*
D285*
Y12083D02*
D03*
D286*
X13113Y12080D02*
D03*
D287*
X13113Y12077D02*
D03*
D288*
Y12073D02*
D03*
D289*
X13115Y12070D02*
D03*
D290*
X13116Y12067D02*
D03*
D291*
X13118Y12063D02*
D03*
D292*
X13120Y12060D02*
D03*
D293*
X13120Y12057D02*
D03*
D294*
X13123Y12054D02*
D03*
D295*
Y12050D02*
D03*
D296*
X13121Y12047D02*
D03*
D297*
X13121Y12044D02*
D03*
D298*
X13120Y12040D02*
D03*
D299*
X13123Y12037D02*
D03*
D300*
X13125Y12034D02*
D03*
D301*
Y12030D02*
D03*
D302*
X13128Y12027D02*
D03*
D303*
X13130Y12024D02*
D03*
X13116Y10338D02*
D03*
D304*
X13130Y12021D02*
D03*
X13100Y10278D02*
D03*
Y10275D02*
D03*
D305*
X13131Y12017D02*
D03*
D306*
X13130Y12014D02*
D03*
D307*
X13130Y12011D02*
D03*
D308*
X13130Y12007D02*
D03*
D309*
X13130Y12004D02*
D03*
D310*
X13128Y12001D02*
D03*
D311*
X13130Y11997D02*
D03*
D312*
Y11994D02*
D03*
D313*
X13133Y11991D02*
D03*
D314*
X13134Y11988D02*
D03*
D315*
Y11984D02*
D03*
D316*
X13136Y11981D02*
D03*
D317*
X13138Y11978D02*
D03*
D318*
X13136Y11974D02*
D03*
D319*
X13138Y11971D02*
D03*
D320*
X13136Y11968D02*
D03*
D321*
X13138Y11964D02*
D03*
D322*
X13139Y11961D02*
D03*
D323*
Y11958D02*
D03*
D324*
Y11955D02*
D03*
D325*
Y11951D02*
D03*
D326*
X13141Y11948D02*
D03*
D327*
Y11945D02*
D03*
D328*
X13141Y11941D02*
D03*
D329*
Y11938D02*
D03*
D330*
X13139Y11935D02*
D03*
D331*
X13136Y11931D02*
D03*
D332*
X13134Y11928D02*
D03*
X13217Y11215D02*
D03*
Y11212D02*
D03*
D333*
X13134Y11925D02*
D03*
D334*
Y11922D02*
D03*
D335*
X13085Y11918D02*
D03*
D336*
X14384D02*
D03*
D337*
X13085Y11915D02*
D03*
D338*
X14388D02*
D03*
X14016Y11430D02*
D03*
D339*
X13083Y11912D02*
D03*
D340*
X14387D02*
D03*
X12757Y11522D02*
D03*
X14031Y11493D02*
D03*
D341*
X13083Y11908D02*
D03*
D342*
X14379D02*
D03*
D343*
X13083Y11905D02*
D03*
D344*
X13085Y11902D02*
D03*
D345*
X13087Y11898D02*
D03*
D346*
X13088Y11895D02*
D03*
D347*
X13092Y11892D02*
D03*
D348*
X13093Y11889D02*
D03*
D349*
X13098Y11885D02*
D03*
D350*
X13101Y11882D02*
D03*
D351*
X13105Y11879D02*
D03*
X13108Y11875D02*
D03*
D352*
X13113Y11872D02*
D03*
D353*
X13115Y11869D02*
D03*
D354*
X13118Y11865D02*
D03*
D355*
X13120Y11862D02*
D03*
D356*
X13123Y11859D02*
D03*
D357*
X13126Y11856D02*
D03*
D358*
X13128Y11852D02*
D03*
Y11849D02*
D03*
D359*
X13131Y11846D02*
D03*
D360*
X13133Y11842D02*
D03*
D361*
X13136Y11839D02*
D03*
D362*
X13139Y11836D02*
D03*
D363*
X13141Y11832D02*
D03*
D364*
X13143Y11829D02*
D03*
D365*
X13144Y11826D02*
D03*
D366*
X13153Y11823D02*
D03*
D367*
X13156Y11819D02*
D03*
X13232Y11608D02*
D03*
Y11605D02*
D03*
Y11601D02*
D03*
D368*
X13159Y11816D02*
D03*
D369*
X13164Y11813D02*
D03*
D370*
X13171Y11809D02*
D03*
D371*
X13174Y11806D02*
D03*
D372*
X13177Y11803D02*
D03*
D373*
X13182Y11799D02*
D03*
D374*
X13191Y11796D02*
D03*
D375*
X13199Y11793D02*
D03*
X13242Y11684D02*
D03*
Y11681D02*
D03*
D376*
X13224Y11790D02*
D03*
D377*
X13225Y11786D02*
D03*
X13242Y11750D02*
D03*
D378*
X13229Y11783D02*
D03*
D379*
X13232Y11780D02*
D03*
D380*
X13233Y11776D02*
D03*
D381*
X13235Y11773D02*
D03*
X13238Y11766D02*
D03*
D382*
X13237Y11770D02*
D03*
X13240Y11763D02*
D03*
Y11760D02*
D03*
D383*
Y11757D02*
D03*
D384*
Y11753D02*
D03*
D385*
X13243Y11747D02*
D03*
Y11743D02*
D03*
Y11740D02*
D03*
D386*
X13245Y11737D02*
D03*
D387*
Y11733D02*
D03*
D388*
X13243Y11730D02*
D03*
D389*
X13245Y11727D02*
D03*
Y11724D02*
D03*
D390*
Y11720D02*
D03*
D391*
X13243Y11717D02*
D03*
D392*
X13245Y11714D02*
D03*
D393*
X13243Y11710D02*
D03*
D394*
X13243Y11707D02*
D03*
Y11704D02*
D03*
D395*
X13242Y11700D02*
D03*
D396*
X13243Y11697D02*
D03*
D397*
X13243Y11694D02*
D03*
Y11691D02*
D03*
D398*
Y11687D02*
D03*
D399*
X13240Y11677D02*
D03*
D400*
X13238Y11674D02*
D03*
D401*
X13240Y11671D02*
D03*
D402*
X13242Y11667D02*
D03*
D403*
X13240Y11664D02*
D03*
Y11661D02*
D03*
D404*
X13238Y11658D02*
D03*
Y11654D02*
D03*
D405*
X13237Y11651D02*
D03*
D406*
X13238Y11648D02*
D03*
D407*
X13237Y11644D02*
D03*
D408*
X13238Y11641D02*
D03*
D409*
X13237Y11638D02*
D03*
D410*
X13237Y11634D02*
D03*
D411*
Y11631D02*
D03*
D412*
X13235Y11628D02*
D03*
Y11625D02*
D03*
D413*
Y11621D02*
D03*
D414*
Y11618D02*
D03*
D415*
X13233Y11615D02*
D03*
D416*
Y11611D02*
D03*
D417*
X13230Y11598D02*
D03*
D418*
X13232Y11595D02*
D03*
D419*
X12349Y11592D02*
D03*
D420*
X13557D02*
D03*
D421*
X12342Y11588D02*
D03*
D422*
X13572D02*
D03*
D423*
X12339Y11585D02*
D03*
X12837Y10776D02*
D03*
X12834Y10773D02*
D03*
X12781Y10638D02*
D03*
D424*
X13577Y11585D02*
D03*
D425*
X13578Y11582D02*
D03*
D426*
X12328Y11578D02*
D03*
D427*
X12323Y11575D02*
D03*
D428*
X13351D02*
D03*
D429*
X12311Y11572D02*
D03*
X12229Y11331D02*
D03*
D430*
X13349Y11572D02*
D03*
D431*
X14195D02*
D03*
D432*
X12308Y11568D02*
D03*
D433*
X13349D02*
D03*
D434*
X14200D02*
D03*
D435*
X12305Y11565D02*
D03*
D436*
X13351D02*
D03*
D437*
X14212D02*
D03*
D438*
X12303Y11562D02*
D03*
D439*
X13352D02*
D03*
X14006Y10371D02*
D03*
D440*
X14230Y11562D02*
D03*
X14233Y11559D02*
D03*
X14296Y11311D02*
D03*
D441*
X12300Y11559D02*
D03*
D442*
X13349D02*
D03*
D443*
X13347Y11555D02*
D03*
D444*
X14233D02*
D03*
X14296Y11308D02*
D03*
D445*
X12291Y11552D02*
D03*
D446*
X13346D02*
D03*
D447*
X14235D02*
D03*
D448*
X12288Y11549D02*
D03*
Y11545D02*
D03*
D449*
X13346Y11549D02*
D03*
X13293Y11258D02*
D03*
D450*
X13347Y11545D02*
D03*
D451*
X12285Y11542D02*
D03*
Y11539D02*
D03*
X12239Y11420D02*
D03*
Y11417D02*
D03*
Y11413D02*
D03*
D452*
X14263Y11542D02*
D03*
X14266Y11539D02*
D03*
X14309Y11384D02*
D03*
X13336Y10526D02*
D03*
Y10522D02*
D03*
Y10519D02*
D03*
D453*
X13352Y11539D02*
D03*
X14062Y10420D02*
D03*
D454*
X12283Y11535D02*
D03*
X12240Y11427D02*
D03*
D455*
X13351Y11535D02*
D03*
D456*
X12280Y11532D02*
D03*
D457*
X13349D02*
D03*
D458*
X14271D02*
D03*
D459*
X12280Y11529D02*
D03*
D460*
X12768D02*
D03*
X13168Y10367D02*
D03*
D461*
X14273Y11529D02*
D03*
Y11526D02*
D03*
D462*
X12278D02*
D03*
X12242Y11440D02*
D03*
Y11436D02*
D03*
Y11433D02*
D03*
Y11430D02*
D03*
D463*
X12760Y11526D02*
D03*
D464*
X13346Y11522D02*
D03*
X14091Y10460D02*
D03*
D465*
X14276Y11522D02*
D03*
X14303Y11433D02*
D03*
X11950Y10668D02*
D03*
Y10664D02*
D03*
X13336Y10516D02*
D03*
D466*
X12753Y11519D02*
D03*
D467*
X13344D02*
D03*
D468*
X14278D02*
D03*
Y11516D02*
D03*
X14301Y11440D02*
D03*
Y11436D02*
D03*
X14304Y11430D02*
D03*
Y11420D02*
D03*
X12050Y11050D02*
D03*
X11948Y10671D02*
D03*
X13334Y10512D02*
D03*
D469*
X12273Y11516D02*
D03*
X12243Y11446D02*
D03*
Y11443D02*
D03*
D470*
X12755Y11516D02*
D03*
X14029Y11479D02*
D03*
D471*
X13342Y11516D02*
D03*
Y11512D02*
D03*
X14032Y11189D02*
D03*
X14141Y10598D02*
D03*
Y10595D02*
D03*
Y10592D02*
D03*
X14124Y10526D02*
D03*
X14121Y10519D02*
D03*
Y10516D02*
D03*
X14118Y10509D02*
D03*
Y10506D02*
D03*
X14115Y10499D02*
D03*
D472*
X12758Y11512D02*
D03*
D473*
X14280D02*
D03*
X14283Y11502D02*
D03*
Y11499D02*
D03*
X14286Y11493D02*
D03*
Y11489D02*
D03*
X14293Y11463D02*
D03*
X14296Y11460D02*
D03*
Y11456D02*
D03*
X11947Y10684D02*
D03*
Y10681D02*
D03*
Y10677D02*
D03*
Y10674D02*
D03*
D474*
X12270Y11509D02*
D03*
X12243Y11453D02*
D03*
D475*
X12760Y11509D02*
D03*
D476*
X13342D02*
D03*
X14098Y10473D02*
D03*
D477*
X14283Y11509D02*
D03*
D478*
X12267Y11506D02*
D03*
X12243Y11450D02*
D03*
D479*
X12758Y11506D02*
D03*
D480*
X13341D02*
D03*
X14136Y10575D02*
D03*
X14133Y10562D02*
D03*
X14129Y10552D02*
D03*
X14113Y10493D02*
D03*
X14103Y10479D02*
D03*
D481*
X14283Y11506D02*
D03*
D482*
X12265Y11502D02*
D03*
X12262Y11496D02*
D03*
X12248Y11466D02*
D03*
D483*
X12757Y11502D02*
D03*
D484*
X13341D02*
D03*
Y11499D02*
D03*
X13311Y11295D02*
D03*
D485*
X14035Y11502D02*
D03*
D486*
X12263Y11499D02*
D03*
X12247Y11463D02*
D03*
Y11460D02*
D03*
D487*
X12755Y11499D02*
D03*
D488*
X14032D02*
D03*
D489*
X12755Y11496D02*
D03*
D490*
X13339D02*
D03*
Y11493D02*
D03*
D491*
X14030Y11496D02*
D03*
D492*
X14285D02*
D03*
X14291Y11479D02*
D03*
Y11476D02*
D03*
Y11466D02*
D03*
X12047Y11047D02*
D03*
D493*
X12258Y11493D02*
D03*
Y11489D02*
D03*
X12245Y11456D02*
D03*
D494*
X12757Y11493D02*
D03*
X14585Y10618D02*
D03*
D495*
X12755Y11489D02*
D03*
D496*
X13336D02*
D03*
X14039Y11186D02*
D03*
X14029Y11097D02*
D03*
D497*
X14030Y11489D02*
D03*
D498*
X12255Y11486D02*
D03*
D499*
X12755D02*
D03*
D500*
X13336D02*
D03*
D501*
X14030D02*
D03*
D502*
X14288D02*
D03*
X14291Y11473D02*
D03*
D503*
X12255Y11483D02*
D03*
D504*
X12753D02*
D03*
D505*
X13337D02*
D03*
X13311Y11304D02*
D03*
D506*
X14029Y11483D02*
D03*
D507*
X14288D02*
D03*
X14291Y11469D02*
D03*
D508*
X12755Y11479D02*
D03*
D509*
X13337D02*
D03*
X13311Y11301D02*
D03*
Y11298D02*
D03*
D510*
X12250Y11476D02*
D03*
D511*
X12753D02*
D03*
D512*
X13337D02*
D03*
D513*
X14029D02*
D03*
X14593Y10631D02*
D03*
D514*
X12250Y11473D02*
D03*
D515*
X12752D02*
D03*
D516*
X13336D02*
D03*
D517*
X14025D02*
D03*
D518*
X12250Y11469D02*
D03*
D519*
X12752D02*
D03*
D520*
X13336D02*
D03*
D521*
X14025D02*
D03*
X14019Y11450D02*
D03*
D522*
X12750Y11466D02*
D03*
X12747Y11463D02*
D03*
X14582Y10615D02*
D03*
D523*
X13334Y11466D02*
D03*
Y11463D02*
D03*
D524*
X14024Y11466D02*
D03*
X12743Y11440D02*
D03*
D525*
X14022Y11463D02*
D03*
Y11460D02*
D03*
X12745Y11443D02*
D03*
D526*
X12745Y11460D02*
D03*
Y11456D02*
D03*
D527*
X13333Y11460D02*
D03*
Y11456D02*
D03*
D528*
X14021D02*
D03*
X12743Y11446D02*
D03*
D529*
X12743Y11453D02*
D03*
D530*
X13331D02*
D03*
X14060Y11143D02*
D03*
D531*
X14019Y11453D02*
D03*
D532*
X14298D02*
D03*
D533*
X12742Y11450D02*
D03*
D534*
X13329D02*
D03*
D535*
X14298D02*
D03*
D536*
X14017Y11446D02*
D03*
Y11443D02*
D03*
X12743Y11436D02*
D03*
D537*
X14299Y11446D02*
D03*
Y11443D02*
D03*
X13333Y10509D02*
D03*
D538*
X13329Y11443D02*
D03*
Y11420D02*
D03*
Y11417D02*
D03*
X13326Y11337D02*
D03*
Y11334D02*
D03*
D539*
X13331Y11440D02*
D03*
Y11436D02*
D03*
Y11433D02*
D03*
Y11430D02*
D03*
Y11413D02*
D03*
Y11410D02*
D03*
Y11407D02*
D03*
D540*
X14017Y11440D02*
D03*
D541*
X14016Y11436D02*
D03*
X12742Y11433D02*
D03*
D542*
X14016D02*
D03*
X14596Y10638D02*
D03*
D543*
X12742Y11430D02*
D03*
D544*
X12742Y11427D02*
D03*
X14016D02*
D03*
D545*
X13331D02*
D03*
Y11403D02*
D03*
D546*
X14304Y11427D02*
D03*
D547*
X12240Y11423D02*
D03*
D548*
X12742D02*
D03*
D549*
X13329D02*
D03*
D550*
X14014D02*
D03*
X14601Y10644D02*
D03*
D551*
X14304Y11423D02*
D03*
D552*
X14016Y11420D02*
D03*
D553*
X14009Y11417D02*
D03*
D554*
X14306D02*
D03*
Y11413D02*
D03*
X13339Y10641D02*
D03*
D555*
X12240Y11410D02*
D03*
D556*
X14308D02*
D03*
Y11407D02*
D03*
Y11397D02*
D03*
Y11394D02*
D03*
D557*
X12239Y11407D02*
D03*
D558*
X14308Y11403D02*
D03*
Y11390D02*
D03*
D559*
X12237Y11400D02*
D03*
D560*
X13331D02*
D03*
D561*
X14308D02*
D03*
D562*
X12237Y11397D02*
D03*
Y11394D02*
D03*
D563*
X12235Y11390D02*
D03*
D564*
X13329D02*
D03*
D565*
X12235Y11387D02*
D03*
D566*
X13329D02*
D03*
D567*
X12234Y11384D02*
D03*
Y11380D02*
D03*
Y11377D02*
D03*
D568*
X13329Y11384D02*
D03*
Y11380D02*
D03*
Y11377D02*
D03*
Y11374D02*
D03*
Y11370D02*
D03*
Y11367D02*
D03*
Y11364D02*
D03*
Y11361D02*
D03*
Y11357D02*
D03*
D569*
X14311Y11380D02*
D03*
Y11377D02*
D03*
X13341Y10628D02*
D03*
Y10625D02*
D03*
X13337Y10536D02*
D03*
Y10532D02*
D03*
Y10529D02*
D03*
D570*
X12232Y11374D02*
D03*
Y11370D02*
D03*
Y11367D02*
D03*
D571*
X14309Y11374D02*
D03*
Y11370D02*
D03*
Y11367D02*
D03*
X11953Y10654D02*
D03*
D572*
X12230Y11364D02*
D03*
Y11361D02*
D03*
Y11357D02*
D03*
Y11354D02*
D03*
Y11351D02*
D03*
Y11347D02*
D03*
D573*
X13328Y11354D02*
D03*
Y11351D02*
D03*
Y11347D02*
D03*
Y11344D02*
D03*
Y11341D02*
D03*
D574*
X14308Y11354D02*
D03*
Y11351D02*
D03*
X13341Y10588D02*
D03*
Y10585D02*
D03*
Y10582D02*
D03*
Y10572D02*
D03*
Y10569D02*
D03*
D575*
X14306Y11347D02*
D03*
Y11344D02*
D03*
D576*
X14304Y11341D02*
D03*
X11955Y10641D02*
D03*
D577*
X14303Y11337D02*
D03*
D578*
X12230Y11334D02*
D03*
D579*
X14301D02*
D03*
D580*
X14299Y11331D02*
D03*
X11960Y10635D02*
D03*
D581*
X12230Y11328D02*
D03*
Y11324D02*
D03*
D582*
X14301Y11328D02*
D03*
D583*
X14299Y11324D02*
D03*
X11960Y10631D02*
D03*
D584*
X12232Y11321D02*
D03*
D585*
X13321D02*
D03*
X14057Y11156D02*
D03*
D586*
X14298Y11321D02*
D03*
D587*
X12232Y11318D02*
D03*
D588*
X13319D02*
D03*
D589*
X14298D02*
D03*
D590*
X12232Y11314D02*
D03*
Y11311D02*
D03*
D591*
X13313D02*
D03*
D592*
X12230Y11308D02*
D03*
D593*
X13311D02*
D03*
D594*
X12232Y11304D02*
D03*
D595*
X14294D02*
D03*
D596*
X12232Y11301D02*
D03*
Y11298D02*
D03*
X12806Y10710D02*
D03*
D597*
X14294Y11301D02*
D03*
Y11298D02*
D03*
D598*
X12232Y11295D02*
D03*
X12826Y10763D02*
D03*
X12800Y10691D02*
D03*
X12796Y10681D02*
D03*
X12793Y10677D02*
D03*
X12783Y10651D02*
D03*
D599*
X13313Y11291D02*
D03*
D600*
X14294D02*
D03*
D601*
X13311Y11288D02*
D03*
D602*
X14293D02*
D03*
D603*
X12234Y11285D02*
D03*
Y11281D02*
D03*
D604*
X13311Y11285D02*
D03*
X14123Y10522D02*
D03*
X14120Y10512D02*
D03*
D605*
X14291Y11285D02*
D03*
D606*
X12235Y11278D02*
D03*
Y11275D02*
D03*
D607*
X14289D02*
D03*
X11973Y10611D02*
D03*
D608*
X12237Y11271D02*
D03*
Y11268D02*
D03*
X12778Y10631D02*
D03*
Y10628D02*
D03*
D609*
X14288Y11271D02*
D03*
D610*
X13299Y11268D02*
D03*
X14065Y10423D02*
D03*
D611*
X14288Y11268D02*
D03*
D612*
X12239Y11265D02*
D03*
D613*
X14286D02*
D03*
D614*
X12240Y11262D02*
D03*
D615*
X13295D02*
D03*
D616*
X14286D02*
D03*
X11979Y10605D02*
D03*
D617*
X13290Y11255D02*
D03*
D618*
X13288Y11252D02*
D03*
D619*
X14281D02*
D03*
D620*
X12240Y11248D02*
D03*
X13950Y10763D02*
D03*
X13973Y10697D02*
D03*
Y10694D02*
D03*
X12765Y10615D02*
D03*
D621*
X13285Y11248D02*
D03*
D622*
X14276D02*
D03*
D623*
X12245Y11245D02*
D03*
X13941Y10776D02*
D03*
D624*
X13283Y11245D02*
D03*
D625*
X14273D02*
D03*
D626*
X13276Y11242D02*
D03*
D627*
X14266D02*
D03*
D628*
X12248Y11238D02*
D03*
D629*
X13273D02*
D03*
D630*
X14263D02*
D03*
D631*
X12252Y11235D02*
D03*
D632*
X13275D02*
D03*
D633*
X14256D02*
D03*
D634*
X12255Y11232D02*
D03*
D635*
X13273D02*
D03*
D636*
X12258Y11229D02*
D03*
D637*
X13273D02*
D03*
D638*
X14247D02*
D03*
D639*
X12272Y11225D02*
D03*
D640*
X13309D02*
D03*
D641*
X14243D02*
D03*
D642*
X12273Y11222D02*
D03*
D643*
X13592D02*
D03*
D644*
X13587Y11219D02*
D03*
X13379Y11037D02*
D03*
D645*
X13219Y11209D02*
D03*
Y11205D02*
D03*
Y11202D02*
D03*
D646*
X13220Y11199D02*
D03*
D647*
X12697Y11196D02*
D03*
X12489Y10347D02*
D03*
D648*
X14012Y11196D02*
D03*
D649*
X12691Y11192D02*
D03*
D650*
X12677Y11189D02*
D03*
D651*
X12654Y11186D02*
D03*
D652*
X12651Y11182D02*
D03*
D653*
X14047D02*
D03*
X14050Y11113D02*
D03*
X14047Y11110D02*
D03*
D654*
X12648Y11179D02*
D03*
D655*
X14049D02*
D03*
X14055Y11123D02*
D03*
Y11120D02*
D03*
X14052Y11116D02*
D03*
X14045Y11106D02*
D03*
X14042Y11103D02*
D03*
D656*
X12644Y11176D02*
D03*
D657*
X12641Y11172D02*
D03*
D658*
X12638Y11169D02*
D03*
X12615Y11077D02*
D03*
X12433Y10367D02*
D03*
D659*
X14052Y11169D02*
D03*
X14055Y11163D02*
D03*
Y11159D02*
D03*
X14058Y11149D02*
D03*
Y11133D02*
D03*
Y11130D02*
D03*
D660*
X12635Y11166D02*
D03*
D661*
X14054D02*
D03*
D662*
X12631Y11163D02*
D03*
X12611Y11090D02*
D03*
Y11087D02*
D03*
D663*
X12628Y11159D02*
D03*
D664*
X12625Y11156D02*
D03*
D665*
X12621Y11153D02*
D03*
D666*
X14058D02*
D03*
D667*
X12620Y11149D02*
D03*
Y11146D02*
D03*
D668*
X14060D02*
D03*
Y11136D02*
D03*
D669*
X12618Y11143D02*
D03*
D670*
X12616Y11139D02*
D03*
D671*
X14060D02*
D03*
D672*
X12615Y11136D02*
D03*
Y11133D02*
D03*
Y11130D02*
D03*
Y11126D02*
D03*
Y11123D02*
D03*
Y11120D02*
D03*
X12423Y10384D02*
D03*
D673*
X12613Y11116D02*
D03*
Y11113D02*
D03*
Y11110D02*
D03*
D674*
X12611Y11106D02*
D03*
Y11103D02*
D03*
Y11100D02*
D03*
D675*
X12613Y11097D02*
D03*
Y11093D02*
D03*
D676*
X12611Y11083D02*
D03*
D677*
X12613Y11080D02*
D03*
X12432Y10371D02*
D03*
D678*
X13968Y11077D02*
D03*
D679*
X12616Y11073D02*
D03*
D680*
X13956D02*
D03*
D681*
X12618Y11070D02*
D03*
D682*
X13945D02*
D03*
D683*
X12623Y11067D02*
D03*
D684*
X13936D02*
D03*
D685*
X12626Y11064D02*
D03*
D686*
X13926D02*
D03*
D687*
X12628Y11060D02*
D03*
D688*
X13913D02*
D03*
D689*
X12633Y11057D02*
D03*
D690*
X13907D02*
D03*
D691*
X12648Y11054D02*
D03*
D692*
X13895D02*
D03*
D693*
X12328Y11050D02*
D03*
D694*
X13364D02*
D03*
D695*
X12331Y11047D02*
D03*
X14605Y10651D02*
D03*
D696*
X13375Y11044D02*
D03*
D697*
X13379Y11040D02*
D03*
D698*
X12039Y11037D02*
D03*
D699*
X12034Y11034D02*
D03*
X13331Y10674D02*
D03*
D700*
X13380Y11034D02*
D03*
D701*
X12026Y11027D02*
D03*
X11943Y10720D02*
D03*
D702*
X13387Y11027D02*
D03*
D703*
X12022Y11024D02*
D03*
X12019Y11021D02*
D03*
X11946Y10737D02*
D03*
Y10734D02*
D03*
D704*
X13387Y11024D02*
D03*
D705*
X13385Y11021D02*
D03*
D706*
X13384Y11017D02*
D03*
D707*
X12016Y11014D02*
D03*
X11943Y10747D02*
D03*
D708*
X13385Y11014D02*
D03*
D709*
X13382Y11011D02*
D03*
D710*
X12012Y11007D02*
D03*
X11940Y10760D02*
D03*
Y10757D02*
D03*
D711*
X13380Y11007D02*
D03*
D712*
X13379Y11004D02*
D03*
Y11001D02*
D03*
D713*
X12009D02*
D03*
D714*
X12006Y10998D02*
D03*
X12003Y10994D02*
D03*
X11940Y10770D02*
D03*
X13336Y10476D02*
D03*
D715*
X13379Y10998D02*
D03*
D716*
Y10994D02*
D03*
D717*
X12001Y10991D02*
D03*
D718*
X13377D02*
D03*
D719*
X13379Y10988D02*
D03*
D720*
X11994Y10984D02*
D03*
D721*
X13377D02*
D03*
Y10981D02*
D03*
D722*
X11993D02*
D03*
D723*
Y10978D02*
D03*
D724*
X13377D02*
D03*
D725*
X11991Y10974D02*
D03*
D726*
X13377D02*
D03*
D727*
X11991Y10971D02*
D03*
D728*
X13379D02*
D03*
Y10968D02*
D03*
Y10965D02*
D03*
D729*
X11989Y10968D02*
D03*
Y10965D02*
D03*
X11983Y10951D02*
D03*
X11979Y10945D02*
D03*
X11976Y10938D02*
D03*
Y10935D02*
D03*
X11950Y10839D02*
D03*
Y10836D02*
D03*
Y10833D02*
D03*
D730*
X11988Y10961D02*
D03*
X11948Y10829D02*
D03*
X11945Y10819D02*
D03*
Y10816D02*
D03*
X13328Y10704D02*
D03*
D731*
X13379Y10961D02*
D03*
Y10958D02*
D03*
D732*
X11984D02*
D03*
Y10955D02*
D03*
D733*
X13377D02*
D03*
Y10951D02*
D03*
Y10948D02*
D03*
D734*
X11981D02*
D03*
X11978Y10941D02*
D03*
X11955Y10859D02*
D03*
Y10856D02*
D03*
Y10852D02*
D03*
X11951Y10849D02*
D03*
Y10846D02*
D03*
Y10842D02*
D03*
D735*
X13377Y10945D02*
D03*
Y10941D02*
D03*
D736*
Y10938D02*
D03*
D737*
X13379Y10935D02*
D03*
Y10932D02*
D03*
D738*
X11975D02*
D03*
D739*
X11971Y10928D02*
D03*
Y10925D02*
D03*
D740*
X13379Y10928D02*
D03*
Y10925D02*
D03*
D741*
X11970Y10922D02*
D03*
Y10918D02*
D03*
D742*
X13380Y10922D02*
D03*
Y10918D02*
D03*
D743*
X11968Y10915D02*
D03*
Y10912D02*
D03*
D744*
X13382Y10915D02*
D03*
D745*
X13384Y10912D02*
D03*
D746*
X11968Y10908D02*
D03*
D747*
X13384D02*
D03*
D748*
X11966Y10905D02*
D03*
Y10892D02*
D03*
D749*
X13385Y10905D02*
D03*
Y10892D02*
D03*
D750*
Y10902D02*
D03*
Y10899D02*
D03*
D751*
X11966Y10895D02*
D03*
D752*
X13385D02*
D03*
D753*
X11965Y10889D02*
D03*
Y10885D02*
D03*
X11961Y10882D02*
D03*
Y10879D02*
D03*
X11958Y10875D02*
D03*
Y10872D02*
D03*
X13324Y10707D02*
D03*
D754*
X13387Y10889D02*
D03*
Y10885D02*
D03*
Y10882D02*
D03*
Y10879D02*
D03*
Y10875D02*
D03*
Y10872D02*
D03*
D755*
X13389Y10869D02*
D03*
Y10866D02*
D03*
Y10862D02*
D03*
Y10859D02*
D03*
Y10856D02*
D03*
Y10852D02*
D03*
Y10849D02*
D03*
Y10846D02*
D03*
D756*
X13390Y10842D02*
D03*
Y10839D02*
D03*
Y10836D02*
D03*
Y10833D02*
D03*
D757*
X12925Y10829D02*
D03*
D758*
X13336D02*
D03*
D759*
X11946Y10826D02*
D03*
D760*
X12917D02*
D03*
D761*
X13856D02*
D03*
D762*
X11945Y10823D02*
D03*
D763*
X12913D02*
D03*
D764*
X13867D02*
D03*
D765*
X12908Y10819D02*
D03*
D766*
X13880Y10816D02*
D03*
D767*
X11945Y10813D02*
D03*
D768*
X12904D02*
D03*
D769*
X13890D02*
D03*
D770*
X11943Y10809D02*
D03*
D771*
X12899D02*
D03*
D772*
X13900D02*
D03*
D773*
X11945Y10806D02*
D03*
D774*
X12889D02*
D03*
D775*
X11943Y10803D02*
D03*
Y10800D02*
D03*
Y10796D02*
D03*
Y10793D02*
D03*
Y10790D02*
D03*
Y10786D02*
D03*
Y10783D02*
D03*
Y10780D02*
D03*
Y10776D02*
D03*
D776*
X12861Y10796D02*
D03*
X13930Y10786D02*
D03*
D777*
X13920Y10796D02*
D03*
D778*
X12859Y10793D02*
D03*
X13978Y10674D02*
D03*
D779*
X13923Y10793D02*
D03*
D780*
X13928Y10790D02*
D03*
D781*
X12852Y10786D02*
D03*
D782*
X12846Y10783D02*
D03*
X12773Y10621D02*
D03*
D783*
X12833Y10770D02*
D03*
D784*
X12824Y10760D02*
D03*
X12801Y10694D02*
D03*
D785*
X12818Y10747D02*
D03*
X12814Y10737D02*
D03*
D786*
X11945Y10743D02*
D03*
D787*
X12818D02*
D03*
D788*
X13961D02*
D03*
D789*
X11945Y10740D02*
D03*
D790*
X12814D02*
D03*
D791*
X13963D02*
D03*
D792*
Y10737D02*
D03*
D793*
X13324Y10734D02*
D03*
X13367D02*
D03*
D794*
X13964D02*
D03*
D795*
X11945Y10730D02*
D03*
D796*
X12814D02*
D03*
D797*
X13334D02*
D03*
D798*
X13966D02*
D03*
D799*
X11945Y10727D02*
D03*
D800*
X12814D02*
D03*
D801*
X13337D02*
D03*
D802*
X13968D02*
D03*
D803*
X11945Y10724D02*
D03*
D804*
X12814D02*
D03*
X12801Y10704D02*
D03*
Y10701D02*
D03*
D805*
X13337Y10724D02*
D03*
D806*
X12811Y10720D02*
D03*
Y10717D02*
D03*
X12808Y10714D02*
D03*
D807*
X13337Y10720D02*
D03*
X13314Y10446D02*
D03*
D808*
X11945Y10717D02*
D03*
Y10714D02*
D03*
D809*
X13339Y10717D02*
D03*
D810*
X13336Y10714D02*
D03*
D811*
X11945Y10710D02*
D03*
Y10707D02*
D03*
D812*
X13331Y10710D02*
D03*
X13328Y10460D02*
D03*
D813*
X11946Y10704D02*
D03*
X13332Y10671D02*
D03*
D814*
X13326Y10701D02*
D03*
D815*
X11948Y10691D02*
D03*
Y10687D02*
D03*
D816*
X13329Y10691D02*
D03*
D817*
X13328Y10687D02*
D03*
D818*
X13329Y10684D02*
D03*
Y10681D02*
D03*
X13333Y10486D02*
D03*
D819*
X13334Y10668D02*
D03*
D820*
X12788Y10664D02*
D03*
D821*
X13334D02*
D03*
X13331Y10499D02*
D03*
D822*
X11948Y10661D02*
D03*
D823*
X12788D02*
D03*
D824*
X13334D02*
D03*
D825*
X13981D02*
D03*
D826*
X11951Y10658D02*
D03*
D827*
X13334D02*
D03*
D828*
X13981D02*
D03*
D829*
X11953Y10648D02*
D03*
X13342Y10565D02*
D03*
Y10555D02*
D03*
D830*
X12781Y10648D02*
D03*
D831*
X13991D02*
D03*
D832*
X14601D02*
D03*
D833*
X11955Y10644D02*
D03*
X13341Y10575D02*
D03*
D834*
X12781Y10644D02*
D03*
D835*
X13339D02*
D03*
D836*
X13992D02*
D03*
D837*
X14600Y10641D02*
D03*
D838*
X11958Y10638D02*
D03*
D839*
X13337D02*
D03*
Y10635D02*
D03*
D840*
X14595D02*
D03*
D841*
X13339Y10631D02*
D03*
D842*
X14001D02*
D03*
D843*
X11961Y10628D02*
D03*
D844*
X14006D02*
D03*
D845*
X14593D02*
D03*
D846*
X11963Y10625D02*
D03*
D847*
X14591D02*
D03*
D848*
X11968Y10621D02*
D03*
D849*
X13339D02*
D03*
Y10618D02*
D03*
Y10615D02*
D03*
Y10542D02*
D03*
Y10539D02*
D03*
D850*
X14590Y10621D02*
D03*
D851*
X11971Y10618D02*
D03*
D852*
X14016D02*
D03*
D853*
X11971Y10615D02*
D03*
D854*
X12763Y10611D02*
D03*
D855*
X13341D02*
D03*
Y10608D02*
D03*
D856*
X14580Y10611D02*
D03*
D857*
X11975Y10608D02*
D03*
D858*
X14560D02*
D03*
X13313Y10443D02*
D03*
D859*
X14143Y10605D02*
D03*
Y10602D02*
D03*
X14139Y10588D02*
D03*
Y10585D02*
D03*
Y10582D02*
D03*
X14126Y10542D02*
D03*
Y10539D02*
D03*
Y10536D02*
D03*
Y10532D02*
D03*
Y10529D02*
D03*
X14116Y10503D02*
D03*
X14110Y10489D02*
D03*
X14106Y10486D02*
D03*
D860*
X11986Y10598D02*
D03*
D861*
X12230D02*
D03*
D862*
X12339D02*
D03*
D863*
X12420Y10595D02*
D03*
Y10592D02*
D03*
D864*
X12418Y10588D02*
D03*
D865*
X12417Y10585D02*
D03*
Y10582D02*
D03*
D866*
X12415Y10578D02*
D03*
D867*
X13341D02*
D03*
D868*
X14138D02*
D03*
D869*
X12415Y10575D02*
D03*
D870*
X12413Y10572D02*
D03*
Y10569D02*
D03*
Y10559D02*
D03*
D871*
Y10565D02*
D03*
Y10555D02*
D03*
D872*
X14133Y10565D02*
D03*
X14129Y10555D02*
D03*
Y10549D02*
D03*
X14113Y10496D02*
D03*
X14106Y10483D02*
D03*
D873*
X12413Y10562D02*
D03*
D874*
X13342D02*
D03*
Y10552D02*
D03*
D875*
X12412D02*
D03*
Y10545D02*
D03*
D876*
Y10549D02*
D03*
D877*
X13341D02*
D03*
D878*
X13339Y10545D02*
D03*
D879*
X14128D02*
D03*
D880*
X12412Y10542D02*
D03*
Y10539D02*
D03*
Y10536D02*
D03*
Y10532D02*
D03*
Y10529D02*
D03*
Y10526D02*
D03*
Y10522D02*
D03*
D881*
X12410Y10519D02*
D03*
Y10516D02*
D03*
Y10512D02*
D03*
Y10509D02*
D03*
Y10506D02*
D03*
Y10503D02*
D03*
Y10499D02*
D03*
D882*
Y10496D02*
D03*
D883*
X13332D02*
D03*
D884*
X12408Y10493D02*
D03*
D885*
X13332D02*
D03*
D886*
X12408Y10489D02*
D03*
Y10486D02*
D03*
D887*
X13333Y10489D02*
D03*
D888*
X12410Y10483D02*
D03*
D889*
X13332D02*
D03*
D890*
X12410Y10479D02*
D03*
D891*
X13334D02*
D03*
D892*
X12409Y10476D02*
D03*
D893*
Y10473D02*
D03*
D894*
X13334D02*
D03*
D895*
X12410Y10470D02*
D03*
D896*
X13332D02*
D03*
D897*
X14096D02*
D03*
D898*
X12408Y10466D02*
D03*
D899*
X13331D02*
D03*
D900*
X14095D02*
D03*
D901*
X12408Y10463D02*
D03*
D902*
X13329D02*
D03*
D903*
X14093D02*
D03*
D904*
X12408Y10460D02*
D03*
Y10456D02*
D03*
Y10453D02*
D03*
D905*
X13326Y10456D02*
D03*
D906*
X13324Y10453D02*
D03*
D907*
X12408Y10450D02*
D03*
D908*
X13323D02*
D03*
D909*
X14085D02*
D03*
D910*
X12410Y10446D02*
D03*
D911*
X12412Y10443D02*
D03*
D912*
X12413Y10440D02*
D03*
Y10437D02*
D03*
D913*
X13309Y10440D02*
D03*
D914*
X14078D02*
D03*
D915*
X13316Y10437D02*
D03*
D916*
X12415Y10433D02*
D03*
D917*
X12413Y10430D02*
D03*
Y10427D02*
D03*
D918*
X12415Y10423D02*
D03*
Y10420D02*
D03*
D919*
Y10417D02*
D03*
D920*
X14060D02*
D03*
D921*
X12415Y10413D02*
D03*
D922*
X14059D02*
D03*
D923*
X12417Y10410D02*
D03*
D924*
X14055D02*
D03*
D925*
X12417Y10407D02*
D03*
Y10404D02*
D03*
D926*
X14042D02*
D03*
D927*
X12418Y10400D02*
D03*
D928*
X14037D02*
D03*
D929*
X12420Y10397D02*
D03*
D930*
X14034D02*
D03*
D931*
X12420Y10394D02*
D03*
D932*
X14030D02*
D03*
D933*
X12420Y10390D02*
D03*
D934*
X12422Y10387D02*
D03*
D935*
X14024D02*
D03*
X14021Y10384D02*
D03*
D936*
X12427Y10380D02*
D03*
D937*
X14019D02*
D03*
D938*
X14014Y10377D02*
D03*
X14011Y10374D02*
D03*
D939*
X12432D02*
D03*
D940*
X13999Y10367D02*
D03*
D941*
X12448Y10364D02*
D03*
D942*
X13994D02*
D03*
D943*
X12456Y10361D02*
D03*
D944*
X13991D02*
D03*
D945*
X12458Y10357D02*
D03*
D946*
X13984D02*
D03*
D947*
X12463Y10354D02*
D03*
D948*
X13979D02*
D03*
D949*
X12466Y10351D02*
D03*
D950*
X13969D02*
D03*
D951*
X13948Y10347D02*
D03*
D952*
X13120Y10344D02*
D03*
D953*
X13118Y10341D02*
D03*
D954*
X13113Y10334D02*
D03*
D955*
Y10331D02*
D03*
D956*
Y10328D02*
D03*
D957*
X13111Y10324D02*
D03*
D958*
X13110Y10321D02*
D03*
D959*
X13108Y10318D02*
D03*
X13092Y10248D02*
D03*
D960*
X13106Y10314D02*
D03*
D961*
Y10311D02*
D03*
X13103Y10305D02*
D03*
Y10301D02*
D03*
Y10298D02*
D03*
Y10295D02*
D03*
Y10291D02*
D03*
Y10288D02*
D03*
Y10285D02*
D03*
D962*
X13105Y10308D02*
D03*
X13092Y10252D02*
D03*
D963*
X13102Y10281D02*
D03*
D964*
X13098Y10272D02*
D03*
X13085Y10242D02*
D03*
D965*
X13098Y10268D02*
D03*
D966*
X13097Y10265D02*
D03*
Y10258D02*
D03*
D967*
Y10262D02*
D03*
D968*
X13095Y10255D02*
D03*
D969*
X13087Y10245D02*
D03*
D970*
X13083Y10239D02*
D03*
D971*
Y10235D02*
D03*
D972*
X13082Y10232D02*
D03*
X13075Y10202D02*
D03*
D973*
X13082Y10229D02*
D03*
X13078Y10225D02*
D03*
Y10222D02*
D03*
D974*
X13077Y10219D02*
D03*
Y10215D02*
D03*
Y10212D02*
D03*
Y10209D02*
D03*
X13073Y10199D02*
D03*
Y10196D02*
D03*
Y10192D02*
D03*
Y10189D02*
D03*
D975*
X13077Y10206D02*
D03*
D976*
X13072Y10186D02*
D03*
Y10182D02*
D03*
Y10179D02*
D03*
D977*
X13070Y10176D02*
D03*
Y10173D02*
D03*
D978*
X13068Y10169D02*
D03*
D979*
X13065Y10166D02*
D03*
D980*
X13064Y10163D02*
D03*
D981*
Y10159D02*
D03*
X13060Y10153D02*
D03*
X13057Y10146D02*
D03*
X13054Y10136D02*
D03*
D982*
X13064Y10156D02*
D03*
D983*
X13059Y10149D02*
D03*
D984*
X13055Y10143D02*
D03*
Y10140D02*
D03*
X13052Y10133D02*
D03*
Y10130D02*
D03*
Y10126D02*
D03*
Y10123D02*
D03*
Y10120D02*
D03*
Y10116D02*
D03*
D985*
X13050Y10113D02*
D03*
Y10110D02*
D03*
Y10107D02*
D03*
D986*
Y10103D02*
D03*
M02*
