G04 Layer_Physical_Order=2*
G04 Layer_Color=11436288*
%FSLAX24Y24*%
%MOIN*%
G70*
G01*
G75*
%ADD30C,0.1181*%
%ADD31C,0.0067*%
%ADD33R,0.2165X0.1181*%
%ADD35R,0.2362X0.1772*%
%ADD37C,0.0600*%
%ADD38C,0.2756*%
%ADD39C,0.0787*%
%ADD40C,0.1000*%
%ADD41C,0.0750*%
%ADD42R,0.0750X0.0750*%
G04:AMPARAMS|DCode=43|XSize=315mil|YSize=78.7mil|CornerRadius=19.7mil|HoleSize=0mil|Usage=FLASHONLY|Rotation=270.000|XOffset=0mil|YOffset=0mil|HoleType=Round|Shape=RoundedRectangle|*
%AMROUNDEDRECTD43*
21,1,0.3150,0.0394,0,0,270.0*
21,1,0.2756,0.0787,0,0,270.0*
1,1,0.0394,-0.0197,-0.1378*
1,1,0.0394,-0.0197,0.1378*
1,1,0.0394,0.0197,0.1378*
1,1,0.0394,0.0197,-0.1378*
%
%ADD43ROUNDEDRECTD43*%
%ADD44C,0.0900*%
%ADD45C,0.1575*%
%ADD46O,0.1181X0.1969*%
%ADD47P,0.0639X8X202.5*%
%ADD48C,0.1181*%
%ADD49C,0.0236*%
%ADD50C,0.0500*%
%ADD51C,0.0197*%
%ADD52C,0.1969*%
%ADD53R,0.1300X0.1300*%
G36*
X34356Y32948D02*
X34337Y32902D01*
X34280D01*
X34210Y32893D01*
X34144Y32866D01*
X34088Y32822D01*
X34044Y32766D01*
X34017Y32700D01*
X34008Y32630D01*
Y31773D01*
X33552Y31317D01*
X33502Y31337D01*
Y33177D01*
X33714Y33390D01*
X33747Y33394D01*
X33829Y33428D01*
X33856Y33448D01*
X34356Y32948D01*
D02*
G37*
G36*
X32010Y31466D02*
X32014Y31433D01*
X32048Y31351D01*
X32101Y31281D01*
X32171Y31228D01*
X32253Y31194D01*
X32340Y31182D01*
X32427Y31194D01*
X32509Y31228D01*
X32579Y31281D01*
X32632Y31351D01*
X32666Y31433D01*
X32667Y31437D01*
X32675Y31436D01*
X32809Y31449D01*
X32908Y31479D01*
X32951Y31450D01*
X32954Y31398D01*
X31972Y30417D01*
X31922Y30437D01*
Y31483D01*
X31972Y31503D01*
X32010Y31466D01*
D02*
G37*
G36*
X33388Y33916D02*
X33368Y33889D01*
X33334Y33807D01*
X33330Y33774D01*
X33038Y33482D01*
X32994Y33426D01*
X32967Y33360D01*
X32958Y33290D01*
Y32807D01*
X32908Y32772D01*
X32809Y32802D01*
X32675Y32815D01*
X32540Y32802D01*
X32442Y32772D01*
X32392Y32807D01*
Y34847D01*
X32438Y34866D01*
X33388Y33916D01*
D02*
G37*
G36*
X31848Y35067D02*
Y32097D01*
X31798Y32077D01*
X31722Y32153D01*
Y35000D01*
X31713Y35070D01*
X31686Y35136D01*
X31656Y35174D01*
X31671Y35223D01*
X31676Y35229D01*
X31685Y35231D01*
X31848Y35067D01*
D02*
G37*
G36*
X34958Y19917D02*
Y16971D01*
X34916Y16943D01*
X34876Y16959D01*
X34736Y16978D01*
X34598Y16960D01*
X32825Y18733D01*
X32839Y18789D01*
X32939Y18820D01*
X33058Y18883D01*
X33163Y18969D01*
X33248Y19074D01*
X33312Y19193D01*
X33351Y19322D01*
X33365Y19457D01*
X33351Y19591D01*
X33315Y19712D01*
X33686Y20084D01*
X33730Y20140D01*
X33757Y20206D01*
X33766Y20276D01*
Y21044D01*
X33812Y21063D01*
X34958Y19917D01*
D02*
G37*
G36*
X23594Y31924D02*
X23720Y31821D01*
X23863Y31744D01*
X24019Y31697D01*
X24181Y31681D01*
X26691D01*
X26768Y31689D01*
X27426D01*
X27467Y31638D01*
X27572Y31552D01*
X27691Y31489D01*
X27820Y31449D01*
X27955Y31436D01*
X28089Y31449D01*
X28219Y31489D01*
X28338Y31552D01*
X28443Y31638D01*
X28517Y31728D01*
X28567Y31710D01*
Y31396D01*
X28546Y31370D01*
X28513Y31288D01*
X28501Y31201D01*
X28513Y31113D01*
X28546Y31032D01*
X28600Y30962D01*
X28670Y30908D01*
X28751Y30875D01*
X28839Y30863D01*
X28926Y30875D01*
X29007Y30908D01*
X29077Y30962D01*
X29131Y31032D01*
X29165Y31113D01*
X29176Y31201D01*
X29165Y31288D01*
X29131Y31370D01*
X29111Y31396D01*
Y32059D01*
X29160Y32067D01*
X29214Y31904D01*
X29333Y31437D01*
X29419Y30963D01*
X29470Y30485D01*
X29487Y30028D01*
X29484Y30003D01*
Y26536D01*
Y18662D01*
Y10985D01*
X29500Y10822D01*
X29547Y10667D01*
X29605Y10559D01*
X29575Y10509D01*
X22081D01*
X22045Y10545D01*
X22045Y13606D01*
X25447D01*
X25473Y13586D01*
X25555Y13552D01*
X25642Y13540D01*
X25729Y13552D01*
X25811Y13586D01*
X25881Y13639D01*
X25934Y13709D01*
X25968Y13791D01*
X25980Y13878D01*
X25968Y13965D01*
X25934Y14047D01*
X25881Y14117D01*
X25811Y14170D01*
X25729Y14204D01*
X25642Y14215D01*
X25555Y14204D01*
X25473Y14170D01*
X25447Y14150D01*
X22081D01*
X22045Y14185D01*
X22046Y17476D01*
X22786D01*
X24472Y15790D01*
X24510Y15759D01*
X24493Y15712D01*
X24395D01*
X24369Y15732D01*
X24287Y15766D01*
X24200Y15778D01*
X24113Y15766D01*
X24031Y15732D01*
X23961Y15679D01*
X23908Y15609D01*
X23874Y15527D01*
X23862Y15440D01*
X23874Y15353D01*
X23908Y15271D01*
X23961Y15201D01*
X24031Y15148D01*
X24113Y15114D01*
X24200Y15102D01*
X24287Y15114D01*
X24369Y15148D01*
X24395Y15168D01*
X27465D01*
X27491Y15148D01*
X27573Y15114D01*
X27660Y15102D01*
X27747Y15114D01*
X27829Y15148D01*
X27899Y15201D01*
X27952Y15271D01*
X27986Y15353D01*
X27998Y15440D01*
X27990Y15500D01*
X28024Y15554D01*
X28117Y15563D01*
X28273Y15610D01*
X28335Y15643D01*
X28378Y15618D01*
Y15503D01*
X27758Y14882D01*
X27714Y14826D01*
X27687Y14760D01*
X27678Y14690D01*
Y12540D01*
X27683Y12502D01*
Y12215D01*
X27572Y12156D01*
X27467Y12070D01*
X27382Y11966D01*
X27318Y11847D01*
X27279Y11717D01*
X27265Y11583D01*
X27278Y11454D01*
X27273Y11435D01*
X27250Y11404D01*
X25776D01*
X25749Y11424D01*
X25668Y11458D01*
X25581Y11469D01*
X25493Y11458D01*
X25412Y11424D01*
X25342Y11371D01*
X25288Y11301D01*
X25255Y11219D01*
X25243Y11132D01*
X25255Y11045D01*
X25288Y10963D01*
X25342Y10893D01*
X25412Y10840D01*
X25493Y10806D01*
X25581Y10794D01*
X25668Y10806D01*
X25749Y10840D01*
X25776Y10860D01*
X27504D01*
X27575Y10869D01*
X27640Y10896D01*
X27697Y10940D01*
X27700Y10943D01*
X27820Y10906D01*
X27955Y10893D01*
X28089Y10906D01*
X28219Y10946D01*
X28338Y11009D01*
X28443Y11095D01*
X28528Y11200D01*
X28592Y11319D01*
X28631Y11448D01*
X28644Y11583D01*
X28631Y11717D01*
X28592Y11847D01*
X28528Y11966D01*
X28443Y12070D01*
X28338Y12156D01*
X28227Y12215D01*
Y12535D01*
X28222Y12573D01*
Y14577D01*
X28842Y15198D01*
X28842Y15198D01*
X28886Y15254D01*
X28913Y15320D01*
X28922Y15390D01*
Y18762D01*
X28913Y18832D01*
X28886Y18898D01*
X28842Y18954D01*
X28595Y19202D01*
X28631Y19322D01*
X28644Y19457D01*
X28631Y19591D01*
X28592Y19721D01*
X28528Y19840D01*
X28443Y19944D01*
X28338Y20030D01*
X28219Y20094D01*
X28089Y20133D01*
X27955Y20146D01*
X27820Y20133D01*
X27700Y20096D01*
X25492Y22304D01*
Y22585D01*
X25512Y22611D01*
X25546Y22693D01*
X25558Y22780D01*
X25546Y22867D01*
X25512Y22949D01*
X25459Y23019D01*
X25389Y23072D01*
X25307Y23106D01*
X25220Y23118D01*
X25133Y23106D01*
X25051Y23072D01*
X24992Y23027D01*
X24956Y23038D01*
X24942Y23049D01*
Y24362D01*
X24984Y24390D01*
X25011Y24379D01*
X25098Y24367D01*
X25186Y24379D01*
X25267Y24412D01*
X25294Y24433D01*
X26167D01*
X27181Y23419D01*
X27215Y23393D01*
X27237Y23376D01*
X27237D01*
X27237Y23376D01*
X27287Y23355D01*
X27302Y23349D01*
X27302D01*
X27302Y23349D01*
X27352Y23342D01*
X27373Y23339D01*
X27563D01*
X27630Y23272D01*
X27686Y23229D01*
X27752Y23202D01*
X27822Y23192D01*
X27905D01*
X27976Y23202D01*
X28041Y23229D01*
X28098Y23272D01*
X28106Y23281D01*
X28567Y22820D01*
Y22242D01*
X28546Y22216D01*
X28513Y22135D01*
X28501Y22047D01*
X28513Y21960D01*
X28546Y21878D01*
X28600Y21809D01*
X28670Y21755D01*
X28751Y21721D01*
X28839Y21710D01*
X28926Y21721D01*
X29007Y21755D01*
X29077Y21809D01*
X29131Y21878D01*
X29165Y21960D01*
X29176Y22047D01*
X29165Y22135D01*
X29131Y22216D01*
X29111Y22242D01*
Y22933D01*
X29101Y23003D01*
X29074Y23069D01*
X29031Y23125D01*
X28440Y23716D01*
X28443Y23764D01*
X28528Y23869D01*
X28592Y23988D01*
X28607Y24036D01*
X28631Y24082D01*
X28679Y24238D01*
X28695Y24400D01*
X28679Y24562D01*
X28631Y24718D01*
X28555Y24862D01*
X28451Y24987D01*
X25043Y28395D01*
Y30217D01*
X25027Y30379D01*
X24980Y30534D01*
X24903Y30678D01*
X24800Y30804D01*
X24505Y31099D01*
X24379Y31203D01*
X24235Y31279D01*
X24079Y31327D01*
X23917Y31343D01*
X23713D01*
X23694Y31371D01*
X23616Y31423D01*
X23524Y31442D01*
X22082D01*
X22047Y31477D01*
X22047Y32239D01*
X23279D01*
X23594Y31924D01*
D02*
G37*
G36*
X22714Y29744D02*
X22869Y29697D01*
X23031Y29681D01*
X23382D01*
Y28051D01*
X23385Y28019D01*
X23398Y27889D01*
X23445Y27733D01*
X23445Y27733D01*
X23522Y27590D01*
X23625Y27464D01*
X23625Y27464D01*
X25224Y25865D01*
X25178Y25806D01*
X25144Y25724D01*
X25140Y25691D01*
X24478Y25029D01*
X24434Y24973D01*
X24407Y24907D01*
X24398Y24837D01*
Y23911D01*
X24348Y23908D01*
X24341Y23959D01*
X24287Y24089D01*
X24201Y24201D01*
X24089Y24287D01*
X23959Y24341D01*
X23819Y24360D01*
X23679Y24341D01*
X23548Y24287D01*
X23436Y24201D01*
X23351Y24089D01*
X23344Y24073D01*
X23294D01*
X23287Y24089D01*
X23201Y24201D01*
X23089Y24287D01*
X22959Y24341D01*
X22819Y24360D01*
X22679Y24341D01*
X22548Y24287D01*
X22436Y24201D01*
X22351Y24089D01*
X22296Y23959D01*
X22278Y23819D01*
X22296Y23679D01*
X22351Y23548D01*
X22436Y23436D01*
X22548Y23351D01*
X22679Y23296D01*
X22819Y23278D01*
X22959Y23296D01*
X23089Y23351D01*
X23201Y23436D01*
X23287Y23548D01*
X23294Y23564D01*
X23344D01*
X23351Y23548D01*
X23436Y23436D01*
X23548Y23351D01*
X23679Y23296D01*
X23819Y23278D01*
X23959Y23296D01*
X24089Y23351D01*
X24201Y23436D01*
X24287Y23548D01*
X24341Y23679D01*
X24348Y23730D01*
X24398Y23726D01*
Y23113D01*
X23072Y21787D01*
X23061Y21782D01*
X22991Y21729D01*
X22938Y21659D01*
X22904Y21577D01*
X22892Y21490D01*
X22904Y21403D01*
X22938Y21321D01*
X22991Y21251D01*
X23061Y21198D01*
X23143Y21164D01*
X23176Y21160D01*
X25280Y19055D01*
Y18063D01*
X25260Y18037D01*
X25226Y17955D01*
X25214Y17868D01*
X25226Y17781D01*
X25260Y17699D01*
X25313Y17629D01*
X25383Y17576D01*
X25465Y17542D01*
X25552Y17531D01*
X25639Y17542D01*
X25721Y17576D01*
X25791Y17629D01*
X25844Y17699D01*
X25878Y17781D01*
X25889Y17868D01*
X25878Y17955D01*
X25844Y18037D01*
X25824Y18063D01*
Y19029D01*
X25874Y19059D01*
X25950Y19049D01*
X26037Y19060D01*
X26119Y19094D01*
X26189Y19148D01*
X26242Y19218D01*
X26276Y19299D01*
X26288Y19386D01*
X26276Y19474D01*
X26242Y19555D01*
X26189Y19625D01*
X26119Y19679D01*
X26037Y19713D01*
X26004Y19717D01*
X24917Y20804D01*
X24913Y20837D01*
X24879Y20919D01*
X24825Y20989D01*
X24755Y21042D01*
X24674Y21076D01*
X24586Y21088D01*
X24499Y21076D01*
X24418Y21042D01*
X24348Y20989D01*
X24294Y20919D01*
X24280Y20884D01*
X24231Y20874D01*
X23580Y21525D01*
X24835Y22780D01*
X24885Y22760D01*
X24894Y22693D01*
X24928Y22611D01*
X24948Y22585D01*
Y22192D01*
X24957Y22121D01*
X24984Y22056D01*
X25028Y21999D01*
X27315Y19712D01*
X27279Y19591D01*
X27265Y19457D01*
X27279Y19322D01*
X27318Y19193D01*
X27382Y19074D01*
X27467Y18969D01*
X27572Y18883D01*
X27691Y18820D01*
X27820Y18780D01*
X27955Y18767D01*
X28089Y18780D01*
X28210Y18817D01*
X28378Y18649D01*
Y17138D01*
X28335Y17112D01*
X28273Y17145D01*
X28117Y17192D01*
X27955Y17208D01*
X25403D01*
X23666Y18946D01*
Y19488D01*
X23648Y19580D01*
X23595Y19658D01*
X23517Y19711D01*
X23425Y19729D01*
X22081D01*
X22046Y19764D01*
X22047Y29779D01*
X22649D01*
X22714Y29744D01*
D02*
G37*
G36*
X33222Y23763D02*
Y20389D01*
X32930Y20096D01*
X32809Y20133D01*
X32675Y20146D01*
X32540Y20133D01*
X32411Y20094D01*
X32292Y20030D01*
X32187Y19944D01*
X32102Y19840D01*
X32038Y19721D01*
X32008Y19621D01*
X31961Y19609D01*
X31922Y19643D01*
Y21162D01*
X31937Y21164D01*
X32019Y21198D01*
X32089Y21251D01*
X32142Y21321D01*
X32176Y21403D01*
X32180Y21436D01*
X32252Y21508D01*
X32296Y21564D01*
X32323Y21630D01*
X32332Y21700D01*
Y23608D01*
X32375Y23634D01*
X32411Y23615D01*
X32540Y23575D01*
X32675Y23562D01*
X32809Y23575D01*
X32939Y23615D01*
X33058Y23678D01*
X33163Y23764D01*
X33175Y23779D01*
X33222Y23763D01*
D02*
G37*
G36*
X26899Y34330D02*
X26883Y34283D01*
X26881Y34283D01*
X26800Y34249D01*
X26730Y34195D01*
X26676Y34125D01*
X26642Y34044D01*
X26636Y33996D01*
X26635Y33994D01*
X26635Y33994D01*
X26635Y33994D01*
X26621Y33961D01*
X26607Y33929D01*
X26607Y33929D01*
X26607Y33929D01*
X26602Y33891D01*
X26598Y33858D01*
Y33584D01*
X26549Y33558D01*
X26547Y33560D01*
X26465Y33594D01*
X26378Y33605D01*
X26291Y33594D01*
X26209Y33560D01*
X26190Y33545D01*
X25764Y33971D01*
Y34450D01*
X25784Y34477D01*
X25818Y34558D01*
X25820Y34572D01*
X26657D01*
X26899Y34330D01*
D02*
G37*
G36*
X17824Y48097D02*
X17710Y47964D01*
X17610Y47800D01*
X17536Y47622D01*
X17492Y47436D01*
X17477Y47244D01*
X17492Y47053D01*
X17536Y46866D01*
X17610Y46688D01*
X17710Y46525D01*
X17835Y46378D01*
X17981Y46254D01*
X18145Y46153D01*
X18322Y46080D01*
X18509Y46035D01*
X18701Y46020D01*
X22594D01*
X23662Y44952D01*
X23808Y44828D01*
X23894Y44775D01*
Y44440D01*
X23909Y44327D01*
X23952Y44222D01*
X24022Y44131D01*
X24112Y44062D01*
X24218Y44018D01*
X24331Y44003D01*
X24724D01*
X24837Y44018D01*
X24943Y44062D01*
X25033Y44131D01*
X25103Y44222D01*
X25146Y44327D01*
X25161Y44440D01*
Y44775D01*
X25247Y44828D01*
X25393Y44952D01*
X25518Y45099D01*
X25618Y45262D01*
X25692Y45440D01*
X25693Y45446D01*
X25743Y45440D01*
Y38953D01*
X25697Y38934D01*
X25161Y39470D01*
Y40306D01*
X25146Y40419D01*
X25103Y40525D01*
X25033Y40615D01*
X24943Y40685D01*
X24837Y40728D01*
X24724Y40743D01*
X24331D01*
X24218Y40728D01*
X24112Y40685D01*
X24022Y40615D01*
X23952Y40525D01*
X23909Y40419D01*
X23894Y40306D01*
Y39459D01*
X23837Y39390D01*
X23760Y39246D01*
X23713Y39090D01*
X23697Y38928D01*
X23713Y38766D01*
X23760Y38610D01*
X23837Y38467D01*
X23894Y38397D01*
Y37550D01*
X23909Y37437D01*
X23952Y37332D01*
X23981Y37295D01*
X23959Y37250D01*
X22146Y37251D01*
X22122Y37246D01*
X22099D01*
X22060Y37239D01*
X21973Y37203D01*
X21973Y37203D01*
X21941Y37181D01*
X21874Y37114D01*
X21874Y37114D01*
X21857Y37089D01*
X21841Y37049D01*
X21823Y37009D01*
X21812Y36964D01*
X21812Y36936D01*
X21806Y36909D01*
X21806Y33938D01*
X21774Y33902D01*
X21358D01*
X21266Y33884D01*
X21188Y33832D01*
X21136Y33754D01*
X21117Y33661D01*
Y32480D01*
X21136Y32388D01*
X21188Y32310D01*
X21266Y32258D01*
X21358Y32239D01*
X21771D01*
X21806Y32204D01*
X21806Y31477D01*
X21774Y31442D01*
X21358D01*
X21266Y31423D01*
X21188Y31371D01*
X21136Y31293D01*
X21117Y31201D01*
Y30020D01*
X21136Y29928D01*
X21188Y29849D01*
X21266Y29797D01*
X21358Y29779D01*
X21770D01*
X21806Y29743D01*
X21805Y19764D01*
X21773Y19729D01*
X21063D01*
X20971Y19711D01*
X20893Y19658D01*
X20840Y19580D01*
X20822Y19488D01*
Y17717D01*
X20840Y17624D01*
X20893Y17546D01*
X20971Y17494D01*
X21063Y17476D01*
X21769D01*
X21805Y17440D01*
X21805Y14185D01*
X21773Y14150D01*
X17518D01*
X17492Y14170D01*
X17410Y14204D01*
X17323Y14215D01*
X17235Y14204D01*
X17154Y14170D01*
X17084Y14117D01*
X17031Y14047D01*
X16997Y13965D01*
X16985Y13878D01*
X16997Y13791D01*
X17031Y13709D01*
X17084Y13639D01*
X17154Y13586D01*
X17235Y13552D01*
X17323Y13540D01*
X17410Y13552D01*
X17492Y13586D01*
X17518Y13606D01*
X21769D01*
X21805Y13571D01*
X21804Y10545D01*
X21804Y10545D01*
X21804Y10545D01*
X21813Y10501D01*
X21823Y10452D01*
X21823Y10452D01*
X21823Y10452D01*
X21847Y10416D01*
X21875Y10374D01*
X21875Y10374D01*
X21875Y10374D01*
X21910Y10339D01*
X21910Y10339D01*
X21910Y10339D01*
X21946Y10315D01*
X21988Y10287D01*
X21988Y10287D01*
X21988Y10287D01*
X22022Y10280D01*
X22047Y10275D01*
Y10120D01*
X10120D01*
Y10502D01*
X10170Y10520D01*
X10239Y10436D01*
X10365Y10333D01*
X10509Y10256D01*
X10665Y10209D01*
X10827Y10193D01*
X10989Y10209D01*
X11145Y10256D01*
X11288Y10333D01*
X11414Y10436D01*
X11518Y10562D01*
X11594Y10706D01*
X11642Y10862D01*
X11658Y11024D01*
X11642Y11186D01*
X11594Y11342D01*
X11518Y11485D01*
X11414Y11611D01*
X11288Y11714D01*
X11145Y11791D01*
X10989Y11838D01*
X10827Y11854D01*
X10665Y11838D01*
X10509Y11791D01*
X10365Y11714D01*
X10239Y11611D01*
X10170Y11527D01*
X10120Y11545D01*
Y46723D01*
X10170Y46741D01*
X10239Y46657D01*
X10365Y46553D01*
X10509Y46477D01*
X10665Y46429D01*
X10827Y46413D01*
X10989Y46429D01*
X11145Y46477D01*
X11288Y46553D01*
X11414Y46657D01*
X11518Y46783D01*
X11594Y46926D01*
X11642Y47082D01*
X11658Y47244D01*
X11642Y47406D01*
X11594Y47562D01*
X11518Y47706D01*
X11414Y47832D01*
X11288Y47935D01*
X11145Y48012D01*
X10989Y48059D01*
X10827Y48075D01*
X10665Y48059D01*
X10509Y48012D01*
X10365Y47935D01*
X10239Y47832D01*
X10170Y47748D01*
X10120Y47766D01*
Y48147D01*
X17807D01*
X17824Y48097D01*
D02*
G37*
G36*
X36340Y41337D02*
Y40662D01*
X36323Y40645D01*
X36280Y40589D01*
X36253Y40523D01*
X36244Y40453D01*
Y40369D01*
X34650Y38775D01*
X34607Y38719D01*
X34580Y38653D01*
X34571Y38583D01*
Y35644D01*
X34296Y35370D01*
X34263Y35365D01*
X34182Y35332D01*
X34112Y35278D01*
X34058Y35208D01*
X34033Y35148D01*
X33978Y35133D01*
X32309Y36802D01*
X32252Y36846D01*
X32187Y36873D01*
X32116Y36882D01*
X30934D01*
X30915Y36928D01*
X35289Y41302D01*
X35335Y41296D01*
X35422Y41308D01*
X35503Y41342D01*
X35530Y41362D01*
X36220D01*
X36290Y41371D01*
X36291Y41371D01*
X36340Y41337D01*
D02*
G37*
G36*
X25743Y46197D02*
X25693Y46191D01*
X25692Y46196D01*
X25618Y46374D01*
X25518Y46538D01*
X25393Y46684D01*
X25161Y46916D01*
Y47196D01*
X25146Y47309D01*
X25103Y47414D01*
X25033Y47505D01*
X24943Y47574D01*
X24837Y47618D01*
X24724Y47633D01*
X24444D01*
X23980Y48097D01*
X23998Y48147D01*
X25743D01*
Y46197D01*
D02*
G37*
G36*
X25273Y37008D02*
X27509Y34772D01*
X27528Y34757D01*
X27839Y34422D01*
X28142Y34047D01*
X28412Y33658D01*
X28373Y33626D01*
X26962Y35037D01*
X26945Y35050D01*
X26906Y35080D01*
X26906Y35080D01*
X26840Y35107D01*
X26780Y35115D01*
X26770Y35116D01*
X25410D01*
X25395Y35115D01*
X24032D01*
X24024Y35125D01*
X24033Y35194D01*
X24103Y35247D01*
X24189Y35359D01*
X24243Y35490D01*
X24261Y35630D01*
X24243Y35770D01*
X24189Y35900D01*
X24103Y36012D01*
X23991Y36098D01*
X23860Y36152D01*
X23720Y36171D01*
X23581Y36152D01*
X23450Y36098D01*
X23338Y36012D01*
X23252Y35900D01*
X23245Y35884D01*
X23195D01*
X23189Y35900D01*
X23103Y36012D01*
X22991Y36098D01*
X22860Y36152D01*
X22720Y36171D01*
X22580Y36152D01*
X22450Y36098D01*
X22338Y36012D01*
X22252Y35900D01*
X22198Y35770D01*
X22180Y35630D01*
X22198Y35490D01*
X22252Y35359D01*
X22338Y35247D01*
X22450Y35162D01*
X22580Y35108D01*
X22720Y35089D01*
X22858Y35107D01*
X23316Y34650D01*
X23372Y34607D01*
X23437Y34580D01*
X23508Y34571D01*
X25164D01*
X25166Y34558D01*
X25200Y34477D01*
X25220Y34450D01*
Y33858D01*
Y33858D01*
Y33858D01*
X25225Y33822D01*
X25229Y33788D01*
X25229Y33788D01*
Y33788D01*
X25236Y33772D01*
X25257Y33722D01*
X25257Y33722D01*
Y33722D01*
X25270Y33705D01*
X25300Y33666D01*
X25300Y33666D01*
X25300Y33666D01*
X25577Y33389D01*
X25558Y33343D01*
X24525D01*
X24209Y33658D01*
X24084Y33762D01*
X23940Y33838D01*
X23894Y33852D01*
Y33928D01*
X23885Y33998D01*
X23858Y34064D01*
X23814Y34120D01*
X23652Y34282D01*
X23596Y34326D01*
X23530Y34353D01*
X23460Y34362D01*
X23390Y34353D01*
X23324Y34326D01*
X23268Y34282D01*
X22888Y33902D01*
X22082D01*
X22047Y33938D01*
X22047Y36909D01*
X22047Y36909D01*
X22047D01*
X22058Y36955D01*
X22075Y36981D01*
X22107Y37002D01*
X22146Y37010D01*
X25273Y37008D01*
D02*
G37*
G36*
X32264Y36078D02*
X32244Y36032D01*
X31035D01*
X31009Y36052D01*
X30927Y36086D01*
X30840Y36098D01*
X30753Y36086D01*
X30714Y36070D01*
X30699Y36082D01*
X30617Y36116D01*
X30530Y36128D01*
X30443Y36116D01*
X30405Y36100D01*
X30389Y36112D01*
X30307Y36146D01*
X30290Y36148D01*
Y36279D01*
X30297Y36288D01*
X30338Y36311D01*
X30403Y36284D01*
X30490Y36272D01*
X30577Y36284D01*
X30659Y36318D01*
X30685Y36338D01*
X32004D01*
X32264Y36078D01*
D02*
G37*
G36*
X39387Y47766D02*
X39337Y47748D01*
X39269Y47832D01*
X39143Y47935D01*
X38999Y48012D01*
X38843Y48059D01*
X38681Y48075D01*
X38519Y48059D01*
X38363Y48012D01*
X38220Y47935D01*
X38094Y47832D01*
X37990Y47706D01*
X37914Y47562D01*
X37866Y47406D01*
X37850Y47244D01*
X37866Y47082D01*
X37914Y46926D01*
X37990Y46783D01*
X38094Y46657D01*
X38220Y46553D01*
X38363Y46477D01*
X38519Y46429D01*
X38681Y46413D01*
X38843Y46429D01*
X38999Y46477D01*
X39143Y46553D01*
X39269Y46657D01*
X39337Y46741D01*
X39387Y46723D01*
Y41601D01*
X39337Y41566D01*
X39272Y41579D01*
X37896D01*
X37876Y41626D01*
X38243Y41992D01*
X38276Y41997D01*
X38358Y42031D01*
X38428Y42084D01*
X38481Y42154D01*
X38515Y42235D01*
X38527Y42323D01*
X38515Y42410D01*
X38481Y42492D01*
X38428Y42562D01*
X38358Y42615D01*
X38276Y42649D01*
X38189Y42660D01*
X38102Y42649D01*
X38020Y42615D01*
X37950Y42562D01*
X37897Y42492D01*
X37863Y42410D01*
X37859Y42377D01*
X37192Y41711D01*
X36748D01*
X36728Y41757D01*
X37198Y42227D01*
X37241Y42283D01*
X37269Y42349D01*
X37278Y42419D01*
X37278Y42419D01*
Y42487D01*
X37292Y42489D01*
X37373Y42523D01*
X37443Y42576D01*
X37497Y42646D01*
X37531Y42728D01*
X37542Y42815D01*
X37531Y42902D01*
X37497Y42984D01*
X37477Y43010D01*
Y43490D01*
X37615Y43628D01*
X37669Y43635D01*
X37734Y43662D01*
X37791Y43705D01*
X37834Y43762D01*
X37861Y43827D01*
X37870Y43898D01*
Y46161D01*
X37865Y46203D01*
X37861Y46232D01*
X37861Y46232D01*
X37861Y46232D01*
X37846Y46270D01*
X37834Y46297D01*
X37834Y46297D01*
X37834Y46297D01*
X37801Y46340D01*
X37791Y46354D01*
X37791Y46354D01*
X37791Y46354D01*
X37791Y46354D01*
X37634Y46511D01*
X37629Y46544D01*
X37595Y46625D01*
X37542Y46695D01*
X37472Y46749D01*
X37391Y46783D01*
X37303Y46794D01*
X37216Y46783D01*
X37134Y46749D01*
X37064Y46695D01*
X37011Y46625D01*
X36977Y46544D01*
X36966Y46457D01*
X36977Y46369D01*
X37011Y46288D01*
X37032Y46260D01*
X37011Y46232D01*
X36977Y46150D01*
X36966Y46063D01*
X36977Y45976D01*
X37011Y45894D01*
X37031Y45868D01*
Y44846D01*
X37008Y44826D01*
X36921Y44814D01*
X36839Y44780D01*
X36813Y44760D01*
X36727D01*
X36588Y44899D01*
X36584Y44936D01*
X36556Y45002D01*
X36513Y45058D01*
X36397Y45175D01*
X36340Y45218D01*
X36275Y45245D01*
X36237Y45250D01*
X36059Y45428D01*
X36054Y45461D01*
X36021Y45543D01*
X35967Y45613D01*
X35897Y45666D01*
X35816Y45700D01*
X35728Y45712D01*
X35727Y45711D01*
X35689Y45744D01*
Y46147D01*
X35710Y46174D01*
X35743Y46255D01*
X35755Y46342D01*
X35743Y46430D01*
X35710Y46511D01*
X35656Y46581D01*
X35586Y46635D01*
X35505Y46668D01*
X35417Y46680D01*
X35361Y46673D01*
X35311Y46711D01*
Y46818D01*
X35324Y46820D01*
X35405Y46853D01*
X35475Y46907D01*
X35529Y46977D01*
X35562Y47058D01*
X35574Y47146D01*
X35562Y47233D01*
X35529Y47314D01*
X35475Y47384D01*
X35405Y47438D01*
X35324Y47472D01*
X35236Y47483D01*
X35149Y47472D01*
X35067Y47438D01*
X34998Y47384D01*
X34944Y47314D01*
X34910Y47233D01*
X34906Y47200D01*
X34847Y47141D01*
X34804Y47085D01*
X34777Y47019D01*
X34767Y46949D01*
Y44585D01*
X34747Y44559D01*
X34713Y44477D01*
X34702Y44390D01*
X34713Y44302D01*
X34747Y44221D01*
X34801Y44151D01*
X34871Y44097D01*
X34952Y44064D01*
X35039Y44052D01*
X35127Y44064D01*
X35208Y44097D01*
X35218Y44105D01*
X35248Y44082D01*
X35330Y44048D01*
X35417Y44036D01*
X35505Y44048D01*
X35586Y44082D01*
X35656Y44135D01*
X35710Y44205D01*
X35743Y44287D01*
X35755Y44374D01*
X35743Y44461D01*
X35710Y44543D01*
X35689Y44569D01*
Y44963D01*
X35735Y44982D01*
X35811Y44907D01*
X35796Y44871D01*
X35784Y44783D01*
X35796Y44696D01*
X35830Y44615D01*
X35850Y44588D01*
Y44587D01*
X35859Y44516D01*
X35886Y44451D01*
X35930Y44394D01*
X36441Y43883D01*
Y42428D01*
X36117Y42105D01*
X35252D01*
X35182Y42095D01*
X35116Y42068D01*
X35060Y42025D01*
X34943Y41909D01*
X34900Y41852D01*
X34873Y41787D01*
X34864Y41716D01*
Y41646D01*
X30230Y37013D01*
X30215Y37001D01*
X29825Y36611D01*
X29782Y36555D01*
X29755Y36489D01*
X29746Y36419D01*
Y34844D01*
X29755Y34774D01*
X29782Y34708D01*
X29825Y34652D01*
X29827Y34650D01*
X29884Y34607D01*
X29911Y34596D01*
X29949Y34580D01*
X30020Y34571D01*
X30415D01*
X30441Y34550D01*
X30523Y34516D01*
X30610Y34505D01*
X30698Y34516D01*
X30779Y34550D01*
X30849Y34604D01*
X30903Y34674D01*
X30936Y34755D01*
X30948Y34843D01*
X30936Y34930D01*
X30903Y35011D01*
X30901Y35013D01*
X30923Y35058D01*
X31007D01*
X31178Y34887D01*
Y32040D01*
X31187Y31970D01*
X31214Y31904D01*
X31258Y31848D01*
X31378Y31727D01*
Y19523D01*
X31387Y19453D01*
X31414Y19387D01*
X31458Y19331D01*
X34214Y16575D01*
X34195Y16437D01*
X34214Y16297D01*
X34268Y16167D01*
X34354Y16055D01*
X34466Y15969D01*
X34596Y15915D01*
X34736Y15896D01*
X34873Y15914D01*
X34877Y15914D01*
X34927Y15881D01*
X34928Y15863D01*
X32483Y13417D01*
X32439Y13361D01*
X32412Y13295D01*
X32403Y13225D01*
Y12215D01*
X32292Y12156D01*
X32187Y12070D01*
X32102Y11966D01*
X32038Y11847D01*
X31999Y11717D01*
X31985Y11583D01*
X31999Y11448D01*
X32038Y11319D01*
X32102Y11200D01*
X32187Y11095D01*
X32292Y11009D01*
X32411Y10946D01*
X32540Y10906D01*
X32675Y10893D01*
X32809Y10906D01*
X32939Y10946D01*
X33058Y11009D01*
X33163Y11095D01*
X33248Y11200D01*
X33312Y11319D01*
X33351Y11448D01*
X33365Y11583D01*
X33351Y11717D01*
X33312Y11847D01*
X33248Y11966D01*
X33163Y12070D01*
X33058Y12156D01*
X32947Y12215D01*
Y13112D01*
X35422Y15588D01*
X35466Y15644D01*
X35493Y15710D01*
X35502Y15780D01*
Y20030D01*
X35493Y20100D01*
X35466Y20166D01*
X35422Y20222D01*
X34042Y21603D01*
Y23112D01*
X34057Y23114D01*
X34139Y23148D01*
X34209Y23201D01*
X34262Y23271D01*
X34296Y23353D01*
X34300Y23386D01*
X38222Y27308D01*
X38266Y27364D01*
X38293Y27430D01*
X38302Y27500D01*
Y29167D01*
X38480Y29345D01*
X38523Y29401D01*
X38529Y29417D01*
X38681Y29463D01*
X38859Y29558D01*
X39015Y29686D01*
X39143Y29842D01*
X39238Y30020D01*
X39296Y30213D01*
X39316Y30413D01*
X39296Y30614D01*
X39238Y30807D01*
X39143Y30985D01*
X39015Y31141D01*
X38859Y31269D01*
X38681Y31364D01*
X38488Y31422D01*
X38287Y31442D01*
X38087Y31422D01*
X37894Y31364D01*
X37716Y31269D01*
X37560Y31141D01*
X37432Y30985D01*
X37337Y30807D01*
X37279Y30614D01*
X37259Y30413D01*
X37279Y30213D01*
X37337Y30020D01*
X37432Y29842D01*
X37560Y29686D01*
X37716Y29558D01*
X37808Y29509D01*
X37818Y29447D01*
X37794Y29416D01*
X37767Y29350D01*
X37758Y29280D01*
Y27613D01*
X34088Y23943D01*
X34042Y23962D01*
Y24163D01*
X34046Y24173D01*
X34058Y24260D01*
X34046Y24347D01*
X34012Y24429D01*
X33974Y24479D01*
X34473Y24979D01*
X34520Y24972D01*
X34607Y24984D01*
X34689Y25018D01*
X34759Y25071D01*
X34812Y25141D01*
X34846Y25223D01*
X34858Y25310D01*
X34846Y25397D01*
X34812Y25479D01*
X34759Y25549D01*
X34689Y25602D01*
X34607Y25636D01*
X34520Y25648D01*
X34433Y25636D01*
X34351Y25602D01*
X34281Y25549D01*
X34272Y25536D01*
X34228Y25502D01*
X33598Y24873D01*
X33494D01*
X33424Y24864D01*
X33358Y24836D01*
X33302Y24793D01*
X33259Y24737D01*
X33249Y24713D01*
X33191Y24705D01*
X33163Y24739D01*
X33058Y24825D01*
X32939Y24889D01*
X32809Y24928D01*
X32675Y24941D01*
X32540Y24928D01*
X32442Y24898D01*
X32392Y24933D01*
Y26650D01*
X32442Y26684D01*
X32540Y26654D01*
X32675Y26641D01*
X32809Y26654D01*
X32939Y26694D01*
X33058Y26757D01*
X33163Y26843D01*
X33248Y26948D01*
X33308Y27059D01*
X33667D01*
X34110Y26616D01*
X34114Y26583D01*
X34148Y26501D01*
X34201Y26431D01*
X34271Y26378D01*
X34353Y26344D01*
X34440Y26332D01*
X34527Y26344D01*
X34609Y26378D01*
X34679Y26431D01*
X34732Y26501D01*
X34766Y26583D01*
X34778Y26670D01*
X34766Y26757D01*
X34732Y26839D01*
X34679Y26909D01*
X34609Y26962D01*
X34527Y26996D01*
X34494Y27000D01*
X33972Y27523D01*
X33915Y27566D01*
X33850Y27593D01*
X33779Y27603D01*
X33308D01*
X33248Y27714D01*
X33163Y27818D01*
X33058Y27904D01*
X32939Y27968D01*
X32809Y28007D01*
X32675Y28020D01*
X32540Y28007D01*
X32442Y27977D01*
X32392Y28012D01*
Y29387D01*
X34472Y31468D01*
X34516Y31524D01*
X34537Y31575D01*
X34587Y31565D01*
Y30081D01*
X34516Y30010D01*
X34483Y30006D01*
X34401Y29972D01*
X34331Y29919D01*
X34278Y29849D01*
X34244Y29767D01*
X34232Y29680D01*
X34244Y29593D01*
X34278Y29511D01*
X34331Y29441D01*
X34401Y29388D01*
X34483Y29354D01*
X34570Y29342D01*
X34657Y29354D01*
X34739Y29388D01*
X34809Y29441D01*
X34862Y29511D01*
X34896Y29593D01*
X34900Y29626D01*
X35051Y29776D01*
X35068Y29798D01*
X35118Y29781D01*
Y27557D01*
X35098Y27531D01*
X35064Y27450D01*
X35052Y27362D01*
X35064Y27275D01*
X35098Y27193D01*
X35151Y27124D01*
X35161Y27116D01*
X35141Y27089D01*
X35107Y27007D01*
X35096Y26920D01*
X35107Y26833D01*
X35141Y26751D01*
X35194Y26681D01*
X35264Y26628D01*
X35346Y26594D01*
X35433Y26582D01*
X35520Y26594D01*
X35602Y26628D01*
X35672Y26681D01*
X35725Y26751D01*
X35759Y26833D01*
X35763Y26866D01*
X35782Y26885D01*
X35826Y26941D01*
X35853Y27007D01*
X35862Y27077D01*
Y31770D01*
X35853Y31840D01*
X35826Y31906D01*
X35782Y31962D01*
X35766Y31978D01*
X35790Y32026D01*
X35814Y32022D01*
X35902Y32034D01*
X35983Y32068D01*
X36053Y32121D01*
X36106Y32191D01*
X36140Y32273D01*
X36152Y32360D01*
X36140Y32447D01*
X36106Y32529D01*
X36053Y32599D01*
X36006Y32635D01*
X35996Y32707D01*
X35962Y32789D01*
X35942Y32815D01*
Y35380D01*
X35933Y35450D01*
X35906Y35516D01*
X35862Y35572D01*
X35806Y35616D01*
X35740Y35643D01*
X35670Y35652D01*
X35115D01*
Y38470D01*
X36426Y39781D01*
X36472Y39762D01*
Y33760D01*
X36490Y33668D01*
X36542Y33590D01*
X36620Y33537D01*
X36664Y33529D01*
Y33514D01*
X39387D01*
Y11545D01*
X39337Y11527D01*
X39269Y11611D01*
X39143Y11714D01*
X38999Y11791D01*
X38843Y11838D01*
X38681Y11854D01*
X38519Y11838D01*
X38363Y11791D01*
X38220Y11714D01*
X38094Y11611D01*
X37990Y11485D01*
X37914Y11342D01*
X37866Y11186D01*
X37850Y11024D01*
X37866Y10862D01*
X37914Y10706D01*
X37990Y10562D01*
X38094Y10436D01*
X38220Y10333D01*
X38363Y10256D01*
X38519Y10209D01*
X38681Y10193D01*
X38843Y10209D01*
X38999Y10256D01*
X39143Y10333D01*
X39269Y10436D01*
X39337Y10520D01*
X39387Y10502D01*
Y10120D01*
X34291D01*
X34272Y10167D01*
X34444Y10339D01*
X34464Y10365D01*
X34488Y10395D01*
X34488Y10395D01*
X34488Y10395D01*
X34502Y10430D01*
X34515Y10461D01*
X34515Y10461D01*
X34515Y10461D01*
X34520Y10502D01*
X34524Y10532D01*
Y11298D01*
X35651D01*
Y12521D01*
X35569D01*
X35559Y12543D01*
X35551Y12571D01*
X35607Y12674D01*
X35642Y12790D01*
X35654Y12909D01*
X35642Y13029D01*
X35607Y13144D01*
X35550Y13251D01*
X35474Y13344D01*
X35424Y13384D01*
Y13434D01*
X35474Y13475D01*
X35550Y13568D01*
X35607Y13674D01*
X35642Y13790D01*
X35654Y13909D01*
X35642Y14029D01*
X35607Y14144D01*
X35550Y14251D01*
X35474Y14344D01*
X35381Y14420D01*
X35274Y14477D01*
X35159Y14512D01*
X35039Y14524D01*
X34920Y14512D01*
X34804Y14477D01*
X34698Y14420D01*
X34605Y14344D01*
X34529Y14251D01*
X34492Y14181D01*
X34382D01*
X34382Y14181D01*
X34320Y14173D01*
X34311Y14172D01*
X34284Y14161D01*
X34246Y14145D01*
X34190Y14102D01*
X34060Y13972D01*
X34016Y13916D01*
X33989Y13850D01*
X33980Y13780D01*
Y10644D01*
X33845Y10509D01*
X31055D01*
X31025Y10559D01*
X31082Y10667D01*
X31130Y10822D01*
X31146Y10985D01*
Y18662D01*
Y26536D01*
Y30003D01*
X31146Y30003D01*
X31146D01*
X31128Y30553D01*
X31074Y31100D01*
X30985Y31643D01*
X30860Y32179D01*
X30700Y32705D01*
X30506Y33220D01*
X30279Y33721D01*
X30020Y34206D01*
X29729Y34674D01*
X29409Y35121D01*
X29060Y35546D01*
X28684Y35947D01*
X28684Y35947D01*
X25984Y38647D01*
Y48147D01*
X39387D01*
Y47766D01*
D02*
G37*
%LPC*%
G36*
X37591Y16879D02*
X37451Y16861D01*
X37320Y16807D01*
X37208Y16721D01*
X37122Y16609D01*
X37068Y16479D01*
X37050Y16339D01*
X37068Y16199D01*
X37122Y16068D01*
X37208Y15956D01*
X37320Y15870D01*
X37451Y15816D01*
X37591Y15798D01*
X37731Y15816D01*
X37861Y15870D01*
X37973Y15956D01*
X38059Y16068D01*
X38113Y16199D01*
X38131Y16339D01*
X38113Y16479D01*
X38059Y16609D01*
X37973Y16721D01*
X37861Y16807D01*
X37731Y16861D01*
X37591Y16879D01*
D02*
G37*
G36*
X37992Y12942D02*
X37852Y12924D01*
X37722Y12870D01*
X37610Y12784D01*
X37524Y12672D01*
X37470Y12542D01*
X37451Y12402D01*
X37470Y12262D01*
X37524Y12131D01*
X37610Y12019D01*
X37722Y11933D01*
X37852Y11879D01*
X37992Y11861D01*
X38132Y11879D01*
X38263Y11933D01*
X38375Y12019D01*
X38461Y12131D01*
X38515Y12262D01*
X38533Y12402D01*
X38515Y12542D01*
X38461Y12672D01*
X38375Y12784D01*
X38263Y12870D01*
X38132Y12924D01*
X37992Y12942D01*
D02*
G37*
G36*
X25886Y13527D02*
X25798Y13515D01*
X25717Y13481D01*
X25691Y13461D01*
X24016D01*
X23945Y13452D01*
X23880Y13425D01*
X23823Y13381D01*
X23770Y13328D01*
X23766Y13326D01*
X23709Y13283D01*
X22957Y12531D01*
X22819Y12549D01*
X22679Y12530D01*
X22548Y12476D01*
X22436Y12390D01*
X22351Y12278D01*
X22296Y12148D01*
X22278Y12008D01*
X22296Y11868D01*
X22351Y11737D01*
X22436Y11625D01*
X22548Y11539D01*
X22679Y11485D01*
X22819Y11467D01*
X22959Y11485D01*
X23089Y11539D01*
X23201Y11625D01*
X23287Y11737D01*
X23294Y11753D01*
X23344D01*
X23351Y11737D01*
X23436Y11625D01*
X23548Y11539D01*
X23679Y11485D01*
X23819Y11467D01*
X23959Y11485D01*
X24089Y11539D01*
X24201Y11625D01*
X24287Y11737D01*
X24341Y11868D01*
X24360Y12008D01*
X24341Y12148D01*
X24287Y12278D01*
X24201Y12390D01*
X24089Y12476D01*
X23959Y12530D01*
X23819Y12549D01*
X23810Y12548D01*
X23788Y12592D01*
X24049Y12853D01*
X24053Y12855D01*
X24110Y12898D01*
X24128Y12917D01*
X25691D01*
X25717Y12897D01*
X25798Y12863D01*
X25886Y12851D01*
X25973Y12863D01*
X26055Y12897D01*
X26124Y12950D01*
X26178Y13020D01*
X26212Y13102D01*
X26223Y13189D01*
X26212Y13276D01*
X26178Y13358D01*
X26124Y13428D01*
X26055Y13481D01*
X25973Y13515D01*
X25886Y13527D01*
D02*
G37*
G36*
X37992Y14714D02*
X37852Y14696D01*
X37722Y14642D01*
X37610Y14556D01*
X37524Y14444D01*
X37470Y14313D01*
X37451Y14173D01*
X37470Y14033D01*
X37524Y13903D01*
X37610Y13791D01*
X37722Y13705D01*
X37852Y13651D01*
X37992Y13632D01*
X38132Y13651D01*
X38263Y13705D01*
X38375Y13791D01*
X38461Y13903D01*
X38515Y14033D01*
X38533Y14173D01*
X38515Y14313D01*
X38461Y14444D01*
X38375Y14556D01*
X38263Y14642D01*
X38132Y14696D01*
X37992Y14714D01*
D02*
G37*
G36*
X13780Y48075D02*
X13617Y48059D01*
X13462Y48012D01*
X13318Y47935D01*
X13192Y47832D01*
X13089Y47706D01*
X13012Y47562D01*
X12965Y47406D01*
X12949Y47244D01*
Y42028D01*
X12867Y41994D01*
X12651Y41861D01*
X12457Y41696D01*
X12292Y41503D01*
X12160Y41286D01*
X12062Y41052D01*
X12003Y40804D01*
X11983Y40551D01*
X12003Y40298D01*
X12062Y40051D01*
X12160Y39816D01*
X12292Y39599D01*
X12457Y39406D01*
X12651Y39241D01*
X12772Y39167D01*
Y30124D01*
X12651Y30050D01*
X12457Y29885D01*
X12292Y29692D01*
X12160Y29475D01*
X12062Y29241D01*
X12003Y28993D01*
X11983Y28740D01*
X12003Y28487D01*
X12062Y28240D01*
X12160Y28005D01*
X12292Y27788D01*
X12457Y27595D01*
X12651Y27430D01*
X12772Y27356D01*
Y18313D01*
X12651Y18239D01*
X12457Y18074D01*
X12292Y17881D01*
X12160Y17664D01*
X12062Y17429D01*
X12003Y17182D01*
X11983Y16929D01*
X12003Y16676D01*
X12062Y16429D01*
X12160Y16194D01*
X12292Y15977D01*
X12457Y15784D01*
X12651Y15619D01*
X12867Y15486D01*
X13102Y15389D01*
X13349Y15330D01*
X13602Y15310D01*
X13856Y15330D01*
X14103Y15389D01*
X14337Y15486D01*
X14554Y15619D01*
X14747Y15784D01*
X14912Y15977D01*
X15045Y16194D01*
X15142Y16429D01*
X15202Y16676D01*
X15222Y16929D01*
X15202Y17182D01*
X15142Y17429D01*
X15045Y17664D01*
X14912Y17881D01*
X14747Y18074D01*
X14554Y18239D01*
X14433Y18313D01*
Y27356D01*
X14554Y27430D01*
X14747Y27595D01*
X14912Y27788D01*
X15045Y28005D01*
X15142Y28240D01*
X15202Y28487D01*
X15222Y28740D01*
X15202Y28993D01*
X15142Y29241D01*
X15045Y29475D01*
X14912Y29692D01*
X14747Y29885D01*
X14554Y30050D01*
X14433Y30124D01*
Y39167D01*
X14554Y39241D01*
X14747Y39406D01*
X14912Y39599D01*
X15045Y39816D01*
X15142Y40051D01*
X15202Y40298D01*
X15222Y40551D01*
X15202Y40804D01*
X15142Y41052D01*
X15045Y41286D01*
X14912Y41503D01*
X14747Y41696D01*
X14610Y41813D01*
Y47244D01*
X14594Y47406D01*
X14547Y47562D01*
X14470Y47706D01*
X14367Y47832D01*
X14241Y47935D01*
X14097Y48012D01*
X13942Y48059D01*
X13780Y48075D01*
D02*
G37*
G36*
X32675Y17067D02*
X32540Y17054D01*
X32411Y17015D01*
X32292Y16951D01*
X32187Y16865D01*
X32102Y16761D01*
X32038Y16642D01*
X31999Y16512D01*
X31985Y16378D01*
X31999Y16243D01*
X32038Y16114D01*
X32102Y15995D01*
X32187Y15890D01*
X32292Y15804D01*
X32411Y15741D01*
X32540Y15701D01*
X32675Y15688D01*
X32809Y15701D01*
X32939Y15741D01*
X33058Y15804D01*
X33163Y15890D01*
X33248Y15995D01*
X33312Y16114D01*
X33351Y16243D01*
X33365Y16378D01*
X33351Y16512D01*
X33312Y16642D01*
X33248Y16761D01*
X33163Y16865D01*
X33058Y16951D01*
X32939Y17015D01*
X32809Y17054D01*
X32675Y17067D01*
D02*
G37*
G36*
X18602Y18548D02*
X18349Y18528D01*
X18102Y18469D01*
X17867Y18372D01*
X17651Y18239D01*
X17457Y18074D01*
X17292Y17881D01*
X17160Y17664D01*
X17062Y17429D01*
X17003Y17182D01*
X16983Y16929D01*
X17003Y16676D01*
X17062Y16429D01*
X17160Y16194D01*
X17292Y15977D01*
X17457Y15784D01*
X17651Y15619D01*
X17867Y15486D01*
X18102Y15389D01*
X18349Y15330D01*
X18602Y15310D01*
X18856Y15330D01*
X19103Y15389D01*
X19337Y15486D01*
X19554Y15619D01*
X19747Y15784D01*
X19912Y15977D01*
X20045Y16194D01*
X20142Y16429D01*
X20202Y16676D01*
X20222Y16929D01*
X20202Y17182D01*
X20142Y17429D01*
X20045Y17664D01*
X19912Y17881D01*
X19747Y18074D01*
X19554Y18239D01*
X19337Y18372D01*
X19103Y18469D01*
X18856Y18528D01*
X18602Y18548D01*
D02*
G37*
G36*
X37591Y19242D02*
X37451Y19223D01*
X37320Y19169D01*
X37208Y19083D01*
X37122Y18971D01*
X37068Y18841D01*
X37050Y18701D01*
X37068Y18561D01*
X37122Y18430D01*
X37208Y18318D01*
X37320Y18232D01*
X37451Y18178D01*
X37591Y18160D01*
X37731Y18178D01*
X37861Y18232D01*
X37973Y18318D01*
X38059Y18430D01*
X38113Y18561D01*
X38131Y18701D01*
X38113Y18841D01*
X38059Y18971D01*
X37973Y19083D01*
X37861Y19169D01*
X37731Y19223D01*
X37591Y19242D01*
D02*
G37*
G36*
X27461Y31440D02*
X27373Y31428D01*
X27292Y31395D01*
X27265Y31374D01*
X26179D01*
X26153Y31395D01*
X26072Y31428D01*
X25984Y31440D01*
X25897Y31428D01*
X25815Y31395D01*
X25746Y31341D01*
X25692Y31271D01*
X25658Y31190D01*
X25647Y31102D01*
X25658Y31015D01*
X25692Y30934D01*
X25746Y30864D01*
X25815Y30810D01*
X25897Y30776D01*
X25984Y30765D01*
X26072Y30776D01*
X26153Y30810D01*
X26179Y30830D01*
X27265D01*
X27292Y30810D01*
X27373Y30776D01*
X27461Y30765D01*
X27548Y30776D01*
X27629Y30810D01*
X27699Y30864D01*
X27753Y30934D01*
X27787Y31015D01*
X27798Y31102D01*
X27787Y31190D01*
X27753Y31271D01*
X27699Y31341D01*
X27629Y31395D01*
X27548Y31428D01*
X27461Y31440D01*
D02*
G37*
G36*
X36712Y28405D02*
X36588Y28392D01*
X36470Y28356D01*
X36360Y28298D01*
X36264Y28219D01*
X36186Y28123D01*
X36127Y28014D01*
X36091Y27895D01*
X36079Y27772D01*
X36091Y27648D01*
X36127Y27529D01*
X36186Y27420D01*
X36264Y27324D01*
X36360Y27245D01*
X36470Y27187D01*
X36588Y27151D01*
X36712Y27139D01*
X36835Y27151D01*
X36954Y27187D01*
X37064Y27245D01*
X37159Y27324D01*
X37238Y27420D01*
X37297Y27529D01*
X37333Y27648D01*
X37345Y27772D01*
X37333Y27895D01*
X37297Y28014D01*
X37238Y28123D01*
X37159Y28219D01*
X37064Y28298D01*
X36954Y28356D01*
X36835Y28392D01*
X36712Y28405D01*
D02*
G37*
G36*
X32156Y43600D02*
X31624D01*
X31358Y43335D01*
Y42803D01*
X31486Y42675D01*
X31423Y42612D01*
X31373D01*
X31171Y42813D01*
X30640D01*
X30374Y42547D01*
Y42016D01*
X30640Y41750D01*
X31171D01*
X31373Y41951D01*
X31423D01*
X31624Y41750D01*
X32156D01*
X32421Y42016D01*
Y42547D01*
X32293Y42675D01*
X32421Y42803D01*
Y43335D01*
X32156Y43600D01*
D02*
G37*
G36*
X18602Y42170D02*
X18349Y42150D01*
X18102Y42091D01*
X17867Y41994D01*
X17651Y41861D01*
X17457Y41696D01*
X17292Y41503D01*
X17160Y41286D01*
X17062Y41052D01*
X17003Y40804D01*
X16983Y40551D01*
X17003Y40298D01*
X17062Y40051D01*
X17160Y39816D01*
X17292Y39599D01*
X17457Y39406D01*
X17651Y39241D01*
X17867Y39108D01*
X18102Y39011D01*
X18349Y38952D01*
X18602Y38932D01*
X18856Y38952D01*
X19103Y39011D01*
X19337Y39108D01*
X19554Y39241D01*
X19747Y39406D01*
X19912Y39599D01*
X20045Y39816D01*
X20142Y40051D01*
X20202Y40298D01*
X20222Y40551D01*
X20202Y40804D01*
X20142Y41052D01*
X20045Y41286D01*
X19912Y41503D01*
X19747Y41696D01*
X19554Y41861D01*
X19337Y41994D01*
X19103Y42091D01*
X18856Y42150D01*
X18602Y42170D01*
D02*
G37*
G36*
X36712Y25353D02*
X36588Y25341D01*
X36470Y25305D01*
X36360Y25247D01*
X36264Y25168D01*
X36186Y25072D01*
X36127Y24963D01*
X36091Y24844D01*
X36079Y24720D01*
X36091Y24597D01*
X36127Y24478D01*
X36186Y24369D01*
X36264Y24273D01*
X36360Y24194D01*
X36470Y24136D01*
X36588Y24100D01*
X36712Y24088D01*
X36835Y24100D01*
X36954Y24136D01*
X37064Y24194D01*
X37159Y24273D01*
X37238Y24369D01*
X37297Y24478D01*
X37333Y24597D01*
X37345Y24720D01*
X37333Y24844D01*
X37297Y24963D01*
X37238Y25072D01*
X37159Y25168D01*
X37064Y25247D01*
X36954Y25305D01*
X36835Y25341D01*
X36712Y25353D01*
D02*
G37*
G36*
X38780Y23369D02*
X38692Y23358D01*
X38611Y23324D01*
X38584Y23304D01*
X37324D01*
X37297Y23324D01*
X37216Y23358D01*
X37129Y23369D01*
X37041Y23358D01*
X36960Y23324D01*
X36890Y23270D01*
X36836Y23200D01*
X36802Y23119D01*
X36791Y23031D01*
X36802Y22944D01*
X36836Y22863D01*
X36890Y22793D01*
X36960Y22739D01*
X37041Y22705D01*
X37129Y22694D01*
X37216Y22705D01*
X37297Y22739D01*
X37324Y22759D01*
X38584D01*
X38611Y22739D01*
X38692Y22705D01*
X38780Y22694D01*
X38867Y22705D01*
X38948Y22739D01*
X39018Y22793D01*
X39072Y22863D01*
X39106Y22944D01*
X39117Y23031D01*
X39106Y23119D01*
X39072Y23200D01*
X39018Y23270D01*
X38948Y23324D01*
X38867Y23358D01*
X38780Y23369D01*
D02*
G37*
G36*
X18602Y30359D02*
X18349Y30339D01*
X18102Y30280D01*
X17867Y30183D01*
X17651Y30050D01*
X17457Y29885D01*
X17292Y29692D01*
X17160Y29475D01*
X17062Y29241D01*
X17003Y28993D01*
X16983Y28740D01*
X17003Y28487D01*
X17062Y28240D01*
X17160Y28005D01*
X17292Y27788D01*
X17457Y27595D01*
X17651Y27430D01*
X17867Y27297D01*
X18102Y27200D01*
X18349Y27141D01*
X18602Y27121D01*
X18856Y27141D01*
X19103Y27200D01*
X19337Y27297D01*
X19554Y27430D01*
X19747Y27595D01*
X19912Y27788D01*
X20045Y28005D01*
X20142Y28240D01*
X20202Y28487D01*
X20222Y28740D01*
X20202Y28993D01*
X20142Y29241D01*
X20045Y29475D01*
X19912Y29692D01*
X19747Y29885D01*
X19554Y30050D01*
X19337Y30183D01*
X19103Y30280D01*
X18856Y30339D01*
X18602Y30359D01*
D02*
G37*
G36*
X27955Y28020D02*
X27820Y28007D01*
X27691Y27968D01*
X27572Y27904D01*
X27467Y27818D01*
X27382Y27714D01*
X27318Y27595D01*
X27279Y27465D01*
X27265Y27331D01*
X27279Y27196D01*
X27318Y27067D01*
X27382Y26948D01*
X27467Y26843D01*
X27572Y26757D01*
X27691Y26694D01*
X27820Y26654D01*
X27955Y26641D01*
X28089Y26654D01*
X28219Y26694D01*
X28338Y26757D01*
X28443Y26843D01*
X28528Y26948D01*
X28592Y27067D01*
X28631Y27196D01*
X28644Y27331D01*
X28631Y27465D01*
X28592Y27595D01*
X28528Y27714D01*
X28443Y27818D01*
X28338Y27904D01*
X28219Y27968D01*
X28089Y28007D01*
X27955Y28020D01*
D02*
G37*
%LPD*%
D30*
X30315Y30003D02*
G03*
X28096Y35360I-7575J0D01*
G01*
X30315Y26536D02*
Y30003D01*
X23031Y30512D02*
X23917D01*
X24213Y30217D01*
X16102Y31614D02*
Y43425D01*
Y19803D02*
Y31614D01*
X13602Y16929D02*
Y28740D01*
Y40551D01*
X25059Y16378D02*
X27955D01*
X22933Y18504D02*
X25059Y16378D01*
X13780Y40728D02*
Y47244D01*
X16240Y43563D02*
Y47244D01*
X30315Y10985D02*
Y18662D01*
Y26536D01*
X24528Y38928D02*
X28096Y35360D01*
X26691Y32512D02*
X26699Y32519D01*
X24181Y32512D02*
X26691D01*
X23622Y33071D02*
X24181Y32512D01*
X24213Y28051D02*
Y30217D01*
Y28051D02*
X27864Y24400D01*
X26699Y32519D02*
X27955D01*
D31*
X37305Y41439D02*
X38189Y42323D01*
X36671Y41439D02*
X37305D01*
X36612Y41380D02*
X36671Y41439D01*
X36612Y40549D02*
Y41380D01*
X36516Y40453D02*
X36612Y40549D01*
X36516Y40256D02*
Y40453D01*
X34843Y38583D02*
X36516Y40256D01*
X34843Y35531D02*
Y38583D01*
X34350Y35039D02*
X34843Y35531D01*
X30906Y43069D02*
Y44136D01*
X37205Y43602D02*
X37500Y43898D01*
X37598D01*
Y46161D01*
X37303Y46457D02*
X37598Y46161D01*
X36614Y44488D02*
X37008D01*
X37303Y43890D02*
Y46063D01*
X37006Y43593D02*
X37303Y43890D01*
X37205Y42815D02*
Y43602D01*
X35335Y41634D02*
X36220D01*
X37006Y42419D01*
Y43593D01*
X36713Y42315D02*
Y43996D01*
X36230Y41833D02*
X36713Y42315D01*
X30315Y10788D02*
Y10985D01*
X27955Y24252D02*
X27960Y24257D01*
Y24400D01*
X27955Y32126D02*
Y32519D01*
X13602Y40551D02*
Y40728D01*
X31850Y21490D02*
X32060Y21700D01*
Y24270D01*
X32120Y29500D02*
X34280Y31660D01*
Y32630D01*
X34660D01*
X33779Y27331D02*
X34440Y26670D01*
X32675Y27331D02*
X33779D01*
X27955Y19457D02*
X28650Y18762D01*
Y15390D02*
Y18762D01*
X27950Y14690D02*
X28650Y15390D01*
X27950Y12540D02*
Y14690D01*
Y12540D02*
X27955Y12535D01*
Y11583D02*
Y12535D01*
X33230Y33290D02*
X33660Y33720D01*
X33230Y31290D02*
Y33290D01*
X32120Y30180D02*
X33230Y31290D01*
X32060Y24270D02*
X32120Y24330D01*
X35433Y26920D02*
X35590Y27077D01*
Y31770D01*
X35127Y32233D02*
X35590Y31770D01*
X35127Y32233D02*
Y33600D01*
X32116Y36610D02*
X35127Y33600D01*
X30490Y36610D02*
X32116D01*
X35314Y32360D02*
Y35180D01*
Y32360D02*
X35814D01*
X34560Y34840D02*
X35100Y35380D01*
X35670D01*
Y32620D02*
Y35380D01*
X32675Y11583D02*
Y13225D01*
X35230Y15780D01*
Y20030D01*
X33770Y21490D02*
X35230Y20030D01*
X33720Y24260D02*
X33770D01*
X32675Y19457D02*
X33494Y20276D01*
Y24601D01*
X33711D01*
X34420Y25310D01*
X34520D01*
X33970Y23440D02*
X38030Y27500D01*
Y29280D01*
X38287Y29537D01*
Y30413D01*
X34570Y29680D02*
X34859Y29969D01*
Y32830D01*
X32270Y35419D02*
X34859Y32830D01*
X32120Y31740D02*
X32340Y31520D01*
X32120Y31740D02*
Y35180D01*
X31770Y35530D02*
X32120Y35180D01*
X30530Y35530D02*
X31770D01*
X30530D02*
Y35790D01*
X35390Y27362D02*
Y30990D01*
X34993Y31387D02*
X35390Y30990D01*
X34993Y31387D02*
Y33237D01*
X34661Y33569D02*
X34993Y33237D01*
X34440Y33569D02*
X34661D01*
X34440D02*
Y33790D01*
X34298Y33932D02*
X34440Y33790D01*
X34036Y33932D02*
X34298D01*
X34036D02*
Y34194D01*
X32470Y35760D02*
X34036Y34194D01*
X30840Y35760D02*
X32470D01*
X31650Y19523D02*
X34736Y16437D01*
X31650Y19523D02*
Y31840D01*
X31450Y32040D02*
X31650Y31840D01*
X31450Y32040D02*
Y35000D01*
X31120Y35330D02*
X31450Y35000D01*
X30500Y35330D02*
X31120D01*
X30160Y35670D02*
X30500Y35330D01*
X30160Y35820D02*
X30220D01*
X24200Y15440D02*
X27660D01*
X25220Y22192D02*
X27955Y19457D01*
X25220Y22192D02*
Y22780D01*
X24670Y23000D02*
Y24837D01*
X26120Y20510D02*
X26940Y19690D01*
X25552Y17868D02*
Y19168D01*
X23230Y21490D02*
X25552Y19168D01*
X35394Y42579D02*
Y43012D01*
X35827Y42579D01*
X32120Y24330D02*
Y29500D01*
Y30180D01*
X24586Y20750D02*
X25950Y19386D01*
X26120Y22740D02*
X26124Y22736D01*
X28543D01*
X28160Y23611D02*
X28839Y22933D01*
Y22047D02*
Y22933D01*
X16102Y10472D02*
Y19803D01*
Y10472D02*
X16338Y10237D01*
X33958D01*
X34252Y10532D01*
Y13780D01*
X34382Y13909D01*
X35039D01*
X22819Y12008D02*
X23902Y13091D01*
X23917D01*
X24016Y13189D01*
X25886D01*
X25492Y33858D02*
Y34646D01*
X22720Y35630D02*
X23508Y34843D01*
X25408D01*
X25410Y34844D01*
X26770D01*
X37129Y23031D02*
X38780D01*
X25984Y31102D02*
X27461D01*
X26770Y34844D02*
X28839Y32776D01*
Y31201D02*
Y32776D01*
X30018Y34844D02*
X30020Y34843D01*
X30610D01*
X26870Y33858D02*
X26969Y33957D01*
X26870Y33366D02*
Y33858D01*
X26083Y33268D02*
X26378D01*
X25492Y33858D02*
X26083Y33268D01*
X17323Y13878D02*
X25642D01*
X35039Y44390D02*
Y46949D01*
X35236Y47146D01*
X36122Y44587D02*
X36713Y43996D01*
X36122Y44587D02*
Y44783D01*
X35728Y45374D02*
X36120Y44982D01*
X36204D01*
X36321Y44866D01*
Y44782D02*
Y44866D01*
Y44782D02*
X36614Y44488D01*
X35417Y44374D02*
Y46342D01*
X35433Y46358D01*
X25098Y24705D02*
X26280D01*
X27373Y23611D01*
X24670Y24837D02*
X25470Y25637D01*
X27373Y23611D02*
X27675D01*
X27822Y23464D01*
X27905D01*
X28052Y23611D01*
X28160D01*
X22920Y33550D02*
X23460Y34090D01*
X23622Y33928D01*
Y33071D02*
Y33928D01*
X33770Y21490D02*
Y24260D01*
X30160Y35670D02*
Y35820D01*
X13602Y40728D02*
X13780D01*
X27864Y24400D02*
X27955D01*
X27960D01*
X23230Y21560D02*
X24670Y23000D01*
X25689Y29429D02*
Y31004D01*
X36319Y23327D02*
X36516Y23130D01*
X35531Y23327D02*
X36319D01*
X33364Y37967D02*
Y39467D01*
X30408Y36809D02*
X30411D01*
X30018Y36419D02*
X30408Y36809D01*
X30411D02*
X35136Y41533D01*
Y41716D01*
X35252Y41833D01*
X30018Y34844D02*
Y36419D01*
X35252Y41833D02*
X36230D01*
X30711Y39467D02*
X32778D01*
X30315Y39862D02*
X30711Y39467D01*
X28642Y39862D02*
X30315D01*
X25581Y11132D02*
X27504D01*
X27955Y11583D01*
D33*
X22441Y33071D02*
D03*
Y30610D02*
D03*
D35*
X22244Y18602D02*
D03*
D37*
X38681Y11024D02*
D03*
X38591Y16339D02*
D03*
X37591D02*
D03*
X38591Y18701D02*
D03*
X37591D02*
D03*
X38681Y47244D02*
D03*
X10827D02*
D03*
X23819Y23819D02*
D03*
X22819D02*
D03*
X23720Y35630D02*
D03*
X22720D02*
D03*
X37992Y14173D02*
D03*
X38992D02*
D03*
X37992Y12402D02*
D03*
X38992D02*
D03*
X10827Y11024D02*
D03*
X35736Y16437D02*
D03*
X34736D02*
D03*
X23819Y12008D02*
D03*
X22819D02*
D03*
D38*
X13602Y40551D02*
D03*
X16102Y43425D02*
D03*
X18602Y40551D02*
D03*
X13602Y28740D02*
D03*
X16102Y31614D02*
D03*
X18602Y28740D02*
D03*
X13602Y16929D02*
D03*
X16102Y19803D02*
D03*
X18602Y16929D02*
D03*
D39*
X36712Y24720D02*
D03*
X38682Y24705D02*
D03*
X36712Y27772D02*
D03*
X38682Y27756D02*
D03*
D40*
X33364Y37967D02*
D03*
D41*
X35039Y13909D02*
D03*
Y12909D02*
D03*
D42*
Y11909D02*
D03*
D43*
X24528Y38928D02*
D03*
Y45818D02*
D03*
D44*
X32675Y11583D02*
D03*
X27955D02*
D03*
Y16378D02*
D03*
X32675D02*
D03*
X30315Y10788D02*
D03*
X32675Y19457D02*
D03*
X27955D02*
D03*
Y24252D02*
D03*
X32675D02*
D03*
X30315Y18662D02*
D03*
X32675Y27331D02*
D03*
X27955D02*
D03*
Y32126D02*
D03*
X32675D02*
D03*
X30315Y26536D02*
D03*
D45*
X38287Y32382D02*
D03*
Y30413D02*
D03*
D46*
X33768Y44136D02*
D03*
X29028D02*
D03*
D47*
X30906Y43069D02*
D03*
Y42281D02*
D03*
X31890D02*
D03*
Y43069D02*
D03*
D48*
X13780Y47244D02*
D03*
X16240D02*
D03*
X18701D02*
D03*
D49*
X35394Y42579D02*
D03*
Y43012D02*
D03*
Y43445D02*
D03*
X35827Y42579D02*
D03*
Y43012D02*
D03*
Y43445D02*
D03*
X36260Y42579D02*
D03*
Y43012D02*
D03*
Y43445D02*
D03*
D50*
X21752Y33071D02*
D03*
Y30610D02*
D03*
D51*
X38189Y42323D02*
D03*
X34350Y35039D02*
D03*
X37303Y46457D02*
D03*
Y46063D02*
D03*
X37008Y44488D02*
D03*
X35335Y41634D02*
D03*
X37205Y42815D02*
D03*
X21555Y19094D02*
D03*
Y18209D02*
D03*
X34660Y32630D02*
D03*
X34440Y26670D02*
D03*
X33660Y33720D02*
D03*
X31850Y21490D02*
D03*
X35433Y26920D02*
D03*
X30490Y36610D02*
D03*
X35314Y35180D02*
D03*
X35814Y32360D02*
D03*
X34560Y34840D02*
D03*
X35670Y32620D02*
D03*
X33720Y24260D02*
D03*
X34520Y25310D02*
D03*
X33970Y23440D02*
D03*
X34570Y29680D02*
D03*
X32270Y35419D02*
D03*
X32340Y31520D02*
D03*
X30530Y35790D02*
D03*
X35390Y27362D02*
D03*
X30840Y35760D02*
D03*
X30220Y35820D02*
D03*
X27660Y15440D02*
D03*
X24200D02*
D03*
X25220Y22780D02*
D03*
X26940Y19690D02*
D03*
X26120Y20510D02*
D03*
X25552Y17868D02*
D03*
X23230Y21490D02*
D03*
X26120Y22740D02*
D03*
X25950Y19386D02*
D03*
X24586Y20750D02*
D03*
X28543Y22736D02*
D03*
X25098Y24705D02*
D03*
X28839Y22047D02*
D03*
X25886Y13189D02*
D03*
X25492Y34646D02*
D03*
X27461Y31102D02*
D03*
X38780Y23031D02*
D03*
X37129D02*
D03*
X25984Y31102D02*
D03*
X28839Y31201D02*
D03*
X30610Y34843D02*
D03*
X26969Y33957D02*
D03*
X26870Y33366D02*
D03*
X26378Y33268D02*
D03*
X25642Y13878D02*
D03*
X17323D02*
D03*
X35728Y45374D02*
D03*
X35039Y44390D02*
D03*
X35236Y47146D02*
D03*
X35417Y44374D02*
D03*
X36122Y44783D02*
D03*
X35417Y46342D02*
D03*
X25470Y25637D02*
D03*
X22920Y33550D02*
D03*
X25689Y31004D02*
D03*
Y29429D02*
D03*
X36516Y23130D02*
D03*
X35531Y23327D02*
D03*
X33364Y39467D02*
D03*
X32778D02*
D03*
X28642Y39862D02*
D03*
X25581Y11132D02*
D03*
D52*
X18701Y47244D02*
X23102D01*
X24528Y45818D01*
D53*
X35827Y43012D02*
D03*
M02*
