G04 Layer_Color=8150272*
%FSLAX24Y24*%
%MOIN*%
G70*
G01*
G75*
%ADD86C,0.0680*%
%ADD87C,0.2836*%
%ADD88C,0.0867*%
%ADD89C,0.1080*%
%ADD90C,0.0830*%
%ADD91R,0.0830X0.0830*%
G04:AMPARAMS|DCode=92|XSize=323mil|YSize=86.7mil|CornerRadius=23.7mil|HoleSize=0mil|Usage=FLASHONLY|Rotation=270.000|XOffset=0mil|YOffset=0mil|HoleType=Round|Shape=RoundedRectangle|*
%AMROUNDEDRECTD92*
21,1,0.3230,0.0394,0,0,270.0*
21,1,0.2756,0.0867,0,0,270.0*
1,1,0.0474,-0.0197,-0.1378*
1,1,0.0474,-0.0197,0.1378*
1,1,0.0474,0.0197,0.1378*
1,1,0.0474,0.0197,-0.1378*
%
%ADD92ROUNDEDRECTD92*%
%ADD93C,0.0980*%
%ADD94C,0.1655*%
%ADD95O,0.1261X0.2049*%
%ADD96P,0.0726X8X202.5*%
%ADD97C,0.1261*%
%ADD98C,0.0316*%
%ADD99C,0.0580*%
%ADD100C,0.0277*%
D86*
X38681Y11024D02*
D03*
X38591Y16339D02*
D03*
X37591D02*
D03*
X38591Y18701D02*
D03*
X37591D02*
D03*
X38681Y47244D02*
D03*
X10827D02*
D03*
X23819Y23819D02*
D03*
X22819D02*
D03*
X23720Y35630D02*
D03*
X22720D02*
D03*
X37992Y14173D02*
D03*
X38992D02*
D03*
X37992Y12402D02*
D03*
X38992D02*
D03*
X10827Y11024D02*
D03*
X35736Y16437D02*
D03*
X34736D02*
D03*
X23819Y12008D02*
D03*
X22819D02*
D03*
D87*
X13602Y40551D02*
D03*
X16102Y43425D02*
D03*
X18602Y40551D02*
D03*
X13602Y28740D02*
D03*
X16102Y31614D02*
D03*
X18602Y28740D02*
D03*
X13602Y16929D02*
D03*
X16102Y19803D02*
D03*
X18602Y16929D02*
D03*
D88*
X36712Y24720D02*
D03*
X38682Y24705D02*
D03*
X36712Y27772D02*
D03*
X38682Y27756D02*
D03*
D89*
X33364Y37967D02*
D03*
D90*
X35039Y13909D02*
D03*
Y12909D02*
D03*
D91*
Y11909D02*
D03*
D92*
X24528Y38928D02*
D03*
Y45818D02*
D03*
D93*
X32675Y11583D02*
D03*
X27955D02*
D03*
Y16378D02*
D03*
X32675D02*
D03*
X30315Y10788D02*
D03*
X32675Y19457D02*
D03*
X27955D02*
D03*
Y24252D02*
D03*
X32675D02*
D03*
X30315Y18662D02*
D03*
X32675Y27331D02*
D03*
X27955D02*
D03*
Y32126D02*
D03*
X32675D02*
D03*
X30315Y26536D02*
D03*
D94*
X38287Y32382D02*
D03*
Y30413D02*
D03*
D95*
X33768Y44136D02*
D03*
X29028D02*
D03*
D96*
X30906Y43069D02*
D03*
Y42281D02*
D03*
X31890D02*
D03*
Y43069D02*
D03*
D97*
X13780Y47244D02*
D03*
X16240D02*
D03*
X18701D02*
D03*
D98*
X35394Y42579D02*
D03*
Y43012D02*
D03*
Y43445D02*
D03*
X35827Y42579D02*
D03*
Y43012D02*
D03*
Y43445D02*
D03*
X36260Y42579D02*
D03*
Y43012D02*
D03*
Y43445D02*
D03*
D99*
X21752Y33071D02*
D03*
Y30610D02*
D03*
D100*
X38189Y42323D02*
D03*
X34350Y35039D02*
D03*
X37303Y46457D02*
D03*
Y46063D02*
D03*
X37008Y44488D02*
D03*
X35335Y41634D02*
D03*
X37205Y42815D02*
D03*
X21555Y19094D02*
D03*
Y18209D02*
D03*
X34660Y32630D02*
D03*
X34440Y26670D02*
D03*
X33660Y33720D02*
D03*
X31850Y21490D02*
D03*
X35433Y26920D02*
D03*
X30490Y36610D02*
D03*
X35314Y35180D02*
D03*
X35814Y32360D02*
D03*
X34560Y34840D02*
D03*
X35670Y32620D02*
D03*
X33720Y24260D02*
D03*
X34520Y25310D02*
D03*
X33970Y23440D02*
D03*
X34570Y29680D02*
D03*
X32270Y35419D02*
D03*
X32340Y31520D02*
D03*
X30530Y35790D02*
D03*
X35390Y27362D02*
D03*
X30840Y35760D02*
D03*
X30220Y35820D02*
D03*
X27660Y15440D02*
D03*
X24200D02*
D03*
X25220Y22780D02*
D03*
X26940Y19690D02*
D03*
X26120Y20510D02*
D03*
X25552Y17868D02*
D03*
X23230Y21490D02*
D03*
X26120Y22740D02*
D03*
X25950Y19386D02*
D03*
X24586Y20750D02*
D03*
X28543Y22736D02*
D03*
X25098Y24705D02*
D03*
X28839Y22047D02*
D03*
X25886Y13189D02*
D03*
X25492Y34646D02*
D03*
X27461Y31102D02*
D03*
X38780Y23031D02*
D03*
X37129D02*
D03*
X25984Y31102D02*
D03*
X28839Y31201D02*
D03*
X30610Y34843D02*
D03*
X26969Y33957D02*
D03*
X26870Y33366D02*
D03*
X26378Y33268D02*
D03*
X25642Y13878D02*
D03*
X17323D02*
D03*
X35728Y45374D02*
D03*
X35039Y44390D02*
D03*
X35236Y47146D02*
D03*
X35417Y44374D02*
D03*
X36122Y44783D02*
D03*
X35417Y46342D02*
D03*
X25470Y25637D02*
D03*
X22920Y33550D02*
D03*
X25689Y31004D02*
D03*
Y29429D02*
D03*
X36516Y23130D02*
D03*
X35531Y23327D02*
D03*
X33364Y39467D02*
D03*
X32778D02*
D03*
X28642Y39862D02*
D03*
X25581Y11132D02*
D03*
M02*
