G04 Layer_Color=7318015*
%FSLAX24Y24*%
%MOIN*%
G70*
G01*
G75*
%ADD10R,0.0532X0.0610*%
%ADD11R,0.0453X0.0709*%
%ADD12O,0.0866X0.0236*%
%ADD13R,0.0880X0.0480*%
%ADD14R,0.0870X0.1420*%
%ADD15R,0.0177X0.0138*%
%ADD16R,0.0610X0.0532*%
%ADD17R,0.0551X0.0433*%
%ADD18R,0.0512X0.0276*%
%ADD19R,0.0260X0.0118*%
%ADD20R,0.0394X0.0394*%
%ADD21R,0.1232X0.1232*%
%ADD22O,0.0335X0.0079*%
%ADD23O,0.0079X0.0335*%
%ADD24O,0.0846X0.0236*%
%ADD25R,0.0354X0.0787*%
%ADD26R,0.0787X0.0354*%
%ADD27R,0.1969X0.1969*%
%ADD28R,0.0433X0.0551*%
%ADD29R,0.0591X0.0748*%
D10*
X24813Y23720D02*
D03*
X25581D02*
D03*
X34833Y31595D02*
D03*
X34065D02*
D03*
Y28642D02*
D03*
X34833D02*
D03*
X36703Y30118D02*
D03*
X35935D02*
D03*
X34065Y27362D02*
D03*
X34833D02*
D03*
X35935Y31594D02*
D03*
X36703D02*
D03*
Y33071D02*
D03*
X35935D02*
D03*
X38002Y44488D02*
D03*
X38770D02*
D03*
X38770Y45571D02*
D03*
X38002D02*
D03*
X34833Y30118D02*
D03*
X34065D02*
D03*
X37096Y12402D02*
D03*
X36329D02*
D03*
X37096Y14173D02*
D03*
X36329D02*
D03*
X24715Y35531D02*
D03*
X25482D02*
D03*
X24813Y11909D02*
D03*
X25581D02*
D03*
X38002Y43012D02*
D03*
X38770D02*
D03*
X34833Y33071D02*
D03*
X34065D02*
D03*
D11*
X22638Y21850D02*
D03*
X23819D02*
D03*
X25492Y26969D02*
D03*
X26673D02*
D03*
X25492Y28346D02*
D03*
X26673D02*
D03*
X35827Y46161D02*
D03*
X34646D02*
D03*
X35827Y47146D02*
D03*
X34646D02*
D03*
D12*
X24961Y29270D02*
D03*
Y29770D02*
D03*
Y30270D02*
D03*
Y30770D02*
D03*
X23071Y29270D02*
D03*
Y29770D02*
D03*
Y30270D02*
D03*
Y30770D02*
D03*
X24961Y31730D02*
D03*
Y32230D02*
D03*
Y32730D02*
D03*
Y33230D02*
D03*
X23071Y31730D02*
D03*
Y32230D02*
D03*
Y32730D02*
D03*
Y33230D02*
D03*
D13*
X36280Y22465D02*
D03*
Y21555D02*
D03*
Y20645D02*
D03*
D14*
X38730Y21555D02*
D03*
D15*
X26772Y15059D02*
D03*
X26516D02*
D03*
X25886D02*
D03*
X25630D02*
D03*
X24016D02*
D03*
X23760D02*
D03*
X23130D02*
D03*
X22874D02*
D03*
D16*
X35433Y25108D02*
D03*
Y25876D02*
D03*
D17*
X26575Y20226D02*
D03*
Y20915D02*
D03*
D18*
X35020Y23012D02*
D03*
Y22264D02*
D03*
X34075D02*
D03*
Y22638D02*
D03*
Y23012D02*
D03*
X35020Y21043D02*
D03*
Y20295D02*
D03*
X34075D02*
D03*
Y20669D02*
D03*
Y21043D02*
D03*
D19*
X33791Y26437D02*
D03*
Y26181D02*
D03*
Y25925D02*
D03*
X34516D02*
D03*
Y26181D02*
D03*
Y26437D02*
D03*
Y24449D02*
D03*
Y24705D02*
D03*
Y24961D02*
D03*
X33791D02*
D03*
Y24705D02*
D03*
Y24449D02*
D03*
X36449Y45630D02*
D03*
Y45374D02*
D03*
Y45118D02*
D03*
X37173D02*
D03*
Y45374D02*
D03*
Y45630D02*
D03*
D20*
X26772Y22116D02*
D03*
Y23356D02*
D03*
X26673Y12864D02*
D03*
Y14104D02*
D03*
Y29990D02*
D03*
Y31230D02*
D03*
D21*
X35827Y43012D02*
D03*
D22*
X36781Y43602D02*
D03*
Y43406D02*
D03*
Y43209D02*
D03*
Y43012D02*
D03*
Y42815D02*
D03*
Y42618D02*
D03*
Y42421D02*
D03*
X34872D02*
D03*
Y42618D02*
D03*
Y42815D02*
D03*
Y43012D02*
D03*
Y43209D02*
D03*
Y43406D02*
D03*
Y43602D02*
D03*
D23*
X36417Y42057D02*
D03*
X36220D02*
D03*
X36024D02*
D03*
X35827D02*
D03*
X35630D02*
D03*
X35433D02*
D03*
X35236D02*
D03*
Y43967D02*
D03*
X35433D02*
D03*
X35630D02*
D03*
X35827D02*
D03*
X36024D02*
D03*
X36220D02*
D03*
X36417D02*
D03*
D24*
X22894Y19368D02*
D03*
Y18868D02*
D03*
Y18368D02*
D03*
Y17868D02*
D03*
Y17368D02*
D03*
Y16868D02*
D03*
Y16368D02*
D03*
Y15868D02*
D03*
X26516Y19368D02*
D03*
Y18868D02*
D03*
Y18368D02*
D03*
Y17868D02*
D03*
Y17368D02*
D03*
Y16868D02*
D03*
Y16368D02*
D03*
Y15868D02*
D03*
D25*
X29814Y40937D02*
D03*
X36314D02*
D03*
X35814D02*
D03*
X35314D02*
D03*
X34814D02*
D03*
X34314D02*
D03*
X33814D02*
D03*
X33314D02*
D03*
X32814D02*
D03*
X32314D02*
D03*
X31814D02*
D03*
X31314D02*
D03*
X30814D02*
D03*
X30314D02*
D03*
Y34244D02*
D03*
X30814D02*
D03*
X31314D02*
D03*
X31814D02*
D03*
X32314D02*
D03*
X32814D02*
D03*
X33314D02*
D03*
X33814D02*
D03*
X34314D02*
D03*
X34814D02*
D03*
X35314D02*
D03*
X35814D02*
D03*
X36314D02*
D03*
X29814D02*
D03*
D26*
X29420Y35841D02*
D03*
Y36341D02*
D03*
Y36841D02*
D03*
Y37341D02*
D03*
Y37841D02*
D03*
Y38341D02*
D03*
Y38841D02*
D03*
X29414Y39341D02*
D03*
X29420Y39841D02*
D03*
Y35341D02*
D03*
D27*
X33364Y37967D02*
D03*
D28*
X24557Y21752D02*
D03*
X25246D02*
D03*
D29*
X24114Y20374D02*
D03*
X25295D02*
D03*
M02*
