M48
;Layer_Color=6321
;FILE_FORMAT=2:4
INCH,LZ
T14F00S00C0.2000
%
G90
G05
T14
G00X039864Y008862
M15
G01X040055Y008922
G01X04023Y009017
G01X040383Y009146
G01X040507Y009303
G01X040598Y009481
G01X040651Y009673
G01X040665Y009843
G01X040665Y048425
G01X040645Y048624
G01X040586Y048815
G01X040491Y04899
G01X040362Y049143
G01X040205Y049267
G01X040027Y049357
G01X039835Y049411
G01X039665Y049425
G01X009843Y049425
G01X009644Y049405
G01X009453Y049346
G01X009278Y04925
G01X009125Y049122
G01X009001Y048965
G01X00891Y048787
G01X008857Y048595
G01X008843Y048425
G01X008843Y009843
G01X008862Y009644
G01X008922Y009453
G01X009017Y009278
G01X009146Y009125
G01X009303Y009001
G01X009481Y00891
G01X009673Y008857
G01X009843Y008843
G01X039665Y008843
G01X039864Y008862
M16
M17
M30
