M48
;Layer_Color=6321
;FILE_FORMAT=2:4
INCH,LZ
T17F00S00C0.2000
%
G90
G05
T17
G00X039864Y008823
M15
G01X040055Y008882
G01X04023Y008978
G01X040372Y009096
G01X040412Y009135
G01X040538Y00929
G01X040631Y009467
G01X040688Y009658
G01X040705Y009843
G01X040705Y048425
G01X040685Y048624
G01X040626Y048815
G01X04053Y04899
G01X040412Y049132
G01X040372Y049172
G01X040218Y049298
G01X040041Y049391
G01X039849Y049447
G01X039665Y049465
G01X009843Y049465
G01X009644Y049445
G01X009453Y049386
G01X009278Y04929
G01X009135Y049172
G01X009096Y049132
G01X00897Y048978
G01X008876Y048801
G01X00882Y048609
G01X008803Y048425
G01X008803Y009843
G01X008823Y009644
G01X008882Y009453
G01X008978Y009278
G01X009096Y009135
G01X009135Y009096
G01X00929Y00897
G01X009467Y008876
G01X009658Y00882
G01X009843Y008803
G01X039665Y008803
G01X039864Y008823
M16
M17
M30
