G04 Layer_Color=15132400*
%FSLAX24Y24*%
%MOIN*%
G70*
G01*
G75*
%ADD54C,0.0157*%
%ADD55C,0.0098*%
%ADD56C,0.0100*%
%ADD57C,0.0059*%
%ADD58C,0.0236*%
%ADD59C,0.0200*%
%ADD60C,0.0079*%
%ADD61C,0.0080*%
%ADD62C,0.0197*%
%ADD63C,0.0039*%
G36*
X38818Y20660D02*
Y20628D01*
X38612D01*
Y20585D01*
X38576D01*
Y20628D01*
X38500D01*
Y20667D01*
X38576D01*
Y20805D01*
X38612D01*
X38818Y20660D01*
D02*
G37*
G36*
X36039Y22914D02*
X36040Y22913D01*
X36041Y22911D01*
X36042Y22909D01*
X36043Y22906D01*
X36045Y22903D01*
X36049Y22895D01*
X36055Y22886D01*
X36061Y22876D01*
X36068Y22867D01*
X36076Y22857D01*
X36077Y22857D01*
X36077Y22856D01*
X36078Y22855D01*
X36080Y22853D01*
X36084Y22849D01*
X36090Y22844D01*
X36096Y22838D01*
X36104Y22833D01*
X36111Y22827D01*
X36119Y22823D01*
Y22798D01*
X35800D01*
Y22836D01*
X36048D01*
X36048Y22837D01*
X36046Y22839D01*
X36043Y22842D01*
X36040Y22846D01*
X36036Y22852D01*
X36031Y22858D01*
X36026Y22865D01*
X36021Y22874D01*
Y22874D01*
X36021Y22874D01*
X36020Y22876D01*
X36019Y22877D01*
X36017Y22882D01*
X36014Y22887D01*
X36011Y22893D01*
X36007Y22900D01*
X36004Y22907D01*
X36001Y22914D01*
X36039D01*
Y22914D01*
D02*
G37*
G36*
X35805Y22062D02*
X35809Y22062D01*
X35814Y22061D01*
X35818Y22060D01*
X35823Y22058D01*
X35824D01*
X35824Y22058D01*
X35825Y22057D01*
X35827Y22057D01*
X35831Y22055D01*
X35836Y22052D01*
X35843Y22048D01*
X35850Y22044D01*
X35857Y22039D01*
X35865Y22033D01*
X35866Y22032D01*
X35866Y22032D01*
X35867Y22031D01*
X35869Y22029D01*
X35874Y22025D01*
X35879Y22019D01*
X35886Y22012D01*
X35895Y22004D01*
X35904Y21993D01*
X35914Y21981D01*
X35914Y21981D01*
X35916Y21979D01*
X35918Y21976D01*
X35921Y21973D01*
X35924Y21969D01*
X35928Y21964D01*
X35933Y21959D01*
X35938Y21953D01*
X35949Y21942D01*
X35960Y21930D01*
X35966Y21925D01*
X35971Y21920D01*
X35976Y21915D01*
X35981Y21912D01*
X35981Y21911D01*
X35982Y21911D01*
X35983Y21910D01*
X35985Y21909D01*
X35988Y21908D01*
X35990Y21906D01*
X35996Y21902D01*
X36003Y21899D01*
X36011Y21896D01*
X36020Y21894D01*
X36024Y21893D01*
X36030D01*
X36032Y21893D01*
X36036Y21894D01*
X36042Y21895D01*
X36048Y21897D01*
X36054Y21900D01*
X36061Y21904D01*
X36067Y21910D01*
X36068Y21911D01*
X36069Y21913D01*
X36072Y21917D01*
X36075Y21922D01*
X36078Y21928D01*
X36080Y21935D01*
X36082Y21944D01*
X36083Y21953D01*
Y21954D01*
Y21955D01*
Y21956D01*
X36083Y21958D01*
Y21960D01*
X36082Y21963D01*
X36081Y21969D01*
X36079Y21976D01*
X36076Y21984D01*
X36072Y21992D01*
X36066Y21998D01*
X36065Y21999D01*
X36063Y22001D01*
X36059Y22004D01*
X36054Y22007D01*
X36047Y22010D01*
X36039Y22013D01*
X36030Y22015D01*
X36019Y22015D01*
X36023Y22055D01*
X36024D01*
X36026Y22055D01*
X36028D01*
X36031Y22055D01*
X36035Y22054D01*
X36039Y22053D01*
X36044Y22052D01*
X36049Y22050D01*
X36060Y22046D01*
X36066Y22044D01*
X36071Y22041D01*
X36077Y22038D01*
X36082Y22034D01*
X36087Y22030D01*
X36092Y22025D01*
X36092Y22024D01*
X36092Y22024D01*
X36094Y22022D01*
X36095Y22020D01*
X36097Y22017D01*
X36099Y22014D01*
X36101Y22010D01*
X36104Y22005D01*
X36106Y22000D01*
X36108Y21995D01*
X36110Y21989D01*
X36111Y21983D01*
X36113Y21976D01*
X36114Y21969D01*
X36115Y21961D01*
X36115Y21953D01*
Y21952D01*
Y21950D01*
Y21948D01*
X36115Y21945D01*
X36114Y21941D01*
X36114Y21936D01*
X36113Y21931D01*
X36112Y21926D01*
X36109Y21915D01*
X36107Y21909D01*
X36104Y21903D01*
X36102Y21896D01*
X36098Y21891D01*
X36094Y21885D01*
X36090Y21880D01*
X36089Y21879D01*
X36088Y21879D01*
X36087Y21877D01*
X36085Y21876D01*
X36083Y21874D01*
X36080Y21871D01*
X36076Y21869D01*
X36072Y21866D01*
X36068Y21864D01*
X36063Y21862D01*
X36052Y21857D01*
X36047Y21855D01*
X36040Y21854D01*
X36034Y21853D01*
X36027Y21853D01*
X36023D01*
X36020Y21853D01*
X36015Y21854D01*
X36009Y21855D01*
X36003Y21856D01*
X35996Y21858D01*
X35989Y21861D01*
X35988Y21861D01*
X35986Y21863D01*
X35982Y21864D01*
X35978Y21867D01*
X35972Y21871D01*
X35965Y21875D01*
X35958Y21881D01*
X35950Y21887D01*
X35950D01*
X35950Y21888D01*
X35948Y21889D01*
X35947Y21890D01*
X35945Y21892D01*
X35942Y21895D01*
X35939Y21898D01*
X35936Y21901D01*
X35932Y21905D01*
X35928Y21910D01*
X35923Y21915D01*
X35918Y21920D01*
X35913Y21926D01*
X35907Y21932D01*
X35901Y21940D01*
X35895Y21947D01*
X35894Y21948D01*
X35893Y21949D01*
X35892Y21950D01*
X35890Y21953D01*
X35888Y21955D01*
X35885Y21959D01*
X35878Y21966D01*
X35872Y21974D01*
X35865Y21981D01*
X35862Y21984D01*
X35859Y21987D01*
X35857Y21990D01*
X35855Y21992D01*
X35854Y21993D01*
X35853Y21994D01*
X35851Y21995D01*
X35848Y21998D01*
X35845Y22000D01*
X35841Y22003D01*
X35834Y22009D01*
Y21853D01*
X35796D01*
Y22063D01*
X35801D01*
X35805Y22062D01*
D02*
G37*
G36*
X35890Y21106D02*
X35889D01*
X35888Y21106D01*
X35886Y21105D01*
X35884Y21105D01*
X35881Y21104D01*
X35878Y21103D01*
X35871Y21101D01*
X35863Y21098D01*
X35855Y21094D01*
X35847Y21089D01*
X35844Y21087D01*
X35841Y21084D01*
X35841Y21083D01*
X35839Y21081D01*
X35837Y21078D01*
X35834Y21073D01*
X35831Y21067D01*
X35829Y21060D01*
X35828Y21053D01*
X35827Y21044D01*
Y21044D01*
Y21043D01*
Y21041D01*
X35827Y21040D01*
Y21037D01*
X35828Y21034D01*
X35829Y21028D01*
X35831Y21021D01*
X35835Y21013D01*
X35840Y21005D01*
X35843Y21001D01*
X35846Y20998D01*
X35846Y20997D01*
X35847Y20997D01*
X35848Y20996D01*
X35849Y20995D01*
X35853Y20991D01*
X35859Y20988D01*
X35866Y20985D01*
X35874Y20982D01*
X35883Y20980D01*
X35888Y20979D01*
X35895D01*
X35897Y20979D01*
X35900D01*
X35902Y20980D01*
X35909Y20981D01*
X35916Y20983D01*
X35923Y20986D01*
X35930Y20991D01*
X35934Y20993D01*
X35937Y20996D01*
X35938Y20997D01*
X35940Y21000D01*
X35942Y21003D01*
X35946Y21008D01*
X35949Y21015D01*
X35952Y21022D01*
X35954Y21031D01*
X35954Y21041D01*
Y21041D01*
Y21043D01*
Y21046D01*
X35954Y21048D01*
X35954Y21053D01*
X35953Y21058D01*
X35952Y21063D01*
X35950Y21069D01*
X35985Y21064D01*
Y21063D01*
X35984Y21062D01*
X35984Y21060D01*
Y21058D01*
Y21058D01*
Y21057D01*
Y21056D01*
X35984Y21054D01*
X35985Y21049D01*
X35985Y21043D01*
X35987Y21036D01*
X35989Y21029D01*
X35992Y21021D01*
X35997Y21013D01*
Y21013D01*
X35997Y21013D01*
X35999Y21010D01*
X36002Y21007D01*
X36007Y21003D01*
X36012Y20999D01*
X36019Y20996D01*
X36028Y20994D01*
X36032Y20994D01*
X36037Y20993D01*
X36038D01*
X36041Y20994D01*
X36044Y20994D01*
X36049Y20995D01*
X36055Y20997D01*
X36061Y20999D01*
X36067Y21003D01*
X36072Y21008D01*
X36073Y21009D01*
X36075Y21010D01*
X36077Y21014D01*
X36080Y21018D01*
X36082Y21023D01*
X36085Y21030D01*
X36086Y21037D01*
X36087Y21045D01*
Y21046D01*
Y21046D01*
Y21047D01*
X36086Y21049D01*
X36086Y21053D01*
X36085Y21059D01*
X36083Y21065D01*
X36080Y21071D01*
X36077Y21077D01*
X36072Y21084D01*
X36071Y21084D01*
X36070Y21086D01*
X36066Y21089D01*
X36061Y21091D01*
X36056Y21095D01*
X36048Y21098D01*
X36040Y21101D01*
X36030Y21103D01*
X36037Y21141D01*
X36037D01*
X36038Y21141D01*
X36040Y21141D01*
X36043Y21140D01*
X36046Y21139D01*
X36050Y21138D01*
X36054Y21136D01*
X36059Y21135D01*
X36068Y21130D01*
X36078Y21125D01*
X36088Y21118D01*
X36093Y21114D01*
X36097Y21109D01*
X36097Y21109D01*
X36098Y21108D01*
X36099Y21107D01*
X36100Y21105D01*
X36102Y21102D01*
X36104Y21099D01*
X36106Y21096D01*
X36108Y21092D01*
X36110Y21087D01*
X36112Y21083D01*
X36116Y21072D01*
X36118Y21060D01*
X36118Y21053D01*
X36119Y21046D01*
Y21046D01*
Y21045D01*
Y21044D01*
Y21041D01*
X36118Y21039D01*
Y21037D01*
X36118Y21030D01*
X36116Y21023D01*
X36114Y21015D01*
X36111Y21007D01*
X36108Y20998D01*
Y20998D01*
X36107Y20998D01*
X36106Y20996D01*
X36106Y20995D01*
X36103Y20991D01*
X36100Y20986D01*
X36095Y20981D01*
X36090Y20975D01*
X36084Y20970D01*
X36077Y20965D01*
X36077D01*
X36076Y20965D01*
X36074Y20963D01*
X36070Y20961D01*
X36065Y20959D01*
X36059Y20957D01*
X36052Y20955D01*
X36044Y20953D01*
X36036Y20953D01*
X36033D01*
X36029Y20953D01*
X36024Y20954D01*
X36018Y20956D01*
X36012Y20958D01*
X36005Y20961D01*
X35999Y20964D01*
X35998Y20965D01*
X35996Y20966D01*
X35993Y20969D01*
X35989Y20972D01*
X35985Y20977D01*
X35980Y20983D01*
X35976Y20989D01*
X35972Y20997D01*
Y20996D01*
X35971Y20996D01*
X35971Y20994D01*
X35971Y20992D01*
X35970Y20990D01*
X35968Y20987D01*
X35966Y20981D01*
X35962Y20974D01*
X35957Y20967D01*
X35952Y20959D01*
X35945Y20953D01*
X35944D01*
X35944Y20952D01*
X35942Y20951D01*
X35941Y20951D01*
X35939Y20949D01*
X35937Y20948D01*
X35931Y20945D01*
X35923Y20942D01*
X35914Y20940D01*
X35905Y20938D01*
X35894Y20937D01*
X35890D01*
X35887Y20938D01*
X35883Y20938D01*
X35879Y20939D01*
X35874Y20940D01*
X35869Y20941D01*
X35864Y20943D01*
X35858Y20945D01*
X35852Y20947D01*
X35846Y20950D01*
X35840Y20954D01*
X35834Y20958D01*
X35828Y20963D01*
X35823Y20968D01*
X35823Y20968D01*
X35822Y20969D01*
X35821Y20971D01*
X35819Y20973D01*
X35817Y20976D01*
X35814Y20980D01*
X35812Y20984D01*
X35809Y20989D01*
X35806Y20994D01*
X35804Y21000D01*
X35801Y21006D01*
X35799Y21013D01*
X35797Y21020D01*
X35796Y21028D01*
X35795Y21036D01*
X35795Y21044D01*
Y21045D01*
Y21046D01*
Y21048D01*
X35795Y21051D01*
X35795Y21055D01*
X35796Y21059D01*
X35797Y21064D01*
X35798Y21069D01*
X35801Y21079D01*
X35803Y21085D01*
X35805Y21091D01*
X35808Y21097D01*
X35811Y21103D01*
X35815Y21108D01*
X35819Y21114D01*
X35820Y21114D01*
X35821Y21115D01*
X35822Y21116D01*
X35824Y21118D01*
X35826Y21120D01*
X35829Y21123D01*
X35833Y21125D01*
X35837Y21128D01*
X35841Y21131D01*
X35846Y21134D01*
X35852Y21136D01*
X35857Y21139D01*
X35864Y21141D01*
X35870Y21143D01*
X35877Y21144D01*
X35884Y21145D01*
X35890Y21106D01*
D02*
G37*
G36*
X27022Y22486D02*
X26522D01*
X26772Y22986D01*
X27022Y22486D01*
D02*
G37*
G36*
X26923Y30360D02*
X26423D01*
X26673Y30860D01*
X26923Y30360D01*
D02*
G37*
G36*
Y13234D02*
X26423D01*
X26673Y13734D01*
X26923Y13234D01*
D02*
G37*
%LPC*%
G36*
X38612Y20767D02*
Y20667D01*
X38755D01*
X38612Y20767D01*
D02*
G37*
%LPD*%
D54*
X24055Y30689D02*
G03*
X24055Y30689I-79J0D01*
G01*
Y33150D02*
G03*
X24055Y33150I-79J0D01*
G01*
D55*
X23120Y31104D02*
G03*
X23120Y31104I-49J0D01*
G01*
Y33565D02*
G03*
X23120Y33565I-49J0D01*
G01*
X34124Y23366D02*
G03*
X34124Y23366I-49J0D01*
G01*
Y21398D02*
G03*
X34124Y21398I-49J0D01*
G01*
X33841Y26713D02*
G03*
X33841Y26713I-49J0D01*
G01*
X34565Y24173D02*
G03*
X34565Y24173I-49J0D01*
G01*
X36498Y45906D02*
G03*
X36498Y45906I-49J0D01*
G01*
X36860Y44311D02*
G03*
X36860Y44311I-49J0D01*
G01*
X22943Y19703D02*
G03*
X22943Y19703I-49J0D01*
G01*
X34539Y11409D02*
Y14409D01*
X35539D01*
Y11409D02*
Y14409D01*
X34539Y11409D02*
X35539D01*
D56*
X37323Y15896D02*
G03*
X38858Y15896I767J443D01*
G01*
X38860Y16789D02*
G03*
X37326Y16789I-767J-443D01*
G01*
X37323Y18258D02*
G03*
X38858Y18258I767J443D01*
G01*
X38860Y19152D02*
G03*
X37326Y19152I-767J-443D01*
G01*
X26472Y23436D02*
G03*
X26472Y23436I-50J0D01*
G01*
X26373Y14184D02*
G03*
X26373Y14184I-50J0D01*
G01*
X34469Y15994D02*
G03*
X36003Y15994I767J443D01*
G01*
X36006Y16888D02*
G03*
X34471Y16888I-767J-443D01*
G01*
X26373Y31310D02*
G03*
X26373Y31310I-50J0D01*
G01*
X36791Y16089D02*
Y16589D01*
X36541Y16339D02*
X37041D01*
X36791Y18451D02*
Y18951D01*
X36541Y18701D02*
X37041D01*
X39347Y23462D02*
Y25955D01*
X36047Y23462D02*
Y25955D01*
Y23462D02*
X39347D01*
X36047Y25955D02*
X39347D01*
Y26513D02*
Y29006D01*
X36047Y26513D02*
Y29006D01*
Y26513D02*
X39347D01*
X36047Y29006D02*
X39347D01*
X36674Y33602D02*
Y33742D01*
Y41449D02*
Y41589D01*
X36664Y41439D02*
X39263D01*
X36664Y33752D02*
Y41439D01*
X28840Y41589D02*
X36674D01*
X28840Y33602D02*
X36674D01*
X28840D02*
Y41589D01*
X39263Y39854D02*
Y41439D01*
X36664Y33752D02*
X39263D01*
Y39854D01*
X33936Y16187D02*
Y16687D01*
X33686Y16437D02*
X34186D01*
X28389Y36625D02*
Y48121D01*
X27146Y36625D02*
X28389D01*
X22439Y48121D02*
X28389D01*
X22439Y36625D02*
Y48121D01*
Y36625D02*
X27264D01*
X27215Y10133D02*
X33415D01*
Y17783D01*
X27215D02*
X33415D01*
X27215Y10133D02*
Y17783D01*
Y18007D02*
X33415D01*
Y25657D01*
X27215D02*
X33415D01*
X27215Y18007D02*
Y25657D01*
Y25881D02*
X33415D01*
Y33531D01*
X27215D02*
X33415D01*
X27215Y25881D02*
Y33531D01*
X38287Y29213D02*
X38337D01*
X39237Y30413D02*
Y30563D01*
X38337Y29213D02*
X39237D01*
Y32413D01*
X37337Y29213D02*
Y30463D01*
Y29213D02*
X38287D01*
X39237Y32413D02*
Y32963D01*
X38737Y33463D02*
X39237Y32963D01*
X37337Y30463D02*
Y32913D01*
X37837Y33413D01*
X37887Y33463D01*
X38737D01*
X27762Y47844D02*
X27362D01*
Y47544D01*
X27562D01*
X27362D01*
Y47244D01*
X27962D02*
X28162D01*
X28062D01*
Y47844D01*
X27962Y47744D01*
X19102Y45101D02*
X19502D01*
Y45701D01*
X19102D01*
X19502Y45401D02*
X19302D01*
X18803Y45301D02*
X18603D01*
X18503Y45401D01*
Y45701D01*
X18803D01*
X18903Y45601D01*
X18803Y45501D01*
X18503D01*
X18303Y45301D02*
Y45701D01*
Y45501D01*
X18203Y45401D01*
X18103Y45301D01*
X18003D01*
X17603Y45201D02*
Y45301D01*
X17703D01*
X17503D01*
X17603D01*
Y45601D01*
X17503Y45701D01*
X17203Y45101D02*
Y45701D01*
Y45401D01*
X17103Y45301D01*
X16903D01*
X16803Y45401D01*
Y45701D01*
X15604Y45201D02*
X15704Y45101D01*
X15904D01*
X16003Y45201D01*
Y45601D01*
X15904Y45701D01*
X15704D01*
X15604Y45601D01*
Y45401D01*
X15804D01*
X15404Y45301D02*
Y45701D01*
Y45501D01*
X15304Y45401D01*
X15204Y45301D01*
X15104D01*
X14704Y45701D02*
X14504D01*
X14404Y45601D01*
Y45401D01*
X14504Y45301D01*
X14704D01*
X14804Y45401D01*
Y45601D01*
X14704Y45701D01*
X14204Y45301D02*
Y45601D01*
X14104Y45701D01*
X13804D01*
Y45301D01*
X13604Y45701D02*
Y45301D01*
X13304D01*
X13204Y45401D01*
Y45701D01*
X12605Y45101D02*
Y45701D01*
X12904D01*
X13004Y45601D01*
Y45401D01*
X12904Y45301D01*
X12605D01*
X11152Y42201D02*
X11752D01*
X11152Y41801D01*
X11752D01*
X11152Y41301D02*
Y41501D01*
X11252Y41601D01*
X11452D01*
X11552Y41501D01*
Y41301D01*
X11452Y41202D01*
X11352D01*
Y41601D01*
X11552Y41002D02*
X11252D01*
X11152Y40902D01*
Y40602D01*
X11552D01*
X11652Y40302D02*
X11552D01*
Y40402D01*
Y40202D01*
Y40302D01*
X11252D01*
X11152Y40202D01*
X11552Y39902D02*
X11152D01*
X11352D01*
X11452Y39802D01*
X11552Y39702D01*
Y39602D01*
Y39202D02*
Y39002D01*
X11452Y38902D01*
X11152D01*
Y39202D01*
X11252Y39302D01*
X11352Y39202D01*
Y38902D01*
X11152Y38702D02*
Y38502D01*
Y38602D01*
X11752D01*
Y38702D01*
X21852Y40201D02*
Y40801D01*
Y40501D01*
X21452D01*
Y40201D01*
Y40801D01*
X21153D02*
X20953D01*
X20853Y40701D01*
Y40501D01*
X20953Y40401D01*
X21153D01*
X21253Y40501D01*
Y40701D01*
X21153Y40801D01*
X20553Y40301D02*
Y40401D01*
X20653D01*
X20453D01*
X20553D01*
Y40701D01*
X20453Y40801D01*
X19102Y33290D02*
X19502D01*
Y33890D01*
X19102D01*
X19502Y33590D02*
X19302D01*
X18803Y33490D02*
X18603D01*
X18503Y33590D01*
Y33890D01*
X18803D01*
X18903Y33790D01*
X18803Y33690D01*
X18503D01*
X18303Y33490D02*
Y33890D01*
Y33690D01*
X18203Y33590D01*
X18103Y33490D01*
X18003D01*
X17603Y33390D02*
Y33490D01*
X17703D01*
X17503D01*
X17603D01*
Y33790D01*
X17503Y33890D01*
X17203Y33290D02*
Y33890D01*
Y33590D01*
X17103Y33490D01*
X16903D01*
X16803Y33590D01*
Y33890D01*
X15604Y33390D02*
X15704Y33290D01*
X15904D01*
X16003Y33390D01*
Y33790D01*
X15904Y33890D01*
X15704D01*
X15604Y33790D01*
Y33590D01*
X15804D01*
X15404Y33490D02*
Y33890D01*
Y33690D01*
X15304Y33590D01*
X15204Y33490D01*
X15104D01*
X14704Y33890D02*
X14504D01*
X14404Y33790D01*
Y33590D01*
X14504Y33490D01*
X14704D01*
X14804Y33590D01*
Y33790D01*
X14704Y33890D01*
X14204Y33490D02*
Y33790D01*
X14104Y33890D01*
X13804D01*
Y33490D01*
X13604Y33890D02*
Y33490D01*
X13304D01*
X13204Y33590D01*
Y33890D01*
X12605Y33290D02*
Y33890D01*
X12904D01*
X13004Y33790D01*
Y33590D01*
X12904Y33490D01*
X12605D01*
X11152Y30390D02*
X11752D01*
X11152Y29990D01*
X11752D01*
X11152Y29490D02*
Y29690D01*
X11252Y29790D01*
X11452D01*
X11552Y29690D01*
Y29490D01*
X11452Y29390D01*
X11352D01*
Y29790D01*
X11552Y29191D02*
X11252D01*
X11152Y29091D01*
Y28791D01*
X11552D01*
X11652Y28491D02*
X11552D01*
Y28591D01*
Y28391D01*
Y28491D01*
X11252D01*
X11152Y28391D01*
X11552Y28091D02*
X11152D01*
X11352D01*
X11452Y27991D01*
X11552Y27891D01*
Y27791D01*
Y27391D02*
Y27191D01*
X11452Y27091D01*
X11152D01*
Y27391D01*
X11252Y27491D01*
X11352Y27391D01*
Y27091D01*
X11152Y26891D02*
Y26691D01*
Y26791D01*
X11752D01*
Y26891D01*
X21852Y28390D02*
Y28990D01*
Y28690D01*
X21452D01*
Y28390D01*
Y28990D01*
X21153D02*
X20953D01*
X20853Y28890D01*
Y28690D01*
X20953Y28590D01*
X21153D01*
X21253Y28690D01*
Y28890D01*
X21153Y28990D01*
X20553Y28490D02*
Y28590D01*
X20653D01*
X20453D01*
X20553D01*
Y28890D01*
X20453Y28990D01*
X19102Y21479D02*
X19502D01*
Y22079D01*
X19102D01*
X19502Y21779D02*
X19302D01*
X18803Y21679D02*
X18603D01*
X18503Y21779D01*
Y22079D01*
X18803D01*
X18903Y21979D01*
X18803Y21879D01*
X18503D01*
X18303Y21679D02*
Y22079D01*
Y21879D01*
X18203Y21779D01*
X18103Y21679D01*
X18003D01*
X17603Y21579D02*
Y21679D01*
X17703D01*
X17503D01*
X17603D01*
Y21979D01*
X17503Y22079D01*
X17203Y21479D02*
Y22079D01*
Y21779D01*
X17103Y21679D01*
X16903D01*
X16803Y21779D01*
Y22079D01*
X15604Y21579D02*
X15704Y21479D01*
X15904D01*
X16003Y21579D01*
Y21979D01*
X15904Y22079D01*
X15704D01*
X15604Y21979D01*
Y21779D01*
X15804D01*
X15404Y21679D02*
Y22079D01*
Y21879D01*
X15304Y21779D01*
X15204Y21679D01*
X15104D01*
X14704Y22079D02*
X14504D01*
X14404Y21979D01*
Y21779D01*
X14504Y21679D01*
X14704D01*
X14804Y21779D01*
Y21979D01*
X14704Y22079D01*
X14204Y21679D02*
Y21979D01*
X14104Y22079D01*
X13804D01*
Y21679D01*
X13604Y22079D02*
Y21679D01*
X13304D01*
X13204Y21779D01*
Y22079D01*
X12605Y21479D02*
Y22079D01*
X12904D01*
X13004Y21979D01*
Y21779D01*
X12904Y21679D01*
X12605D01*
X11152Y18579D02*
X11752D01*
X11152Y18179D01*
X11752D01*
X11152Y17679D02*
Y17879D01*
X11252Y17979D01*
X11452D01*
X11552Y17879D01*
Y17679D01*
X11452Y17579D01*
X11352D01*
Y17979D01*
X11552Y17380D02*
X11252D01*
X11152Y17280D01*
Y16980D01*
X11552D01*
X11652Y16680D02*
X11552D01*
Y16780D01*
Y16580D01*
Y16680D01*
X11252D01*
X11152Y16580D01*
X11552Y16280D02*
X11152D01*
X11352D01*
X11452Y16180D01*
X11552Y16080D01*
Y15980D01*
Y15580D02*
Y15380D01*
X11452Y15280D01*
X11152D01*
Y15580D01*
X11252Y15680D01*
X11352Y15580D01*
Y15280D01*
X11152Y15080D02*
Y14880D01*
Y14980D01*
X11752D01*
Y15080D01*
X21852Y16579D02*
Y17179D01*
Y16879D01*
X21452D01*
Y16579D01*
Y17179D01*
X21153D02*
X20953D01*
X20853Y17079D01*
Y16879D01*
X20953Y16779D01*
X21153D01*
X21253Y16879D01*
Y17079D01*
X21153Y17179D01*
X20553Y16679D02*
Y16779D01*
X20653D01*
X20453D01*
X20553D01*
Y17079D01*
X20453Y17179D01*
X38249Y39628D02*
X37649D01*
X37849D01*
X38249Y39228D01*
X37949Y39528D01*
X37649Y39228D01*
X38249Y38628D02*
Y39028D01*
X37649D01*
Y38628D01*
X37949Y39028D02*
Y38828D01*
X38249Y38028D02*
Y38428D01*
X37649D01*
Y38028D01*
X37949Y38428D02*
Y38228D01*
X37649Y37829D02*
X38249D01*
Y37529D01*
X38149Y37429D01*
X37949D01*
X37849Y37529D01*
Y37829D01*
X38249Y36929D02*
Y37129D01*
X38149Y37229D01*
X37749D01*
X37649Y37129D01*
Y36929D01*
X37749Y36829D01*
X38149D01*
X38249Y36929D01*
Y36629D02*
X37749D01*
X37649Y36529D01*
Y36329D01*
X37749Y36229D01*
X38249D01*
Y36029D02*
Y35629D01*
Y35829D01*
X37649D01*
D57*
X23780Y24248D02*
G03*
X22858Y24248I-461J-430D01*
G01*
Y23389D02*
G03*
X23780Y23389I461J430D01*
G01*
X23681Y36060D02*
G03*
X22760Y36060I-461J-430D01*
G01*
Y35200D02*
G03*
X23681Y35200I461J430D01*
G01*
X38031Y13744D02*
G03*
X38953Y13744I461J430D01*
G01*
Y14603D02*
G03*
X38031Y14603I-461J-430D01*
G01*
Y11972D02*
G03*
X38953Y11972I461J430D01*
G01*
Y12831D02*
G03*
X38031Y12831I-461J-430D01*
G01*
X23780Y12437D02*
G03*
X22858Y12437I-461J-430D01*
G01*
Y11578D02*
G03*
X23780Y11578I461J430D01*
G01*
X24069Y24169D02*
Y24469D01*
X23919Y24319D02*
X24219D01*
X23970Y35980D02*
Y36280D01*
X23820Y36130D02*
X24120D01*
X37742Y13523D02*
Y13823D01*
X37592Y13673D02*
X37892D01*
X37742Y11752D02*
Y12052D01*
X37592Y11902D02*
X37892D01*
X24069Y12358D02*
Y12658D01*
X23919Y12508D02*
X24219D01*
X26345Y26312D02*
X26279Y26378D01*
X26148D01*
X26083Y26312D01*
Y26050D01*
X26148Y25984D01*
X26279D01*
X26345Y26050D01*
X26476Y26378D02*
X26739D01*
Y26312D01*
X26476Y26050D01*
Y25984D01*
X22605Y22671D02*
X22539Y22736D01*
X22408D01*
X22343Y22671D01*
Y22408D01*
X22408Y22343D01*
X22539D01*
X22605Y22408D01*
X22998Y22736D02*
X22867Y22671D01*
X22736Y22539D01*
Y22408D01*
X22802Y22343D01*
X22933D01*
X22998Y22408D01*
Y22474D01*
X22933Y22539D01*
X22736D01*
X33858Y12106D02*
Y11713D01*
Y11909D01*
X34121D01*
Y12106D01*
Y11713D01*
X33858Y12795D02*
Y13189D01*
X34121Y12795D01*
Y13189D01*
Y14173D02*
X33858D01*
Y13780D01*
X34121D01*
X33858Y13976D02*
X33989D01*
D58*
X23986Y19252D02*
G03*
X23986Y19252I-118J0D01*
G01*
D59*
X35939Y11609D02*
G03*
X35939Y11609I-100J0D01*
G01*
D60*
X23091Y22165D02*
X23366D01*
X23091Y21535D02*
X23366D01*
X23091Y21850D02*
X23366D01*
X25945Y27283D02*
X26220D01*
X25945Y26654D02*
X26220D01*
X25945Y26969D02*
X26220D01*
X25945Y28661D02*
X26220D01*
X25945Y28031D02*
X26220D01*
X25945Y28346D02*
X26220D01*
X23661Y29035D02*
X24370D01*
X23661Y31004D02*
X24370D01*
Y29035D02*
Y31004D01*
X23661Y29035D02*
Y31004D01*
Y31496D02*
X24370D01*
X23661Y33465D02*
X24370D01*
Y31496D02*
Y33465D01*
X23661Y31496D02*
Y33465D01*
X35098Y45846D02*
X35374D01*
X35098Y46476D02*
X35374D01*
X35098Y46161D02*
X35374D01*
X35098Y46831D02*
X35374D01*
X35098Y47461D02*
X35374D01*
X35098Y47146D02*
X35374D01*
X34606Y22028D02*
Y23248D01*
X34488Y22028D02*
Y23248D01*
Y22028D02*
X34606D01*
X34488Y23248D02*
X34606D01*
Y20059D02*
Y21280D01*
X34488Y20059D02*
Y21280D01*
Y20059D02*
X34606D01*
X34488Y21280D02*
X34606D01*
X34079Y26614D02*
X34228D01*
X34079Y25748D02*
X34228D01*
X34079D02*
Y26614D01*
X34228Y25748D02*
Y26614D01*
X34079Y24272D02*
X34228D01*
X34079Y25138D02*
X34228D01*
Y24272D02*
Y25138D01*
X34079Y24272D02*
Y25138D01*
X26522Y22486D02*
X26772Y22986D01*
X26522Y22486D02*
X27022D01*
X26772Y22986D02*
X27022Y22486D01*
X26423Y13234D02*
X26673Y13734D01*
X26423Y13234D02*
X26923D01*
X26673Y13734D02*
X26923Y13234D01*
X36736Y45807D02*
X36886D01*
X36736Y44941D02*
X36886D01*
X36736D02*
Y45807D01*
X36886Y44941D02*
Y45807D01*
X34783Y43799D02*
Y44055D01*
X35039D01*
X34783Y41969D02*
Y42224D01*
Y41969D02*
X35039D01*
X36614D02*
X36870D01*
Y42224D01*
Y43799D02*
Y44055D01*
X36614D02*
X36870D01*
X23474Y15591D02*
Y19646D01*
X25935Y15591D02*
Y19646D01*
X23474D02*
X25935D01*
X23474Y15591D02*
X25935D01*
X26423Y30360D02*
X26673Y30860D01*
X26423Y30360D02*
X26923D01*
X26673Y30860D02*
X26923Y30360D01*
X24567Y20709D02*
X24843D01*
X24567Y20039D02*
X24843D01*
X11417Y46260D02*
X11549D01*
X11483D01*
Y46653D01*
X11417Y46588D01*
X12008Y46260D02*
X11745D01*
X12008Y46522D01*
Y46588D01*
X11942Y46653D01*
X11811D01*
X11745Y46588D01*
X12139D02*
X12204Y46653D01*
X12336D01*
X12401Y46588D01*
Y46325D01*
X12336Y46260D01*
X12204D01*
X12139Y46325D01*
Y46588D01*
X12532Y46653D02*
Y46391D01*
X12664Y46260D01*
X12795Y46391D01*
Y46653D01*
X12926Y46260D02*
Y46522D01*
X13057Y46653D01*
X13188Y46522D01*
Y46260D01*
Y46457D01*
X12926D01*
X13582Y46588D02*
X13516Y46653D01*
X13385D01*
X13320Y46588D01*
Y46325D01*
X13385Y46260D01*
X13516D01*
X13582Y46325D01*
X13713Y46194D02*
X13976D01*
X14107Y46260D02*
Y46653D01*
X14369Y46260D01*
Y46653D01*
X19390Y47047D02*
X19521D01*
X19455D01*
Y47441D01*
X19390Y47375D01*
X19980Y47047D02*
X19718D01*
X19980Y47310D01*
Y47375D01*
X19915Y47441D01*
X19783D01*
X19718Y47375D01*
X20111D02*
X20177Y47441D01*
X20308D01*
X20374Y47375D01*
Y47113D01*
X20308Y47047D01*
X20177D01*
X20111Y47113D01*
Y47375D01*
X20505Y47441D02*
Y47178D01*
X20636Y47047D01*
X20767Y47178D01*
Y47441D01*
X20898Y47047D02*
Y47310D01*
X21030Y47441D01*
X21161Y47310D01*
Y47047D01*
Y47244D01*
X20898D01*
X21554Y47375D02*
X21489Y47441D01*
X21358D01*
X21292Y47375D01*
Y47113D01*
X21358Y47047D01*
X21489D01*
X21554Y47113D01*
D61*
X36800Y20265D02*
X38200D01*
X36800D02*
Y22845D01*
X38200D01*
Y20265D02*
Y22845D01*
D62*
X22202Y42124D02*
Y46151D01*
Y35501D02*
Y42124D01*
X15600Y46151D02*
X22202D01*
X10052D02*
X15600D01*
X10052Y40604D02*
Y46151D01*
Y35501D02*
Y40604D01*
Y35501D02*
X16625D01*
X22202D01*
Y30313D02*
Y34340D01*
Y23690D02*
Y30313D01*
X15600Y34340D02*
X22202D01*
X10052D02*
X15600D01*
X10052Y28793D02*
Y34340D01*
Y23690D02*
Y28793D01*
Y23690D02*
X16625D01*
X22202D01*
Y18502D02*
Y22529D01*
Y11879D02*
Y18502D01*
X15600Y22529D02*
X22202D01*
X10052D02*
X15600D01*
X10052Y16982D02*
Y22529D01*
Y11879D02*
Y16982D01*
Y11879D02*
X16625D01*
X22202D01*
D63*
X25604Y28904D02*
X25650Y28858D01*
X25741D01*
X25787Y28904D01*
Y29088D01*
X25741Y29134D01*
X25650D01*
X25604Y29088D01*
X25512Y28904D02*
X25466Y28858D01*
X25374D01*
X25328Y28904D01*
Y28950D01*
X25374Y28996D01*
X25328Y29042D01*
Y29088D01*
X25374Y29134D01*
X25466D01*
X25512Y29088D01*
Y29042D01*
X25466Y28996D01*
X25512Y28950D01*
Y28904D01*
X25466Y28996D02*
X25374D01*
X36122Y44567D02*
Y44337D01*
X36168Y44291D01*
X36260D01*
X36306Y44337D01*
Y44567D01*
X36581D02*
X36398D01*
Y44429D01*
X36489Y44475D01*
X36535D01*
X36581Y44429D01*
Y44337D01*
X36535Y44291D01*
X36443D01*
X36398Y44337D01*
X22570Y34176D02*
Y33946D01*
X22616Y33900D01*
X22708D01*
X22754Y33946D01*
Y34176D01*
X23029Y33900D02*
X22845D01*
X23029Y34084D01*
Y34130D01*
X22983Y34176D01*
X22891D01*
X22845Y34130D01*
X39062Y26312D02*
X39016Y26358D01*
X38924D01*
X38878Y26312D01*
Y26266D01*
X38924Y26220D01*
X39016D01*
X39062Y26175D01*
Y26129D01*
X39016Y26083D01*
X38924D01*
X38878Y26129D01*
X39337Y26083D02*
X39153D01*
X39337Y26266D01*
Y26312D01*
X39291Y26358D01*
X39199D01*
X39153Y26312D01*
X39160Y23261D02*
X39114Y23307D01*
X39022D01*
X38976Y23261D01*
Y23215D01*
X39022Y23169D01*
X39114D01*
X39160Y23123D01*
Y23077D01*
X39114Y23031D01*
X39022D01*
X38976Y23077D01*
X39252Y23031D02*
X39344D01*
X39298D01*
Y23307D01*
X39252Y23261D01*
X38484Y42126D02*
Y42401D01*
X38622D01*
X38668Y42356D01*
Y42264D01*
X38622Y42218D01*
X38484D01*
X38576D02*
X38668Y42126D01*
X38943D02*
X38760D01*
X38943Y42310D01*
Y42356D01*
X38898Y42401D01*
X38806D01*
X38760Y42356D01*
X39035Y42126D02*
X39127D01*
X39081D01*
Y42401D01*
X39035Y42356D01*
X24278Y36291D02*
Y36567D01*
X24416D01*
X24462Y36521D01*
Y36429D01*
X24416Y36383D01*
X24278D01*
X24370D02*
X24462Y36291D01*
X24738D02*
X24554D01*
X24738Y36475D01*
Y36521D01*
X24692Y36567D01*
X24600D01*
X24554Y36521D01*
X24829D02*
X24875Y36567D01*
X24967D01*
X25013Y36521D01*
Y36337D01*
X24967Y36291D01*
X24875D01*
X24829Y36337D01*
Y36521D01*
X24902Y24213D02*
Y24488D01*
X25039D01*
X25085Y24442D01*
Y24350D01*
X25039Y24304D01*
X24902D01*
X24993D02*
X25085Y24213D01*
X25177D02*
X25269D01*
X25223D01*
Y24488D01*
X25177Y24442D01*
X25407Y24259D02*
X25453Y24213D01*
X25544D01*
X25590Y24259D01*
Y24442D01*
X25544Y24488D01*
X25453D01*
X25407Y24442D01*
Y24396D01*
X25453Y24350D01*
X25590D01*
X24377Y12669D02*
Y12945D01*
X24515D01*
X24561Y12899D01*
Y12807D01*
X24515Y12761D01*
X24377D01*
X24469D02*
X24561Y12669D01*
X24652D02*
X24744D01*
X24698D01*
Y12945D01*
X24652Y12899D01*
X24882D02*
X24928Y12945D01*
X25020D01*
X25066Y12899D01*
Y12853D01*
X25020Y12807D01*
X25066Y12761D01*
Y12715D01*
X25020Y12669D01*
X24928D01*
X24882Y12715D01*
Y12761D01*
X24928Y12807D01*
X24882Y12853D01*
Y12899D01*
X24928Y12807D02*
X25020D01*
X35892Y13161D02*
Y13436D01*
X36029D01*
X36075Y13390D01*
Y13299D01*
X36029Y13253D01*
X35892D01*
X35983D02*
X36075Y13161D01*
X36167D02*
X36259D01*
X36213D01*
Y13436D01*
X36167Y13390D01*
X36397Y13436D02*
X36580D01*
Y13390D01*
X36397Y13207D01*
Y13161D01*
X35898Y14935D02*
Y15211D01*
X36036D01*
X36082Y15165D01*
Y15073D01*
X36036Y15027D01*
X35898D01*
X35990D02*
X36082Y14935D01*
X36174D02*
X36266D01*
X36220D01*
Y15211D01*
X36174Y15165D01*
X36587Y15211D02*
X36495Y15165D01*
X36404Y15073D01*
Y14981D01*
X36449Y14935D01*
X36541D01*
X36587Y14981D01*
Y15027D01*
X36541Y15073D01*
X36404D01*
X35630Y28445D02*
X35354D01*
Y28583D01*
X35400Y28629D01*
X35492D01*
X35538Y28583D01*
Y28445D01*
Y28537D02*
X35630Y28629D01*
Y28720D02*
Y28812D01*
Y28766D01*
X35354D01*
X35400Y28720D01*
X35354Y29134D02*
Y28950D01*
X35492D01*
X35446Y29042D01*
Y29088D01*
X35492Y29134D01*
X35584D01*
X35630Y29088D01*
Y28996D01*
X35584Y28950D01*
X35630Y27067D02*
X35354D01*
Y27205D01*
X35400Y27251D01*
X35492D01*
X35538Y27205D01*
Y27067D01*
Y27159D02*
X35630Y27251D01*
Y27342D02*
Y27434D01*
Y27388D01*
X35354D01*
X35400Y27342D01*
X35630Y27710D02*
X35354D01*
X35492Y27572D01*
Y27756D01*
X36024Y26083D02*
Y26358D01*
X36161D01*
X36207Y26312D01*
Y26220D01*
X36161Y26175D01*
X36024D01*
X36115D02*
X36207Y26083D01*
X36299D02*
X36391D01*
X36345D01*
Y26358D01*
X36299Y26312D01*
X36529D02*
X36575Y26358D01*
X36666D01*
X36712Y26312D01*
Y26266D01*
X36666Y26220D01*
X36621D01*
X36666D01*
X36712Y26175D01*
Y26129D01*
X36666Y26083D01*
X36575D01*
X36529Y26129D01*
X38484Y46161D02*
Y46437D01*
X38622D01*
X38668Y46391D01*
Y46299D01*
X38622Y46253D01*
X38484D01*
X38576D02*
X38668Y46161D01*
X38760D02*
X38852D01*
X38806D01*
Y46437D01*
X38760Y46391D01*
X39173Y46161D02*
X38989D01*
X39173Y46345D01*
Y46391D01*
X39127Y46437D01*
X39035D01*
X38989Y46391D01*
X38583Y43602D02*
Y43878D01*
X38720D01*
X38766Y43832D01*
Y43740D01*
X38720Y43694D01*
X38583D01*
X38675D02*
X38766Y43602D01*
X38858D02*
X38950D01*
X38904D01*
Y43878D01*
X38858Y43832D01*
X39088Y43602D02*
X39180D01*
X39134D01*
Y43878D01*
X39088Y43832D01*
X35531Y29232D02*
Y29508D01*
X35669D01*
X35715Y29462D01*
Y29370D01*
X35669Y29324D01*
X35531D01*
X35623D02*
X35715Y29232D01*
X35807D02*
X35899D01*
X35853D01*
Y29508D01*
X35807Y29462D01*
X36037D02*
X36082Y29508D01*
X36174D01*
X36220Y29462D01*
Y29278D01*
X36174Y29232D01*
X36082D01*
X36037Y29278D01*
Y29462D01*
X33661Y29232D02*
Y29508D01*
X33799D01*
X33845Y29462D01*
Y29370D01*
X33799Y29324D01*
X33661D01*
X33753D02*
X33845Y29232D01*
X33937Y29278D02*
X33983Y29232D01*
X34075D01*
X34121Y29278D01*
Y29462D01*
X34075Y29508D01*
X33983D01*
X33937Y29462D01*
Y29416D01*
X33983Y29370D01*
X34121D01*
X35531Y30709D02*
Y30984D01*
X35669D01*
X35715Y30938D01*
Y30846D01*
X35669Y30800D01*
X35531D01*
X35623D02*
X35715Y30709D01*
X35807Y30938D02*
X35853Y30984D01*
X35945D01*
X35991Y30938D01*
Y30892D01*
X35945Y30846D01*
X35991Y30800D01*
Y30755D01*
X35945Y30709D01*
X35853D01*
X35807Y30755D01*
Y30800D01*
X35853Y30846D01*
X35807Y30892D01*
Y30938D01*
X35853Y30846D02*
X35945D01*
X35531Y32185D02*
Y32461D01*
X35669D01*
X35715Y32415D01*
Y32323D01*
X35669Y32277D01*
X35531D01*
X35623D02*
X35715Y32185D01*
X35807Y32461D02*
X35991D01*
Y32415D01*
X35807Y32231D01*
Y32185D01*
X22707Y14567D02*
Y14842D01*
X22844D01*
X22890Y14797D01*
Y14705D01*
X22844Y14659D01*
X22707D01*
X22799D02*
X22890Y14567D01*
X23166Y14842D02*
X23074Y14797D01*
X22982Y14705D01*
Y14613D01*
X23028Y14567D01*
X23120D01*
X23166Y14613D01*
Y14659D01*
X23120Y14705D01*
X22982D01*
X26476Y21260D02*
Y21535D01*
X26614D01*
X26660Y21489D01*
Y21398D01*
X26614Y21352D01*
X26476D01*
X26568D02*
X26660Y21260D01*
X26936Y21535D02*
X26752D01*
Y21398D01*
X26844Y21444D01*
X26890D01*
X26936Y21398D01*
Y21306D01*
X26890Y21260D01*
X26798D01*
X26752Y21306D01*
X24262Y22372D02*
Y22647D01*
X24399D01*
X24445Y22602D01*
Y22510D01*
X24399Y22464D01*
X24262D01*
X24353D02*
X24445Y22372D01*
X24675D02*
Y22647D01*
X24537Y22510D01*
X24721D01*
X25463Y14567D02*
Y14842D01*
X25600D01*
X25646Y14797D01*
Y14705D01*
X25600Y14659D01*
X25463D01*
X25554D02*
X25646Y14567D01*
X25738Y14797D02*
X25784Y14842D01*
X25876D01*
X25922Y14797D01*
Y14751D01*
X25876Y14705D01*
X25830D01*
X25876D01*
X25922Y14659D01*
Y14613D01*
X25876Y14567D01*
X25784D01*
X25738Y14613D01*
X23593Y14567D02*
Y14842D01*
X23730D01*
X23776Y14797D01*
Y14705D01*
X23730Y14659D01*
X23593D01*
X23684D02*
X23776Y14567D01*
X24052D02*
X23868D01*
X24052Y14751D01*
Y14797D01*
X24006Y14842D01*
X23914D01*
X23868Y14797D01*
X26348Y14567D02*
Y14842D01*
X26486D01*
X26532Y14797D01*
Y14705D01*
X26486Y14659D01*
X26348D01*
X26440D02*
X26532Y14567D01*
X26624D02*
X26716D01*
X26670D01*
Y14842D01*
X26624Y14797D01*
X33845Y25440D02*
Y25623D01*
X33799Y25669D01*
X33707D01*
X33661Y25623D01*
Y25440D01*
X33707Y25394D01*
X33799D01*
X33753Y25486D02*
X33845Y25394D01*
X33799D02*
X33845Y25440D01*
X33937Y25623D02*
X33983Y25669D01*
X34075D01*
X34121Y25623D01*
Y25577D01*
X34075Y25531D01*
X34029D01*
X34075D01*
X34121Y25486D01*
Y25440D01*
X34075Y25394D01*
X33983D01*
X33937Y25440D01*
X33845Y23963D02*
Y24147D01*
X33799Y24193D01*
X33707D01*
X33661Y24147D01*
Y23963D01*
X33707Y23917D01*
X33799D01*
X33753Y24009D02*
X33845Y23917D01*
X33799D02*
X33845Y23963D01*
X34121Y23917D02*
X33937D01*
X34121Y24101D01*
Y24147D01*
X34075Y24193D01*
X33983D01*
X33937Y24147D01*
X36896Y46010D02*
Y46194D01*
X36850Y46240D01*
X36759D01*
X36713Y46194D01*
Y46010D01*
X36759Y45965D01*
X36850D01*
X36804Y46056D02*
X36896Y45965D01*
X36850D02*
X36896Y46010D01*
X36988Y45965D02*
X37080D01*
X37034D01*
Y46240D01*
X36988Y46194D01*
X22539Y34646D02*
Y34921D01*
X22723Y34646D01*
Y34921D01*
X22815Y34875D02*
X22861Y34921D01*
X22953D01*
X22999Y34875D01*
Y34829D01*
X22953Y34783D01*
X22907D01*
X22953D01*
X22999Y34738D01*
Y34692D01*
X22953Y34646D01*
X22861D01*
X22815Y34692D01*
X22736Y24508D02*
Y24783D01*
X22920Y24508D01*
Y24783D01*
X23195Y24508D02*
X23012D01*
X23195Y24692D01*
Y24737D01*
X23149Y24783D01*
X23058D01*
X23012Y24737D01*
X22514Y12930D02*
Y13205D01*
X22697Y12930D01*
Y13205D01*
X22789Y12930D02*
X22881D01*
X22835D01*
Y13205D01*
X22789Y13160D01*
X32382Y28622D02*
Y28346D01*
Y28438D01*
X32566Y28622D01*
X32428Y28484D01*
X32566Y28346D01*
X32657Y28576D02*
X32703Y28622D01*
X32795D01*
X32841Y28576D01*
Y28530D01*
X32795Y28484D01*
X32749D01*
X32795D01*
X32841Y28438D01*
Y28392D01*
X32795Y28346D01*
X32703D01*
X32657Y28392D01*
X20781Y36732D02*
X20873D01*
X20827D01*
Y36962D01*
X20873Y37008D01*
X20919D01*
X20965Y36962D01*
X20505Y36732D02*
X20597Y36778D01*
X20689Y36870D01*
Y36962D01*
X20643Y37008D01*
X20551D01*
X20505Y36962D01*
Y36916D01*
X20551Y36870D01*
X20689D01*
X20879Y24921D02*
X20971D01*
X20925D01*
Y25151D01*
X20971Y25197D01*
X21017D01*
X21063Y25151D01*
X20604Y24921D02*
X20787D01*
Y25059D01*
X20696Y25013D01*
X20650D01*
X20604Y25059D01*
Y25151D01*
X20650Y25197D01*
X20742D01*
X20787Y25151D01*
X20978Y13012D02*
X21070D01*
X21024D01*
Y13241D01*
X21070Y13287D01*
X21116D01*
X21161Y13241D01*
X20748Y13287D02*
Y13012D01*
X20886Y13150D01*
X20702D01*
X34713Y14975D02*
X34621D01*
X34667D01*
Y14745D01*
X34621Y14699D01*
X34575D01*
X34529Y14745D01*
X34989Y14699D02*
X34805D01*
X34989Y14883D01*
Y14929D01*
X34943Y14975D01*
X34851D01*
X34805Y14929D01*
X39160Y33642D02*
X39068D01*
X39114D01*
Y33412D01*
X39068Y33366D01*
X39022D01*
X38976Y33412D01*
X39252Y33366D02*
X39344D01*
X39298D01*
Y33642D01*
X39252Y33596D01*
X35039Y23799D02*
Y23524D01*
X35177D01*
X35223Y23570D01*
Y23753D01*
X35177Y23799D01*
X35039D01*
X35499D02*
X35315D01*
Y23661D01*
X35407Y23707D01*
X35453D01*
X35499Y23661D01*
Y23570D01*
X35453Y23524D01*
X35361D01*
X35315Y23570D01*
X33661Y19764D02*
Y19488D01*
X33799D01*
X33845Y19534D01*
Y19718D01*
X33799Y19764D01*
X33661D01*
X34075Y19488D02*
Y19764D01*
X33937Y19626D01*
X34121D01*
X26263Y32036D02*
Y31760D01*
X26401D01*
X26447Y31806D01*
Y31990D01*
X26401Y32036D01*
X26263D01*
X26539Y31990D02*
X26585Y32036D01*
X26676D01*
X26722Y31990D01*
Y31944D01*
X26676Y31898D01*
X26631D01*
X26676D01*
X26722Y31852D01*
Y31806D01*
X26676Y31760D01*
X26585D01*
X26539Y31806D01*
X26378Y23996D02*
Y23720D01*
X26516D01*
X26562Y23766D01*
Y23950D01*
X26516Y23996D01*
X26378D01*
X26837Y23720D02*
X26653D01*
X26837Y23904D01*
Y23950D01*
X26791Y23996D01*
X26699D01*
X26653Y23950D01*
X26673Y12480D02*
Y12205D01*
X26811D01*
X26857Y12251D01*
Y12434D01*
X26811Y12480D01*
X26673D01*
X26949Y12205D02*
X27041D01*
X26995D01*
Y12480D01*
X26949Y12434D01*
X34534Y46883D02*
X34488Y46929D01*
X34396D01*
X34350Y46883D01*
Y46699D01*
X34396Y46654D01*
X34488D01*
X34534Y46699D01*
X34810Y46929D02*
X34626D01*
Y46791D01*
X34718Y46837D01*
X34764D01*
X34810Y46791D01*
Y46699D01*
X34764Y46654D01*
X34672D01*
X34626Y46699D01*
X34534Y47867D02*
X34488Y47913D01*
X34396D01*
X34350Y47867D01*
Y47684D01*
X34396Y47638D01*
X34488D01*
X34534Y47684D01*
X34764Y47638D02*
Y47913D01*
X34626Y47776D01*
X34810D01*
X33861Y18040D02*
X33815Y18086D01*
X33723D01*
X33677Y18040D01*
Y17856D01*
X33723Y17810D01*
X33815D01*
X33861Y17856D01*
X33952Y18040D02*
X33998Y18086D01*
X34090D01*
X34136Y18040D01*
Y17994D01*
X34090Y17948D01*
X34044D01*
X34090D01*
X34136Y17902D01*
Y17856D01*
X34090Y17810D01*
X33998D01*
X33952Y17856D01*
X36699Y19619D02*
X36653Y19665D01*
X36562D01*
X36516Y19619D01*
Y19436D01*
X36562Y19390D01*
X36653D01*
X36699Y19436D01*
X36975Y19390D02*
X36791D01*
X36975Y19573D01*
Y19619D01*
X36929Y19665D01*
X36837D01*
X36791Y19619D01*
X36798Y17257D02*
X36752Y17303D01*
X36660D01*
X36614Y17257D01*
Y17073D01*
X36660Y17028D01*
X36752D01*
X36798Y17073D01*
X36890Y17028D02*
X36982D01*
X36936D01*
Y17303D01*
X36890Y17257D01*
X22343Y21063D02*
Y21247D01*
X22434Y21338D01*
X22526Y21247D01*
Y21063D01*
Y21201D01*
X22343D01*
X22802Y21293D02*
X22756Y21338D01*
X22664D01*
X22618Y21293D01*
Y21109D01*
X22664Y21063D01*
X22756D01*
X22802Y21109D01*
X23077Y21293D02*
X23031Y21338D01*
X22939D01*
X22894Y21293D01*
Y21247D01*
X22939Y21201D01*
X23031D01*
X23077Y21155D01*
Y21109D01*
X23031Y21063D01*
X22939D01*
X22894Y21109D01*
X23169Y21338D02*
X23353D01*
Y21293D01*
X23169Y21109D01*
Y21063D01*
X23445D02*
X23536D01*
X23490D01*
Y21338D01*
X23445Y21293D01*
X23674D02*
X23720Y21338D01*
X23812D01*
X23858Y21293D01*
Y21109D01*
X23812Y21063D01*
X23720D01*
X23674Y21109D01*
Y21293D01*
X23950Y21017D02*
X24133D01*
X24225Y21063D02*
Y21338D01*
X24363D01*
X24409Y21293D01*
Y21201D01*
X24363Y21155D01*
X24225D01*
X24317D02*
X24409Y21063D01*
X24501Y21017D02*
X24684D01*
X24960Y21293D02*
X24914Y21338D01*
X24822D01*
X24776Y21293D01*
Y21247D01*
X24822Y21201D01*
X24914D01*
X24960Y21155D01*
Y21109D01*
X24914Y21063D01*
X24822D01*
X24776Y21109D01*
X25189Y21063D02*
X25098D01*
X25052Y21109D01*
Y21201D01*
X25098Y21247D01*
X25189D01*
X25235Y21201D01*
Y21155D01*
X25052D01*
X25327Y21063D02*
Y21247D01*
X25465D01*
X25511Y21201D01*
Y21063D01*
X25603D02*
X25740D01*
X25786Y21109D01*
X25740Y21155D01*
X25649D01*
X25603Y21201D01*
X25649Y21247D01*
X25786D01*
X26016Y21063D02*
X25924D01*
X25878Y21109D01*
Y21201D01*
X25924Y21247D01*
X26016D01*
X26062Y21201D01*
Y21155D01*
X25878D01*
X38077Y13366D02*
X37894D01*
Y13228D01*
X37986Y13274D01*
X38031D01*
X38077Y13228D01*
Y13136D01*
X38031Y13091D01*
X37940D01*
X37894Y13136D01*
X38169Y13366D02*
Y13182D01*
X38261Y13091D01*
X38353Y13182D01*
Y13366D01*
X37894Y15190D02*
X37940Y15236D01*
X38031D01*
X38077Y15190D01*
Y15144D01*
X38031Y15098D01*
X37986D01*
X38031D01*
X38077Y15052D01*
Y15007D01*
X38031Y14961D01*
X37940D01*
X37894Y15007D01*
X38169Y14915D02*
X38353D01*
X38445Y15190D02*
X38491Y15236D01*
X38582D01*
X38628Y15190D01*
Y15144D01*
X38582Y15098D01*
X38537D01*
X38582D01*
X38628Y15052D01*
Y15007D01*
X38582Y14961D01*
X38491D01*
X38445Y15007D01*
X38720Y15236D02*
Y15052D01*
X38812Y14961D01*
X38904Y15052D01*
Y15236D01*
X33661Y14744D02*
Y14468D01*
Y14560D01*
X33845Y14744D01*
X33707Y14606D01*
X33845Y14468D01*
X33937D02*
X34029D01*
X33983D01*
Y14744D01*
X33937Y14698D01*
X35728Y18681D02*
Y18406D01*
Y18497D01*
X35912Y18681D01*
X35774Y18543D01*
X35912Y18406D01*
X36188D02*
X36004D01*
X36188Y18589D01*
Y18635D01*
X36142Y18681D01*
X36050D01*
X36004Y18635D01*
X28445Y37500D02*
X28720D01*
X28629Y37408D01*
X28720Y37316D01*
X28445D01*
Y37225D02*
Y37133D01*
Y37179D01*
X28720D01*
X28674Y37225D01*
X35925Y23209D02*
Y22979D01*
X35971Y22933D01*
X36063D01*
X36109Y22979D01*
Y23209D01*
X36201Y22933D02*
X36293D01*
X36247D01*
Y23209D01*
X36201Y23163D01*
X25591Y30000D02*
Y29770D01*
X25636Y29724D01*
X25728D01*
X25774Y29770D01*
Y30000D01*
X25866Y29954D02*
X25912Y30000D01*
X26004D01*
X26050Y29954D01*
Y29908D01*
X26004Y29862D01*
X25958D01*
X26004D01*
X26050Y29816D01*
Y29770D01*
X26004Y29724D01*
X25912D01*
X25866Y29770D01*
X24508Y15433D02*
Y15203D01*
X24554Y15157D01*
X24646D01*
X24692Y15203D01*
Y15433D01*
X24921Y15157D02*
Y15433D01*
X24783Y15295D01*
X24967D01*
X33661Y32185D02*
Y32461D01*
X33799D01*
X33845Y32415D01*
Y32323D01*
X33799Y32277D01*
X33661D01*
X33753D02*
X33845Y32185D01*
X34121D02*
X33937D01*
X34121Y32369D01*
Y32415D01*
X34075Y32461D01*
X33983D01*
X33937Y32415D01*
X34396Y32185D02*
X34212D01*
X34396Y32369D01*
Y32415D01*
X34350Y32461D01*
X34258D01*
X34212Y32415D01*
X33661Y30709D02*
Y30984D01*
X33799D01*
X33845Y30938D01*
Y30846D01*
X33799Y30800D01*
X33661D01*
X33753D02*
X33845Y30709D01*
X34121D02*
X33937D01*
X34121Y30892D01*
Y30938D01*
X34075Y30984D01*
X33983D01*
X33937Y30938D01*
X34212D02*
X34258Y30984D01*
X34350D01*
X34396Y30938D01*
Y30892D01*
X34350Y30846D01*
X34304D01*
X34350D01*
X34396Y30800D01*
Y30755D01*
X34350Y30709D01*
X34258D01*
X34212Y30755D01*
X29154Y43195D02*
Y43104D01*
Y43150D01*
X29383D01*
X29429Y43104D01*
Y43058D01*
X29383Y43012D01*
X29200Y43287D02*
X29154Y43333D01*
Y43425D01*
X29200Y43471D01*
X29245D01*
X29291Y43425D01*
Y43379D01*
Y43425D01*
X29337Y43471D01*
X29383D01*
X29429Y43425D01*
Y43333D01*
X29383Y43287D01*
M02*
