M48
;Layer_Color=6321
;FILE_FORMAT=2:4
INCH,LZ
;TYPE=PLATED
T1F00S00C0.0118
T2F00S00C0.0122
T3F00S00C0.0157
T4F00S00C0.0280
T5F00S00C0.0300
T6F00S00C0.0362
T7F00S00C0.0394
T9F00S00C0.0433
T10F00S00C0.0500
T11F00S00C0.0787
T12F00S00C0.0900
T13F00S00C0.0906
T14F00S00C0.1024
T15F00S00C0.1181
T16F00S00C0.1969
;TYPE=NON_PLATED
%
T01
X035394Y042579
Y043012
Y043445
X035827
Y043012
X03626
Y043445
Y042579
X035827
T02
X017323Y013878
X025642
X025886Y013189
X025581Y011132
X0242Y01544
X02766
X03185Y02149
X03397Y02344
X03372Y02426
X03452Y02531
X03444Y02667
X035433Y02692
X03539Y027362
X03457Y02968
X035531Y023327
X036516Y02313
X037129Y023031
X03878
X028543Y022736
X028839Y022047
X02612Y02274
X02522Y02278
X025098Y024705
X02547Y025637
X025689Y029429
Y031004
X025984Y031102
X027461
X028839Y031201
X02694Y01969
X02595Y019386
X02612Y02051
X024586Y02075
X02323Y02149
X025552Y017868
X026378Y033268
X02687Y033366
X026969Y033957
X025492Y034646
X02292Y03355
X03022Y03582
X03053Y03579
X03084Y03576
X03049Y03661
X028642Y039862
X032778Y039467
X033364
X03227Y035419
X03456Y03484
X035314Y03518
X03567Y03262
X035814Y03236
X03466Y03263
X03366Y03372
X03234Y03152
X035039Y04439
X035417Y044374
Y046342
X035236Y047146
T03
X021555Y018209
Y019094
X03061Y034843
X03435Y035039
X035335Y041634
X037205Y042815
X038189Y042323
X037008Y044488
X036122Y044783
X035728Y045374
X037303Y046063
Y046457
T04
X021752Y03061
Y033071
T05
X022819Y012008
X023819
X037992Y012402
X038992
Y014173
X037992
X037591Y016339
X038591
Y018701
X037591
X035736Y016437
X034736
X023819Y023819
X022819
X02272Y03563
X02372
T06
X030906Y042281
Y043069
X03189
Y042281
T07
X036712Y02472
X038682Y024705
Y027756
X036712Y027772
T09
X035039Y011909
Y012909
Y013909
T10
X027955Y011583
X030315Y010788
X032675Y011583
Y016378
Y019457
Y024252
Y027331
X030315Y026536
X027955Y027331
Y024252
Y019457
Y016378
X030315Y018662
X027955Y032126
X032675
T11
X01624Y047244
X018701
X01378
T12
X033364Y037967
T13
X029028Y044136
X033768
T14
X038287Y030413
Y032382
T15
X010827Y011024
X038681
Y047244
X010827
T16
X018602Y016929
X016102Y019803
X018602Y02874
X013602
Y016929
Y040551
X018602
X016102Y043425
Y031614
M30
